<?xml version="1.0" standalone="no"?>
<!DOCTYPE svg PUBLIC "-//W3C//DTD SVG 1.1//EN" "http://www.w3.org/Graphics/SVG/1.1/DTD/svg11.dtd" >
<svg xmlns="http://www.w3.org/2000/svg">
<metadata>
This is a custom SVG webfont generated by Font Squirrel.
Copyright   :  Copyright SoftMaker Software GmbH and its licensors
Designer    : SoftMaker Software GmbH
Foundry     : SoftMaker Software GmbH
Foundry URL : httpwwwsoftmakerde
</metadata>
<defs>
<font id="Ancona-CdRegular" horiz-adv-x="765" >
<font-face units-per-em="2048" ascent="1638" descent="-410" />
<missing-glyph horiz-adv-x="385" />
<glyph unicode=" "  horiz-adv-x="385" />
<glyph unicode="&#x09;" horiz-adv-x="385" />
<glyph unicode="&#xa0;" horiz-adv-x="385" />
<glyph unicode="!" horiz-adv-x="409" d="M125 0v266h162v-266h-162zM125 852v541h162v-531l-41 -418h-80z" />
<glyph unicode="&#x22;" horiz-adv-x="618" d="M98 1393h172l-26 -502h-121zM352 1393h172l-24 -502h-121z" />
<glyph unicode="#" d="M45 393l23 113h79l66 360h-90l22 111h86l74 416h109l-74 -416h188l72 416h115l-74 -416h82l-18 -111h-84l-64 -360h90l-18 -113h-92l-70 -393h-111l70 393h-186l-68 -393h-111l68 393h-84zM258 506h186l66 360h-188z" />
<glyph unicode="$" d="M104 1092q0 217 215 260v112h87v-112q127 -23 176 -87.5t49 -205.5v-101h-160v101q0 154 -100 153q-100 0 -101 -108q0 -117 119 -268l82 -105q190 -246 191 -432q0 -147 -70 -227q-55 -63 -186 -92v-142h-87v142q-127 37 -170 109.5t-43 244.5v149h162v-149 q0 -213 113 -213t113 164q0 141 -88 245l-87 103q-215 258 -215 459z" />
<glyph unicode="%" horiz-adv-x="1103" d="M57 844v352q0 111 29 150q39 53 131 53q102 0 137 -62q25 -41 25 -143v-346q0 -104 -25 -143q-35 -63 -137 -64q-123 0 -149 92q-11 33 -11 111zM162 850q0 -104 24 -117q10 -4 31 -4q45 0 55 41q2 16 2 80v342q0 102 -26 117q-10 4 -31 4q-43 0 -51 -43q-4 -12 -4 -78 v-342zM199 0l628 1393h72l-629 -1393h-71zM725 197v350q0 111 29 151q41 53 131 54q102 0 139 -62q23 -41 23 -145v-346q0 -104 -23 -144q-37 -63 -139 -63q-123 0 -150 94q-10 31 -10 111zM829 201q0 -104 25 -117q10 -4 31 -4q45 0 55 41q2 14 2 80v342q0 104 -24 116 q-10 4 -33 5q-43 0 -54 -41q-2 -14 -2 -80v-342z" />
<glyph unicode="&#x26;" horiz-adv-x="897" d="M80 369q0 195 170 397q-66 135 -66 299q0 154 75 249t196 95q102 0 164.5 -66.5t62.5 -179.5q0 -143 -117 -289l-114 -137q16 -49 141 -313l14 -31q41 106 60 314h155q0 -221 -106 -469q59 -59 157 -93v-168q-145 12 -256 117q-90 -102 -229 -102q-135 0 -221 105.5 t-86 271.5zM244 379q0 -92 43 -155.5t108 -63.5q59 0 109 61q-10 25 -17 35l-73 139q-41 78 -88 203q-82 -108 -82 -219zM348 1100q0 -82 33 -199q84 106 112.5 160.5t28.5 112.5q0 94 -73 94q-101 0 -101 -168z" />
<glyph unicode="'" horiz-adv-x="364" d="M98 1393h172l-26 -502h-121z" />
<glyph unicode="(" horiz-adv-x="589" d="M90 563q0 309 106.5 542.5t305.5 356.5l47 -59q-131 -121 -178 -250q-90 -238 -90 -590t90 -588q49 -129 178 -251l-47 -58q-199 127 -305.5 358.5t-106.5 538.5z" />
<glyph unicode=")" horiz-adv-x="589" d="M41 -276q133 125 180 251q90 240 90 588q0 350 -90 590q-47 127 -180 250l49 59q199 -127 305.5 -359.5t106.5 -539.5q0 -309 -106.5 -541.5t-305.5 -355.5z" />
<glyph unicode="*" d="M84 1139l43 135l184 -60v191h144v-191l184 60l45 -135l-184 -62l112 -155l-114 -84l-113 157l-115 -157l-116 84l114 155z" />
<glyph unicode="+" d="M70 606v139h243v242h142v-242h241v-139h-241v-246h-142v246h-243z" />
<glyph unicode="," horiz-adv-x="354" d="M98 0v250h160v-211q0 -137 -57 -221q-45 -61 -103 -76v43q72 37 76 149l-2 9l-4 57h-70z" />
<glyph unicode="-" horiz-adv-x="260" d="M0 453v165h262v-165h-262z" />
<glyph unicode="." horiz-adv-x="354" d="M98 0v250h160v-250h-160z" />
<glyph unicode="/" horiz-adv-x="753" d="M27 -334l462 1727h152l-461 -1727h-153z" />
<glyph unicode="0" d="M98 360v646q0 199 52 272q70 100 235 100q180 0 244 -112q39 -74 39 -267v-634q0 -193 -39 -267q-63 -113 -244 -112q-166 0 -235 100q-52 75 -52 274zM268 371q0 -156 19 -191q27 -53 98 -53q72 0 100 57q14 31 15 187v626q0 154 -19 189q-29 51 -96 51q-78 0 -102 -57 q-14 -33 -15 -183v-626z" />
<glyph unicode="1" d="M166 1016v139q72 0 131 55.5t76 141.5h114v-1352h-170v1016h-151z" />
<glyph unicode="2" d="M92 0v23q0 160 53 286q37 82 164 271l68 96q59 88 74 129q23 51 22 139v123q0 90 -23.5 127t-80.5 37q-55 0 -81 -32t-26 -126v-176h-170v172q0 168 49 223q72 80 238 80q174 0 235 -106q33 -57 33 -197v-125q0 -104 -25.5 -174t-109.5 -190l-82 -121 q-139 -207 -151 -297h368v-162h-555z" />
<glyph unicode="3" d="M94 242v178h170v-154q0 -139 101 -139q111 0 110 139v262q0 80 -39 114t-131 34h-78v166h56q168 0 168 137v147q0 59 -11 82q-18 37 -82 37q-53 0 -73.5 -29.5t-20.5 -103.5v-61h-170v82q0 246 271 245q129 0 198 -61q57 -51 58 -170v-139q0 -111 -26 -154t-101 -72 q90 -25 119.5 -79t29.5 -187v-223q0 -180 -57 -238q-70 -70 -215 -69q-139 0 -215 63q-62 56 -62 193z" />
<glyph unicode="4" d="M43 289v147l297 916h256v-916h98v-147h-98v-289h-170v289h-383zM217 436h221v719z" />
<glyph unicode="5" d="M109 264v170h170v-186q0 -121 100 -121q68 0 94 47q14 27 14 109v409q0 82 -16 111q-27 39 -90 39q-104 0 -111 -113l-2 -37h-159v660h507v-162h-337v-252q90 53 161 53q141 0 189 -92q27 -55 26 -190v-414q0 -94 -6 -127q-10 -70 -51 -111q-72 -72 -205 -71 q-145 0 -219 67q-65 57 -65 211z" />
<glyph unicode="6" d="M113 307v715q0 137 9 183t46 87q72 86 225 86q180 0 246 -121q29 -51 29 -176v-127h-168v127q0 150 -113 150q-104 0 -104 -150v-336q78 74 168 74q133 0 184 -94q33 -59 33 -176v-273q0 -162 -73 -226t-208 -64q-150 0 -221 86q-53 59 -53 235zM276 287q0 -92 23 -126 t84 -34t85 34t24 126v223q0 92 -24 126t-85 34t-84 -34t-23 -126v-223z" />
<glyph unicode="7" d="M109 1190v162h522v-162q-98 -225 -154 -473q-86 -383 -86 -690q0 -6 2 -27h-203q35 715 285 1190h-366z" />
<glyph unicode="8" d="M100 299v158q0 125 31 177t113 79q-92 39 -117 112q-14 41 -14 166v96q0 291 270 291q268 0 268 -291v-96q0 -125 -14 -166q-25 -74 -117 -112q84 -27 114 -79t30 -177v-158q0 -166 -58 -227q-80 -86 -223 -86q-145 0 -223 86q-60 61 -60 227zM270 258q0 -74 23.5 -102.5 t89.5 -28.5q61 0 87 29.5t26 101.5v244q0 72 -26 101.5t-87 29.5q-66 0 -89.5 -27.5t-23.5 -103.5v-244zM283 909q0 -123 100 -123t100 123v211q0 125 -100 125t-100 -125v-211z" />
<glyph unicode="9" d="M98 283v127h170v-127q0 -150 113 -150q104 0 104 150v335q-80 -74 -170 -73q-129 0 -184 94q-33 59 -33 176v275q0 160 74 224t209 64q129 0 207 -71q66 -66 65 -250v-715q0 -137 -9 -183t-44 -87q-74 -86 -225 -86q-201 0 -258 141q-19 47 -19 156zM276 854 q0 -92 23 -126t84 -34t85 34t24 126v225q0 90 -24 124t-83 34q-63 0 -86 -34t-23 -124v-225z" />
<glyph unicode=":" horiz-adv-x="354" d="M98 0v250h160v-250h-160zM98 809v250h160v-250h-160z" />
<glyph unicode=";" horiz-adv-x="356" d="M98 0v250h164v-211q0 -141 -59 -221q-47 -61 -105 -76v43q70 45 70 158v57h-70zM98 809v250h164v-250h-164z" />
<glyph unicode="&#x3c;" horiz-adv-x="1044" d="M70 635v137l903 426v-158l-733 -335l733 -336v-160z" />
<glyph unicode="=" d="M70 465v141h626v-141h-626zM70 743v140h626v-140h-626z" />
<glyph unicode="&#x3e;" horiz-adv-x="1044" d="M72 207v162l733 336l-733 335v158l903 -426v-139z" />
<glyph unicode="?" horiz-adv-x="649" d="M63 1008v98q0 145 50 215q63 86 198 86q119 0 190.5 -79t71.5 -210q0 -145 -92 -319l-51 -94q-45 -86 -56.5 -125t-19.5 -142h-141q0 102 12.5 160.5t57.5 151.5l57 124q63 135 63 248q0 137 -94 138q-96 0 -96 -177v-75h-150zM213 0v266h149v-266h-149z" />
<glyph unicode="@" d="M63 338v727q0 168 83 259t239 91q150 0 235 -90t85 -250v-704h-109l-18 55q-57 -78 -129 -78q-135 0 -136 174v393q0 190 146 191q57 0 102 -55v47q0 84 -49 136t-127 52q-121 0 -166 -110q-16 -43 -16 -142v-649q0 -127 33 -184q53 -94 157 -95q96 0 168 93l86 -97 q-96 -123 -254 -122q-150 0 -233 86q-97 96 -97 272zM457 565q0 -78 53 -78q51 0 51 78v316q0 80 -51 80q-53 0 -53 -80v-316z" />
<glyph unicode="A" horiz-adv-x="692" d="M27 0l192 1393h221l224 -1393h-181l-43 262h-202l-33 -262h-178zM258 434h160l-74 604q-4 41 -10 115q-4 -55 -10 -111l-17 -143z" />
<glyph unicode="B" horiz-adv-x="735" d="M94 0v1393h324q141 0 185 -54.5t44 -228.5v-145q0 -113 -14 -148q-27 -59 -121 -82q86 -16 110.5 -53t24.5 -170v-244q0 -164 -53 -216t-217 -52h-283zM283 174h106q57 0 70 41q6 16 6 92v215q0 115 -33 127q-14 6 -43 6h-106v-481zM283 813h106q57 0 70 41q6 16 6 92 v139q0 115 -33 129q-14 6 -43 7h-106v-408z" />
<glyph unicode="C" horiz-adv-x="751" d="M80 414v565q0 125 6 166q10 92 53 153q80 117 240 117q154 0 237 -117q43 -61 56 -151q8 -45 8 -168v-86h-191v184q0 96 -25.5 136t-84.5 40q-61 0 -86 -39.5t-25 -136.5v-762q0 -96 24.5 -136t86.5 -40q59 0 84.5 40t25.5 136v271h191v-172q0 -123 -8 -166 q-10 -92 -56 -154q-82 -115 -237 -114q-160 0 -240 114q-43 61 -55 154q-4 41 -4 166z" />
<glyph unicode="D" horiz-adv-x="731" d="M94 0v1393h328q133 0 181 -49.5t48 -188.5v-917q0 -137 -48 -187.5t-181 -50.5h-328zM283 174h90q59 0 76 31q14 23 14 90v805q0 66 -14 88q-16 33 -76 33h-90v-1047z" />
<glyph unicode="E" horiz-adv-x="606" d="M94 0v1393h459v-172h-270v-408h241v-174h-241v-465h270v-174h-459z" />
<glyph unicode="F" horiz-adv-x="610" d="M94 0v1393h479v-172h-290v-408h264v-174h-264v-639h-189z" />
<glyph unicode="G" horiz-adv-x="708" d="M80 371v649q0 201 57 287q74 109 223 108q164 0 222 -112q31 -61 30 -220v-125h-172v162q0 133 -82 133q-51 0 -70.5 -36.5t-19.5 -133.5v-721q0 -152 21.5 -187.5t66.5 -35.5q84 0 84 140v294h-78v175h267v-748h-107l-18 57q-80 -78 -172 -77q-141 0 -207 114 q-45 82 -45 277z" />
<glyph unicode="H" horiz-adv-x="722" d="M94 0v1393h189v-562h159v562h189v-1393h-189v657h-159v-657h-189z" />
<glyph unicode="I" horiz-adv-x="376" d="M94 0v1393h189v-1393h-189z" />
<glyph unicode="J" horiz-adv-x="589" d="M14 0v166q104 -27 181 -27q68 0 93 35t25 129v1090h189v-1069q0 -193 -71 -268.5t-228 -75.5q-117 0 -189 20z" />
<glyph unicode="K" horiz-adv-x="718" d="M94 0v1393h189v-621l194 621h182l-223 -691l271 -702h-183l-241 631v-631h-189z" />
<glyph unicode="L" horiz-adv-x="602" d="M94 0v1393h189v-1219h299v-174h-488z" />
<glyph unicode="M" horiz-adv-x="1003" d="M94 0v1393h258l127 -746q16 -104 25 -254q14 172 26 258l107 742h272v-1393h-172v883q0 2 2 139l2 135l-28 -192l-25 -185l-108 -780h-152l-154 1077l-12 80q4 -106 4 -264v-893h-172z" />
<glyph unicode="N" horiz-adv-x="770" d="M94 0v1393h195l203 -848q8 -33 16 -80l14 -76q4 -14 10 -49l-4 80l-12 174q-2 33 -4 106l-16 693h180v-1393h-205l-240 1077q2 -37 7 -90l8 -129q4 -49 4 -88l20 -770h-176z" />
<glyph unicode="O" horiz-adv-x="757" d="M80 414v565q0 125 6 166q10 92 53 153q80 117 240 117q156 0 237 -117q45 -63 56 -151q8 -43 8 -168v-565q0 -123 -8 -168q-10 -86 -56 -152q-80 -115 -237 -114q-160 0 -240 114q-43 61 -53 154q-6 43 -6 166zM268 315q0 -96 24.5 -136t86.5 -40q61 0 87 39t26 137v762 q0 98 -26 137t-87 39t-86 -39.5t-25 -136.5v-762z" />
<glyph unicode="P" horiz-adv-x="692" d="M94 0v1393h344q76 0 101 -7q53 -12 80.5 -58t27.5 -191v-265q0 -156 -43 -200.5t-172 -44.5h-149v-627h-189zM283 801h110q43 0 58 20q8 14 8 60v258q0 55 -14.5 68.5t-51.5 13.5h-110v-420z" />
<glyph unicode="Q" horiz-adv-x="757" d="M80 414v565q0 125 4 166q12 92 55 153q80 117 240 117q156 0 237 -117q45 -63 56 -151q8 -43 8 -168v-565q0 -197 -31 -264q-51 -121 -178 -156q2 -51 18.5 -74.5t100.5 -23.5h43v-146h-51q-152 0 -211.5 51.5t-65.5 186.5q-80 20 -129 67q-68 61 -86 156q-10 51 -10 203 zM268 315q0 -176 113 -176q59 0 85 40t26 136v762q0 96 -26 136t-85 40q-113 0 -113 -176v-762z" />
<glyph unicode="R" horiz-adv-x="733" d="M94 0v1393h312q129 0 176 -39q66 -57 65 -281v-102q0 -141 -28.5 -194.5t-112.5 -67.5q80 -23 104 -68q37 -68 37 -225v-174q0 -141 37 -242h-195q-31 100 -30 270v125q0 133 -20.5 188.5t-73.5 55.5h-82v-639h-189zM283 797h110q49 0 62 51q4 16 4 94v131q0 78 -4 94 q-12 53 -62 54h-110v-424z" />
<glyph unicode="S" horiz-adv-x="643" d="M55 319v191h170v-215q0 -92 20.5 -129t67.5 -37q90 0 90 147q0 98 -28.5 175t-106.5 188l-57 80q-145 207 -145 385q0 311 278 311q147 0 203 -96q33 -53 33 -197v-192h-172v233q0 100 -74 101q-86 0 -86 -119q0 -150 117 -324l86 -127q141 -209 141 -391 q0 -152 -73 -237.5t-197 -85.5q-168 0 -230 122q-37 74 -37 217z" />
<glyph unicode="T" horiz-adv-x="636" d="M6 1221v172h623v-172h-217v-1221h-189v1221h-217z" />
<glyph unicode="U" horiz-adv-x="774" d="M88 414v979h188v-1078q0 -96 25 -136t86 -40t87 39t26 137v1078h188v-979q0 -123 -6 -168q-12 -86 -57 -152q-80 -115 -238 -114q-160 0 -240 114q-43 61 -53 154q-6 43 -6 166z" />
<glyph unicode="V" horiz-adv-x="698" d="M27 1393h184l119 -895q8 -70 22 -242l27 240l110 897h181l-211 -1393h-215z" />
<glyph unicode="W" horiz-adv-x="974" d="M25 1393h184l82 -861q2 -23 16 -256l12 256l78 861h168l103 -889l22 -228l4 105q4 100 8 151l64 861h184l-147 -1393h-213l-84 745q-8 80 -21 244l-12 -244l-63 -745h-213z" />
<glyph unicode="X" horiz-adv-x="694" d="M27 0l211 721l-211 672h182l98 -308q20 -68 35 -149q6 68 31 149l82 308h184l-197 -672l226 -721h-187l-98 317q-12 37 -43 172q-8 -72 -37 -172l-94 -317h-182z" />
<glyph unicode="Y" horiz-adv-x="626" d="M-6 1393h190l78 -318q31 -131 49 -241q16 115 51 241l89 318h184l-234 -824v-569h-188v569z" />
<glyph unicode="Z" horiz-adv-x="610" d="M43 0v125l319 1096h-247v172h448v-121l-321 -1098h299v-174h-498z" />
<glyph unicode="[" horiz-adv-x="589" d="M111 -334v1727h417v-105h-262v-1517h262v-105h-417z" />
<glyph unicode="\" horiz-adv-x="753" d="M111 1393h153l461 -1727h-152z" />
<glyph unicode="]" horiz-adv-x="589" d="M63 -229h263v1517h-263v105h418v-1727h-418v105z" />
<glyph unicode="^" horiz-adv-x="1044" d="M49 758l369 639h211l366 -639h-174l-299 512l-299 -512h-174z" />
<glyph unicode="_" horiz-adv-x="1044" d="M0 -133h1044v-148h-1044v148z" />
<glyph unicode="`" horiz-adv-x="1044" d="M289 1458h184l117 -241h-96z" />
<glyph unicode="a" horiz-adv-x="618" d="M66 213v131q0 90 21.5 135t94.5 90l125 80q49 33 60.5 48.5t11.5 58.5v114q0 82 -70 82q-45 0 -69 -28q-14 -18 -15 -84v-113h-159v129q0 109 49 162q66 68 186 67q147 0 209 -96q29 -45 29 -149v-668q0 -92 30 -172h-170l-22 86q-63 -100 -158 -100q-102 0 -135 77 q-18 44 -18 150zM225 223q0 -102 66 -102q35 0 61.5 41t26.5 100v264l-100 -73q-37 -27 -48 -60q-6 -20 -6 -76v-94z" />
<glyph unicode="b" horiz-adv-x="622" d="M82 0v1393h160v-396q59 88 151 88q106 0 144 -84q18 -45 18 -184v-567q0 -117 -31 -172q-51 -92 -164 -92q-106 0 -151 108q-18 -47 -33 -94h-94zM242 264q0 -68 8 -92q18 -45 69 -45q53 0 68 45q8 25 8 92v545q0 66 -8 92q-14 43 -68 43q-51 0 -69 -43q-8 -27 -8 -92 v-545z" />
<glyph unicode="c" horiz-adv-x="602" d="M72 272v529q0 164 47 217q63 68 190 67q127 0 189 -67q47 -55 47 -217v-115h-160v129q0 68 -8 94q-18 43 -70 43q-53 0 -67 -45q-8 -27 -9 -92v-559q0 -76 17.5 -105.5t60.5 -29.5q51 0 68 45q8 25 8 90v170h160v-154q0 -164 -47 -217q-61 -70 -189 -69q-127 0 -190 69 q-47 51 -47 217z" />
<glyph unicode="d" horiz-adv-x="622" d="M72 217v612q0 127 24 177q41 80 142 79q76 0 147 -88v396h160v-1393h-160v76q-53 -90 -143 -90q-94 0 -142 69q-28 41 -28 162zM231 264q0 -68 9 -92q14 -45 67 -45q51 0 70 45q8 25 8 92v545q0 66 -8 92q-16 43 -68 43q-53 0 -69 -43q-8 -27 -9 -92v-545z" />
<glyph unicode="e" horiz-adv-x="614" d="M72 274v527q0 164 47 217q63 68 190 67q127 0 189 -67q47 -55 47 -217v-301h-314v-248q0 -66 9 -88q16 -43 69 -43q51 0 68 43q8 25 8 88v147h160v-125q0 -168 -47 -219q-63 -70 -191 -69q-125 0 -188 69q-47 51 -47 219zM231 631h154v184q0 66 -8 92q-16 43 -68 43 q-53 0 -69 -43q-8 -27 -9 -92v-184z" />
<glyph unicode="f" horiz-adv-x="360" d="M14 932v139h90v156q0 68 5 92q10 49 47 70q31 16 141 16h57v-139h-30q-57 0 -58 -68v-127h88v-139h-88v-932h-162v932h-90z" />
<glyph unicode="g" horiz-adv-x="622" d="M72 -115h159q2 -84 74 -84q80 0 80 84v178q-57 -78 -154 -77q-90 0 -133 73q-27 45 -26 174v605q0 121 24 172q39 76 137 75q84 0 152 -88v74h160v-1149q0 -131 -58 -190q-68 -66 -178 -66q-88 0 -152.5 42t-78.5 110q-6 18 -6 67zM231 264q0 -68 9 -92q14 -45 67 -45 q51 0 70 45q8 25 8 92v545q0 66 -8 92q-16 43 -68 43q-53 0 -69 -43q-8 -27 -9 -92v-545z" />
<glyph unicode="h" horiz-adv-x="634" d="M82 0v1393h160v-392q72 84 155 84q100 0 138 -84q20 -49 20 -161v-840h-160v809q0 66 -8 92q-16 43 -70 43q-51 0 -67 -43q-8 -27 -8 -92v-809h-160z" />
<glyph unicode="i" horiz-adv-x="321" d="M82 0v1071h160v-1071h-160zM82 1171v222h160v-222h-160z" />
<glyph unicode="j" horiz-adv-x="321" d="M-43 -193q29 -2 45 -2q57 0 68.5 26t11.5 153v1087h160v-1087q0 -121 -6 -156q-14 -92 -70 -131q-49 -31 -178 -31h-31v141zM82 1124v222h160v-222h-160z" />
<glyph unicode="k" horiz-adv-x="585" d="M82 0v1393h160v-750l159 428h168l-182 -409l182 -662h-168l-125 481l-34 -75v-406h-160z" />
<glyph unicode="l" horiz-adv-x="321" d="M82 0v1393h160v-1393h-160z" />
<glyph unicode="m" horiz-adv-x="948" d="M82 0v1071h160v-70q66 84 149 84q98 0 148 -104q66 104 170 104q92 0 131 -65q29 -49 28 -215v-805h-159v809q0 66 -9 92q-16 43 -69 43q-51 0 -68 -43q-8 -27 -8 -92v-809h-160v809q0 66 -8 92q-16 43 -70 43q-51 0 -67 -43q-8 -27 -8 -92v-809h-160z" />
<glyph unicode="n" horiz-adv-x="634" d="M82 0v1071h160v-70q70 84 155 84q100 0 138 -84q20 -49 20 -161v-840h-160v809q0 66 -8 92q-16 43 -70 43q-51 0 -67 -43q-8 -27 -8 -92v-809h-160z" />
<glyph unicode="o" horiz-adv-x="614" d="M72 274v557q0 254 241 254q129 0 189 -75q43 -59 43 -197v-539q0 -168 -47 -219q-63 -70 -189 -69q-129 0 -190 69q-47 53 -47 219zM231 256q0 -66 9 -90q14 -45 67 -45q51 0 70 45q8 25 8 90v559q0 66 -8 92q-16 43 -68 43q-53 0 -69 -43q-8 -27 -9 -92v-559z" />
<glyph unicode="p" horiz-adv-x="622" d="M82 -334v1405h160v-74q53 88 145 88t139 -67q29 -43 29 -164v-612q0 -127 -25 -174q-41 -82 -141 -82q-76 0 -147 90v-410h-160zM242 264q0 -68 8 -92q18 -45 69 -45q53 0 68 47q8 25 8 92v543q0 66 -8 92q-14 43 -68 43q-51 0 -69 -43q-8 -27 -8 -92v-545z" />
<glyph unicode="q" horiz-adv-x="622" d="M72 254v567q0 119 28 174q49 90 164 90q106 0 154 -106q18 45 33 92h94v-1405h-160v410q-59 -90 -154 -90q-104 0 -143 86q-16 37 -16 182zM231 264q0 -76 9 -96q16 -41 67 -41t70 45q8 25 8 94v543q0 66 -8 92q-18 43 -70 43q-51 0 -67 -39q-8 -23 -9 -98v-543z" />
<glyph unicode="r" horiz-adv-x="456" d="M82 0v1071h160v-121q72 127 166 127q16 0 43 -6v-174q-51 29 -93 29q-117 0 -116 -160v-766h-160z" />
<glyph unicode="s" horiz-adv-x="565" d="M39 315v82h154v-82q0 -186 94 -186q86 0 86 125q0 102 -84 186l-72 72q-96 96 -129 160.5t-33 152.5q0 260 236 260q225 0 225 -278v-53h-154v53q0 135 -79 135q-76 0 -76 -96q0 -100 74 -166l81 -78q92 -84 128 -157.5t36 -176.5q0 -135 -63.5 -208.5t-179.5 -73.5 q-244 -1 -244 329z" />
<glyph unicode="t" horiz-adv-x="389" d="M14 932v139h90v223h162v-223h88v-139h-88v-737q0 -49 14.5 -60.5t67.5 -13.5l14 -2v-119q-57 -14 -94 -14q-86 0 -131 41q-33 33 -33 137v768h-90z" />
<glyph unicode="u" horiz-adv-x="634" d="M82 231v840h160v-807q0 -68 8 -92q18 -45 69 -45q53 0 68 47q8 25 8 92v805h160v-1071h-160v72q-61 -86 -157 -86q-102 0 -138 86q-18 42 -18 159z" />
<glyph unicode="v" horiz-adv-x="569" d="M27 1071h161l68 -569q6 -35 12 -90l11 -105q0 -12 6 -63q10 178 20 258l74 569h164l-164 -1071h-191z" />
<glyph unicode="w" horiz-adv-x="784" d="M14 1071h156l47 -551q6 -68 12 -270q8 90 29 270l74 551h121l65 -551q2 -12 29 -270q6 90 8 149.5t8 120.5l49 551h160l-137 -1071h-182l-47 395q-8 70 -17 281q-10 -219 -18 -281l-54 -395h-178z" />
<glyph unicode="x" horiz-adv-x="587" d="M14 0l183 578l-162 493h162l55 -201q31 -106 47 -196q18 135 35 196l53 201h158l-158 -493l191 -578h-168l-91 348q0 2 -20 92q-10 -47 -37 -151l-88 -289h-160z" />
<glyph unicode="y" horiz-adv-x="534" d="M6 1071h162l51 -424l51 -422l9 86l14 183q8 96 14 149l53 428h166l-190 -1177q-20 -133 -65.5 -180.5t-147.5 -47.5h-76v160q12 -2 31 -2q61 0 82 45q12 27 12 102q0 68 -8 121z" />
<glyph unicode="z" horiz-adv-x="565" d="M35 0v152l317 768h-252v151h430v-151l-317 -768h317v-152h-495z" />
<glyph unicode="{" horiz-adv-x="659" d="M121 479v107q119 31 119 188v338q0 172 96 238q59 39 256 43v-105q-117 -4 -158 -43t-41 -147v-334q0 -100 -25.5 -151.5t-88.5 -84.5q63 -35 88.5 -89t25.5 -152v-316q0 -115 41 -155.5t158 -44.5v-105q-209 2 -270 51q-82 68 -82 260v304q0 92 -25.5 135t-93.5 63z" />
<glyph unicode="|" horiz-adv-x="1044" d="M442 -348v1741h162v-1741h-162z" />
<glyph unicode="}" horiz-adv-x="659" d="M70 -229q117 4 157.5 45t40.5 155v316q0 98 24.5 152.5t90.5 88.5q-66 33 -90.5 84.5t-24.5 151.5v334q0 109 -41 147.5t-157 42.5v105q207 -4 264 -50q86 -68 86 -231v-338q0 -158 119 -188v-107q-63 -20 -91 -63t-28 -135v-304q0 -201 -94 -268q-55 -41 -256 -43v105z " />
<glyph unicode="~" horiz-adv-x="1392" d="M195 1274q68 135 131 190.5t157 55.5q78 0 232 -72q141 -68 203 -68q102 0 186 144l94 -58q-55 -113 -117 -168q-80 -70 -184 -69q-70 0 -293 100q-80 35 -133 35q-98 0 -182 -150z" />
<glyph unicode="&#xa1;" horiz-adv-x="409" d="M125 211l41 418h80l41 -408v-540h-162v530zM125 807v264h162v-264h-162z" />
<glyph unicode="&#xa2;" d="M145 455v579q0 84 9 117q14 63 59 98q57 43 133 49v117h82v-117q104 -20 149.5 -81.5t45.5 -182.5v-141h-162v141q0 68 -8 90q-16 39 -68 39q-53 0 -70 -39q-8 -25 -8 -90v-579q0 -66 10 -90q14 -39 70 -39q51 0 66 39q8 23 8 88v184h162v-182q0 -121 -45.5 -181.5 t-149.5 -83.5v-127h-82v127q-90 8 -149 66q-52 49 -52 199z" />
<glyph unicode="&#xa3;" d="M-63 137q0 74 59 123t143 49q72 0 144 -43l2 15l6 38q2 12 2 41q0 78 -64 242h-206v129h157q-78 217 -78 332q0 137 89.5 227t224.5 90q166 0 233 -110q53 -84 53 -221v-86h-170v61q0 201 -114 201q-129 0 -129 -162q0 -115 90 -332h203v-129h-156q23 -88 23 -160 q0 -102 -52 -235q117 -66 158 -66q70 0 70 125v127h161v-127q0 -133 -38 -188q-49 -78 -162 -78q-96 0 -250 111q-102 -125 -225 -125q-76 0 -125 42.5t-49 108.5zM49 143q0 -59 60 -59q78 0 135 92q-2 2 -6 4q-45 31 -105 31q-84 0 -84 -68z" />
<glyph unicode="&#xa4;" horiz-adv-x="925" d="M98 631l33 127h100v221q0 125 5 166q12 92 57 153q80 117 237 117q158 0 238 -117q45 -61 57 -151q6 -45 6 -168v-86h-190v184q0 96 -24.5 136t-86.5 40q-59 0 -84.5 -39.5t-25.5 -136.5v-319h291l-35 -127h-256v-316q0 -96 25.5 -136t84.5 -40q61 0 86 40t25 136v248 h190v-149q0 -123 -6 -166q-10 -92 -57 -154q-80 -115 -238 -114q-158 0 -237 114q-45 61 -55 154q-6 43 -7 166v217h-133z" />
<glyph unicode="&#xa5;" d="M57 782v166h117l-117 404h193l80 -297q25 -94 49 -242q16 113 53 242l88 297h189l-125 -404h125v-166h-177l-49 -161h156v-166h-180v-455h-168v455h-166v166h145l-49 161h-164z" />
<glyph unicode="&#xa6;" horiz-adv-x="1044" d="M442 319h162v-667h-162v667zM442 696v697h162v-697h-162z" />
<glyph unicode="&#xa7;" d="M109 752q0 145 137 215l-19 22q-82 100 -82 199q0 98 69 162.5t175 64.5q113 0 179.5 -72.5t66.5 -191.5q0 -33 -4 -64h-152q2 23 2 50q0 172 -92 172q-39 0 -64.5 -31t-25.5 -74q0 -41 45 -104l234 -326q45 -63 59 -94q20 -47 20 -109q0 -154 -116 -223l20 -24 q51 -59 51 -144q0 -113 -72.5 -185.5t-183.5 -72.5t-173 69.5t-62 192.5q0 27 2 47h158q-4 -23 -5 -43q0 -162 103 -161q35 0 58.5 31.5t23.5 80.5q0 59 -45 123l-183 244q-78 102 -83 115q-41 70 -41 131zM262 758q0 -47 33 -94l151 -209q61 43 62 112q0 51 -47 117 l-131 182q-68 -47 -68 -108z" />
<glyph unicode="&#xa8;" horiz-adv-x="1044" d="M334 1243v189h131v-189h-131zM578 1243v189h131v-189h-131z" />
<glyph unicode="&#xa9;" horiz-adv-x="1347" d="M70 707q0 291 178 499.5t426 208.5q254 0 430 -210t176 -509q0 -297 -177 -506.5t-429 -209.5q-254 0 -429 211t-175 516zM174 705q0 -260 144.5 -440.5t355.5 -180.5q207 0 354.5 179t147.5 433q0 252 -147.5 433.5t-354.5 181.5q-203 0 -351.5 -179t-148.5 -427z M494 535v323q0 131 36 184q51 70 146 70q96 0 147 -70q37 -53 37 -184v-57h-125v112q0 94 -59 95q-57 0 -58 -95v-434q0 -94 58 -94q59 0 59 94v160h125v-104q0 -133 -37 -187q-51 -68 -147 -67q-94 0 -146 67q-36 54 -36 187z" />
<glyph unicode="&#xaa;" horiz-adv-x="507" d="M37 621v69h436v-69h-436zM123 952v70q0 47 12 71.5t53 49.5l64 41q37 25 37 53v59q0 39 -33 39q-39 0 -39 -55v-63h-94v71q0 129 129 129q131 0 131 -137v-348q0 -51 18 -96h-102q-2 12 -8 36q-27 -45 -82 -45q-86 0 -86 125zM215 961q0 -53 31 -54q45 0 45 74v141 l-49 -37q-27 -20 -27 -69v-55z" />
<glyph unicode="&#xab;" horiz-adv-x="776" d="M63 430v209l263 229v-194l-154 -139l154 -138v-194zM422 430v209l264 231v-196l-156 -139l156 -138v-194z" />
<glyph unicode="&#xac;" horiz-adv-x="1044" d="M70 408v149h903v-557h-160v408h-743z" />
<glyph unicode="&#xad;" horiz-adv-x="260" d="M0 453v165h262v-165h-262z" />
<glyph unicode="&#xae;" horiz-adv-x="1347" d="M70 707q0 291 178 499.5t426 208.5q254 0 430 -210t176 -509q0 -297 -177 -506.5t-429 -209.5q-254 0 -429 211t-175 516zM174 705q0 -260 144.5 -440.5t355.5 -180.5q207 0 354.5 179t147.5 433q0 252 -147.5 433.5t-354.5 181.5q-203 0 -351.5 -179t-148.5 -427z M508 293v809h190q92 0 121 -37t29 -154v-57q0 -63 -6 -90q-12 -43 -56 -62q61 -27 62 -165v-99q0 -82 24 -145h-131q-18 61 -18 160v71q0 133 -49 133h-41v-364h-125zM633 760h59q25 0 31 28v50v73v50q-6 27 -31 26h-59v-227z" />
<glyph unicode="&#xaf;" horiz-adv-x="1044" d="M0 1663v143h1044v-143h-1044z" />
<glyph unicode="&#xb0;" d="M96 1106q0 125 84 213t203 88q121 0 203 -87t82 -216q0 -123 -84 -210t-201 -87q-119 0 -203 87t-84 212zM213 1108q0 -78 50 -132t118 -54q66 0 117 54t51 126q0 78 -49 132t-119 54q-68 0 -118 -54t-50 -126z" />
<glyph unicode="&#xb1;" d="M70 104v140h626v-140h-626zM70 606v139h243v242h142v-242h241v-139h-241v-246h-142v246h-243z" />
<glyph unicode="&#xb2;" horiz-adv-x="528" d="M74 557v23q0 88 26.5 153.5t110.5 177.5l41 56q41 53 50 78.5t9 76.5v72q0 88 -57 88q-59 0 -59 -86v-111h-121v109q0 100 32 137q45 49 152 49q178 0 178 -186v-72q0 -94 -88 -219l-49 -72q-49 -68 -63 -94q-25 -41 -29 -71h229v-109h-362z" />
<glyph unicode="&#xb3;" horiz-adv-x="528" d="M76 709v110h121v-98q0 -74 55 -74q61 0 61 74v153q0 82 -98 82h-55v111h43q96 0 96 74v88q0 45 -13.5 53t-37.5 8q-51 0 -51 -71v-43h-121v55q0 154 176 153q168 0 168 -145v-82q0 -104 -66 -129q55 -25 70 -65q10 -25 10 -95v-131q0 -109 -39 -145q-47 -43 -141 -43 q-178 0 -178 160z" />
<glyph unicode="&#xb4;" horiz-adv-x="1044" d="M455 1217l116 241h185l-205 -241h-96z" />
<glyph unicode="&#xb5;" horiz-adv-x="634" d="M82 -334v1405h160v-805q0 -70 8 -94q18 -45 69 -45q53 0 68 47q8 25 8 92v805h160v-1071h-160v31q-39 -45 -78 -45q-35 0 -75 45v-365h-160z" />
<glyph unicode="&#x3bc;" horiz-adv-x="634" d="M82 -334v1405h160v-805q0 -70 8 -94q18 -45 69 -45q53 0 68 47q8 25 8 92v805h160v-1071h-160v31q-39 -45 -78 -45q-35 0 -75 45v-365h-160z" />
<glyph unicode="&#xb6;" d="M29 1028q0 160 99 262.5t255 102.5h416v-90h-97v-1637h-114v1637h-133v-1637h-115v1002q-131 4 -221 108.5t-90 251.5z" />
<glyph unicode="&#xb7;" horiz-adv-x="354" d="M98 391v250h160v-250h-160z" />
<glyph unicode="&#xb8;" horiz-adv-x="1044" d="M373 -281l37 48q70 -35 106 -35q70 0 70 61q0 53 -105 78v129h99v-70q135 -43 135 -143q0 -127 -166 -127q-96 0 -176 59z" />
<glyph unicode="&#xb9;" horiz-adv-x="528" d="M121 1155v96q111 0 131 117h86v-811h-121v598h-96z" />
<glyph unicode="&#xba;" horiz-adv-x="507" d="M37 621v69h436v-69h-436zM125 983v295q0 139 133 139q127 0 127 -149v-285q0 -86 -29 -117q-33 -37 -102 -37q-92 0 -119 66q-10 25 -10 88zM219 975q0 -63 35 -64q37 0 37 64v293q0 68 -37 67q-35 0 -35 -67v-293z" />
<glyph unicode="&#xbb;" horiz-adv-x="776" d="M90 203v194l154 140l-154 139v194l262 -229v-207zM451 203v194l155 140l-155 139v194l262 -229v-207z" />
<glyph unicode="&#xbc;" horiz-adv-x="1249" d="M121 1155v96q111 0 131 117h86v-811h-121v598h-96zM328 0l499 1372h97l-500 -1372h-96zM774 170v94l191 547h172v-541h59v-100h-59v-170h-121v170h-242zM885 270h127v375z" />
<glyph unicode="&#xbd;" horiz-adv-x="1249" d="M121 1155v96q111 0 131 117h86v-811h-121v598h-96zM328 0l499 1372h97l-500 -1372h-96zM797 0v20q0 90 26.5 155t110.5 177l41 58q41 51 50 77.5t9 75.5v74q0 88 -57 88q-59 0 -59 -86v-111h-121v109q0 100 32 135q45 51 152 51q178 0 178 -186v-74q0 -92 -88 -219 l-49 -70q-49 -68 -64 -94q-25 -43 -28 -71h229v-109h-362z" />
<glyph unicode="&#xbe;" horiz-adv-x="1249" d="M76 709v110h121v-98q0 -74 57 -74q61 0 61 74v153q0 82 -98 82h-57v111h43q98 0 98 74v88q0 45 -13.5 53t-37.5 8q-53 0 -53 -71v-43h-121v55q0 154 178 153q168 0 168 -145v-82q0 -104 -66 -129q55 -25 70 -65q8 -23 8 -95v-131q0 -111 -37 -145q-47 -43 -143 -43 q-178 0 -178 160zM326 0l499 1372h99l-500 -1372h-98zM772 170v94l191 547h172v-541h61v-100h-61v-170h-121v170h-242zM883 270h127v375z" />
<glyph unicode="&#xbf;" horiz-adv-x="649" d="M78 -45q0 143 94 319l49 95q47 84 57.5 122.5t18.5 141.5h141q0 -102 -12 -160.5t-55 -150.5l-60 -125q-63 -133 -63 -246q0 -137 94 -137q96 0 96 174v78h152v-97q0 -150 -51 -215q-66 -88 -199 -88q-119 0 -190.5 79t-71.5 210zM287 807v264h149v-264h-149z" />
<glyph unicode="&#xc0;" horiz-adv-x="692" d="M27 0l192 1393h221l224 -1393h-181l-43 262h-202l-33 -262h-178zM84 1792h184l117 -242h-96zM258 434h160l-74 604q-4 41 -10 115q-4 -55 -10 -111l-17 -143z" />
<glyph unicode="&#xc1;" horiz-adv-x="692" d="M27 0l192 1393h221l224 -1393h-181l-43 262h-202l-33 -262h-178zM258 434h160l-74 604q-4 41 -10 115q-4 -55 -10 -111l-17 -143zM307 1550l117 242h184l-205 -242h-96z" />
<glyph unicode="&#xc2;" horiz-adv-x="692" d="M27 0l192 1393h221l224 -1393h-181l-43 262h-202l-33 -262h-178zM119 1554l180 234h109l180 -234h-111l-123 132l-127 -132h-108zM258 434h160l-74 604q-4 41 -10 115q-4 -55 -10 -111l-17 -143z" />
<glyph unicode="&#xc3;" horiz-adv-x="692" d="M27 0l192 1393h221l224 -1393h-181l-43 262h-202l-33 -262h-178zM131 1577q33 186 166 186q45 0 88 -18l51 -25q35 -14 53 -14q35 0 66 47l8 12h53q-59 -174 -161 -174q-27 0 -68 19l-53 24q-41 18 -68 19q-61 0 -86 -76h-49zM258 434h160l-74 604q-4 41 -10 115 q-4 -55 -10 -111l-17 -143z" />
<glyph unicode="&#xc4;" horiz-adv-x="692" d="M27 0l192 1393h221l224 -1393h-181l-43 262h-202l-33 -262h-178zM127 1573v199h147v-199h-147zM258 434h160l-74 604q-4 41 -10 115q-4 -55 -10 -111l-17 -143zM389 1573v199h146v-199h-146z" />
<glyph unicode="&#xc5;" horiz-adv-x="692" d="M27 0l192 1393h221l224 -1393h-181l-43 262h-202l-33 -262h-178zM178 1671q0 72 48 120t118 48q72 0 120 -49t48 -121q0 -70 -49 -118t-119 -48t-118 48t-48 120zM244 1671q0 -41 29.5 -70.5t70.5 -29.5q43 0 71.5 29.5t28.5 68.5q0 43 -28.5 73t-71.5 30 q-41 0 -70.5 -30t-29.5 -71zM258 434h160l-74 604q-4 41 -10 115q-4 -55 -10 -111l-17 -143z" />
<glyph unicode="&#xc6;" horiz-adv-x="1007" d="M27 0l286 1393h617v-172h-273v-424h238v-158h-238v-465h297v-174h-483v639h-141l-119 -639h-184zM360 797h111v424h-31z" />
<glyph unicode="&#xc7;" horiz-adv-x="751" d="M80 414v565q0 125 6 166q10 92 53 153q80 117 240 117q154 0 237 -117q43 -61 56 -151q8 -45 8 -168v-86h-191v184q0 98 -24.5 137t-83.5 39q-63 0 -88 -39.5t-25 -136.5v-762q0 -96 24.5 -136t88.5 -40q59 0 83.5 40t24.5 136v271h191v-172q0 -199 -31 -267 q-57 -133 -209 -161v-56q133 -45 133 -143q0 -127 -176 -127q-102 0 -186 59l39 48q68 -35 106 -35q68 0 68 61q0 53 -102 78v113q-88 16 -146 71q-68 59 -86 156q-10 51 -10 203z" />
<glyph unicode="&#xc8;" horiz-adv-x="606" d="M78 1792h184l117 -242h-96zM94 0v1393h459v-172h-270v-408h243v-174h-243v-465h270v-174h-459z" />
<glyph unicode="&#xc9;" horiz-adv-x="606" d="M94 0v1393h459v-172h-270v-408h241v-174h-241v-465h270v-174h-459zM293 1550l117 242h184l-205 -242h-96z" />
<glyph unicode="&#xca;" horiz-adv-x="606" d="M90 1554l180 234h109l178 -234h-111l-120 132l-127 -132h-109zM94 0v1393h459v-172h-270v-408h241v-174h-241v-465h270v-174h-459z" />
<glyph unicode="&#xcb;" horiz-adv-x="606" d="M94 0v1393h459v-172h-270v-408h241v-174h-241v-465h270v-174h-459zM119 1573v199h147v-199h-147zM381 1573v199h145v-199h-145z" />
<glyph unicode="&#xcc;" horiz-adv-x="376" d="M-59 1792h184l117 -242h-97zM94 0v1393h189v-1393h-189z" />
<glyph unicode="&#xcd;" horiz-adv-x="376" d="M94 0v1393h189v-1393h-189zM156 1550l118 242h183l-205 -242h-96z" />
<glyph unicode="&#xce;" horiz-adv-x="376" d="M-6 1554l147 234h109l149 -234h-110l-90 132l-97 -132h-108zM96 0v1393h189v-1393h-189z" />
<glyph unicode="&#xcf;" horiz-adv-x="376" d="M12 1573v199h148v-199h-148zM94 0v1393h189v-1393h-189zM231 1573v199h148v-199h-148z" />
<glyph unicode="&#xd0;" horiz-adv-x="731" d="M-2 641v174h98v578h324q135 0 183 -49.5t48 -188.5v-917q0 -137 -49 -187.5t-182 -50.5h-324v641h-98zM285 174h86q59 0 78 29q14 23 14 92v805q0 68 -16.5 94.5t-75.5 26.5h-86v-406h96v-174h-96v-467z" />
<glyph unicode="&#xd1;" horiz-adv-x="770" d="M94 0v1393h195l203 -848q8 -33 16 -80l14 -76q4 -14 10 -49l-4 80l-12 174q-2 33 -4 106l-16 693h180v-1393h-205l-240 1077q2 -37 7 -90l8 -129q4 -49 4 -88l20 -770h-176zM199 1577q31 186 163 186q47 0 89 -18l53 -25q33 -14 51 -14q37 0 68 47l8 12h53 q-59 -174 -162 -174q-27 0 -69 19l-52 24q-43 18 -69 19q-59 0 -86 -76h-47z" />
<glyph unicode="&#xd2;" horiz-adv-x="757" d="M80 414v565q0 125 6 166q10 92 53 153q80 117 240 117q156 0 237 -117q45 -63 56 -151q8 -43 8 -168v-565q0 -123 -8 -168q-10 -86 -56 -152q-80 -115 -237 -114q-160 0 -240 114q-43 61 -53 154q-6 43 -6 166zM125 1792h184l117 -242h-96zM268 315q0 -96 24.5 -136 t86.5 -40q61 0 87 39t26 137v762q0 98 -26 137t-87 39t-86 -39.5t-25 -136.5v-762z" />
<glyph unicode="&#xd3;" horiz-adv-x="757" d="M80 414v565q0 125 6 166q10 92 53 153q80 117 240 117q156 0 237 -117q45 -63 56 -151q8 -43 8 -168v-565q0 -123 -8 -168q-10 -86 -56 -152q-80 -115 -237 -114q-160 0 -240 114q-43 61 -53 154q-6 43 -6 166zM268 315q0 -96 24.5 -136t86.5 -40q61 0 87 39t26 137v762 q0 98 -26 137t-87 39t-86 -39.5t-25 -136.5v-762zM340 1550l117 242h184l-205 -242h-96z" />
<glyph unicode="&#xd4;" horiz-adv-x="757" d="M80 414v565q0 125 6 166q10 92 53 153q80 117 240 117q156 0 237 -117q45 -63 56 -151q8 -43 8 -168v-565q0 -123 -8 -168q-10 -86 -56 -152q-80 -115 -237 -114q-160 0 -240 114q-43 61 -53 154q-6 43 -6 166zM152 1554l180 234h108l181 -234h-111l-121 132l-127 -132 h-110zM268 315q0 -96 24.5 -136t86.5 -40q61 0 87 39t26 137v762q0 98 -26 137t-87 39t-86 -39.5t-25 -136.5v-762z" />
<glyph unicode="&#xd5;" horiz-adv-x="757" d="M80 414v565q0 125 6 166q10 92 53 153q80 117 240 117q156 0 237 -117q45 -63 56 -151q8 -43 8 -168v-565q0 -123 -8 -168q-10 -86 -56 -152q-80 -115 -237 -114q-160 0 -240 114q-43 61 -53 154q-6 43 -6 166zM193 1577q31 186 163 186q47 0 88 -18l54 -25 q33 -14 51 -14q37 0 67 47l9 12h51q-57 -174 -160 -174q-27 0 -70 19l-51 24q-43 18 -69 19q-59 0 -86 -76h-47zM268 315q0 -96 24.5 -136t86.5 -40q61 0 87 39t26 137v762q0 98 -26 137t-87 39t-86 -39.5t-25 -136.5v-762z" />
<glyph unicode="&#xd6;" horiz-adv-x="757" d="M80 414v565q0 125 6 166q10 92 53 153q80 117 240 117q156 0 237 -117q43 -63 56 -153q8 -43 8 -166v-565q0 -121 -8 -166q-12 -88 -56 -154q-80 -115 -237 -114q-160 0 -240 114q-43 61 -53 154q-6 43 -6 166zM188 1573v199h146v-199h-146zM268 315q0 -96 24.5 -136 t86.5 -40q61 0 87 39t26 137v762q0 98 -26 137t-87 39t-86 -39.5t-25 -136.5v-762zM451 1573v199h147v-199h-147z" />
<glyph unicode="&#xd7;" d="M82 477l201 199l-199 198l98 99l199 -199l203 203l102 -100l-203 -203l203 -201l-98 -98l-205 203l-201 -203z" />
<glyph unicode="&#xd8;" horiz-adv-x="755" d="M-20 0l108 225q-8 51 -8 189v565q0 125 6 166q10 92 55 153q82 117 238 117q145 0 229 -104l60 125l71 -35l-86 -176q23 -59 23 -246v-565q0 -123 -6 -168q-10 -86 -56 -152q-80 -115 -235 -114q-172 0 -256 141l-70 -152zM268 315q0 -96 24.5 -136t86.5 -40 q59 0 84.5 40t25.5 136v564l-221 -457v-107zM268 604l221 457v45q0 147 -110 147q-61 0 -86 -39.5t-25 -136.5v-473z" />
<glyph unicode="&#xd9;" horiz-adv-x="774" d="M88 414v979h188v-1078q0 -96 25 -136t86 -40t87 39t26 137v1078h188v-979q0 -123 -6 -168q-12 -86 -57 -152q-80 -115 -238 -114q-160 0 -240 114q-43 61 -53 154q-6 43 -6 166zM145 1792h185l116 -242h-96z" />
<glyph unicode="&#xda;" horiz-adv-x="774" d="M88 414v979h188v-1078q0 -96 25 -136t86 -40t87 39t26 137v1078h188v-979q0 -123 -6 -168q-12 -86 -57 -152q-80 -115 -238 -114q-160 0 -240 114q-43 61 -53 154q-6 43 -6 166zM362 1550l119 242h183l-205 -242h-97z" />
<glyph unicode="&#xdb;" horiz-adv-x="774" d="M88 414v979h188v-1078q0 -96 25 -136t86 -40t87 39t26 137v1078h188v-979q0 -123 -6 -168q-12 -86 -57 -152q-80 -115 -238 -114q-160 0 -240 114q-43 61 -53 154q-6 43 -6 166zM168 1554l178 234h109l180 -234h-111l-121 132l-127 -132h-108z" />
<glyph unicode="&#xdc;" horiz-adv-x="774" d="M88 414v979h188v-1078q0 -96 25 -136t86 -40t87 39t26 137v1078h188v-979q0 -123 -6 -168q-12 -86 -57 -152q-80 -115 -238 -114q-160 0 -240 114q-43 61 -53 154q-6 43 -6 166zM197 1573v199h145v-199h-145zM457 1573v199h147v-199h-147z" />
<glyph unicode="&#xdd;" horiz-adv-x="626" d="M-6 1393h190l78 -318q31 -131 49 -241q16 115 51 241l89 318h184l-234 -824v-569h-188v569zM283 1550l116 242h185l-205 -242h-96z" />
<glyph unicode="&#xde;" horiz-adv-x="694" d="M94 0v1393h189v-209h149q137 0 180 -51q35 -45 35 -197v-272q0 -158 -43 -203t-172 -45h-149v-416h-189zM283 590h110q45 0 58 20q8 14 8 62v256q0 57 -15.5 70.5t-50.5 13.5h-110v-422z" />
<glyph unicode="&#xdf;" horiz-adv-x="634" d="M82 0v1174q0 233 235 233q233 0 234 -211v-96q0 -96 -74 -133q57 -27 74 -60q12 -27 12 -94v-586q0 -135 -39 -180q-57 -61 -159 -61q-41 0 -72 14v131h18q92 0 92 111v532q0 74 -23.5 101.5t-86.5 27.5v121q8 -2 18 -2q80 0 80 100v52q0 98 -80 98q-70 0 -69 -98v-1174 h-160z" />
<glyph unicode="&#xe0;" horiz-adv-x="618" d="M63 1458h183l116 -241h-94zM66 213v131q0 90 21.5 135t94.5 90l125 80q49 33 60.5 48.5t11.5 58.5v114q0 82 -70 82q-45 0 -69 -28q-14 -18 -15 -84v-113h-159v129q0 109 49 162q66 68 186 67q147 0 209 -96q29 -45 29 -149v-668q0 -92 30 -172h-170l-22 86 q-63 -100 -158 -100q-102 0 -135 77q-18 44 -18 150zM225 223q0 -102 66 -102q35 0 61.5 41t26.5 100v264l-100 -73q-37 -27 -48 -60q-6 -20 -6 -76v-94z" />
<glyph unicode="&#xe1;" horiz-adv-x="618" d="M66 213v131q0 90 21.5 135t94.5 90l125 80q49 33 60.5 48.5t11.5 58.5v114q0 82 -70 82q-45 0 -69 -28q-14 -18 -15 -84v-113h-159v129q0 109 49 162q66 68 186 67q147 0 209 -96q29 -45 29 -149v-668q0 -92 30 -172h-170l-22 86q-63 -100 -158 -100q-102 0 -135 77 q-18 44 -18 150zM225 223q0 -102 66 -102q35 0 61.5 41t26.5 100v264l-100 -73q-37 -27 -48 -60q-6 -20 -6 -76v-94zM266 1217l117 241h182l-205 -241h-94z" />
<glyph unicode="&#xe2;" horiz-adv-x="618" d="M66 213v131q0 90 21.5 135t94.5 90l125 80q49 33 60.5 48.5t11.5 58.5v114q0 82 -70 82q-45 0 -69 -28q-14 -18 -15 -84v-113h-159v129q0 109 49 162q66 68 186 67q147 0 209 -96q29 -45 29 -149v-668q0 -92 30 -172h-170l-22 86q-63 -100 -158 -100q-102 0 -135 77 q-18 44 -18 150zM90 1221l180 233h109l178 -233h-111l-120 131l-127 -131h-109zM225 223q0 -102 66 -102q35 0 61.5 41t26.5 100v264l-100 -73q-37 -27 -48 -60q-6 -20 -6 -76v-94z" />
<glyph unicode="&#xe3;" horiz-adv-x="618" d="M66 213v131q0 90 21.5 135t94.5 90l125 80q49 33 60.5 48.5t11.5 58.5v114q0 82 -70 82q-45 0 -69 -28q-14 -18 -15 -84v-113h-159v129q0 109 49 162q66 68 186 67q147 0 209 -96q29 -45 29 -149v-668q0 -92 30 -172h-170l-22 86q-63 -100 -158 -100q-102 0 -135 77 q-18 44 -18 150zM88 1243q31 186 164 187q47 0 88 -21l53 -23q29 -12 51 -12q39 0 68 45l8 13h51q-59 -174 -159 -175q-27 0 -70 19l-51 22q-43 20 -70 21q-59 0 -86 -76h-47zM225 223q0 -102 66 -102q35 0 61.5 41t26.5 100v264l-100 -73q-37 -27 -48 -60q-6 -20 -6 -76 v-94z" />
<glyph unicode="&#xe4;" horiz-adv-x="618" d="M66 213v131q0 90 21.5 135t94.5 90l125 80q49 33 60.5 48.5t11.5 58.5v114q0 82 -70 82q-45 0 -69 -28q-14 -18 -15 -84v-113h-159v129q0 109 49 162q66 68 186 67q147 0 209 -96q29 -45 29 -149v-668q0 -92 30 -172h-170l-22 86q-63 -100 -158 -100q-102 0 -135 77 q-18 44 -18 150zM125 1243v189h131v-189h-131zM225 223q0 -102 66 -102q35 0 61.5 41t26.5 100v264l-100 -73q-37 -27 -48 -60q-6 -20 -6 -76v-94zM369 1243v189h131v-189h-131z" />
<glyph unicode="&#xe5;" horiz-adv-x="618" d="M66 213v131q0 90 21.5 135t94.5 90l125 80q49 33 60.5 48.5t11.5 58.5v114q0 82 -70 82q-45 0 -69 -28q-14 -18 -15 -84v-113h-159v129q0 109 49 162q66 68 186 67q147 0 209 -96q29 -45 29 -149v-668q0 -92 30 -172h-170l-22 86q-63 -100 -158 -100q-102 0 -135 77 q-18 44 -18 150zM145 1339q0 66 50.5 115t117.5 49q72 0 120 -48t48 -118t-49 -119t-119 -49t-119 50t-49 120zM213 1339q0 -43 29.5 -72.5t70.5 -29.5t71 29.5t30 70.5t-30 71t-71 30q-39 0 -69.5 -30t-30.5 -69zM225 223q0 -102 66 -102q35 0 61.5 41t26.5 100v264 l-100 -73q-37 -27 -48 -60q-6 -20 -6 -76v-94z" />
<glyph unicode="&#xe6;" horiz-adv-x="919" d="M66 178v178q0 82 19 125t83 84l141 94l12 7l19 10q39 20 39 69v115q0 90 -82 90q-72 0 -72 -90v-139h-159v127q0 113 51 170q66 68 192 67q78 0 164 -47q68 47 158 47q106 0 172 -67q49 -55 49 -158v-364h-313v-240q0 -66 8 -90q16 -45 69 -45q51 0 68 45q8 25 8 90v141 h160v-155q0 -256 -225 -256q-164 0 -219 112q-53 -63 -82 -84q-41 -29 -109 -28q-84 0 -123 49q-28 39 -28 143zM225 231q0 -66 8 -79q16 -25 56 -25q90 0 90 135v266l-103 -73q-51 -35 -51 -109v-115zM539 635h153v180q0 66 -8 92q-18 43 -70 43q-53 0 -67 -43 q-8 -27 -8 -92v-180z" />
<glyph unicode="&#xe7;" horiz-adv-x="602" d="M72 272v529q0 164 47 217q63 68 188 67q129 0 191 -67q47 -55 47 -217v-115h-160v129q0 80 -17.5 108.5t-60.5 28.5q-53 0 -67 -45q-8 -25 -9 -92v-559q0 -66 9 -90q14 -45 67 -45q51 0 70 45q8 25 8 90v170h160v-154q0 -104 -10 -145q-18 -70 -86 -109q-37 -20 -95 -28 v-60q137 -43 138 -143q0 -127 -166 -127q-92 0 -179 59l41 48q63 -35 105 -35q66 0 65 61q0 53 -102 78v119q-66 12 -106 39q-55 39 -70 108q-8 37 -8 135z" />
<glyph unicode="&#xe8;" horiz-adv-x="614" d="M61 1458h183l116 -241h-94zM72 274v527q0 164 47 217q63 68 190 67q127 0 189 -67q47 -55 47 -217v-301h-314v-248q0 -66 9 -88q16 -43 69 -43q51 0 68 43q8 25 8 88v147h160v-125q0 -168 -47 -219q-63 -70 -191 -69q-125 0 -188 69q-47 51 -47 219zM231 631h154v184 q0 66 -8 92q-16 43 -68 43q-53 0 -69 -43q-8 -27 -9 -92v-184z" />
<glyph unicode="&#xe9;" horiz-adv-x="614" d="M72 274v527q0 164 47 217q63 68 190 67q127 0 189 -67q47 -55 47 -217v-301h-314v-248q0 -66 9 -88q16 -43 69 -43q51 0 68 43q8 25 8 88v147h160v-125q0 -168 -47 -219q-63 -70 -191 -69q-125 0 -188 69q-47 51 -47 219zM231 631h154v184q0 66 -8 92q-16 43 -68 43 q-53 0 -69 -43q-8 -27 -9 -92v-184zM276 1217l117 241h185l-205 -241h-97z" />
<glyph unicode="&#xea;" horiz-adv-x="614" d="M72 274v527q0 164 47 217q63 68 190 67q127 0 189 -67q47 -55 47 -217v-301h-314v-248q0 -66 9 -88q16 -43 69 -43q51 0 68 43q8 25 8 88v147h160v-125q0 -168 -47 -219q-63 -70 -191 -69q-125 0 -188 69q-47 51 -47 219zM88 1221l180 233h109l178 -233h-111l-120 131 l-127 -131h-109zM231 631h154v184q0 66 -8 92q-16 43 -68 43q-53 0 -69 -43q-8 -27 -9 -92v-184z" />
<glyph unicode="&#xeb;" horiz-adv-x="614" d="M72 274v527q0 164 47 217q63 68 190 67q127 0 189 -67q47 -55 47 -217v-301h-314v-248q0 -66 9 -88q16 -43 69 -43q51 0 68 43q8 25 8 88v147h160v-125q0 -168 -47 -219q-63 -70 -191 -69q-125 0 -188 69q-47 51 -47 219zM127 1243v189h131v-189h-131zM231 631h154v184 q0 66 -8 92q-16 43 -68 43q-53 0 -69 -43q-8 -27 -9 -92v-184zM371 1243v189h131v-189h-131z" />
<glyph unicode="&#xec;" horiz-adv-x="321" d="M-86 1458h184l117 -241h-96zM82 0v1071h160v-1071h-160z" />
<glyph unicode="&#xed;" horiz-adv-x="321" d="M82 0v1071h160v-1071h-160zM123 1217l117 241h184l-205 -241h-96z" />
<glyph unicode="&#xee;" horiz-adv-x="321" d="M-6 1221l121 233h108l119 -233h-113l-57 131l-66 -131h-112zM82 0v1071h160v-1071h-160z" />
<glyph unicode="&#xef;" horiz-adv-x="321" d="M2 1243v189h131v-189h-131zM82 0v1071h160v-1071h-160zM203 1243v189h131v-189h-131z" />
<glyph unicode="&#xf0;" horiz-adv-x="614" d="M72 274v560q0 252 258 251l-35 134l-168 -56l-33 111l174 59l-35 121l86 23l46 -113l180 45l35 -106l-168 -50l96 -237q27 -68 31 -92q6 -31 6 -109v-541q0 -164 -47 -217q-63 -72 -187 -71q-125 0 -192 71q-47 51 -47 217zM233 256q0 -66 9 -90q14 -45 67 -45 q51 0 70 45q8 25 8 90v559q0 66 -8 92q-16 43 -68 43q-53 0 -69 -43q-8 -27 -9 -92v-559z" />
<glyph unicode="&#xf1;" horiz-adv-x="634" d="M82 0v1071h160v-70q70 84 155 84q100 0 138 -84q20 -49 20 -161v-840h-160v809q0 66 -8 92q-16 43 -70 43q-51 0 -67 -43q-8 -27 -8 -92v-809h-160zM131 1243q33 186 166 187q45 0 88 -21l51 -23q29 -12 53 -12q37 0 66 45l8 13h53q-61 -174 -161 -175q-27 0 -68 19 l-53 22q-41 20 -68 21q-61 0 -86 -76h-49z" />
<glyph unicode="&#xf2;" horiz-adv-x="614" d="M68 1458h182l119 -241h-97zM72 274v557q0 254 241 254q125 0 187 -75q43 -57 43 -197v-539q0 -168 -47 -219q-63 -70 -189 -69q-127 0 -188 69q-47 53 -47 219zM231 256q0 -66 9 -90q14 -45 67 -45q51 0 68 45q8 25 8 90v559q0 66 -8 92q-16 43 -68 43q-53 0 -67 -43 q-8 -27 -9 -92v-559z" />
<glyph unicode="&#xf3;" horiz-adv-x="614" d="M72 274v557q0 254 241 254q129 0 189 -75q43 -59 43 -197v-539q0 -168 -47 -219q-63 -70 -189 -69q-129 0 -190 69q-47 53 -47 219zM231 256q0 -66 9 -90q14 -45 67 -45q51 0 70 45q8 25 8 90v559q0 66 -8 92q-16 43 -68 43q-53 0 -69 -43q-8 -27 -9 -92v-559zM270 1217 l117 241h182l-204 -241h-95z" />
<glyph unicode="&#xf4;" horiz-adv-x="614" d="M72 274v557q0 254 241 254q129 0 189 -75q43 -59 43 -197v-539q0 -168 -47 -219q-63 -70 -189 -69q-129 0 -190 69q-47 53 -47 219zM88 1221l180 233h109l178 -233h-111l-120 131l-127 -131h-109zM231 256q0 -66 9 -90q14 -45 67 -45q51 0 70 45q8 25 8 90v559 q0 66 -8 92q-16 43 -68 43q-53 0 -69 -43q-8 -27 -9 -92v-559z" />
<glyph unicode="&#xf5;" horiz-adv-x="614" d="M72 274v557q0 254 241 254q129 0 189 -75q43 -59 43 -197v-539q0 -168 -47 -219q-63 -70 -189 -69q-129 0 -190 69q-47 53 -47 219zM127 1243q33 186 166 187q45 0 88 -21l51 -23q29 -12 53 -12q37 0 66 45l8 13h53q-61 -174 -161 -175q-27 0 -68 19l-53 22 q-41 20 -68 21q-61 0 -86 -76h-49zM231 256q0 -66 9 -90q14 -45 67 -45q51 0 70 45q8 25 8 90v559q0 66 -8 92q-16 43 -68 43q-53 0 -69 -43q-8 -27 -9 -92v-559z" />
<glyph unicode="&#xf6;" horiz-adv-x="614" d="M72 274v557q0 254 241 254q129 0 189 -75q43 -59 43 -197v-539q0 -168 -47 -219q-63 -70 -189 -69q-129 0 -190 69q-47 53 -47 219zM133 1243v189h133v-189h-133zM231 256q0 -66 9 -90q14 -45 67 -45q51 0 70 45q8 25 8 90v559q0 66 -8 92q-16 43 -68 43q-53 0 -69 -43 q-8 -27 -9 -92v-559zM377 1243v189h131v-189h-131z" />
<glyph unicode="&#xf7;" d="M70 606v139h626v-139h-626zM311 250v227h144v-227h-144zM311 874v228h144v-228h-144z" />
<glyph unicode="&#xf8;" horiz-adv-x="614" d="M27 -25l61 134q-16 51 -16 165v557q0 254 239 254q117 0 183 -65l45 104l61 -26l-68 -148q12 -45 13 -137v-539q0 -168 -47 -219q-63 -70 -187 -69q-115 0 -182 59l-43 -98zM231 229q0 -109 76 -108q51 0 70 45q8 25 8 90v362l-154 -342v-47zM231 432l154 344v39 q0 66 -8 92q-16 43 -68 43q-53 0 -69 -43q-8 -27 -9 -92v-383z" />
<glyph unicode="&#xf9;" horiz-adv-x="634" d="M78 1458h184l117 -241h-96zM82 231v840h160v-807q0 -68 8 -92q18 -45 69 -45q53 0 68 45q8 25 8 92v807h158v-1071h-158v72q-61 -86 -157 -86q-100 0 -138 86q-18 42 -18 159z" />
<glyph unicode="&#xfa;" horiz-adv-x="634" d="M82 231v840h160v-807q0 -68 8 -92q18 -45 69 -45q53 0 68 47q8 25 8 92v805h160v-1071h-160v72q-61 -86 -157 -86q-102 0 -138 86q-18 42 -18 159zM281 1217l116 241h185l-205 -241h-96z" />
<glyph unicode="&#xfb;" horiz-adv-x="634" d="M82 231v840h160v-807q0 -68 8 -92q18 -45 69 -45q53 0 68 47q8 25 8 92v805h160v-1071h-160v72q-61 -86 -157 -86q-102 0 -138 86q-18 42 -18 159zM98 1221l181 233h108l178 -233h-110l-121 131l-127 -131h-109z" />
<glyph unicode="&#xfc;" horiz-adv-x="634" d="M82 231v840h160v-807q0 -68 8 -92q18 -45 69 -45q53 0 68 47q8 25 8 92v805h160v-1071h-160v72q-61 -86 -157 -86q-102 0 -138 86q-18 42 -18 159zM137 1243v189h133v-189h-133zM381 1243v189h131v-189h-131z" />
<glyph unicode="&#xfd;" horiz-adv-x="534" d="M6 1071h162l51 -424l51 -422l9 86l14 183q8 96 14 149l53 428h166l-190 -1177q-20 -133 -65.5 -180.5t-147.5 -47.5h-76v160q12 -2 31 -2q61 0 82 45q12 27 12 102q0 68 -8 121zM236 1217l116 241h185l-205 -241h-96z" />
<glyph unicode="&#xfe;" horiz-adv-x="622" d="M82 -334v1727h160v-396q53 88 145 88t139 -67q29 -43 29 -164v-612q0 -127 -25 -174q-41 -82 -141 -82q-76 0 -147 90v-410h-160zM242 264q0 -68 8 -92q18 -45 69 -45q53 0 68 47q8 25 8 92v543q0 66 -8 92q-14 43 -68 43q-51 0 -69 -43q-8 -27 -8 -92v-545z" />
<glyph unicode="&#xff;" horiz-adv-x="534" d="M6 1071h162l51 -424l51 -422l9 86l14 183q8 96 14 149l53 428h166l-190 -1177q-20 -133 -65.5 -180.5t-147.5 -47.5h-76v160q12 -2 31 -2q61 0 82 45q12 27 12 102q0 68 -8 121zM86 1243v189h131v-189h-131zM328 1243v189h131v-189h-131z" />
<glyph unicode="&#x152;" horiz-adv-x="974" d="M80 373v649q0 131 8 176q16 100 84 150q76 53 201 51l86 -2q23 0 41 -2l18 -2h406v-172h-283v-412h242v-174h-242v-461h283v-174h-406l-18 -2q-18 -2 -41 -2l-94 -2q-131 -2 -211 67q-53 47 -68 146q-6 39 -6 166zM268 291q0 -139 90 -139q94 0 95 139v813q0 137 -93 137 q-92 0 -92 -137v-813z" />
<glyph unicode="&#x153;" horiz-adv-x="927" d="M72 240v585q0 150 69 209q66 53 166 53q82 0 166 -49q66 49 162 49q131 0 190 -86q33 -51 33 -176v-327h-313v-240q0 -68 8 -92q16 -45 70 -45q51 0 67 47q8 25 8 90v139h160v-143q0 -139 -55 -199q-66 -70 -172 -69q-92 0 -158 51q-100 -51 -168 -51q-111 0 -178 67 q-55 56 -55 187zM231 258q0 -68 9 -92q16 -45 69 -45q51 0 68 47q8 25 8 90v561q0 63 -8 90q-18 43 -68 43q-53 0 -69 -43q-8 -25 -9 -90v-561zM545 637h153v182q0 66 -8 90q-16 43 -67 43q-53 0 -70 -41q-8 -27 -8 -92v-182z" />
<glyph unicode="&#x178;" horiz-adv-x="626" d="M-6 1393h190l78 -318q31 -131 49 -241q16 115 51 241l89 318h184l-234 -824v-569h-188v569zM123 1573v199h147v-199h-147zM387 1573v199h145v-199h-145z" />
<glyph unicode="&#x2c6;" horiz-adv-x="1044" d="M289 1221l178 233h111l178 -233h-111l-121 131l-127 -131h-108z" />
<glyph unicode="&#x2dc;" horiz-adv-x="1044" d="M281 1243q31 186 163 187q47 0 88 -21l54 -23q29 -12 51 -12q37 0 68 45l8 13h51q-59 -174 -160 -175q-27 0 -69 19l-52 22q-43 20 -69 21q-61 0 -86 -76h-47z" />
<glyph unicode="&#x2013;" d="M98 453v165h570v-165h-570z" />
<glyph unicode="&#x2014;" horiz-adv-x="786" d="M0 453v165h788v-165h-788z" />
<glyph unicode="&#x2018;" horiz-adv-x="354" d="M98 905v211q0 137 58 221q45 61 102 80v-45q-70 -41 -74 -151l2 -7l4 -59h68v-250h-160z" />
<glyph unicode="&#x2019;" horiz-adv-x="354" d="M98 883v45q76 45 72 157l-2 58h-70v250h160v-211q0 -137 -57 -221q-46 -62 -103 -78z" />
<glyph unicode="&#x201a;" horiz-adv-x="354" d="M98 0v250h160v-211q0 -137 -57 -221q-41 -59 -103 -76v43q70 45 70 158v57h-70z" />
<glyph unicode="&#x201c;" horiz-adv-x="610" d="M98 897v225q0 141 56 221q45 61 104 78v-43q-74 -49 -74 -159v-58h74v-264h-160zM354 897v225q0 137 60 221q43 61 102 78v-43q-74 -49 -74 -157v-60h74v-264h-162z" />
<glyph unicode="&#x201d;" horiz-adv-x="610" d="M98 868v45q74 47 74 158v57h-74v265h160v-226q0 -137 -57 -221q-42 -62 -103 -78zM354 868v45q76 47 76 158v57h-76v265h162v-226q0 -256 -162 -299z" />
<glyph unicode="&#x201e;" horiz-adv-x="610" d="M98 0v266h160v-227q0 -137 -57 -221q-41 -59 -103 -76v43q74 47 74 158v57h-74zM354 0v266h162v-227q0 -256 -162 -297v43q76 45 76 158v57h-76z" />
<glyph unicode="&#x2022;" horiz-adv-x="1392" d="M410 707q0 121 86 205.5t209 84.5q115 0 198.5 -86t83.5 -202q0 -121 -84 -206t-203 -85t-204.5 85t-85.5 204z" />
<glyph unicode="&#x2026;" horiz-adv-x="1064" d="M98 0v250h160v-250h-160zM453 0v250h161v-250h-161zM809 0v250h160v-250h-160z" />
<glyph unicode="&#x2039;" horiz-adv-x="413" d="M63 430v209l263 231v-196l-154 -139l154 -138v-194z" />
<glyph unicode="&#x203a;" horiz-adv-x="413" d="M90 203v194l154 140l-154 139v194l262 -229v-207z" />
<glyph unicode="&#x20ac;" horiz-adv-x="925" d="M98 631l33 127h100v221q0 125 5 166q12 92 57 153q80 117 237 117q158 0 238 -117q45 -61 57 -151q6 -45 6 -168v-86h-190v184q0 96 -24.5 136t-86.5 40q-59 0 -84.5 -39.5t-25.5 -136.5v-319h291l-35 -127h-256v-316q0 -96 25.5 -136t84.5 -40q61 0 86 40t25 136v248 h190v-149q0 -123 -6 -166q-10 -92 -57 -154q-80 -115 -238 -114q-158 0 -237 114q-45 61 -55 154q-6 43 -7 166v217h-133z" />
<glyph unicode="&#x2122;" horiz-adv-x="1044" d="M20 1282v111h390v-111h-129v-682h-129v682h-132zM485 600v793h166l86 -486l76 486h174v-793h-117v580q-8 -96 -8 -76l-8 -62l-74 -442h-88l-80 500q-8 51 -8 59l-2 12v-571h-117z" />
<glyph unicode="&#xe000;" horiz-adv-x="1070" d="M0 1070h1070v-1070h-1070v1070z" />
<glyph unicode="&#xfb01;" horiz-adv-x="681" d="M442 0v1071h160v-1071h-160zM442 1171v222h160v-222h-160zM14 932v139h90v156q0 68 5 92q10 49 47 70q31 16 141 16h57v-139h-30q-57 0 -58 -68v-127h88v-139h-88v-932h-162v932h-90z" />
<glyph unicode="&#xfb02;" horiz-adv-x="681" d="M442 0v1393h160v-1393h-160zM14 932v139h90v156q0 68 5 92q10 49 47 70q31 16 141 16h57v-139h-30q-57 0 -58 -68v-127h88v-139h-88v-932h-162v932h-90z" />
<glyph unicode="&#xfb03;" horiz-adv-x="1019" d="M14 932v139h90v156q0 68 5 92q10 49 47 70q31 16 141 16h57v-139h-30q-57 0 -58 -68v-127h176v156q0 68 4 92q10 49 50 70q29 16 139 16h59v-139h-32q-57 0 -58 -68v-127h90v-139h-90v-932h-162v932h-176v-932h-162v932h-90zM780 0v1071h162v-1071h-162zM780 1171v222 h162v-222h-162z" />
<glyph unicode="&#xfb04;" horiz-adv-x="1019" d="M14 932v139h90v156q0 68 5 92q10 49 47 70q31 16 141 16h57v-139h-30q-57 0 -58 -68v-127h176v156q0 68 4 92q10 49 50 70q29 16 139 16h59v-139h-32q-57 0 -58 -68v-127h90v-139h-90v-932h-162v932h-176v-932h-162v932h-90zM780 0v1393h162v-1393h-162z" />
</font>
</defs>
</svg>
