<?xml version="1.0" standalone="no"?>
<!DOCTYPE svg PUBLIC "-//W3C//DTD SVG 1.1//EN" "http://www.w3.org/Graphics/SVG/1.1/DTD/svg11.dtd" >
<svg xmlns="http://www.w3.org/2000/svg">
<metadata>
This is a custom SVG webfont generated by Font Squirrel.
Copyright   :  Copyright SoftMaker Software GmbH and its licensors
Designer    : SoftMaker Software GmbH
Foundry     : SoftMaker Software GmbH
Foundry URL : httpwwwsoftmakerde
</metadata>
<defs>
<font id="Ancona-ExLight" horiz-adv-x="1157" >
<font-face units-per-em="2048" ascent="1638" descent="-410" />
<missing-glyph horiz-adv-x="692" />
<glyph unicode=" "  horiz-adv-x="692" />
<glyph unicode="&#x09;" horiz-adv-x="692" />
<glyph unicode="&#xa0;" horiz-adv-x="692" />
<glyph unicode="!" horiz-adv-x="501" d="M166 0v215h170v-215h-170zM174 897v647h154v-647l-27 -459h-100z" />
<glyph unicode="&#x22;" horiz-adv-x="724" d="M121 1544h164l-23 -618h-119zM442 1544h162l-20 -618h-119z" />
<glyph unicode="#" horiz-adv-x="1386" d="M141 541l13 84h292l37 266h-293l11 84h295l59 432h88l-61 -432h278l62 432h86l-62 -432h299l-12 -84h-297l-39 -266h299l-10 -84h-299l-68 -467h-86l66 467h-279l-63 -467h-88l65 467h-293zM532 625h279l39 266h-281z" />
<glyph unicode="$" horiz-adv-x="1695" d="M84 324l145 32q57 -125 192.5 -186t383.5 -74v596l-158 13q-492 37 -491 378q0 205 171 317.5t478 110.5v181h125v-185q496 -31 594 -327l-142 -33q-90 211 -452 235v-567h12q342 -31 469 -88q188 -86 188 -281q0 -137 -89 -248.5t-246 -168.5q-127 -49 -334 -60v-151 h-125v151q-596 21 -721 355zM309 1090q0 -135 103 -193q88 -47 254 -61l139 -13v561q-496 -9 -496 -294zM930 96q238 12 376 102.5t138 233.5q0 166 -246 215q-57 12 -268 33v-584z" />
<glyph unicode="%" horiz-adv-x="1910" d="M76 1153q0 170 106.5 283.5t266.5 113.5q164 0 269 -113.5t105 -289.5q0 -168 -107.5 -280.5t-264.5 -112.5q-162 0 -268.5 113.5t-106.5 285.5zM176 1153q0 -139 76 -226t197 -87t198.5 86t77.5 221q0 145 -76 231t-200 86q-121 0 -197 -86t-76 -225zM410 -129 l1009 1833l54 -31l-1008 -1833zM1087 391q0 168 108 282.5t265 114.5q164 0 269.5 -112.5t105.5 -288.5q0 -168 -107.5 -280.5t-267.5 -112.5t-266.5 112.5t-106.5 284.5zM1188 391q0 -139 75.5 -226t198.5 -87q121 0 198 87t77 222q0 141 -77 229.5t-200 88.5 q-121 0 -196.5 -87.5t-75.5 -226.5z" />
<glyph unicode="&#x26;" horiz-adv-x="1759" d="M131 381q0 203 223 334q78 47 258 114q-166 186 -166 326q0 141 106.5 233.5t266.5 92.5q166 0 268.5 -89t102.5 -235q0 -129 -79 -216t-271 -165q137 -150 426 -432q127 174 170 440h127q-47 -334 -203 -520q154 -125 326 -139v-125q-221 -4 -420 164 q-231 -211 -559 -211q-244 0 -410 123t-166 305zM287 391q0 -139 124 -230t312 -91q262 0 448 178l-466 477q-231 -72 -324.5 -146.5t-93.5 -187.5zM592 1155q0 -100 156 -281q131 51 194 91q109 70 109 196q0 86 -63.5 141.5t-166.5 55.5q-98 0 -163.5 -57.5t-65.5 -145.5z " />
<glyph unicode="'" horiz-adv-x="409" d="M121 1544h166l-23 -618h-121z" />
<glyph unicode="(" horiz-adv-x="858" d="M125 602q0 295 134 556t382 446l53 -56q-193 -184 -300 -436t-107 -510q0 -262 107.5 -512t299.5 -434l-53 -55q-248 186 -382 446t-134 555z" />
<glyph unicode=")" horiz-adv-x="858" d="M164 -344q193 184 300 435t107 511t-107.5 511t-299.5 435l51 56q250 -186 384 -446.5t134 -555.5q0 -297 -134 -557t-384 -444z" />
<glyph unicode="*" horiz-adv-x="909" d="M123 1266l33 98l252 -88l-5 268h101l-4 -268l254 88l32 -98l-256 -78l160 -215l-82 -62l-155 224l-152 -224l-84 62l162 215z" />
<glyph unicode="+" d="M57 737v86h475v445h91v-445h477v-86h-477v-442h-91v442h-475z" />
<glyph unicode="," horiz-adv-x="477" d="M156 0v215h168v-238q0 -115 -36 -165t-126 -62v70q88 18 88 112v68h-94z" />
<glyph unicode="-" horiz-adv-x="593" d="M0 510v121h594v-121h-594z" />
<glyph unicode="." horiz-adv-x="477" d="M156 0v215h168v-215h-168z" />
<glyph unicode="/" horiz-adv-x="1224" d="M88 0l866 1544h129l-864 -1544h-131z" />
<glyph unicode="0" horiz-adv-x="1695" d="M113 743q0 330 209.5 550t525.5 220q322 0 528.5 -220t206.5 -562q0 -158 -61.5 -308.5t-165.5 -254.5q-201 -199 -508 -199q-317 0 -526 219t-209 555zM283 743q0 -291 154.5 -469t410.5 -178q252 0 408.5 177.5t156.5 459.5q0 297 -153.5 475t-411.5 178 q-254 0 -409.5 -177t-155.5 -466z" />
<glyph unicode="1" horiz-adv-x="1695" d="M467 1073v119l10 -2h15q188 0 270 69.5t100 237.5h119v-1497h-145v1180q-109 -109 -320 -109q-29 0 -49 2z" />
<glyph unicode="2" horiz-adv-x="1695" d="M197 0v139q606 276 811 414q311 211 311 455q0 164 -131 269t-336 105q-266 0 -403 -143q-98 -104 -109 -299l-143 23q35 268 203.5 409t455.5 141q272 0 445.5 -141t173.5 -360q0 -246 -232.5 -442.5t-822.5 -446.5h1073v-123h-1296z" />
<glyph unicode="3" horiz-adv-x="1695" d="M135 444l150 43q51 -164 149 -249q166 -141 428 -142q227 0 364.5 95.5t137.5 250.5q0 129 -98.5 200t-280.5 71h-385v123h330q195 0 285 70.5t90 187.5q0 133 -122 212.5t-325 79.5q-248 0 -381 -118q-82 -72 -129 -230l-141 47q66 178 168 273q170 156 485 155 q260 0 430 -116.5t170 -292.5q0 -131 -94 -217q-59 -53 -174 -88q139 -35 211 -94q129 -106 129 -267q0 -106 -63.5 -204.5t-172.5 -161.5q-176 -102 -434 -103q-342 0 -530 170q-117 104 -197 305z" />
<glyph unicode="4" horiz-adv-x="1695" d="M100 391v123l916 983h153v-983h349v-123h-349v-391h-147v391h-922zM279 514h743v803z" />
<glyph unicode="5" horiz-adv-x="1695" d="M129 399l154 35q35 -127 110 -198q147 -139 420 -140q240 0 393.5 120t153.5 310q0 170 -136.5 277.5t-353.5 107.5q-336 0 -483 -241h-127l23 811h1122l-2 -123h-1000l-16 -510q219 190 502 190q268 0 447.5 -150.5t179.5 -373.5q0 -254 -216 -410q-184 -135 -477 -135 q-322 0 -518 162q-121 100 -176 268z" />
<glyph unicode="6" horiz-adv-x="1695" d="M154 696q0 387 192.5 602t540.5 215q211 0 355 -72.5t259 -236.5l-135 -67q-174 250 -477 249q-373 0 -512 -311q-57 -131 -86 -364q201 285 600 284q287 0 474 -140t187 -355q0 -238 -211 -394q-184 -137 -471 -137q-342 0 -529 190.5t-187 536.5zM358 487 q0 -170 142.5 -280.5t361.5 -110.5q229 0 383 111.5t154 279.5q0 174 -142.5 277.5t-382.5 103.5q-227 0 -371.5 -106.5t-144.5 -274.5z" />
<glyph unicode="7" horiz-adv-x="1695" d="M178 1358v123h1311v-99q-98 -61 -248.5 -241t-241.5 -340q-123 -219 -176 -395.5t-61 -405.5h-164q6 328 185.5 691.5t484.5 666.5h-1090z" />
<glyph unicode="8" horiz-adv-x="1695" d="M158 406q0 184 164 290q82 53 213 88q-127 33 -197 86q-119 90 -119 238q0 178 175 291.5t456 113.5q279 0 454 -113.5t175 -291.5q0 -147 -119 -238q-66 -51 -197 -86q135 -37 213 -88q166 -106 166 -290q0 -98 -56 -188.5t-151 -143.5q-182 -104 -485 -105 q-301 0 -488 105q-94 53 -149 143.5t-55 188.5zM313 406q0 -145 140.5 -227.5t396.5 -82.5q252 0 394 82t142 221q0 313 -542 314q-252 0 -391.5 -81t-139.5 -226zM375 1102q0 -117 128 -184.5t347 -67.5q215 0 344 67.5t129 182.5q0 131 -128 208.5t-347 77.5 q-213 0 -343 -77.5t-130 -206.5z" />
<glyph unicode="9" horiz-adv-x="1695" d="M143 983q0 240 211 393q184 137 469 137q344 0 531.5 -189t187.5 -538q0 -387 -193.5 -602t-541.5 -215q-205 0 -342 67.5t-252 223.5l137 80q168 -244 457 -244q365 0 498 293q61 131 84 346q-182 -248 -588 -248q-287 0 -472.5 140.5t-185.5 355.5zM299 995 q0 -174 141.5 -276.5t378.5 -102.5q227 0 371.5 106.5t144.5 272.5q0 172 -142 281.5t-362 109.5q-229 0 -380.5 -111.5t-151.5 -279.5z" />
<glyph unicode=":" horiz-adv-x="477" d="M156 0v215h168v-215h-168zM156 850v215h168v-215h-168z" />
<glyph unicode=";" horiz-adv-x="477" d="M156 0v215h168v-238q0 -115 -36 -165t-126 -62v70q88 18 88 112v68h-94zM156 850v215h168v-215h-168z" />
<glyph unicode="&#x3c;" d="M76 709v133l1003 465v-154l-837 -377l837 -381v-151z" />
<glyph unicode="=" d="M57 578v86h1043v-86h-1043zM57 901v84h1043v-84h-1043z" />
<glyph unicode="&#x3e;" d="M78 244v151l837 381l-837 379v152l1003 -465v-133z" />
<glyph unicode="?" horiz-adv-x="1425" d="M70 1108q147 477 649 477q276 0 441 -134t165 -359q0 -346 -360 -451l-97 -29q-100 -27 -125.5 -58.5t-27.5 -123.5h-137l4 29q10 127 46 178t148 86l103 31q160 49 230.5 126.5t70.5 202.5q0 168 -129 273.5t-338 105.5q-397 0 -520 -397zM559 0v215h170v-215h-170z" />
<glyph unicode="@" horiz-adv-x="1599" d="M72 745q0 324 224 549.5t548 225.5q291 0 488.5 -181.5t197.5 -447.5q0 -264 -197 -430q-143 -121 -282 -121q-141 0 -156 133q-115 -131 -252 -131q-104 0 -168.5 76t-64.5 198q0 207 134 377t298 170q154 0 211 -151l45 114h88l-189 -542q-20 -61 -20 -101 q0 -84 94 -84q119 0 234 115q156 150 155 373q0 240 -177 404.5t-439 164.5q-295 0 -498 -206t-203 -507q0 -295 199 -495.5t489 -200.5q184 0 347 93t245 247l74 -2q-59 -135 -182 -231q-215 -172 -484 -172q-317 0 -538 222t-221 541zM506 594q0 -195 151 -195 q94 0 172 78q53 53 101 185l53 145q31 84 31 129q0 72 -44 121t-108 49q-131 0 -243.5 -161t-112.5 -351z" />
<glyph unicode="A" horiz-adv-x="1765" d="M25 0l763 1544h160l793 -1544h-158l-207 403h-999l-201 -403h-151zM438 526h877l-445 867z" />
<glyph unicode="B" horiz-adv-x="2043" d="M197 0v1544h1110q266 0 381 -92q131 -106 131 -297q0 -143 -80 -233q-59 -68 -201 -107q168 -35 248 -106q117 -104 117 -295q0 -215 -156 -326q-123 -88 -444 -88h-1106zM352 131h910q258 0 348 47q123 63 123 238q0 174 -125 254q-109 66 -457 65h-799v-604zM352 868 h801q240 0 344 37q154 53 154 230q0 135 -95 211q-84 66 -278 65h-926v-543z" />
<glyph unicode="C" horiz-adv-x="1910" d="M125 764q0 360 252 595.5t639 235.5q502 0 762 -432l-142 -78q-111 197 -258 284t-364 87q-315 0 -513 -190.5t-198 -489.5q0 -303 197.5 -495.5t511.5 -192.5q272 0 463 154q98 80 202 233l142 -65q-164 -246 -350.5 -353.5t-452.5 -107.5q-389 0 -640 229.5t-251 585.5 z" />
<glyph unicode="D" horiz-adv-x="1945" d="M197 0v1544h741q397 0 588 -127q137 -94 217 -266t80 -379q0 -219 -92.5 -404.5t-245.5 -273.5q-166 -94 -547 -94h-741zM352 131h508q408 0 549 96q236 160 236 541q0 197 -72 347.5t-203 223t-510 72.5h-508v-1280z" />
<glyph unicode="E" horiz-adv-x="1865" d="M197 0v1544h1489v-133h-1334v-549h1229v-131h-1229v-600h1405v-131h-1560z" />
<glyph unicode="F" horiz-adv-x="1679" d="M197 0v1544h1423v-133h-1268v-553h1137v-131h-1137v-727h-155z" />
<glyph unicode="G" horiz-adv-x="2015" d="M125 764q0 393 305 631q252 197 633 196q518 0 768 -381l-145 -88q-104 176 -248 254t-367 78q-348 0 -558 -187.5t-210 -498.5q0 -303 202 -490.5t529 -187.5q358 0 561 250q111 137 127 342h-825v133h952v-799h-127v322q-96 -160 -209 -242q-201 -145 -491 -145 q-383 0 -640 232.5t-257 580.5z" />
<glyph unicode="H" horiz-adv-x="1998" d="M197 0v1544h155v-665h1297v665h153v-1544h-153v748h-1297v-748h-155z" />
<glyph unicode="I" horiz-adv-x="544" d="M197 0v1544h155v-1544h-155z" />
<glyph unicode="J" horiz-adv-x="1212" d="M0 375l150 63q47 -137 114 -205q131 -129 367 -129q246 0 352 148q74 106 74 475v817h155v-817q0 -197 -8 -276q-18 -156 -83.5 -260.5t-202 -165t-302.5 -60.5q-458 0 -616 410z" />
<glyph unicode="K" horiz-adv-x="1775" d="M197 0v1544h155v-940l1139 940h211l-729 -602l786 -942h-186l-707 852l-514 -420v-432h-155z" />
<glyph unicode="L" horiz-adv-x="1505" d="M197 0v1544h155v-1413h1123v-131h-1278z" />
<glyph unicode="M" horiz-adv-x="2101" d="M197 0v1544h219l641 -1384l633 1384h215v-1544h-156v1341l-623 -1341h-141l-633 1341v-1341h-155z" />
<glyph unicode="N" horiz-adv-x="2004" d="M197 0v1544h155l1305 -1343v1343h155v-1544h-155l-1305 1339v-1339h-155z" />
<glyph unicode="O" horiz-adv-x="2103" d="M125 770q0 358 259 589.5t665 231.5q414 0 671.5 -229t257.5 -602q0 -352 -261 -581.5t-666 -229.5q-408 0 -667 230.5t-259 590.5zM303 770q0 -307 206 -494.5t542 -187.5q334 0 541.5 186.5t207.5 487.5q0 313 -204.5 502.5t-544.5 189.5q-336 0 -542 -187.5 t-206 -496.5z" />
<glyph unicode="P" horiz-adv-x="1830" d="M197 0v1544h985q283 0 409 -82q172 -109 172 -340q0 -137 -73.5 -244.5t-200.5 -150.5q-111 -39 -375 -39h-762v-688h-155zM352 819h735q326 0 422 84q86 76 86 207q0 166 -112 242q-88 59 -303 59h-828v-592z" />
<glyph unicode="Q" horiz-adv-x="2125" d="M125 770q0 362 260 591.5t668 229.5t666.5 -229t258.5 -592q0 -371 -276 -606l299 -152l-74 -106l-346 176q-231 -133 -530 -133q-408 0 -667 230.5t-259 590.5zM303 770q0 -307 206 -494.5t542 -187.5q334 0 541.5 186.5t207.5 487.5q0 313 -204.5 502.5t-544.5 189.5 q-336 0 -542 -187.5t-206 -496.5z" />
<glyph unicode="R" horiz-adv-x="1982" d="M197 0v1544h1020q301 0 413 -74q170 -117 170 -352q0 -252 -217 -360q-119 -61 -334 -70l617 -688h-193l-610 688h-711v-688h-155zM352 819h838q233 0 337.5 71t104.5 228q0 176 -121 246q-86 47 -321 47h-838v-592z" />
<glyph unicode="S" horiz-adv-x="1808" d="M90 375l160 59q59 -160 192 -237q180 -109 496 -109q270 0 431 98.5t161 262.5q0 162 -148 217q-117 45 -378 69l-297 31q-268 29 -389 116t-121 261q0 217 180 332.5t524 115.5q311 0 504 -92q131 -63 233 -207l-147 -78q-98 135 -207 181q-137 59 -375 59 q-543 0 -542 -307q0 -113 76.5 -162t283.5 -72l291 -26q336 -33 483 -107q197 -98 197 -327q0 -225 -203 -364.5t-557 -139.5q-406 0 -625 141q-139 88 -223 285z" />
<glyph unicode="T" horiz-adv-x="1576" d="M39 1411v133h1503v-133h-657v-1411h-156v1411h-690z" />
<glyph unicode="U" horiz-adv-x="1925" d="M180 748v796h156v-766q0 -283 24 -370q90 -317 603 -318q567 0 620 397q6 53 6 291v766h156v-796q0 -281 -35 -396q-121 -401 -747 -401q-440 0 -635 205q-86 92 -117 212t-31 380z" />
<glyph unicode="V" horiz-adv-x="1628" d="M12 1544h160l651 -1376l639 1376h156l-723 -1544h-143z" />
<glyph unicode="W" horiz-adv-x="2322" d="M12 1544h148l456 -1382l474 1382h161l482 -1382l436 1382h143l-489 -1544h-172l-482 1360l-473 -1360h-174z" />
<glyph unicode="X" horiz-adv-x="1634" d="M18 0l689 791l-682 753h194l584 -641l563 641h180l-645 -747l717 -797h-193l-622 688l-604 -688h-181z" />
<glyph unicode="Y" horiz-adv-x="1617" d="M12 1544h178l641 -809l611 809h166l-699 -934v-610h-155v610z" />
<glyph unicode="Z" horiz-adv-x="1703" d="M68 0v154l1388 1257h-1294v133h1468v-172l-1364 -1241h1364v-131h-1562z" />
<glyph unicode="[" horiz-adv-x="778" d="M162 -371v1944h456v-121h-311v-1700h311v-123h-456z" />
<glyph unicode="\" horiz-adv-x="1224" d="M143 1544h131l865 -1544h-129z" />
<glyph unicode="]" horiz-adv-x="778" d="M162 -248h311v1700h-311v121h456v-1944h-456v123z" />
<glyph unicode="^" d="M78 874l414 672h174l413 -672h-151l-353 566l-348 -566h-149z" />
<glyph unicode="_" d="M0 -172h1157v-102h-1157v102z" />
<glyph unicode="`" d="M377 1511h227l160 -307h-90z" />
<glyph unicode="a" horiz-adv-x="1527" d="M109 307q0 258 280 338q150 45 535 45h256q2 23 2 62q0 240 -437 239q-246 0 -348 -65q-63 -41 -106 -158l-146 14q55 180 183 248q145 76 401 76q344 0 483 -109q109 -86 109 -292q0 -45 -2 -62l-14 -364q0 -100 27.5 -136.5t109.5 -36.5q10 0 51 5v-111 q-66 -10 -117 -10q-98 0 -142 30.5t-65 110.5q-242 -172 -542 -172q-248 0 -383 91t-135 257zM279 313q0 -106 92 -166.5t256 -60.5q139 0 266 40t197 105q82 78 88 267l2 71h-201q-430 0 -555 -51q-145 -60 -145 -205z" />
<glyph unicode="b" horiz-adv-x="1574" d="M176 0v1544h143v-624q195 186 480 186q293 0 480 -162t187 -416q0 -258 -176 -413.5t-469 -155.5q-322 0 -502 188v-147h-143zM319 530q0 -213 129.5 -328.5t368.5 -115.5q199 0 320 92q72 55 116.5 151.5t44.5 196.5q0 199 -141 326t-366 127q-213 0 -349 -119 q-123 -107 -123 -330z" />
<glyph unicode="c" horiz-adv-x="1519" d="M109 526q0 258 186 419t487 161q416 0 635 -342l-147 -57q-154 272 -492 272q-229 0 -364 -122t-135 -325q0 -201 135 -323.5t354 -122.5q231 0 385 127q78 66 143 190l142 -55q-98 -172 -209 -256q-180 -133 -459 -133q-295 0 -478 155.5t-183 411.5z" />
<glyph unicode="d" horiz-adv-x="1574" d="M109 528q0 254 187 416t482 162q285 0 479 -186v624h144v-1544h-144v147q-184 -188 -503 -188q-291 0 -468 155.5t-177 413.5zM279 537q0 -233 161 -359q119 -92 322 -92q238 0 366.5 115.5t128.5 328.5q0 219 -122 330q-133 119 -353 119q-217 0 -360 -126t-143 -316z " />
<glyph unicode="e" horiz-adv-x="1497" d="M109 551q0 244 172 399.5t446 155.5q358 0 543 -256q98 -135 116 -344h-1112q16 -172 86 -258q135 -162 410 -162q319 0 498 264l118 -84q-213 -307 -608 -307q-297 0 -483 164t-186 428zM274 627h930q-35 174 -159.5 269t-321.5 95q-369 1 -449 -364z" />
<glyph unicode="f" horiz-adv-x="851" d="M78 944v121h213v176q0 172 63 242q76 84 236 84q84 0 207 -23v-123q-117 23 -179 23q-102 0 -143 -45t-41 -158v-176h363v-121h-363v-944h-143v944h-213z" />
<glyph unicode="g" horiz-adv-x="1574" d="M109 528q0 254 187 416t482 162q274 0 479 -174v133h144v-991q0 -174 -32 -258t-118 -148q-154 -111 -465 -110q-301 0 -448 104q-117 84 -131 248h149q10 -84 58 -131q96 -94 362 -94q297 0 406 102q51 47 65 113q10 37 10 133v110q-209 -184 -503 -184 q-291 0 -468 155.5t-177 413.5zM279 537q0 -233 161 -359q119 -92 322 -92q238 0 366.5 115.5t128.5 328.5q0 219 -122 330q-133 119 -353 119q-217 0 -360 -126t-143 -316z" />
<glyph unicode="h" horiz-adv-x="1581" d="M176 0v1544h143v-622q184 184 506 184q285 0 445 -137q137 -115 137 -353v-616h-143v547q0 213 -68 301q-102 131 -379 131q-233 0 -375 -100q-123 -84 -123 -281v-598h-143z" />
<glyph unicode="i" horiz-adv-x="493" d="M176 0v1065h143v-1065h-143zM176 1249v203h143v-203h-143z" />
<glyph unicode="j" horiz-adv-x="610" d="M-57 -268q115 -23 178 -23q92 0 131 44t39 153v1159h143v-1202q0 -283 -280 -283q-88 0 -211 25v127zM291 1249v203h143v-203h-143z" />
<glyph unicode="k" horiz-adv-x="1490" d="M176 0v1544h143v-1100l799 621h203l-526 -412l686 -653h-199l-594 569l-369 -282v-287h-143z" />
<glyph unicode="l" horiz-adv-x="493" d="M176 0v1544h143v-1544h-143z" />
<glyph unicode="m" horiz-adv-x="2584" d="M176 0v1065h143v-141q197 182 494 182q326 0 494 -209q102 115 216.5 162t291.5 47q307 0 469 -143q125 -111 124 -369v-594h-143v575q0 129 -22.5 195t-85.5 115q-109 82 -342 82q-197 0 -316 -78q-133 -90 -133 -295v-594h-143v575q0 129 -23.5 195t-85.5 115 q-111 82 -344 82q-197 0 -313 -78q-137 -90 -138 -295v-594h-143z" />
<glyph unicode="n" horiz-adv-x="1581" d="M176 0v1065h143v-143q184 184 506 184q285 0 445 -137q137 -117 137 -353v-616h-143v547q0 211 -68 293q-102 127 -379 127q-229 0 -373 -97q-125 -86 -125 -272v-598h-143z" />
<glyph unicode="o" horiz-adv-x="1585" d="M109 532q0 258 186 416t493 158q317 0 502 -157.5t185 -426.5q0 -252 -188.5 -407.5t-495.5 -155.5q-309 0 -495.5 156.5t-186.5 416.5zM279 532q0 -207 137 -326.5t375 -119.5t376 119t138 321q0 211 -136.5 332t-380.5 121q-236 0 -372.5 -121t-136.5 -326z" />
<glyph unicode="p" horiz-adv-x="1574" d="M176 -399v1464h143v-150q182 190 502 191q293 0 469 -155.5t176 -413.5q0 -254 -187 -416t-480 -162q-285 0 -480 186v-544h-143zM319 535q0 -219 123 -332q131 -117 353 -117q217 0 360 126t143 316q0 236 -161 359q-123 92 -322 92q-240 0 -368 -115.5t-128 -328.5z " />
<glyph unicode="q" horiz-adv-x="1574" d="M109 537q0 258 177 413.5t468 155.5q322 0 503 -191v150h144v-1464h-144v544q-195 -186 -479 -186q-295 0 -482 162t-187 416zM279 539q0 -199 140 -326t365 -127q219 0 351 117q123 113 122 332q0 213 -130 328.5t-367 115.5q-201 0 -320 -92q-72 -55 -116.5 -151.5 t-44.5 -196.5z" />
<glyph unicode="r" horiz-adv-x="903" d="M176 0v1065h143v-158q174 190 472 191q39 0 65 -4v-146q-57 10 -102 10q-209 0 -322 -102t-113 -291v-565h-143z" />
<glyph unicode="s" horiz-adv-x="1419" d="M94 256l156 27q59 -100 149 -138q145 -59 326 -59q203 0 319.5 58.5t116.5 160.5q0 158 -287 174l-321 19q-215 12 -313.5 80.5t-98.5 205.5q0 322 555 322q301 0 455 -92q84 -51 145 -160l-168 -33q-37 82 -147 119q-121 39 -285 39q-399 0 -399 -193q0 -72 56.5 -101.5 t211.5 -39.5l295 -16q469 -25 469 -312q0 -170 -158.5 -264t-441.5 -94q-305 0 -477 107q-113 69 -158 190z" />
<glyph unicode="t" horiz-adv-x="823" d="M57 944v121h205v356l144 70v-426h329v-121h-329v-702q0 -86 34.5 -116t137.5 -30q14 0 157 6v-118q-84 -14 -186 -15q-164 0 -234 62q-53 45 -53 200v713h-205z" />
<glyph unicode="u" horiz-adv-x="1587" d="M176 504v561h143v-561q0 -213 68 -289q104 -119 350 -119q141 0 275 41q168 53 229 148q27 47 27 153v627h143v-1065h-143v137q-238 -178 -537 -178q-309 0 -467 168q-63 70 -82 178q-6 49 -6 199z" />
<glyph unicode="v" horiz-adv-x="1243" d="M6 1065h162l455 -891l458 891h158l-557 -1065h-127z" />
<glyph unicode="w" horiz-adv-x="1865" d="M6 1065h152l364 -872l338 872h158l342 -872l352 872h146l-433 -1065h-133l-356 891l-348 -891h-131z" />
<glyph unicode="x" horiz-adv-x="1243" d="M6 0l529 553l-486 512h180l396 -418l397 418h176l-485 -510l522 -555h-180l-432 459l-441 -459h-176z" />
<glyph unicode="y" horiz-adv-x="1257" d="M6 1065h160l512 -979l416 979h155l-522 -1202q-82 -184 -167 -244.5t-271 -60.5q-121 0 -232 26v133q123 -33 230 -32q135 0 200.5 50t120.5 193z" />
<glyph unicode="z" horiz-adv-x="1277" d="M68 0v121l944 823h-877v121h1096v-107l-946 -837h946v-121h-1163z" />
<glyph unicode="{" d="M332 516v115q133 43 133 219v414q0 160 65 231q72 82 277 82h29v-135q-125 -4 -171.5 -52.5t-46.5 -166.5v-394q0 -106 -27.5 -163.5t-98.5 -94.5q127 -68 126 -264v-379q0 -129 45.5 -177t172.5 -52v-127q-12 -2 -25 -2q-217 0 -285 88q-61 76 -61 258v379 q0 100 -28.5 149t-104.5 72z" />
<glyph unicode="|" d="M502 -387v1931h153v-1931h-153z" />
<glyph unicode="}" d="M324 -297q125 6 171 53t46 168v393q0 106 28.5 163t100.5 95q-72 37 -100.5 96.5t-28.5 168.5v377q0 131 -45 180t-172 51v129h26q217 0 285 -86q59 -78 59 -260v-377q0 -102 30 -151.5t105 -73.5v-115q-135 -39 -135 -217v-416q0 -160 -65 -231q-72 -80 -277 -80 q-16 0 -28 2v131z" />
<glyph unicode="~" horiz-adv-x="1542" d="M219 1421q123 250 309 250q92 0 271 -92q158 -82 221 -82q121 0 221 178l84 -65q-113 -250 -321 -250q-61 0 -150 41l-139 69q-125 61 -193 62q-117 0 -217 -178z" />
<glyph unicode="&#xa1;" horiz-adv-x="501" d="M166 850v215h170v-215h-170zM174 166l27 461h100l27 -461v-645h-154v645z" />
<glyph unicode="&#xa2;" horiz-adv-x="1695" d="M201 748q0 238 159.5 389t434.5 176v186h108v-186q385 -25 572 -332l-142 -57q-125 236 -430 262v-862q319 37 453 303l139 -54q-182 -346 -592 -376v-156h-108v156q-276 18 -435 165.5t-159 385.5zM358 754q0 -182 118 -299t319 -131v858q-205 -14 -321 -128t-116 -300z " />
<glyph unicode="&#xa3;" horiz-adv-x="1695" d="M68 211q0 94 85 156.5t220 62.5q125 0 358 -102q4 43 4 49q0 74 -29.5 130t-130.5 155l-36 36h-445v113h338l-12 12q-147 145 -148 293q0 186 168 307t430 121q393 0 549 -252q63 -104 80 -276h-141q-16 170 -90 254q-125 147 -400 147q-199 0 -321.5 -82t-122.5 -211 q0 -115 143 -258l56 -55h491v-113h-381q137 -147 137 -319q0 -59 -22 -119q250 -156 399 -156q88 0 140.5 69t52.5 185q0 4 -4 84h129q4 -61 4 -71q0 -180 -93.5 -291t-248.5 -111q-106 0 -193.5 37t-249.5 152q-160 -188 -385 -189q-145 0 -238 68t-93 174zM207 201 q0 -109 192 -109q178 0 283 123q-23 12 -27 16q-164 88 -276 88q-76 0 -124 -33.5t-48 -84.5z" />
<glyph unicode="&#xa4;" horiz-adv-x="2125" d="M113 604l59 111h150q-2 23 -3 49q0 35 3 61h-209l59 113h166q57 295 296.5 476t573.5 181q258 0 442.5 -103t321.5 -329l-141 -78q-111 197 -258.5 284t-364.5 87q-268 0 -454.5 -139t-239.5 -379h1034l-59 -113h-991v-55q0 -27 2 -55h930l-60 -111h-854 q57 -244 241.5 -380t448.5 -136q272 0 463 154q98 80 203 233l141 -65q-164 -248 -350 -354.5t-453 -106.5q-342 0 -578.5 177t-297.5 478h-221z" />
<glyph unicode="&#xa5;" horiz-adv-x="1695" d="M74 1481h174l289 -367h632l275 367h164l-275 -367h193v-113h-279l-231 -305h340v-110h-420v-586h-148v586h-419v110h336l-248 305h-258v113h168zM625 1001l233 -294l225 294h-458z" />
<glyph unicode="&#xa6;" d="M502 354h153v-741h-153v741zM502 776v768h153v-768h-153z" />
<glyph unicode="&#xa7;" horiz-adv-x="1568" d="M109 643q0 125 54 212t193 185q-88 98 -88 199q0 154 134.5 250t349.5 96q328 0 571 -164l-109 -135q-199 150 -462 150q-313 0 -314 -193q0 -86 80 -129q55 -31 318 -100q350 -92 469 -178q156 -109 155 -316q0 -158 -100 -284q-43 -55 -139 -132q72 -98 71 -204 q0 -160 -139 -262.5t-354 -102.5q-336 0 -625 184l111 136q246 -170 518 -170q147 0 233 61t86 166q0 109 -125 162q-70 31 -352 100q-311 76 -430 193q-106 102 -106 276zM279 659q0 -162 178 -247q72 -35 417 -125q166 -43 244 -88q174 127 174 295q0 131 -85 198.5 t-337 132.5q-268 72 -407 133q-184 -137 -184 -299z" />
<glyph unicode="&#xa8;" d="M215 1243v209h139v-209h-139zM803 1243v209h139v-209h-139z" />
<glyph unicode="&#xa9;" horiz-adv-x="1816" d="M111 770q0 336 235.5 567.5t573.5 231.5q322 0 553 -234.5t231 -562.5q0 -330 -232.5 -563.5t-564.5 -233.5q-330 0 -563 233.5t-233 561.5zM199 768q0 -293 208.5 -504t499.5 -211q293 0 501 211t208 506t-206 507t-495 212q-299 0 -507.5 -210t-208.5 -511zM473 772 q0 213 125 345t324 132q160 0 272.5 -90t126.5 -227h-82q-25 106 -110 166.5t-207 60.5q-156 0 -251.5 -106.5t-95.5 -280.5q0 -172 94.5 -277.5t250.5 -105.5q135 0 224 80t107 215h84q-12 -172 -128.5 -278.5t-291.5 -106.5q-199 0 -320.5 132t-121.5 341z" />
<glyph unicode="&#xaa;" horiz-adv-x="802" d="M82 678v80h670v-80h-670zM86 1063q0 94 70 145q43 31 87 41.5t208 26.5q55 4 96 27q18 8 18 57q0 139 -170 139q-166 0 -180 -160h-92q14 231 276 232q131 0 201 -64q18 -18 24.5 -31.5t26.5 -74.5q8 -33 11 -336q0 -137 32 -176h-108q-16 35 -19 112 q-61 -78 -109 -104.5t-134 -26.5q-111 0 -174.5 51.5t-63.5 141.5zM178 1067q0 -127 156 -127q233 0 233 264v39q-35 -23 -205 -37q-184 -16 -184 -139z" />
<glyph unicode="&#xab;" horiz-adv-x="1112" d="M92 510v121l434 366v-104l-293 -322l293 -321v-107zM549 510v121l434 366v-104l-293 -322l293 -321v-107z" />
<glyph unicode="&#xac;" d="M76 502v137h1003v-639h-151v502h-852z" />
<glyph unicode="&#xad;" horiz-adv-x="593" d="M0 510v121h594v-121h-594z" />
<glyph unicode="&#xae;" horiz-adv-x="1816" d="M111 770q0 336 233.5 567.5t570.5 231.5q326 0 557.5 -234.5t231.5 -564.5q0 -328 -232.5 -561.5t-564.5 -233.5q-330 0 -563 233.5t-233 561.5zM199 768q0 -293 208.5 -504t499.5 -211q293 0 501 211t208 506t-206 507t-495 212q-299 0 -507.5 -209t-208.5 -512z M565 307v914h383q319 0 320 -252q0 -164 -168 -221q90 -31 119.5 -86.5t33.5 -202.5q6 -111 29 -152h-102q-18 27 -25 168q-4 98 -17.5 137t-47.5 62q-57 37 -183 37h-241v-404h-101zM666 780h241q260 0 260 185q0 182 -237 182h-264v-367z" />
<glyph unicode="&#xaf;" d="M0 1866v98h1157v-98h-1157z" />
<glyph unicode="&#xb0;" d="M256 1212q0 133 95 226.5t231 93.5q131 0 225 -95.5t94 -228.5q0 -129 -95 -224t-224 -95q-135 0 -230.5 95t-95.5 228zM336 1210q0 -102 71.5 -173.5t170.5 -71.5q100 0 171.5 71.5t71.5 169.5q0 104 -71.5 177t-174.5 73q-98 0 -168.5 -72t-70.5 -174z" />
<glyph unicode="&#xb1;" d="M57 141v86h1043v-86h-1043zM57 770v86h475v442h91v-442h477v-86h-477v-438h-91v438h-475z" />
<glyph unicode="&#xb2;" horiz-adv-x="1089" d="M131 618v95q383 164 508 245q190 121 190 263q0 92 -78.5 151.5t-201.5 59.5q-301 0 -313 -261l-105 17q18 162 127 250t291 88q170 0 280.5 -85t110.5 -218q0 -143 -141.5 -261t-481.5 -255h633v-89h-819z" />
<glyph unicode="&#xb3;" horiz-adv-x="1089" d="M92 891l109 33q72 -233 354 -234q135 0 219 53.5t84 141.5q0 152 -227 151h-246v88h213q223 0 223 146q0 76 -72.5 121t-195.5 45q-156 0 -234 -68q-49 -43 -77 -141l-105 33q55 141 153.5 203.5t262.5 62.5t271.5 -72t107.5 -178q0 -131 -146 -182q193 -49 193 -209 q0 -125 -119 -205t-305 -80q-182 0 -289.5 67.5t-173.5 223.5z" />
<glyph unicode="&#xb4;" d="M381 1204l158 307h229l-295 -307h-92z" />
<glyph unicode="&#xb5;" d="M125 -381v1491h135v-637q0 -106 10 -156q16 -80 70 -137q88 -94 225 -94q145 0 237.5 114.5t92.5 297.5v612h135v-1110h-135v225q-100 -256 -336 -256q-190 0 -299 176v-526h-135z" />
<glyph unicode="&#x3bc;" d="M125 -381v1491h135v-637q0 -106 10 -156q16 -80 70 -137q88 -94 225 -94q145 0 237.5 114.5t92.5 297.5v612h135v-1110h-135v225q-100 -256 -336 -256q-190 0 -299 176v-526h-135z" />
<glyph unicode="&#xb6;" horiz-adv-x="1255" d="M55 1133q0 242 195 350q109 61 303 61h539v-71h-136v-1735h-88v1735h-260v-1735h-88v987q-121 0 -201 27q-123 43 -193.5 144.5t-70.5 236.5z" />
<glyph unicode="&#xb7;" horiz-adv-x="477" d="M156 463v215h168v-215h-168z" />
<glyph unicode="&#xb8;" d="M358 -315q68 -6 134 -7q162 0 161 76q0 82 -149 82h-21v164h95v-86q211 -4 210 -156q0 -156 -247 -155q-72 0 -183 10v72z" />
<glyph unicode="&#xb9;" horiz-adv-x="1089" d="M301 1251v84q127 -2 182.5 38t65.5 143h88v-898h-107v685q-66 -53 -192 -54q-21 0 -37 2z" />
<glyph unicode="&#xba;" horiz-adv-x="802" d="M66 678v80h669v-80h-669zM74 1221q0 156 93 253t243 97q141 0 229 -99.5t88 -257.5q0 -154 -90 -249t-238 -95q-145 0 -235 97.5t-90 253.5zM174 1221q0 -127 61.5 -201t163.5 -74q104 0 166 74t62 197q0 129 -60.5 204.5t-160.5 75.5q-106 0 -169 -74.5t-63 -201.5z" />
<glyph unicode="&#xbb;" horiz-adv-x="1112" d="M131 143v107l293 321l-293 322v104l434 -366v-121zM588 143v107l295 321l-295 322v104l434 -366v-121z" />
<glyph unicode="&#xbc;" horiz-adv-x="2347" d="M301 1251v84q127 -2 182.5 38t65.5 143h88v-898h-107v685q-66 -53 -192 -54q-21 0 -37 2zM653 -129l1008 1833l53 -31l-1007 -1833zM1331 231v84l572 582h106v-578h217v-88h-217v-231h-106v231h-572zM1466 319h437v447z" />
<glyph unicode="&#xbd;" horiz-adv-x="2347" d="M301 1251v84q127 -2 182.5 38t65.5 143h88v-898h-107v685q-66 -53 -192 -54q-21 0 -37 2zM653 -129l1008 1833l53 -31l-1007 -1833zM1391 0v94q389 170 507 246q188 121 189 262q0 92 -79 152.5t-200 60.5q-301 0 -313 -262l-104 16q41 338 417 338q170 0 281 -85 t111 -218q0 -143 -141.5 -260t-481.5 -256h633v-88h-819z" />
<glyph unicode="&#xbe;" horiz-adv-x="2347" d="M92 891l109 33q72 -233 354 -234q135 0 219 53.5t84 141.5q0 152 -227 151h-246v88h213q223 0 223 146q0 76 -72.5 121t-195.5 45q-156 0 -234 -68q-49 -43 -77 -141l-105 33q55 141 153.5 203.5t262.5 62.5t271.5 -72t107.5 -178q0 -131 -146 -182q193 -49 193 -209 q0 -125 -119 -205t-305 -80q-182 0 -289.5 67.5t-173.5 223.5zM653 -129l1008 1833l53 -31l-1005 -1833zM1333 231v84l572 582h106v-578h217v-88h-217v-231h-106v231h-572zM1470 319h435v447z" />
<glyph unicode="&#xbf;" horiz-adv-x="1425" d="M100 -29q0 348 361 453l96 27q100 29 126 59.5t28 124.5h137l-4 -29q-10 -127 -43 -176q-39 -55 -150 -88l-104 -29q-301 -88 -301 -331q0 -170 129 -274.5t340 -104.5q395 0 518 397l123 -43q-150 -477 -649 -477q-276 0 -441.5 134t-165.5 357zM696 850v215h170v-215 h-170z" />
<glyph unicode="&#xc0;" horiz-adv-x="1765" d="M25 0l763 1544h160l793 -1544h-158l-207 403h-999l-201 -403h-151zM438 526h877l-445 867zM504 1937h237l181 -266h-105z" />
<glyph unicode="&#xc1;" horiz-adv-x="1765" d="M25 0l763 1544h160l793 -1544h-158l-207 403h-999l-201 -403h-151zM438 526h877l-445 867zM829 1671l179 266h237l-313 -266h-103z" />
<glyph unicode="&#xc2;" horiz-adv-x="1765" d="M25 0l763 1544h160l793 -1544h-158l-207 403h-999l-201 -403h-151zM438 526h877l-445 867zM559 1673l236 264h180l229 -264h-147l-174 160l-185 -160h-139z" />
<glyph unicode="&#xc3;" horiz-adv-x="1765" d="M25 0l763 1544h160l793 -1544h-158l-207 403h-999l-201 -403h-151zM438 526h877l-445 867zM475 1737q131 166 279 166q63 0 174 -31l110 -31q78 -20 125 -20q63 0 123 69l17 19l63 -25q-115 -180 -272 -180q-63 0 -174 33l-97 26q-94 29 -131 29q-74 0 -162 -90z" />
<glyph unicode="&#xc4;" horiz-adv-x="1765" d="M25 0l763 1544h160l793 -1544h-158l-207 403h-999l-201 -403h-151zM438 526h877l-445 867zM449 1698v217h155v-217h-155zM1153 1698v217h154v-217h-154z" />
<glyph unicode="&#xc5;" horiz-adv-x="1765" d="M25 0l763 1544h160l793 -1544h-158l-207 403h-999l-201 -403h-151zM438 526h877l-445 867zM594 1798q0 88 77 141.5t206 53.5q133 0 208.5 -52.5t75.5 -144.5q0 -86 -76.5 -139t-207.5 -53q-129 0 -206 53t-77 141zM705 1798q0 -102 172 -102q176 0 176 100 q0 104 -176 105q-172 -1 -172 -103z" />
<glyph unicode="&#xc6;" horiz-adv-x="2471" d="M-31 0l1106 1544h1256v-133h-1053v-549h967v-131h-967v-600h1085v-131h-1241v379h-712l-271 -379h-170zM498 502h624v874z" />
<glyph unicode="&#xc7;" horiz-adv-x="1910" d="M125 764q0 362 252 596.5t639 234.5q500 0 764 -432l-142 -78q-113 197 -260 284t-364 87q-315 0 -513 -190.5t-198 -489.5q0 -303 197.5 -494.5t513.5 -191.5q272 0 463 152q90 72 200 233l142 -63q-293 -463 -803 -461v-57q211 0 211 -156q0 -160 -248 -160 q-78 0 -182 14v72q96 -8 131 -8q162 0 162 78q0 82 -148 82h-20v137q-350 25 -573.5 252t-223.5 559z" />
<glyph unicode="&#xc8;" horiz-adv-x="1865" d="M197 0v1544h1489v-133h-1334v-549h1229v-131h-1229v-600h1405v-131h-1560zM594 1937h237l181 -266h-105z" />
<glyph unicode="&#xc9;" horiz-adv-x="1865" d="M197 0v1544h1489v-133h-1334v-549h1229v-131h-1229v-600h1405v-131h-1560zM872 1671l179 266h237l-311 -266h-105z" />
<glyph unicode="&#xca;" horiz-adv-x="1865" d="M197 0v1544h1489v-133h-1334v-549h1229v-131h-1229v-600h1405v-131h-1560zM637 1673l233 264h181l229 -264h-145l-177 160l-182 -160h-139z" />
<glyph unicode="&#xcb;" horiz-adv-x="1865" d="M197 0v1544h1489v-133h-1334v-549h1229v-131h-1229v-600h1405v-131h-1560zM537 1698v217h155v-217h-155zM1241 1698v217h154v-217h-154z" />
<glyph unicode="&#xcc;" horiz-adv-x="544" d="M-90 1937h235l181 -266h-105zM195 0v1544h155v-1544h-155z" />
<glyph unicode="&#xcd;" horiz-adv-x="544" d="M197 0v1544h155v-1544h-155zM236 1671l178 266h239l-313 -266h-104z" />
<glyph unicode="&#xce;" horiz-adv-x="544" d="M-41 1673l234 264h180l229 -264h-145l-176 160l-185 -160h-137zM197 0v1544h155v-1544h-155z" />
<glyph unicode="&#xcf;" horiz-adv-x="544" d="M-104 1698v217h139v-217h-139zM197 0v1544h155v-1544h-155zM528 1698v217h138v-217h-138z" />
<glyph unicode="&#xd0;" horiz-adv-x="1945" d="M25 731v131h170v682h741q399 0 584 -125q141 -96 221 -268t80 -379q0 -221 -92.5 -405.5t-245.5 -272.5q-166 -94 -547 -94h-741v731h-170zM350 131h506q410 0 551 96q236 160 235 541q0 199 -71.5 349.5t-200.5 219.5q-137 74 -514 74h-506v-549h658v-131h-658v-600z " />
<glyph unicode="&#xd1;" horiz-adv-x="2004" d="M197 0v1544h155l1305 -1343v1343h155v-1544h-155l-1305 1339v-1339h-155zM612 1737q133 166 281 166q63 0 174 -31l111 -31q76 -20 125 -20q63 0 122 69l17 19l61 -25q-113 -180 -270 -180q-63 0 -176 33l-94 26q-94 29 -132 29q-74 0 -161 -90z" />
<glyph unicode="&#xd2;" horiz-adv-x="2103" d="M125 770q0 358 259 589.5t665 231.5q414 0 671.5 -229t257.5 -602q0 -352 -261 -581.5t-666 -229.5q-408 0 -667 230.5t-259 590.5zM303 770q0 -307 206 -494.5t542 -187.5q334 0 541.5 186.5t207.5 487.5q0 313 -204.5 502.5t-544.5 189.5q-336 0 -542 -187.5 t-206 -496.5zM707 1937h235l180 -266h-104z" />
<glyph unicode="&#xd3;" horiz-adv-x="2103" d="M125 770q0 358 259 589.5t665 231.5q414 0 671.5 -229t257.5 -602q0 -352 -261 -581.5t-666 -229.5q-408 0 -667 230.5t-259 590.5zM303 770q0 -307 206 -494.5t542 -187.5q334 0 541.5 186.5t207.5 487.5q0 313 -204.5 502.5t-544.5 189.5q-336 0 -542 -187.5 t-206 -496.5zM1008 1671l178 266h237l-313 -266h-102z" />
<glyph unicode="&#xd4;" horiz-adv-x="2103" d="M125 770q0 358 259 589.5t665 231.5q414 0 671.5 -229t257.5 -602q0 -352 -261 -581.5t-666 -229.5q-408 0 -667 230.5t-259 590.5zM303 770q0 -307 206 -494.5t542 -187.5q334 0 541.5 186.5t207.5 487.5q0 313 -204.5 502.5t-544.5 189.5q-336 0 -542 -187.5 t-206 -496.5zM752 1673l233 264h182l228 -264h-146l-176 160l-182 -160h-139z" />
<glyph unicode="&#xd5;" horiz-adv-x="2103" d="M125 770q0 358 259 589.5t665 231.5q414 0 671.5 -229t257.5 -602q0 -352 -261 -581.5t-666 -229.5q-408 0 -667 230.5t-259 590.5zM303 770q0 -307 206 -494.5t542 -187.5q334 0 541.5 186.5t207.5 487.5q0 313 -204.5 502.5t-544.5 189.5q-336 0 -542 -187.5 t-206 -496.5zM659 1737q131 166 281 166q61 0 174 -31l111 -31q76 -20 125 -20q61 0 123 69l16 19l61 -25q-113 -180 -270 -180q-66 0 -176 33l-94 26q-96 29 -133 29q-74 0 -162 -90z" />
<glyph unicode="&#xd6;" horiz-adv-x="2103" d="M125 770q0 358 259 589.5t665 231.5q414 0 671.5 -229t257.5 -602q0 -352 -261 -581.5t-666 -229.5q-408 0 -667 230.5t-259 590.5zM303 770q0 -307 206 -494.5t542 -187.5q334 0 541.5 186.5t207.5 487.5q0 313 -204.5 502.5t-544.5 189.5q-336 0 -542 -187.5 t-206 -496.5zM639 1698v217h156v-217h-156zM1341 1698v217h156v-217h-156z" />
<glyph unicode="&#xd7;" d="M145 412l373 370l-371 371l62 59l369 -370l370 372l64 -61l-373 -371l371 -370l-62 -60l-370 371l-369 -373z" />
<glyph unicode="&#xd8;" horiz-adv-x="2007" d="M82 90l213 174q-170 219 -170 506q0 362 246.5 591.5t632.5 229.5q389 0 634 -231l224 184l75 -92l-217 -178q164 -221 164 -504q0 -360 -246.5 -590.5t-633.5 -230.5q-385 0 -629 229l-219 -178zM295 770q0 -219 121 -408l1104 904q-195 188 -516 188 q-319 0 -514 -187.5t-195 -496.5zM494 272q199 -184 510 -184q319 0 514.5 187.5t195.5 494.5q0 233 -117 404z" />
<glyph unicode="&#xd9;" horiz-adv-x="1925" d="M180 748v796h156v-766q0 -283 24 -370q90 -317 603 -318q567 0 620 397q6 53 6 291v766h156v-796q0 -281 -35 -396q-121 -401 -747 -401q-440 0 -635 205q-86 92 -117 212t-31 380zM662 1937h235l182 -266h-104z" />
<glyph unicode="&#xda;" horiz-adv-x="1925" d="M180 748v796h156v-766q0 -283 24 -370q90 -317 603 -318q567 0 620 397q6 53 6 291v766h156v-796q0 -281 -35 -396q-121 -401 -747 -401q-440 0 -635 205q-86 92 -117 212t-31 380zM915 1671l179 266h239l-313 -266h-105z" />
<glyph unicode="&#xdb;" horiz-adv-x="1925" d="M180 748v796h156v-766q0 -283 24 -370q90 -317 603 -318q567 0 620 397q6 53 6 291v766h156v-796q0 -281 -35 -396q-121 -401 -747 -401q-440 0 -635 205q-86 92 -117 212t-31 380zM664 1673l233 264h182l228 -264h-146l-176 160l-182 -160h-139z" />
<glyph unicode="&#xdc;" horiz-adv-x="1925" d="M180 748v796h156v-766q0 -283 24 -370q90 -317 603 -318q567 0 620 397q6 53 6 291v766h156v-796q0 -281 -35 -396q-121 -401 -747 -401q-440 0 -635 205q-86 92 -117 212t-31 380zM549 1698v217h156v-217h-156zM1251 1698v217h156v-217h-156z" />
<glyph unicode="&#xdd;" horiz-adv-x="1617" d="M12 1544h178l641 -809l611 809h166l-699 -934v-610h-155v610zM803 1671l178 266h240l-314 -266h-104z" />
<glyph unicode="&#xde;" horiz-adv-x="1830" d="M197 0v1544h155v-248h830q283 0 409 -82q172 -109 172 -337q0 -131 -66.5 -235.5t-184 -152t-398.5 -47.5h-762v-442h-155zM352 573h735q326 0 422 84q86 76 86 209q0 162 -112 238q-88 59 -303 59h-828v-590z" />
<glyph unicode="&#xdf;" horiz-adv-x="1560" d="M168 0v1004q0 172 10 225q18 123 94 196q166 158 504 158q264 0 422 -99.5t158 -269.5q0 -98 -51.5 -160.5t-176.5 -123.5q328 -104 328 -451q0 -236 -130 -372t-357 -136q-270 0 -367 160q-49 80 -53 227h139q10 -129 64 -184q70 -74 227 -74q150 0 235.5 99.5 t85.5 273.5q0 225 -149 315q-102 63 -360 64h-138v121h148q236 0 336 92q68 61 67 147q0 113 -115.5 178.5t-322.5 65.5q-281 0 -389 -127q-45 -55 -60 -155q-4 -41 -4 -170v-1004h-145z" />
<glyph unicode="&#xe0;" horiz-adv-x="1527" d="M109 307q0 258 280 338q150 45 535 45h256q2 23 2 62q0 240 -437 239q-246 0 -348 -65q-63 -41 -106 -158l-146 14q55 180 183 248q145 76 401 76q344 0 483 -109q109 -86 109 -292q0 -45 -2 -62l-14 -364q0 -100 27.5 -136.5t109.5 -36.5q10 0 51 5v-111 q-66 -10 -117 -10q-98 0 -142 30.5t-65 110.5q-242 -172 -542 -172q-248 0 -383 91t-135 257zM279 313q0 -106 92 -166.5t256 -60.5q139 0 266 40t197 105q82 78 88 267l2 71h-201q-430 0 -555 -51q-145 -60 -145 -205zM416 1511h227l160 -307h-90z" />
<glyph unicode="&#xe1;" horiz-adv-x="1527" d="M109 307q0 258 280 338q150 45 535 45h256q2 23 2 62q0 240 -437 239q-246 0 -348 -65q-63 -41 -106 -158l-146 14q55 180 183 248q145 76 401 76q344 0 483 -109q109 -86 109 -292q0 -45 -2 -62l-14 -364q0 -100 27.5 -136.5t109.5 -36.5q10 0 51 5v-111 q-66 -10 -117 -10q-98 0 -142 30.5t-65 110.5q-242 -172 -542 -172q-248 0 -383 91t-135 257zM279 313q0 -106 92 -166.5t256 -60.5q139 0 266 40t197 105q82 78 88 267l2 71h-201q-430 0 -555 -51q-145 -60 -145 -205zM717 1204l157 307h230l-297 -307h-90z" />
<glyph unicode="&#xe2;" horiz-adv-x="1527" d="M109 307q0 258 280 338q150 45 535 45h256q2 23 2 62q0 240 -437 239q-246 0 -348 -65q-63 -41 -106 -158l-146 14q55 180 183 248q145 76 401 76q344 0 483 -109q109 -86 109 -292q0 -45 -2 -62l-14 -364q0 -100 27.5 -136.5t109.5 -36.5q10 0 51 5v-111 q-66 -10 -117 -10q-98 0 -142 30.5t-65 110.5q-242 -172 -542 -172q-248 0 -383 91t-135 257zM279 313q0 -106 92 -166.5t256 -60.5q139 0 266 40t197 105q82 78 88 267l2 71h-201q-430 0 -555 -51q-145 -60 -145 -205zM444 1221l222 276h182l221 -276h-133l-182 174 l-179 -174h-131z" />
<glyph unicode="&#xe3;" horiz-adv-x="1527" d="M109 307q0 258 280 338q150 45 535 45h256q2 23 2 62q0 240 -437 239q-246 0 -348 -65q-63 -41 -106 -158l-146 14q55 180 183 248q145 76 401 76q344 0 483 -109q109 -86 109 -292q0 -45 -2 -62l-14 -364q0 -100 27.5 -136.5t109.5 -36.5q10 0 51 5v-111 q-66 -10 -117 -10q-98 0 -142 30.5t-65 110.5q-242 -172 -542 -172q-248 0 -383 91t-135 257zM279 313q0 -106 92 -166.5t256 -60.5q139 0 266 40t197 105q82 78 88 267l2 71h-201q-430 0 -555 -51q-145 -60 -145 -205zM356 1288q129 166 281 166q53 0 174 -31l111 -28 q82 -20 125 -21q57 0 122 68l17 20l61 -26q-113 -178 -270 -179q-82 0 -176 29l-94 31q-82 25 -134 24q-78 0 -161 -88z" />
<glyph unicode="&#xe4;" horiz-adv-x="1527" d="M109 307q0 258 280 338q150 45 535 45h256q2 23 2 62q0 240 -437 239q-246 0 -348 -65q-63 -41 -106 -158l-146 14q55 180 183 248q145 76 401 76q344 0 483 -109q109 -86 109 -292q0 -45 -2 -62l-14 -364q0 -100 27.5 -136.5t109.5 -36.5q10 0 51 5v-111 q-66 -10 -117 -10q-98 0 -142 30.5t-65 110.5q-242 -172 -542 -172q-248 0 -383 91t-135 257zM279 313q0 -106 92 -166.5t256 -60.5q139 0 266 40t197 105q82 78 88 267l2 71h-201q-430 0 -555 -51q-145 -60 -145 -205zM397 1243v209h140v-209h-140zM985 1243v209h139v-209 h-139z" />
<glyph unicode="&#xe5;" horiz-adv-x="1527" d="M109 307q0 258 280 338q150 45 535 45h256q2 23 2 62q0 240 -437 239q-246 0 -348 -65q-63 -41 -106 -158l-146 14q55 180 183 248q145 76 401 76q344 0 483 -109q109 -86 109 -292q0 -45 -2 -62l-14 -364q0 -100 27.5 -136.5t109.5 -36.5q10 0 51 5v-111 q-66 -10 -117 -10q-98 0 -142 30.5t-65 110.5q-242 -172 -542 -172q-248 0 -383 91t-135 257zM279 313q0 -106 92 -166.5t256 -60.5q139 0 266 40t197 105q82 78 88 267l2 71h-201q-430 0 -555 -51q-145 -60 -145 -205zM473 1382q0 88 76 141.5t205 53.5q133 0 208.5 -52 t75.5 -147q0 -84 -76.5 -137t-207.5 -53q-129 0 -205 53t-76 141zM582 1382q0 -102 172 -102q176 0 176 98q0 104 -176 105q-172 -1 -172 -101z" />
<glyph unicode="&#xe6;" horiz-adv-x="2568" d="M109 279q0 233 280 307q150 39 535 39h254q4 80 4 104q0 131 -82 184q-119 78 -355 78q-246 0 -348 -65q-63 -41 -106 -156l-148 12q57 180 185 248q145 76 401 76q479 0 565 -219q176 219 502 219q356 0 547 -258q96 -133 115 -344h-1119q12 -170 82 -258 q123 -160 396 -160q223 0 374 109q84 59 138 165l108 -73q-72 -143 -166 -209q-176 -119 -450 -119q-373 0 -553 272q-100 -139 -213 -192q-168 -80 -404 -80q-258 0 -400 84t-142 236zM279 285q0 -92 99 -145.5t275 -53.5q293 0 439 127q80 70 86 229l2 62h-201 q-428 0 -555 -43q-145 -51 -145 -176zM1341 625h934q-35 176 -159.5 271t-321.5 95q-373 1 -453 -366z" />
<glyph unicode="&#xe7;" horiz-adv-x="1519" d="M109 522q0 260 186 422t487 162q418 0 635 -342l-143 -57q-156 272 -496 272q-229 0 -364 -122t-135 -325q0 -201 135 -323.5t356 -122.5q231 0 385 127q74 61 141 190l144 -55q-193 -367 -629 -389v-45q209 0 209 -156t-248 -155q-72 0 -182 10v72q68 -6 133 -7 q162 0 162 78q0 88 -150 82q-4 0 -20 -2v125q-281 18 -443.5 169.5t-162.5 391.5z" />
<glyph unicode="&#xe8;" horiz-adv-x="1497" d="M109 551q0 244 172 399.5t446 155.5q358 0 543 -256q98 -135 116 -344h-1112q16 -172 86 -258q135 -162 410 -162q319 0 498 264l118 -84q-213 -307 -608 -307q-297 0 -483 164t-186 428zM274 627h930q-35 174 -159.5 269t-321.5 95q-369 1 -449 -364zM399 1511h228 l159 -307h-90z" />
<glyph unicode="&#xe9;" horiz-adv-x="1497" d="M109 551q0 244 172 399.5t446 155.5q358 0 543 -256q98 -135 116 -344h-1112q16 -172 86 -258q135 -162 410 -162q319 0 498 264l118 -84q-213 -307 -608 -307q-297 0 -483 164t-186 428zM274 627h930q-35 174 -159.5 269t-321.5 95q-369 1 -449 -364zM705 1204l155 307 h230l-295 -307h-90z" />
<glyph unicode="&#xea;" horiz-adv-x="1497" d="M109 551q0 244 172 399.5t446 155.5q358 0 543 -256q98 -135 116 -344h-1112q16 -172 86 -258q135 -162 410 -162q319 0 498 264l118 -84q-213 -307 -608 -307q-297 0 -483 164t-186 428zM274 627h930q-35 174 -159.5 269t-321.5 95q-369 1 -449 -364zM451 1221l223 276 h180l221 -276h-133l-180 174l-178 -174h-133z" />
<glyph unicode="&#xeb;" horiz-adv-x="1497" d="M109 551q0 244 172 399.5t446 155.5q358 0 543 -256q98 -135 116 -344h-1112q16 -172 86 -258q135 -162 410 -162q319 0 498 264l118 -84q-213 -307 -608 -307q-297 0 -483 164t-186 428zM274 627h930q-35 174 -159.5 269t-321.5 95q-369 1 -449 -364zM399 1243v209h140 v-209h-140zM989 1243v209h137v-209h-137z" />
<glyph unicode="&#xec;" horiz-adv-x="493" d="M-92 1511h227l160 -307h-92zM174 0v1065h143v-1065h-143z" />
<glyph unicode="&#xed;" horiz-adv-x="493" d="M176 0v1065h143v-1065h-143zM213 1204l158 307h229l-297 -307h-90z" />
<glyph unicode="&#xee;" horiz-adv-x="493" d="M-51 1221l223 276h180l221 -276h-133l-180 174l-178 -174h-133zM176 0v1065h143v-1065h-143z" />
<glyph unicode="&#xef;" horiz-adv-x="493" d="M-72 1243v209h125v-209h-125zM176 0v1065h143v-1065h-143zM457 1243v209h125v-209h-125z" />
<glyph unicode="&#xf0;" horiz-adv-x="1505" d="M109 532q0 256 175 415t459 159q117 0 211 -35q-135 152 -258 258l-182 -153l-72 86l168 141q-45 41 -170 141l74 94q84 -57 197 -149l198 166l72 -86l-184 -158q336 -305 469 -502.5t133 -390.5q0 -250 -179.5 -404.5t-465.5 -154.5q-293 0 -469 155.5t-176 417.5z M279 532q0 -207 128 -326.5t347 -119.5t347 119t128 321q0 211 -126 332t-351 121q-219 0 -346 -121t-127 -326z" />
<glyph unicode="&#xf1;" horiz-adv-x="1581" d="M176 0v1065h143v-143q184 184 506 184q285 0 445 -137q137 -117 137 -353v-616h-143v547q0 211 -68 293q-102 127 -379 127q-229 0 -373 -97q-125 -86 -125 -272v-598h-143zM391 1288q129 166 281 166q53 0 172 -31l112 -28q82 -20 125 -21q57 0 123 68l17 20l61 -26 q-113 -178 -270 -179q-82 0 -176 29l-95 31q-82 25 -133 24q-78 0 -162 -88z" />
<glyph unicode="&#xf2;" horiz-adv-x="1585" d="M109 532q0 258 186 416t493 158q317 0 502 -157.5t185 -426.5q0 -252 -188.5 -407.5t-495.5 -155.5q-309 0 -495.5 156.5t-186.5 416.5zM279 532q0 -207 137 -326.5t375 -119.5t376 119t138 321q0 211 -136.5 332t-380.5 121q-236 0 -372.5 -121t-136.5 -326zM467 1511 h227l160 -307h-90z" />
<glyph unicode="&#xf3;" horiz-adv-x="1585" d="M109 532q0 258 186 416t493 158q317 0 502 -157.5t185 -426.5q0 -252 -188.5 -407.5t-495.5 -155.5q-309 0 -495.5 156.5t-186.5 416.5zM279 532q0 -207 137 -326.5t375 -119.5t376 119t138 321q0 211 -136.5 332t-380.5 121q-236 0 -372.5 -121t-136.5 -326zM748 1204 l157 307h230l-297 -307h-90z" />
<glyph unicode="&#xf4;" horiz-adv-x="1585" d="M109 532q0 258 186 416t493 158q317 0 502 -157.5t185 -426.5q0 -252 -188.5 -407.5t-495.5 -155.5q-309 0 -495.5 156.5t-186.5 416.5zM279 532q0 -207 137 -326.5t375 -119.5t376 119t138 321q0 211 -136.5 332t-380.5 121q-236 0 -372.5 -121t-136.5 -326zM496 1221 l221 276h180l223 -276h-135l-180 174l-178 -174h-131z" />
<glyph unicode="&#xf5;" horiz-adv-x="1585" d="M109 532q0 258 186 416t493 158q317 0 502 -157.5t185 -426.5q0 -252 -188.5 -407.5t-495.5 -155.5q-309 0 -495.5 156.5t-186.5 416.5zM279 532q0 -207 137 -326.5t375 -119.5t376 119t138 321q0 211 -136.5 332t-380.5 121q-236 0 -372.5 -121t-136.5 -326zM399 1288 q131 166 281 166q53 0 174 -31l111 -28q84 -20 125 -21q57 0 122 68l17 20l63 -26q-115 -178 -272 -179q-80 0 -176 29l-94 31q-80 25 -132 24q-80 0 -161 -88z" />
<glyph unicode="&#xf6;" horiz-adv-x="1585" d="M109 532q0 258 186 416t493 158q317 0 502 -157.5t185 -426.5q0 -252 -188.5 -407.5t-495.5 -155.5q-309 0 -495.5 156.5t-186.5 416.5zM279 532q0 -207 137 -326.5t375 -119.5t376 119t138 321q0 211 -136.5 332t-380.5 121q-236 0 -372.5 -121t-136.5 -326zM444 1243 v209h140v-209h-140zM1032 1243v209h139v-209h-139z" />
<glyph unicode="&#xf7;" d="M57 737v86h1043v-86h-1043zM494 352q0 35 25.5 58.5t58.5 23.5q35 0 59.5 -24.5t24.5 -59.5q0 -33 -26 -58.5t-58 -25.5q-33 0 -58.5 25.5t-25.5 60.5zM494 1212q0 35 25.5 59.5t58.5 24.5q35 0 59.5 -25.5t24.5 -60.5q0 -33 -26 -58.5t-58 -25.5q-33 0 -58.5 25.5 t-25.5 60.5z" />
<glyph unicode="&#xf8;" horiz-adv-x="1585" d="M102 29l152 127q-145 154 -145 376q0 258 186 416t496 158q266 0 450 -121l148 125l63 -74l-135 -112q158 -160 158 -392q0 -260 -186.5 -416.5t-497.5 -156.5q-281 0 -465 131l-162 -137zM264 532q0 -166 96 -286l777 651q-135 88 -349 88q-242 0 -383 -121t-141 -332z M432 178q135 -100 363 -100q242 0 383 122t141 332q0 182 -109 302z" />
<glyph unicode="&#xf9;" horiz-adv-x="1587" d="M176 504v561h143v-561q0 -213 68 -289q104 -119 350 -119q141 0 275 41q168 53 229 148q27 47 27 153v627h143v-1065h-143v137q-238 -178 -537 -178q-309 0 -467 168q-63 70 -82 178q-6 49 -6 199zM494 1511h225l160 -307h-91z" />
<glyph unicode="&#xfa;" horiz-adv-x="1587" d="M176 504v561h143v-561q0 -213 68 -289q104 -119 350 -119q141 0 275 41q168 53 229 148q27 47 27 153v627h143v-1065h-143v137q-238 -178 -537 -178q-309 0 -467 168q-63 70 -82 178q-6 49 -6 199zM752 1204l157 307h230l-297 -307h-90z" />
<glyph unicode="&#xfb;" horiz-adv-x="1587" d="M176 504v561h143v-561q0 -213 68 -289q104 -119 350 -119q141 0 275 41q168 53 229 148q27 47 27 153v627h143v-1065h-143v137q-238 -178 -537 -178q-309 0 -467 168q-63 70 -82 178q-6 49 -6 199zM514 1221l221 276h180l224 -276h-135l-181 174l-178 -174h-131z" />
<glyph unicode="&#xfc;" horiz-adv-x="1587" d="M176 504v561h143v-561q0 -213 68 -289q104 -119 350 -119q141 0 275 41q168 53 229 148q27 47 27 153v627h143v-1065h-143v137q-238 -178 -537 -178q-309 0 -467 168q-63 70 -82 178q-6 49 -6 199zM446 1243v209h140v-209h-140zM1034 1243v209h140v-209h-140z" />
<glyph unicode="&#xfd;" horiz-adv-x="1257" d="M6 1065h160l512 -979l416 979h155l-522 -1202q-82 -184 -167 -244.5t-271 -60.5q-121 0 -232 26v133q123 -33 230 -32q135 0 200.5 50t120.5 193zM618 1204l158 307h228l-295 -307h-91z" />
<glyph unicode="&#xfe;" horiz-adv-x="1574" d="M176 -399v1943h143v-629q182 190 502 191q293 0 469 -155.5t176 -413.5q0 -254 -187 -416t-480 -162q-285 0 -480 186v-544h-143zM319 535q0 -219 123 -332q131 -117 353 -117q217 0 360 126t143 316q0 236 -161 359q-123 92 -322 92q-240 0 -368 -115.5t-128 -328.5z " />
<glyph unicode="&#xff;" horiz-adv-x="1257" d="M6 1065h160l512 -979l416 979h155l-522 -1202q-82 -184 -167 -244.5t-271 -60.5q-121 0 -232 26v133q123 -33 230 -32q135 0 200.5 50t120.5 193zM289 1243v209h139v-209h-139zM877 1243v209h139v-209h-139z" />
<glyph unicode="&#x152;" horiz-adv-x="2574" d="M125 770q0 377 216 595t591 218q213 0 401 -90v51h1092v-133h-936v-549h881v-131h-881v-600h973v-131h-1129v51q-180 -90 -405 -90q-350 0 -572 203q-231 211 -231 606zM303 768q0 -324 178 -512q162 -170 480 -170q219 0 372 107v1159q-147 106 -375 106 q-313 0 -477 -174q-178 -190 -178 -516z" />
<glyph unicode="&#x153;" horiz-adv-x="2586" d="M109 532q0 258 176 416t467 158q401 0 561 -283q176 283 551 283q262 0 412.5 -149.5t177.5 -430.5h-1055q2 -145 55 -231q57 -96 174 -152.5t260 -56.5q313 0 469 274l121 -73q-76 -121 -147 -181q-178 -147 -449 -147q-397 0 -569 285q-160 -285 -561 -285 q-291 0 -467 156.5t-176 416.5zM264 532q0 -207 132 -326.5t358 -119.5q225 0 357 119t132 321q0 211 -130 332t-361 121q-225 0 -356.5 -121t-131.5 -326zM1405 645h889q-66 334 -436 334q-217 0 -357 -127q-78 -72 -96 -207z" />
<glyph unicode="&#x178;" horiz-adv-x="1617" d="M12 1544h178l641 -809l611 809h166l-699 -934v-610h-155v610zM412 1698v217h155v-217h-155zM1116 1698v217h154v-217h-154z" />
<glyph unicode="&#x2c6;" d="M266 1221l221 276h183l221 -276h-133l-183 174l-178 -174h-131z" />
<glyph unicode="&#x2dc;" d="M131 1288q131 166 281 166q53 0 174 -31l110 -28q84 -20 125 -21q57 0 123 68l17 20l61 -26q-113 -178 -270 -179q-80 0 -177 29l-94 31q-82 25 -131 24q-80 0 -162 -88z" />
<glyph unicode="&#x2013;" horiz-adv-x="1695" d="M113 526v121h1470v-121h-1470z" />
<glyph unicode="&#x2014;" horiz-adv-x="2232" d="M0 526v121h2232v-121h-2232z" />
<glyph unicode="&#x2018;" horiz-adv-x="501" d="M166 1079v238q0 113 38 164t128 63v-69q-88 -18 -88 -115v-66h92v-215h-170z" />
<glyph unicode="&#x2019;" horiz-adv-x="501" d="M166 1329v215h170v-239q0 -115 -36 -166.5t-126 -59.5v68q88 20 88 115v67h-96z" />
<glyph unicode="&#x201a;" horiz-adv-x="501" d="M166 0v215h170v-238q0 -115 -36 -165t-126 -62v70q88 18 88 112v68h-96z" />
<glyph unicode="&#x201c;" horiz-adv-x="804" d="M166 1079v238q0 113 38 164t128 63v-69q-88 -18 -88 -115v-66h92v-215h-170zM469 1079v238q0 115 36 166t126 61v-69q-86 -18 -86 -115v-66h94v-215h-170z" />
<glyph unicode="&#x201d;" horiz-adv-x="804" d="M166 1329v215h170v-239q0 -115 -36 -166.5t-126 -59.5v68q88 20 88 115v67h-96zM469 1329v215h170v-239q0 -113 -37 -164t-127 -62v68q88 20 88 115v67h-94z" />
<glyph unicode="&#x201e;" horiz-adv-x="804" d="M166 0v215h170v-238q0 -115 -36 -165t-126 -62v70q88 18 88 112v68h-96zM469 0v215h170v-238q0 -115 -37 -165t-127 -62v70q88 18 88 112v68h-94z" />
<glyph unicode="&#x2022;" horiz-adv-x="1542" d="M453 782q0 133 95 227.5t232 94.5q127 0 220.5 -95.5t93.5 -224.5q0 -133 -93.5 -227t-224.5 -94q-133 0 -228 94t-95 225z" />
<glyph unicode="&#x2026;" horiz-adv-x="1433" d="M156 0v215h168v-215h-168zM635 0v215h168v-215h-168zM1114 0v215h168v-215h-168z" />
<glyph unicode="&#x2039;" horiz-adv-x="655" d="M92 510v121l434 366v-104l-293 -322l293 -321v-107z" />
<glyph unicode="&#x203a;" horiz-adv-x="655" d="M131 143v107l293 321l-293 322v104l434 -366v-121z" />
<glyph unicode="&#x20ac;" horiz-adv-x="2125" d="M113 604l59 111h150q-2 23 -3 49q0 35 3 61h-209l59 113h166q57 295 296.5 476t573.5 181q258 0 442.5 -103t321.5 -329l-141 -78q-111 197 -258.5 284t-364.5 87q-268 0 -454.5 -139t-239.5 -379h1034l-59 -113h-991v-55q0 -27 2 -55h930l-60 -111h-854 q57 -244 241.5 -380t448.5 -136q272 0 463 154q98 80 203 233l141 -65q-164 -248 -350 -354.5t-453 -106.5q-342 0 -578.5 177t-297.5 478h-221z" />
<glyph unicode="&#x2122;" horiz-adv-x="2373" d="M37 1452v92h948v-92h-407v-834h-113v834h-428zM1159 618v926h152l393 -803l385 803h149v-926h-114v760l-373 -760h-98l-379 760v-760h-115z" />
<glyph unicode="&#xe000;" horiz-adv-x="1065" d="M0 1065h1065v-1065h-1065v1065z" />
<glyph unicode="&#xfb01;" horiz-adv-x="1347" d="M1030 0v1065h143v-1065h-143zM1030 1249v203h143v-203h-143zM78 944v121h213v176q0 172 63 242q76 84 236 84q84 0 207 -23v-123q-117 23 -179 23q-102 0 -143 -45t-41 -158v-176h363v-121h-363v-944h-143v944h-213z" />
<glyph unicode="&#xfb02;" horiz-adv-x="1347" d="M1030 0v1544h143v-1544h-143zM78 944v121h213v176q0 172 63 242q76 84 236 84q84 0 207 -23v-123q-117 23 -179 23q-102 0 -143 -45t-41 -158v-176h363v-121h-363v-944h-143v944h-213z" />
<glyph unicode="&#xfb03;" horiz-adv-x="2199" d="M78 944v121h213v176q0 172 63 242q76 84 236 84q84 0 207 -23v-123q-117 23 -179 23q-102 0 -143 -45t-41 -158v-176h363v-121h-363v-944h-143v944h-213zM932 944v121h211v176q0 172 63 242q76 84 238 84q84 0 207 -23v-123q-117 23 -178 23q-104 0 -145.5 -45 t-41.5 -158v-176h365v-121h-365v-944h-143v944h-211zM1882 0v1065h143v-1065h-143zM1882 1249v203h143v-203h-143z" />
<glyph unicode="&#xfb04;" horiz-adv-x="2199" d="M78 944v121h213v176q0 172 63 242q76 84 236 84q84 0 207 -23v-123q-117 23 -179 23q-102 0 -143 -45t-41 -158v-176h363v-121h-363v-944h-143v944h-213zM932 944v121h211v176q0 172 63 242q76 84 238 84q84 0 207 -23v-123q-117 23 -178 23q-104 0 -145.5 -45 t-41.5 -158v-176h365v-121h-365v-944h-143v944h-211zM1882 0v1544h143v-1544h-143z" />
</font>
</defs>
</svg>
