<?xml version="1.0" standalone="no"?>
<!DOCTYPE svg PUBLIC "-//W3C//DTD SVG 1.1//EN" "http://www.w3.org/Graphics/SVG/1.1/DTD/svg11.dtd" >
<svg xmlns="http://www.w3.org/2000/svg">
<metadata>
This is a custom SVG webfont generated by Font Squirrel.
Copyright   :  Copyright SoftMaker Software GmbH and its licensors
Designer    : SoftMaker Software GmbH
Foundry     : SoftMaker Software GmbH
Foundry URL : httpwwwsoftmakerde
</metadata>
<defs>
<font id="Ancona-NarrowRegular" horiz-adv-x="884" >
<font-face units-per-em="2048" ascent="1638" descent="-410" />
<missing-glyph horiz-adv-x="407" />
<glyph unicode=" "  horiz-adv-x="407" />
<glyph unicode="&#x09;" horiz-adv-x="407" />
<glyph unicode="&#xa0;" horiz-adv-x="407" />
<glyph unicode="!" horiz-adv-x="452" d="M147 0v238h189v-238h-189zM147 1008v467h189v-467l-43 -617h-100z" />
<glyph unicode="&#x22;" horiz-adv-x="669" d="M94 1475h193l-27 -590h-139zM383 1475h192l-26 -590h-139z" />
<glyph unicode="#" d="M72 416l20 119h103l69 383h-110l22 116h107l77 441h115l-78 -441h201l74 441h121l-78 -441h102l-20 -116h-103l-67 -383h110l-20 -119h-111l-74 -416h-116l73 416h-200l-72 -416h-117l74 416h-102zM311 535h197l67 383h-196z" />
<glyph unicode="$" d="M127 326v159h152v-145q0 -203 165 -203q158 0 158 185q0 117 -67 192l-238 266q-88 100 -112.5 159.5t-24.5 184.5q0 279 221 320v155h123v-153q225 -20 225 -309v-133h-151v120q0 168 -129 168t-130 -164q0 -125 58 -188l274 -301q111 -121 111 -311q0 -303 -258 -344 v-154h-123v154q-254 45 -254 342z" />
<glyph unicode="%" horiz-adv-x="1169" d="M74 852v412q0 174 182 174t182 -174v-412q0 -178 -184 -178q-180 0 -180 178zM166 0l717 1432h121l-717 -1432h-121zM178 856q0 -98 78 -98q76 0 76 98v404q0 94 -76 94q-78 0 -78 -94v-404zM731 170v410q0 176 184 176q182 0 183 -176v-410q0 -176 -185 -176 q-182 0 -182 176zM838 172q0 -94 77 -94q76 0 76 94v406q0 94 -76 94q-78 0 -77 -94v-406z" />
<glyph unicode="&#x26;" horiz-adv-x="960" d="M59 336q0 141 70 256q20 39 113 135l30 35q-102 215 -102 313q0 115 69.5 183.5t186.5 68.5q119 0 189.5 -65.5t70.5 -174.5q0 -90 -42 -164.5t-159 -197.5q61 -127 191 -336q39 100 43 273h168q0 -231 -101 -424q45 -70 154 -70v-164q-49 -4 -59 -4q-106 0 -207 100 q-119 -119 -279 -118q-150 0 -243 97t-93 257zM238 348q0 -96 44 -153.5t115 -57.5q109 0 176 90q-133 207 -219 373q-116 -105 -116 -252zM332 1079q0 -57 55 -168q4 -10 19 -34q121 113 120 208q0 98 -96 99q-98 -1 -98 -105z" />
<glyph unicode="'" horiz-adv-x="380" d="M94 1475h193l-27 -590h-139z" />
<glyph unicode="(" horiz-adv-x="448" d="M88 37v1089q0 152 22.5 223.5t84.5 116.5q74 53 219 64v-164q-82 -4 -113 -39t-31 -123v-1243q0 -88 31 -124t113 -42v-162q-164 12 -238 78q-49 43 -68.5 114t-19.5 212z" />
<glyph unicode=")" horiz-adv-x="448" d="M37 -205q82 6 113.5 42t31.5 124v1243q0 88 -31.5 123t-113.5 39v164q164 -12 237 -76q88 -80 88 -328v-1089q0 -129 -12 -187q-23 -104 -95.5 -156t-217.5 -61v162z" />
<glyph unicode="*" horiz-adv-x="837" d="M74 1178l41 125l237 -78v250h133v-250l238 78l43 -125l-240 -78l146 -205l-107 -76l-147 201l-146 -201l-108 76l147 205z" />
<glyph unicode="+" d="M111 641v150h258v256h151v-256h254v-150h-254v-258h-151v258h-258z" />
<glyph unicode="," horiz-adv-x="364" d="M88 0v238h188v-238q0 -131 -45 -195q-47 -72 -143 -86v86q57 18 78.5 49t21.5 95v51h-100z" />
<glyph unicode="-" horiz-adv-x="489" d="M0 449v161h492v-161h-492z" />
<glyph unicode="." horiz-adv-x="364" d="M88 0v238h188v-238h-188z" />
<glyph unicode="/" horiz-adv-x="714" d="M-18 -338l491 1813h170l-489 -1813h-172z" />
<glyph unicode="0" d="M127 326v780q0 186 78 258q92 84 237 84q193 0 277 -127q43 -61 43 -215v-780q0 -186 -80 -260q-92 -84 -240 -84q-190 0 -274 129q-41 61 -41 215zM303 326q0 -113 43 -148t96 -35q55 0 98.5 35t43.5 148v780q0 111 -42 146.5t-98 35.5q-57 0 -99 -35.5t-42 -146.5v-780 z" />
<glyph unicode="1" d="M186 1118v131q193 74 287 183h135v-1432h-176v1178q-129 -48 -246 -60z" />
<glyph unicode="2" d="M141 0v162l336 573q82 139 82 279v119q0 152 -119 151q-82 0 -110 -57q-14 -27 -15 -94v-218h-159v218q0 315 288 315q293 0 293 -299v-111q0 -199 -116 -391l-289 -485h448v-162h-639z" />
<glyph unicode="3" d="M121 326v108h162v-108q0 -113 44 -148t105 -35q59 0 103.5 35t44.5 148v174q0 96 -39 134t-135 38h-70v155h67q158 0 158 146v160q0 158 -127 157q-84 0 -115 -61q-14 -25 -14 -96v-78h-162v78q0 317 297 317q299 0 299 -301v-117q0 -119 -37.5 -179t-140.5 -99 q115 -43 155 -104.5t40 -186.5v-137q0 -186 -80 -260q-90 -84 -238 -84q-170 0 -262 110q-55 68 -55 234z" />
<glyph unicode="4" d="M113 313v189l293 930h256v-957h129v-162h-129v-313h-177v313h-372zM244 475h241v772z" />
<glyph unicode="5" d="M127 326v116h160v-116q0 -113 45 -148t104 -35t103.5 35t44.5 148v350q0 143 -133 143q-139 0 -164 -162h-160l27 775h589v-162h-428l-14 -387q98 90 209 90q252 0 252 -297v-350q0 -182 -82 -258q-94 -86 -238 -86q-170 0 -260 110q-55 68 -55 234z" />
<glyph unicode="6" d="M131 326v780q0 182 78 256q90 86 229 86q154 0 246 -100q61 -72 61 -242v-16h-161v34q0 111 -42 146t-98 35q-53 0 -95 -35t-42 -146v-258q109 84 199 84q111 0 188 -76q68 -68 68 -210v-338q0 -182 -80 -258q-92 -86 -238 -86q-168 0 -258 110q-55 68 -55 234zM307 326 q0 -111 42 -147t97 -36q53 0 95.5 36t42.5 147v295q0 115 -43 151q-39 31 -95 31q-59 0 -99 -36t-40 -146v-295z" />
<glyph unicode="7" d="M115 1270v162h635v-138q-276 -582 -275 -1294h-188q-2 289 78.5 643t209.5 627h-460z" />
<glyph unicode="8" d="M127 311v224q0 102 25.5 148t107.5 93q-82 47 -100 92q-18 37 -19 133v195q0 119 81 185.5t222 66.5t221 -66.5t80 -185.5v-195q0 -96 -18 -133q-18 -45 -100 -92q82 -47 108.5 -93t26.5 -148v-224q0 -172 -76 -245q-86 -84 -244 -84q-166 0 -254 98q-61 67 -61 231z M303 326q0 -111 42 -147t99 -36q53 0 96.5 35t43.5 148v178q0 113 -43 147.5t-97 34.5q-57 0 -99 -36t-42 -146v-178zM303 1022q0 -111 42 -146.5t97 -35.5q57 0 99.5 35.5t42.5 146.5v100q0 113 -42 145.5t-98 32.5q-57 0 -99 -32.5t-42 -145.5v-100z" />
<glyph unicode="9" d="M121 326v53h162v-53q0 -111 49 -150q43 -33 100 -33q59 0 103.5 35t44.5 148v284q-92 -82 -195 -82q-121 0 -199 82q-66 66 -65 203v293q0 184 80 258q88 84 239 84q190 0 275 -127q41 -61 41 -215v-780q0 -184 -80 -258q-92 -86 -238 -86q-193 0 -276 131 q-41 63 -41 213zM299 854q0 -113 43 -147.5t98 -34.5q53 0 96.5 34.5t43.5 147.5v252q0 113 -43 147.5t-97 34.5q-57 0 -99 -35.5t-42 -146.5v-252z" />
<glyph unicode=":" horiz-adv-x="393" d="M117 0v238h188v-238h-188zM117 776v238h188v-238h-188z" />
<glyph unicode=";" horiz-adv-x="393" d="M117 0v238h188v-238q0 -133 -43 -196.5t-145 -84.5v86q57 18 78.5 49t21.5 95v51h-100zM117 776v238h188v-238h-188z" />
<glyph unicode="&#x3c;" horiz-adv-x="1105" d="M74 672v145l956 451v-166l-780 -357l780 -358v-164z" />
<glyph unicode="=" d="M111 494v147h663v-147h-663zM111 786v150h663v-150h-663z" />
<glyph unicode="&#x3e;" horiz-adv-x="1105" d="M76 223v164l780 358l-780 357v166l956 -451v-145z" />
<glyph unicode="?" horiz-adv-x="833" d="M111 971v221q0 180 114 250q88 55 213 55q143 0 228.5 -80t85.5 -211v-110q0 -96 -11 -140q-14 -61 -57 -131l-92 -141q-4 -10 -21 -33q-39 -59 -39 -137v-123h-139v123q0 129 62 242l71 129q37 68 37 172v135q0 143 -145 143q-137 0 -137 -143v-221h-170zM367 0v238h188 v-238h-188z" />
<glyph unicode="@" d="M82 358v770q0 176 94 272.5t268 96.5q170 0 265.5 -94t95.5 -262v-750h-121l-22 62q-61 -84 -144 -84q-156 0 -156 186v414q0 203 166 202q59 0 117 -57v47q0 90 -55 145.5t-146 55.5q-90 0 -146 -60.5t-56 -205.5v-688q0 -135 34 -195q57 -100 177 -100q106 0 192 98 l96 -102q-109 -131 -288 -132q-172 0 -271.5 102.5t-99.5 278.5zM526 600q0 -84 60 -84q59 0 59 84v334q0 86 -59 86t-60 -86v-334z" />
<glyph unicode="A" horiz-adv-x="878" d="M29 0l313 1475h188l320 -1475h-193l-55 281h-332l-55 -281h-186zM299 442h274l-137 711z" />
<glyph unicode="B" horiz-adv-x="931" d="M111 0v1475h403q156 0 224.5 -63.5t68.5 -213.5v-160q0 -104 -35 -152t-135 -79q109 -27 154 -85t45 -171v-227q0 -180 -113 -263q-86 -61 -270 -61h-342zM299 170h186q178 0 179 166v215q0 166 -179 166h-186v-547zM299 879h205q131 0 131 133v159q0 133 -131 134h-205 v-426z" />
<glyph unicode="C" horiz-adv-x="854" d="M94 313v848q0 336 348 336q156 0 245 -74.5t89 -205.5v-203h-172v176q0 145 -160 145q-162 0 -161 -174v-848q0 -174 163 -174q168 0 168 144v233h172v-258q0 -129 -90 -205t-247 -76q-355 0 -355 336z" />
<glyph unicode="D" horiz-adv-x="933" d="M111 0v1475h403q326 0 326 -312v-852q0 -311 -326 -311h-403zM299 170h199q156 0 155 160v815q0 160 -155 160h-199v-1135z" />
<glyph unicode="E" horiz-adv-x="862" d="M111 0v1475h655v-160h-467v-436h401v-162h-401v-547h510v-170h-698z" />
<glyph unicode="F" horiz-adv-x="811" d="M111 0v1475h663v-170h-475v-426h403v-162h-403v-717h-188z" />
<glyph unicode="G" horiz-adv-x="921" d="M94 313v848q0 184 105 264q96 72 256 72q164 0 256 -73.5t92 -206.5v-203h-172v176q0 145 -178 145q-176 0 -177 -174v-848q0 -186 156 -186q88 0 150.5 55.5t62.5 130.5v291h-221v154h395v-758h-162v88q-131 -111 -258 -111q-166 0 -254 113q-51 67 -51 223z" />
<glyph unicode="H" horiz-adv-x="944" d="M111 0v1475h188v-621h346v621h189v-1475h-189v684h-346v-684h-188z" />
<glyph unicode="I" horiz-adv-x="407" d="M111 0v1475h188v-1475h-188z" />
<glyph unicode="J" horiz-adv-x="802" d="M23 258v184h172v-159q0 -143 161 -144q158 0 158 174v1162h186v-1162q0 -336 -344 -336q-158 0 -245.5 76t-87.5 205z" />
<glyph unicode="K" horiz-adv-x="894" d="M111 0v1475h188v-646l373 646h209l-344 -564l344 -911h-205l-260 715l-117 -195v-520h-188z" />
<glyph unicode="L" horiz-adv-x="794" d="M111 0v1475h188v-1299h475v-176h-663z" />
<glyph unicode="M" horiz-adv-x="1183" d="M111 0v1475h270l211 -1266l213 1266h270v-1475h-188v850q0 113 26 403q2 18 7 74l-232 -1327h-192l-230 1327q6 -55 6 -74l11 -110q16 -154 16 -293v-850h-188z" />
<glyph unicode="N" horiz-adv-x="944" d="M111 0v1475h249l320 -1254q-4 23 -6 47.5t-2 26.5l-10 111q-16 154 -17 294v775h189v-1475h-238l-330 1315q6 -61 6 -76l11 -111q16 -156 16 -294v-834h-188z" />
<glyph unicode="O" horiz-adv-x="913" d="M94 330v815q0 186 82 262q98 90 283 90q248 0 327 -149q33 -63 33 -203v-815q0 -186 -82 -262q-100 -90 -278 -91q-213 0 -309 121q-56 68 -56 232zM283 330q0 -104 39.5 -147.5t136.5 -43.5q92 0 132 44t40 147v815q0 102 -40 146t-132 44q-96 0 -136 -43t-40 -147v-815 z" />
<glyph unicode="P" horiz-adv-x="862" d="M111 0v1475h374q162 0 244 -75t82 -257v-225q0 -195 -96 -271q-80 -61 -230 -61h-186v-586h-188zM299 756h197q135 0 135 149v252q0 82 -31 115t-104 33h-197v-549z" />
<glyph unicode="Q" horiz-adv-x="913" d="M94 330v815q0 186 82 262q98 90 283 90q248 0 327 -149q33 -63 33 -203v-815q0 -98 -12 -142q-16 -70 -66.5 -116.5t-119.5 -69.5l190 -170l-92 -100l-264 245q-154 2 -244 66q-68 43 -92.5 104.5t-24.5 182.5zM283 330q0 -102 39.5 -145.5t136.5 -43.5q92 0 132 43 t40 146v815q0 102 -40 146t-132 44q-96 0 -136 -43t-40 -147v-815z" />
<glyph unicode="R" horiz-adv-x="942" d="M111 0v1475h374q334 0 334 -314v-157q0 -166 -38 -236t-148 -115l248 -653h-191l-246 637h-145v-637h-188zM299 784h190q147 0 148 144v235q0 141 -148 142h-190v-521z" />
<glyph unicode="S" horiz-adv-x="851" d="M66 334v166h174v-148q0 -213 190 -213q180 0 180 191q0 80 -24.5 129t-100.5 125l-227 223q-96 98 -125 162.5t-29 191.5q0 176 86 252q94 84 256 84q307 0 308 -319v-140h-172v123q0 174 -146 174q-152 0 -151 -170q0 -127 67 -194l314 -312q125 -125 125 -321 q0 -172 -94.5 -266.5t-266.5 -94.5q-186 0 -291 121q-73 84 -73 236z" />
<glyph unicode="T" horiz-adv-x="808" d="M23 1298v177h763v-177h-288v-1298h-189v1298h-286z" />
<glyph unicode="U" horiz-adv-x="927" d="M104 344v1131h189v-1131q0 -111 33 -147q43 -49 141 -50q94 0 139 50q33 37 33 147v1131h188v-1131q0 -199 -84 -276q-100 -90 -276 -91q-199 0 -297 109q-66 74 -66 258z" />
<glyph unicode="V" horiz-adv-x="845" d="M29 1475h196l205 -1256l191 1256h196l-266 -1475h-248z" />
<glyph unicode="W" horiz-adv-x="1163" d="M37 1475h188l90 -828q4 -23 11 -94l8 -94l6 -99l10 -94l31 385l88 824h231l97 -828q2 -27 8 -94l24 -287l29 385l82 824h188l-170 -1475h-231l-145 1227l-131 -1227h-228z" />
<glyph unicode="X" horiz-adv-x="876" d="M29 0l290 793l-251 682h204l164 -566l164 566h199l-244 -672l295 -803h-205l-211 625l-207 -625h-198z" />
<glyph unicode="Y" horiz-adv-x="819" d="M6 1475h199l198 -725l209 725h199l-315 -906v-569h-189v569z" />
<glyph unicode="Z" horiz-adv-x="813" d="M51 0v141l467 1162h-401v172h620v-125l-477 -1178h494v-172h-703z" />
<glyph unicode="[" horiz-adv-x="448" d="M59 -338v1813h371v-125h-205v-1563h205v-125h-371z" />
<glyph unicode="\" horiz-adv-x="714" d="M74 1475h170l491 -1813h-172z" />
<glyph unicode="]" horiz-adv-x="448" d="M23 -213h202v1563h-202v125h368v-1813h-368v125z" />
<glyph unicode="^" horiz-adv-x="1105" d="M53 805l389 676h220l389 -676h-179l-321 543l-320 -543h-178z" />
<glyph unicode="_" horiz-adv-x="1105" d="M0 -141h1106v-154h-1106v154z" />
<glyph unicode="`" horiz-adv-x="1105" d="M289 1544h235l115 -227h-137z" />
<glyph unicode="a" horiz-adv-x="743" d="M63 268q0 162 142 260l125 86q53 37 162 123v74q0 133 -127 133q-113 0 -113 -117v-108h-150v108q0 250 269 250q287 0 286 -266v-661q0 -82 50 -150h-201v113q-61 -76 -105.5 -102.5t-107.5 -26.5q-109 0 -169.5 74.5t-60.5 209.5zM231 266q0 -156 111 -155q70 0 110 54 t40 144v281l-166 -129q-95 -74 -95 -195z" />
<glyph unicode="b" horiz-adv-x="778" d="M94 0v1475h172v-500q86 102 197 102q70 0 131 -40t82 -103q20 -53 20 -172v-506q0 -272 -229 -272q-102 0 -213 104v-88h-160zM260 293q0 -82 40 -132t106 -50q125 0 124 145v524q0 172 -122 172q-147 0 -148 -252v-407z" />
<glyph unicode="c" horiz-adv-x="692" d="M82 258v545q0 274 293 274q125 0 194.5 -71.5t69.5 -202.5v-115h-150v115q0 147 -120 147q-121 0 -121 -147v-545q0 -147 123 -147q121 0 121 147v121h149v-121q0 -274 -266 -274q-293 0 -293 274z" />
<glyph unicode="d" horiz-adv-x="778" d="M82 256v506q0 172 59 237q70 78 174 78q111 0 199 -102v500h170v-1475h-160v88q-111 -104 -215 -104q-227 0 -227 272zM248 256q0 -145 127 -145q63 0 103 50t40 132v407q0 252 -147 252q-123 0 -123 -172v-524z" />
<glyph unicode="e" horiz-adv-x="724" d="M82 260v541q0 276 293 276q270 0 270 -276v-293h-397v-248q0 -150 123 -149q117 0 116 149v80h158v-80q0 -276 -270 -276q-293 0 -293 276zM248 637h239v186q0 127 -118 127q-121 0 -121 -149v-164z" />
<glyph unicode="f" horiz-adv-x="536" d="M23 936v125h124v164q0 266 242 266q63 0 119 -27v-143q-41 23 -78 22q-111 0 -111 -118v-164h189v-125h-189v-936h-172v936h-124z" />
<glyph unicode="g" horiz-adv-x="784" d="M82 330v475q0 272 233 272q111 0 217 -104v88h158v-1092q0 -180 -86 -248q-76 -59 -209 -59q-166 0 -241 84q-55 59 -64 176h174q-4 -8 -4 -22q0 -113 131 -113q133 0 133 160v168q-100 -98 -205 -99q-72 0 -134 39t-83 105q-20 51 -20 170zM248 309q0 -170 127 -170 q86 0 125 82q25 51 24 170v379q0 84 -40 132t-107 48q-129 0 -129 -145v-496z" />
<glyph unicode="h" horiz-adv-x="780" d="M94 0v1475h166v-502q104 104 209 104q106 0 168 -84q49 -66 49 -200v-793h-166v776q0 162 -121 162q-61 0 -100 -44t-39 -118v-776h-166z" />
<glyph unicode="i" horiz-adv-x="356" d="M94 0v1061h166v-1061h-166zM94 1262v213h166v-213h-166z" />
<glyph unicode="j" horiz-adv-x="356" d="M-92 -205q27 -6 59 -6q76 0 101.5 33t25.5 125v1114h166v-1065q0 -215 -82 -279q-70 -55 -198 -55q-25 0 -72 6v127zM94 1262v213h166v-213h-166z" />
<glyph unicode="k" horiz-adv-x="759" d="M94 0v1475h166v-895l311 481h172l-272 -416l281 -645h-172l-215 487l-105 -153v-334h-166z" />
<glyph unicode="l" horiz-adv-x="356" d="M94 0v1475h166v-1475h-166z" />
<glyph unicode="m" horiz-adv-x="1208" d="M94 0v1061h160v-96q104 113 221 112q115 0 195 -112q96 113 211 112q115 0 176 -78q55 -68 55 -221v-778h-166v782q0 162 -121 162q-61 0 -99 -44t-38 -118v-782h-166v782q0 162 -123 162q-61 0 -100 -44t-39 -118v-782h-166z" />
<glyph unicode="n" horiz-adv-x="780" d="M94 0v1061h166v-88q104 104 209 104q106 0 168 -84q49 -66 49 -200v-793h-166v782q0 162 -121 162q-61 0 -100 -44t-39 -118v-782h-166z" />
<glyph unicode="o" horiz-adv-x="735" d="M82 242v579q0 256 287 256q289 0 288 -256v-579q0 -258 -288 -258q-287 0 -287 258zM248 252q0 -141 121 -141q123 0 123 141v557q0 141 -123 141q-121 0 -121 -141v-557z" />
<glyph unicode="p" horiz-adv-x="778" d="M94 -338v1399h160v-88q111 104 215 104q227 0 227 -272v-504q0 -172 -59 -240q-68 -78 -174 -77q-111 0 -197 102v-424h-172zM260 360q0 -252 148 -251q123 0 122 172v524q0 145 -124 145q-66 0 -106 -49t-40 -131v-410z" />
<glyph unicode="q" horiz-adv-x="778" d="M82 301v504q0 272 229 272q102 0 213 -104v88h160v-1399h-170v424q-88 -102 -199 -102q-70 0 -131 39.5t-82 105.5q-20 53 -20 172zM248 281q0 -172 123 -172q147 0 147 251v410q0 82 -40 131t-103 49q-127 0 -127 -145v-524z" />
<glyph unicode="r" horiz-adv-x="552" d="M94 0v1055h160v-183q43 88 76 123q76 82 163 82h9l43 -2v-178q-137 0 -193 -41q-92 -70 -92 -250v-606h-166z" />
<glyph unicode="s" horiz-adv-x="686" d="M49 276v93h150v-88q0 -168 143 -168q121 0 121 135q0 92 -72 155l-190 168q-70 61 -96.5 115.5t-26.5 136.5q0 254 272 254q254 0 254 -258v-76h-151v74q0 131 -103 131q-111 0 -110 -112q0 -84 73 -148l209 -178q109 -92 109 -246q0 -281 -293 -280q-289 -1 -289 292z " />
<glyph unicode="t" horiz-adv-x="534" d="M23 936v125h124v354h166v-354h191v-125h-191v-672q0 -74 17 -98q20 -33 86 -33q35 0 84 12v-139q-80 -12 -133 -12q-147 0 -195 92q-25 47 -25 164v686h-124z" />
<glyph unicode="u" horiz-adv-x="780" d="M94 270v791h166v-782q0 -162 121 -162q61 0 100 44t39 118v782h166v-1061h-166v88q-104 -104 -209 -104q-106 0 -168 84q-49 67 -49 202z" />
<glyph unicode="v" horiz-adv-x="673" d="M29 1061h180l125 -868l139 868h170l-219 -1061h-193z" />
<glyph unicode="w" horiz-adv-x="1161" d="M37 1061h182l125 -885l137 885h199l143 -885l125 885h178l-194 -1061h-207l-147 877l-138 -877h-207z" />
<glyph unicode="x" horiz-adv-x="747" d="M29 0l245 578l-211 483h191l117 -338l114 338h189l-207 -483l258 -578h-197l-159 453l-148 -453h-192z" />
<glyph unicode="y" horiz-adv-x="735" d="M23 1061h178l202 -877l129 877h177l-205 -1065q-35 -186 -106.5 -260t-219.5 -74q-20 0 -90 2v146q41 -2 68 -3q131 0 149 82l19 78z" />
<glyph unicode="z" horiz-adv-x="669" d="M51 0v143l373 764h-346v154h526v-154l-360 -751h383v-156h-576z" />
<glyph unicode="{" horiz-adv-x="663" d="M45 510v121q125 37 125 211v336q0 154 69.5 225.5t284.5 71.5h23v-132q-125 -6 -168 -48t-43 -156v-322q0 -104 -26.5 -159.5t-94.5 -92.5q68 -35 94.5 -92t26.5 -162v-311q0 -123 43 -167t168 -46v-125h-23q-109 0 -155 8q-86 16 -131 70q-68 76 -68 252v297 q0 102 -27.5 151.5t-97.5 69.5z" />
<glyph unicode="|" horiz-adv-x="1105" d="M471 -369v1844h166v-1844h-166z" />
<glyph unicode="}" horiz-adv-x="663" d="M117 -213q125 2 168 46t43 167v311q0 104 26.5 161.5t94.5 92.5q-68 37 -94.5 92.5t-26.5 159.5v322q0 115 -43 156.5t-168 47.5v132h22q215 0 285 -72t70 -225v-336q0 -174 124 -211v-121q-70 -20 -97 -69.5t-27 -151.5v-297q0 -197 -88 -275q-66 -55 -267 -55h-22v125z " />
<glyph unicode="~" horiz-adv-x="1474" d="M205 1350q70 141 138.5 199.5t164.5 58.5q84 0 248 -76q156 -70 215 -70q106 0 198 148l101 -58q-59 -121 -125 -174q-90 -76 -195 -75q-78 0 -311 106q-86 39 -141 39q-106 0 -195 -160z" />
<glyph unicode="&#xa1;" horiz-adv-x="452" d="M117 53l45 617h98l45 -617v-467h-188v467zM117 825v236h188v-236h-188z" />
<glyph unicode="&#xa2;" d="M166 467v541q0 238 233 272v195h97v-195q227 -27 227 -272v-115h-150v115q0 152 -122 151q-119 0 -119 -151v-541q0 -152 123 -152q68 0 100 50q20 29 20 102v117h150v-117q0 -248 -229 -274v-193h-97v195q-233 32 -233 272z" />
<glyph unicode="&#xa3;" d="M-25 135q0 68 59.5 113t155.5 45q68 0 140 -25l2 17l8 41q2 10 2 43q0 82 -63 247h-216v136h162q-70 201 -69 356q0 156 87 249t228 93q166 0 242 -115q53 -82 53 -227v-117h-170v92q0 205 -125 205q-139 0 -139 -192q0 -123 84 -344h225v-136h-176q33 -96 33 -170 q0 -98 -49 -235q123 -70 165 -70q72 0 72 127v131h166v-131q0 -133 -41 -192q-53 -80 -166 -80q-100 0 -258 115q-109 -129 -231 -129q-76 0 -128.5 45t-52.5 108zM100 131q0 -49 60 -49q82 0 141 80l-12 4q-49 20 -101 20q-88 0 -88 -55z" />
<glyph unicode="&#xa4;" horiz-adv-x="1095" d="M127 666l35 137h117v358q0 336 348 336q156 0 246 -74.5t90 -205.5v-203h-172v176q0 145 -160 145q-164 0 -164 -174v-358h395l-33 -135l-362 -2v-353q0 -174 164 -174q170 0 170 144v233h172v-258q0 -129 -90 -205t-250 -76q-354 0 -354 336v353h-152z" />
<glyph unicode="&#xa5;" d="M51 1432h195l190 -707l203 707h192l-122 -363h104v-135h-154l-88 -248h152v-135h-199v-551h-182v551h-195v135h152l-82 248h-162v135h117z" />
<glyph unicode="&#xa6;" horiz-adv-x="1105" d="M471 338h166v-707h-166v707zM471 737v738h166v-738h-166z" />
<glyph unicode="&#xa7;" d="M111 621q0 186 155 299q-98 127 -98 266q0 143 78 224t217 81q264 0 264 -299v-131h-162v127q0 141 -104 141q-117 0 -117 -147q0 -133 86 -197l205 -160q139 -109 139 -272q0 -184 -143 -293q70 -59 97.5 -120.5t27.5 -159.5q0 -317 -305 -318q-307 0 -308 334v106h162 v-102q0 -176 148 -176q129 0 129 147q0 115 -90 187l-226 176q-155 121 -155 287zM287 627q0 -92 84 -158l135 -107q92 61 92 179q0 94 -78 155l-149 117q-84 -77 -84 -186z" />
<glyph unicode="&#xa8;" horiz-adv-x="1105" d="M305 1323v215h166v-215h-166zM633 1323v215h166v-215h-166z" />
<glyph unicode="&#xa9;" horiz-adv-x="1331" d="M94 748q0 307 169 528t403 221q238 0 403.5 -222t165.5 -536q0 -317 -167 -539.5t-402 -222.5q-240 0 -406 223.5t-166 547.5zM199 745q0 -276 136 -469.5t331 -193.5q190 0 327 193.5t137 461.5t-137 462t-327 194t-328.5 -193t-138.5 -455zM446 496v483q0 199 213 199 q94 0 149.5 -45.5t55.5 -120.5v-125h-116v108q0 76 -86 76q-88 0 -89 -92v-483q0 -90 89 -90q92 0 92 73v139h118v-153q0 -78 -57 -122t-151 -44q-218 0 -218 197z" />
<glyph unicode="&#xaa;" horiz-adv-x="589" d="M88 963q0 98 94 161l76 50q66 43 98 71v39q0 72 -71 72q-63 0 -64 -62v-71h-110v71q0 154 176 154q188 0 188 -164v-389q0 -49 39 -96h-149v53q-55 -61 -123 -61q-154 0 -154 172zM211 963q0 -84 61 -84q84 0 84 110v150l-92 -66q-53 -38 -53 -110z" />
<glyph unicode="&#xab;" horiz-adv-x="833" d="M66 461v170l299 336v-248l-152 -172l152 -172v-252zM438 461v170l301 336v-248l-153 -172l153 -172v-252z" />
<glyph unicode="&#xac;" horiz-adv-x="1105" d="M74 436v154h956v-590h-166v436h-790z" />
<glyph unicode="&#xad;" horiz-adv-x="489" d="M0 449v161h492v-161h-492z" />
<glyph unicode="&#xae;" horiz-adv-x="1331" d="M94 748q0 307 169 528t403 221q238 0 403.5 -222t165.5 -536q0 -317 -167 -539.5t-402 -222.5q-240 0 -406 223.5t-166 547.5zM199 745q0 -276 136 -469.5t331 -193.5q190 0 327 193.5t137 461.5t-137 462t-327 194t-328.5 -193t-138.5 -455zM444 309v856h228 q205 0 205 -186v-90q0 -88 -19 -125q-23 -51 -90 -80l147 -375h-129l-143 363h-72v-363h-127zM571 772h103q80 0 80 74v137q0 72 -80 72h-103v-283z" />
<glyph unicode="&#xaf;" horiz-adv-x="1105" d="M0 1761v150h1106v-150h-1106z" />
<glyph unicode="&#xb0;" horiz-adv-x="823" d="M111 1169q0 133 88 227.5t215 94.5q129 0 216 -93t87 -231q0 -127 -90 -220t-213 -93q-127 0 -215 93t-88 222zM233 1171q0 -82 53.5 -139t125.5 -57q70 0 124 57.5t54 132.5q0 84 -51.5 141.5t-126.5 57.5q-72 0 -125.5 -57.5t-53.5 -135.5z" />
<glyph unicode="&#xb1;" d="M111 53v148h663v-148h-663zM111 641v150h258v256h151v-256h254v-150h-254v-258h-151v258h-258z" />
<glyph unicode="&#xb2;" horiz-adv-x="528" d="M55 590v106l217 338q51 80 52 160v72q0 84 -70 84t-70 -84v-136h-121v136q0 195 195 194q193 0 193 -186v-64q0 -115 -74 -233l-178 -277h280v-110h-424z" />
<glyph unicode="&#xb3;" horiz-adv-x="528" d="M51 791v69h119v-69q0 -100 86 -101q86 0 86 101v100q0 96 -102 96h-52v107h52q92 0 92 75v97q0 84 -74 84t-74 -84v-54h-121v54q0 195 201 194q197 0 197 -186v-68q0 -123 -101 -164q63 -27 87 -63.5t24 -110.5v-77q0 -117 -53 -160q-59 -51 -158 -51q-100 0 -166 61 q-43 44 -43 150z" />
<glyph unicode="&#xb4;" horiz-adv-x="1105" d="M467 1317l115 227h235l-213 -227h-137z" />
<glyph unicode="&#xb5;" horiz-adv-x="780" d="M94 -338v1399h166v-782q0 -68 37 -115t92 -47t93 46t38 116v782h166v-1061h-166v88q-66 -104 -131 -104q-63 0 -129 104v-426h-166z" />
<glyph unicode="&#x3bc;" horiz-adv-x="780" d="M94 -338v1399h166v-782q0 -68 37 -115t92 -47t93 46t38 116v782h166v-1061h-166v88q-66 -104 -131 -104q-63 0 -129 104v-426h-166z" />
<glyph unicode="&#xb6;" d="M47 1087q0 172 104.5 280t268.5 108h440v-95h-102v-1718h-121v1718h-139v-1718h-121v1047q-139 4 -234.5 114t-95.5 264z" />
<glyph unicode="&#xb7;" horiz-adv-x="364" d="M88 426v238h188v-238h-188z" />
<glyph unicode="&#xb8;" horiz-adv-x="1105" d="M416 -326l39 50q74 -35 114 -35q70 0 70 63q0 55 -109 82v166h74v-104q172 -45 172 -152q0 -59 -47 -96t-125 -37q-102 0 -188 63z" />
<glyph unicode="&#xb9;" horiz-adv-x="528" d="M92 1249v90q104 31 189 109h98v-858h-129v690q-86 -27 -158 -31z" />
<glyph unicode="&#xba;" horiz-adv-x="589" d="M106 948v344q0 156 189 156q186 0 186 -156v-344q0 -158 -186 -157q-189 -1 -189 157zM225 956q0 -78 70 -77q68 0 67 77v328q0 76 -67 76q-70 0 -70 -76v-328z" />
<glyph unicode="&#xbb;" horiz-adv-x="833" d="M94 123v252l154 172l-154 172v248l299 -336v-170zM467 123v252l151 172l-151 172v248l301 -336v-170z" />
<glyph unicode="&#xbc;" horiz-adv-x="1349" d="M92 1249v90q127 43 189 109h98v-858h-129v690q-88 -27 -158 -31zM256 0l717 1475h123l-717 -1475h-123zM868 186v119l189 553h178v-561h82v-111h-82v-186h-129v186h-238zM971 297h135v399z" />
<glyph unicode="&#xbd;" horiz-adv-x="1349" d="M92 1249v90q127 43 189 109h98v-858h-129v690q-88 -27 -158 -31zM256 0l717 1475h123l-717 -1475h-123zM879 0v106l217 338q49 80 49 160v70q0 84 -68 84q-74 0 -73 -84v-133h-119v133q0 195 194 194q195 0 195 -184v-66q0 -117 -76 -231l-178 -276h283v-111h-424z" />
<glyph unicode="&#xbe;" horiz-adv-x="1349" d="M51 791v69h119v-69q0 -100 86 -101q86 0 86 101v100q0 96 -102 96h-52v107h52q92 0 92 75v97q0 84 -74 84t-74 -84v-54h-121v54q0 195 201 194q197 0 197 -186v-68q0 -123 -101 -164q63 -27 87 -63.5t24 -110.5v-77q0 -117 -53 -160q-59 -51 -158 -51q-100 0 -166 61 q-43 44 -43 150zM256 0l717 1475h123l-717 -1475h-123zM866 186v119l191 553h178v-561h82v-111h-82v-186h-129v186h-240zM969 297h137v399z" />
<glyph unicode="&#xbf;" horiz-adv-x="833" d="M82 -33q0 94 10 139q14 59 58 132l92 141q4 8 22 33q37 57 37 137v121h139v-121q0 -131 -61 -244l-72 -129q-37 -68 -37 -172v-135q0 -143 146 -143q137 0 137 143v221h170v-221q0 -178 -115 -250q-88 -55 -213 -55q-143 0 -228 80t-85 215v108zM279 825v236h188v-236 h-188z" />
<glyph unicode="&#xc0;" horiz-adv-x="878" d="M29 0l313 1475h188l320 -1475h-193l-55 281h-332l-55 -281h-186zM145 1888h246l123 -237h-147zM299 442h274l-137 711z" />
<glyph unicode="&#xc1;" horiz-adv-x="878" d="M29 0l313 1475h188l320 -1475h-193l-55 281h-332l-55 -281h-186zM299 442h274l-137 711zM389 1651l121 237h246l-221 -237h-146z" />
<glyph unicode="&#xc2;" horiz-adv-x="878" d="M29 0l313 1475h188l320 -1475h-193l-55 281h-332l-55 -281h-186zM172 1651l223 237h140l215 -237h-187l-110 135l-131 -135h-150zM299 442h274l-137 711z" />
<glyph unicode="&#xc3;" horiz-adv-x="878" d="M29 0l313 1475h188l320 -1475h-193l-55 281h-332l-55 -281h-186zM195 1669q2 96 47 145.5t110 49.5q43 0 88 -15l92 -32q31 -12 70 -13q53 0 68 66h73q-6 -90 -43 -135q-47 -63 -129 -64q-41 0 -92 19l-88 30q-37 14 -61 15q-53 0 -62 -66h-73zM299 442h274l-137 711z " />
<glyph unicode="&#xc4;" horiz-adv-x="878" d="M29 0l313 1475h188l320 -1475h-193l-55 281h-332l-55 -281h-186zM178 1659v221h172v-221h-172zM299 442h274l-137 711zM543 1659v221h170v-221h-170z" />
<glyph unicode="&#xc5;" horiz-adv-x="878" d="M29 0l313 1475h188l320 -1475h-193l-55 281h-332l-55 -281h-186zM270 1772q0 72 53.5 123t122.5 51q76 0 127.5 -50.5t51.5 -126.5q0 -74 -52.5 -125t-126.5 -51q-72 0 -124 52.5t-52 126.5zM299 442h274l-137 711zM340 1772q0 -45 31.5 -77t74.5 -32q45 0 76 31.5 t31 74.5q0 45 -30.5 76t-76.5 31q-41 0 -73.5 -30.5t-32.5 -73.5z" />
<glyph unicode="&#xc6;" horiz-adv-x="1390" d="M16 0l512 1475h768v-160h-467v-436h404v-162h-404v-547h510v-170h-698v281h-332l-92 -281h-201zM360 442h281v873z" />
<glyph unicode="&#xc7;" horiz-adv-x="854" d="M94 313v848q0 336 348 336q156 0 245 -74.5t89 -205.5v-203h-172v176q0 145 -160 145q-162 0 -161 -174v-848q0 -174 163 -174q168 0 168 144v233h172v-258q0 -246 -284 -278v-84q158 -43 157 -152q0 -133 -174 -133q-106 0 -196 63l43 50q72 -35 110 -35q72 0 72 63 q0 55 -106 82v146q-162 16 -230 81q-84 84 -84 252z" />
<glyph unicode="&#xc8;" horiz-adv-x="862" d="M111 0v1475h655v-160h-467v-436h401v-162h-401v-547h510v-170h-698zM182 1888h244l123 -237h-146z" />
<glyph unicode="&#xc9;" horiz-adv-x="862" d="M111 0v1475h655v-160h-467v-436h401v-162h-401v-547h510v-170h-698zM395 1651l123 237h246l-221 -237h-148z" />
<glyph unicode="&#xca;" horiz-adv-x="862" d="M111 0v1475h655v-160h-467v-436h401v-162h-401v-547h510v-170h-698zM170 1651l223 237h139l216 -237h-187l-110 135l-132 -135h-149z" />
<glyph unicode="&#xcb;" horiz-adv-x="862" d="M111 0v1475h655v-160h-467v-436h401v-162h-401v-547h510v-170h-698zM186 1659v221h170v-221h-170zM549 1659v221h170v-221h-170z" />
<glyph unicode="&#xcc;" horiz-adv-x="407" d="M-82 1888h246l121 -237h-146zM111 0v1475h188v-1475h-188z" />
<glyph unicode="&#xcd;" horiz-adv-x="407" d="M111 0v1475h188v-1475h-188zM145 1651l123 237h246l-221 -237h-148z" />
<glyph unicode="&#xce;" horiz-adv-x="407" d="M-61 1651l223 237h139l215 -237h-186l-111 135l-133 -135h-147zM111 0v1475h188v-1475h-188z" />
<glyph unicode="&#xcf;" horiz-adv-x="407" d="M-10 1659v221h170v-221h-170zM111 0v1475h188v-1475h-188zM264 1659v221h170v-221h-170z" />
<glyph unicode="&#xd0;" horiz-adv-x="933" d="M16 717v162h95v596h403q326 0 326 -312v-852q0 -311 -326 -311h-403v717h-95zM299 170h199q156 0 155 160v815q0 160 -155 160h-199v-426h176v-162h-176v-547z" />
<glyph unicode="&#xd1;" horiz-adv-x="944" d="M111 0v1475h249l320 -1254q-4 23 -6 47.5t-2 26.5l-10 111q-16 154 -17 294v775h189v-1475h-238l-330 1315q6 -61 6 -76l11 -111q16 -156 16 -294v-834h-188zM242 1669q2 96 47 145.5t108 49.5q45 0 90 -15l93 -32q31 -12 67 -13q53 0 70 66h74q-8 -90 -43 -135 q-49 -63 -132 -64q-39 0 -90 19l-88 30q-39 14 -61 15q-53 0 -64 -66h-71z" />
<glyph unicode="&#xd2;" horiz-adv-x="913" d="M94 330v815q0 186 82 262q98 90 283 90q248 0 327 -149q33 -63 33 -203v-815q0 -186 -82 -262q-100 -90 -278 -91q-213 0 -309 121q-56 68 -56 232zM170 1888h246l121 -237h-146zM283 330q0 -104 39.5 -147.5t136.5 -43.5q92 0 132 44t40 147v815q0 102 -40 146t-132 44 q-96 0 -136 -43t-40 -147v-815z" />
<glyph unicode="&#xd3;" horiz-adv-x="913" d="M94 330v815q0 186 82 262q98 90 283 90q248 0 327 -149q33 -63 33 -203v-815q0 -186 -82 -262q-100 -90 -278 -91q-213 0 -309 121q-56 68 -56 232zM283 330q0 -104 39.5 -147.5t136.5 -43.5q92 0 132 44t40 147v815q0 102 -40 146t-132 44q-96 0 -136 -43t-40 -147v-815 zM397 1651l123 237h246l-221 -237h-148z" />
<glyph unicode="&#xd4;" horiz-adv-x="913" d="M94 330v815q0 186 82 262q98 90 283 90q248 0 327 -149q33 -63 33 -203v-815q0 -186 -82 -262q-100 -90 -278 -91q-213 0 -309 121q-56 68 -56 232zM190 1651l224 237h139l215 -237h-186l-111 135l-133 -135h-148zM283 330q0 -104 39.5 -147.5t136.5 -43.5q92 0 132 44 t40 147v815q0 102 -40 146t-132 44q-96 0 -136 -43t-40 -147v-815z" />
<glyph unicode="&#xd5;" horiz-adv-x="913" d="M94 330v815q0 186 82 262q98 90 283 90q248 0 327 -149q33 -63 33 -203v-815q0 -186 -82 -262q-100 -90 -278 -91q-213 0 -309 121q-56 68 -56 232zM205 1669q4 96 49 145.5t108 49.5q45 0 89 -15l94 -32q31 -12 67 -13q53 0 70 66h72q-6 -90 -41 -135q-49 -63 -131 -64 q-39 0 -90 19l-89 30q-39 14 -63 15q-53 0 -61 -66h-74zM283 330q0 -104 39.5 -147.5t136.5 -43.5q92 0 132 44t40 147v815q0 102 -40 146t-132 44q-96 0 -136 -43t-40 -147v-815z" />
<glyph unicode="&#xd6;" horiz-adv-x="913" d="M94 330v815q0 186 82 262q98 90 283 90q248 0 327 -149q33 -63 33 -203v-815q0 -186 -82 -262q-100 -90 -278 -91q-213 0 -309 121q-56 68 -56 232zM203 1659v221h172v-221h-172zM283 330q0 -104 39.5 -147.5t136.5 -43.5q92 0 132 44t40 147v815q0 102 -40 146t-132 44 q-96 0 -136 -43t-40 -147v-815zM565 1659v221h172v-221h-172z" />
<glyph unicode="&#xd7;" d="M123 504l213 213l-209 211l102 102l211 -209l215 213l109 -104l-215 -215l215 -215l-105 -105l-217 215l-213 -215z" />
<glyph unicode="&#xd8;" horiz-adv-x="913" d="M45 -45l82 178q-33 70 -33 197v815q0 186 82 262q100 90 279 90q164 0 270 -80l68 142l86 -39l-86 -187q27 -57 26 -188v-815q0 -186 -82 -262q-100 -90 -278 -91q-166 0 -264 76l-64 -137zM283 471l344 735q-16 129 -168 129q-96 0 -136 -43t-40 -147v-674zM289 256 q20 -117 170 -117q92 0 132 44t40 147v659z" />
<glyph unicode="&#xd9;" horiz-adv-x="927" d="M104 344v1131h189v-1131q0 -111 33 -147q43 -49 141 -50q94 0 139 50q33 37 33 147v1131h188v-1131q0 -199 -84 -276q-100 -90 -276 -91q-199 0 -297 109q-66 74 -66 258zM186 1888h246l121 -237h-145z" />
<glyph unicode="&#xda;" horiz-adv-x="927" d="M104 344v1131h189v-1131q0 -111 33 -147q43 -49 141 -50q94 0 139 50q33 37 33 147v1131h188v-1131q0 -199 -84 -276q-100 -90 -276 -91q-199 0 -297 109q-66 74 -66 258zM414 1651l121 237h245l-221 -237h-145z" />
<glyph unicode="&#xdb;" horiz-adv-x="927" d="M104 344v1131h189v-1131q0 -111 33 -147q43 -49 141 -50q94 0 139 50q33 37 33 147v1131h188v-1131q0 -199 -84 -276q-100 -90 -276 -91q-199 0 -297 109q-66 74 -66 258zM199 1651l223 237h139l215 -237h-186l-111 135l-131 -135h-149z" />
<glyph unicode="&#xdc;" horiz-adv-x="927" d="M104 344v1131h189v-1131q0 -111 33 -147q43 -49 141 -50q94 0 139 50q33 37 33 147v1131h188v-1131q0 -199 -84 -276q-100 -90 -276 -91q-199 0 -297 109q-66 74 -66 258zM205 1659v221h172v-221h-172zM569 1659v221h170v-221h-170z" />
<glyph unicode="&#xdd;" horiz-adv-x="819" d="M6 1475h199l198 -725l209 725h199l-315 -906v-569h-189v569zM367 1651l122 237h246l-221 -237h-147z" />
<glyph unicode="&#xde;" horiz-adv-x="862" d="M111 0v1475h188v-222h186q162 0 244 -74.5t82 -256.5v-226q0 -195 -96 -270q-80 -61 -230 -61h-186v-365h-188zM299 535h197q135 0 135 149v252q0 82 -31 114.5t-104 32.5h-197v-548z" />
<glyph unicode="&#xdf;" horiz-adv-x="802" d="M94 0v1208q0 166 99 232q76 51 194 51q293 0 293 -258v-72q0 -92 -27.5 -133t-117.5 -84q111 -43 148.5 -102.5t37.5 -186.5v-286q0 -219 -64 -293q-78 -92 -204 -92q-39 0 -101 16v129q43 -12 68 -12q135 0 135 202v367q0 172 -158 172h-45v148h41q70 0 98.5 31.5 t28.5 107.5v88q0 119 -131 119q-129 0 -129 -144v-1208h-166z" />
<glyph unicode="&#xe0;" horiz-adv-x="743" d="M63 268q0 162 142 260l125 86q53 37 162 123v74q0 133 -127 133q-113 0 -113 -117v-108h-150v108q0 250 269 250q287 0 286 -266v-661q0 -82 50 -150h-201v113q-61 -76 -105.5 -102.5t-107.5 -26.5q-109 0 -169.5 74.5t-60.5 209.5zM111 1544h233l117 -227h-137zM231 266 q0 -156 111 -155q70 0 110 54t40 144v281l-166 -129q-95 -74 -95 -195z" />
<glyph unicode="&#xe1;" horiz-adv-x="743" d="M63 268q0 162 142 260l125 86q53 37 162 123v74q0 133 -127 133q-113 0 -113 -117v-108h-150v108q0 250 269 250q287 0 286 -266v-661q0 -82 50 -150h-201v113q-61 -76 -105.5 -102.5t-107.5 -26.5q-109 0 -169.5 74.5t-60.5 209.5zM231 266q0 -156 111 -155q70 0 110 54 t40 144v281l-166 -129q-95 -74 -95 -195zM338 1317l115 227h235l-213 -227h-137z" />
<glyph unicode="&#xe2;" horiz-adv-x="743" d="M63 268q0 162 142 260l125 86q53 37 162 123v74q0 133 -127 133q-113 0 -113 -117v-108h-150v108q0 250 269 250q287 0 286 -266v-661q0 -82 50 -150h-201v113q-61 -76 -105.5 -102.5t-107.5 -26.5q-109 0 -169.5 74.5t-60.5 209.5zM135 1317l213 227h131l207 -227h-180 l-103 127l-127 -127h-141zM231 266q0 -156 111 -155q70 0 110 54t40 144v281l-166 -129q-95 -74 -95 -195z" />
<glyph unicode="&#xe3;" horiz-adv-x="743" d="M63 268q0 162 142 260l125 86q53 37 162 123v74q0 133 -127 133q-113 0 -113 -117v-108h-150v108q0 250 269 250q287 0 286 -266v-661q0 -82 50 -150h-201v113q-61 -76 -105.5 -102.5t-107.5 -26.5q-109 0 -169.5 74.5t-60.5 209.5zM154 1335q2 94 44 139.5t105 45.5 q41 0 82 -15l90 -30q33 -10 68 -11q47 0 61 60h70q-6 -86 -39 -125q-49 -61 -125 -62q-33 0 -86 19l-86 28q-39 14 -57 15q-51 0 -58 -64h-69zM231 266q0 -156 111 -155q70 0 110 54t40 144v281l-166 -129q-95 -74 -95 -195z" />
<glyph unicode="&#xe4;" horiz-adv-x="743" d="M63 268q0 162 142 260l125 86q53 37 162 123v74q0 133 -127 133q-113 0 -113 -117v-108h-150v108q0 250 269 250q287 0 286 -266v-661q0 -82 50 -150h-201v113q-61 -76 -105.5 -102.5t-107.5 -26.5q-109 0 -169.5 74.5t-60.5 209.5zM147 1323v215h166v-215h-166zM231 266 q0 -156 111 -155q70 0 110 54t40 144v281l-166 -129q-95 -74 -95 -195zM475 1323v215h166v-215h-166z" />
<glyph unicode="&#xe5;" horiz-adv-x="743" d="M63 268q0 162 142 260l125 86q53 37 162 123v74q0 133 -127 133q-113 0 -113 -117v-108h-150v108q0 250 269 250q287 0 286 -266v-661q0 -82 50 -150h-201v113q-61 -76 -105.5 -102.5t-107.5 -26.5q-109 0 -169.5 74.5t-60.5 209.5zM217 1434q0 70 53.5 122t122.5 52 q76 0 127 -51.5t51 -124.5q0 -74 -52 -126.5t-126 -52.5q-72 0 -124 53.5t-52 127.5zM231 266q0 -156 111 -155q70 0 110 54t40 144v281l-166 -129q-95 -74 -95 -195zM287 1434q0 -45 31.5 -77t74.5 -32q45 0 76 32t31 75t-31 74.5t-76 31.5q-41 0 -73.5 -31.5t-32.5 -72.5z " />
<glyph unicode="&#xe6;" horiz-adv-x="1136" d="M66 268q0 166 143 262l121 84l162 123v74q0 139 -127 139q-119 0 -119 -123v-108h-140v108q0 250 265 250q129 0 207 -61q86 61 206 61q129 0 200 -71.5t71 -204.5v-293h-398v-248q0 -150 123 -149q115 0 115 149v80h160v-80q0 -276 -273 -276q-152 0 -229 84 q-117 -84 -250 -84q-237 -1 -237 284zM233 266q0 -156 111 -155q68 0 108 54t40 144v281l-166 -129q-93 -72 -93 -195zM657 637h238v186q0 127 -119 127t-119 -127v-186z" />
<glyph unicode="&#xe7;" horiz-adv-x="692" d="M82 260v543q0 274 289 274q268 0 268 -274v-115h-150v115q0 147 -122 147q-119 0 -119 -147v-543q0 -150 123 -149q121 0 121 149v119h149v-119q0 -252 -238 -272v-90q174 -45 175 -154q0 -133 -175 -133q-98 0 -188 63l39 50q72 -35 111 -35q74 0 73 63q0 55 -108 82 v154q-248 32 -248 272z" />
<glyph unicode="&#xe8;" horiz-adv-x="724" d="M82 260v541q0 276 293 276q270 0 270 -276v-293h-397v-248q0 -150 123 -149q117 0 116 149v80h158v-80q0 -276 -270 -276q-293 0 -293 276zM102 1544h234l115 -227h-138zM248 637h239v186q0 127 -118 127q-121 0 -121 -149v-164z" />
<glyph unicode="&#xe9;" horiz-adv-x="724" d="M82 260v541q0 276 293 276q270 0 270 -276v-293h-397v-248q0 -150 123 -149q117 0 116 149v80h158v-80q0 -276 -270 -276q-293 0 -293 276zM248 637h239v186q0 127 -118 127q-121 0 -121 -149v-164zM324 1317l114 227h234l-211 -227h-137z" />
<glyph unicode="&#xea;" horiz-adv-x="724" d="M82 260v541q0 276 293 276q270 0 270 -276v-293h-397v-248q0 -150 123 -149q117 0 116 149v80h158v-80q0 -276 -270 -276q-293 0 -293 276zM127 1317l211 227h133l205 -227h-178l-105 127l-125 -127h-141zM248 637h239v186q0 127 -118 127q-121 0 -121 -149v-164z" />
<glyph unicode="&#xeb;" horiz-adv-x="724" d="M82 260v541q0 276 293 276q270 0 270 -276v-293h-397v-248q0 -150 123 -149q117 0 116 149v80h158v-80q0 -276 -270 -276q-293 0 -293 276zM139 1323v215h166v-215h-166zM248 637h239v186q0 127 -118 127q-121 0 -121 -149v-164zM467 1323v215h166v-215h-166z" />
<glyph unicode="&#xec;" horiz-adv-x="356" d="M-100 1544h235l115 -227h-137zM94 0v1061h166v-1061h-166z" />
<glyph unicode="&#xed;" horiz-adv-x="356" d="M94 0v1061h166v-1061h-166zM129 1317l115 227h233l-211 -227h-137z" />
<glyph unicode="&#xee;" horiz-adv-x="356" d="M-16 1317l153 227h133l146 -227h-170l-53 121l-74 -121h-135zM94 0v1061h166v-1061h-166z" />
<glyph unicode="&#xef;" horiz-adv-x="356" d="M-8 1323v215h166v-215h-166zM98 0v1061h166v-1061h-166zM229 1323v215h166v-215h-166z" />
<glyph unicode="&#xf0;" horiz-adv-x="735" d="M82 240v581q0 115 73.5 184.5t194.5 69.5q20 0 41 -2l-84 178l-135 -82l-43 82l139 84l-78 154l76 43l96 -143l144 79l47 -79l-139 -80l139 -211q104 -160 104 -293v-565q0 -256 -282 -256q-293 0 -293 256zM248 252q0 -141 121 -141q123 0 123 141v557q0 141 -123 141 q-121 0 -121 -141v-557z" />
<glyph unicode="&#xf1;" horiz-adv-x="780" d="M94 0v1061h166v-88q104 104 209 104q106 0 168 -84q49 -66 49 -200v-793h-166v782q0 162 -121 162q-61 0 -100 -44t-39 -118v-782h-166zM170 1335q2 94 44 139.5t108 45.5q41 0 81 -15l91 -30q33 -10 65 -11q49 0 62 60h71q-6 -86 -39 -125q-49 -61 -125 -62 q-33 0 -86 19l-86 28q-41 14 -57 15q-51 0 -57 -64h-72z" />
<glyph unicode="&#xf2;" horiz-adv-x="735" d="M82 242v579q0 256 287 256q289 0 288 -256v-579q0 -258 -288 -258q-287 0 -287 258zM90 1544h236l114 -227h-137zM248 252q0 -141 121 -141q123 0 123 141v557q0 141 -123 141q-121 0 -121 -141v-557z" />
<glyph unicode="&#xf3;" horiz-adv-x="735" d="M82 242v579q0 256 287 256q289 0 288 -256v-579q0 -258 -288 -258q-287 0 -287 258zM248 252q0 -141 121 -141q123 0 123 141v557q0 141 -123 141q-121 0 -121 -141v-557zM311 1317l115 227h236l-213 -227h-138z" />
<glyph unicode="&#xf4;" horiz-adv-x="735" d="M82 242v579q0 256 287 256q289 0 288 -256v-579q0 -258 -288 -258q-287 0 -287 258zM109 1317l213 227h131l206 -227h-180l-102 127l-127 -127h-141zM248 252q0 -141 121 -141q123 0 123 141v557q0 141 -123 141q-121 0 -121 -141v-557z" />
<glyph unicode="&#xf5;" horiz-adv-x="735" d="M82 242v579q0 256 287 256q289 0 288 -256v-579q0 -258 -288 -258q-287 0 -287 258zM121 1335q2 94 45 139.5t106 45.5q41 0 82 -15l90 -30q33 -10 66 -11q49 0 63 60h70q-6 -86 -39 -125q-49 -61 -125 -62q-33 0 -86 19l-86 28q-39 14 -57 15q-51 0 -57 -64h-72z M248 252q0 -141 121 -141q123 0 123 141v557q0 141 -123 141q-121 0 -121 -141v-557z" />
<glyph unicode="&#xf6;" horiz-adv-x="735" d="M82 242v579q0 256 287 256q289 0 288 -256v-579q0 -258 -288 -258q-287 0 -287 258zM123 1323v215h166v-215h-166zM248 252q0 -141 121 -141q123 0 123 141v557q0 141 -123 141q-121 0 -121 -141v-557zM451 1323v215h165v-215h-165z" />
<glyph unicode="&#xf7;" d="M111 641v150h663v-150h-663zM332 379q0 43 32.5 76.5t79.5 33.5t79 -32.5t32 -79.5q0 -45 -33 -78t-78 -33q-47 0 -79.5 33t-32.5 80zM332 1055q0 45 32.5 77.5t79.5 32.5t79 -31.5t32 -80.5q0 -45 -33 -78t-78 -33q-47 0 -79.5 33t-32.5 80z" />
<glyph unicode="&#xf8;" horiz-adv-x="735" d="M39 -63l76 161q-33 63 -33 144v579q0 256 287 256q102 0 182 -45l61 133l86 -39l-73 -161q33 -63 32 -144v-579q0 -258 -288 -258q-100 0 -181 45l-65 -133zM248 381l231 500q-25 70 -110 69q-121 0 -121 -141v-428zM258 182q25 -72 111 -71q123 0 123 141v430z" />
<glyph unicode="&#xf9;" horiz-adv-x="780" d="M94 270v791h166v-782q0 -162 121 -162q61 0 100 44t39 118v782h166v-1061h-166v88q-104 -104 -209 -104q-106 0 -168 84q-49 67 -49 202zM131 1544h234l114 -227h-137z" />
<glyph unicode="&#xfa;" horiz-adv-x="780" d="M94 270v791h166v-782q0 -162 121 -162q61 0 100 44t39 118v782h166v-1061h-166v88q-104 -104 -209 -104q-106 0 -168 84q-49 67 -49 202zM344 1317l117 227h233l-213 -227h-137z" />
<glyph unicode="&#xfb;" horiz-adv-x="780" d="M94 270v791h166v-782q0 -162 121 -162q61 0 100 44t39 118v782h166v-1061h-166v88q-104 -104 -209 -104q-106 0 -168 84q-49 67 -49 202zM133 1317l211 227h133l207 -227h-180l-105 127l-125 -127h-141z" />
<glyph unicode="&#xfc;" horiz-adv-x="780" d="M94 270v791h166v-782q0 -162 121 -162q61 0 100 44t39 118v782h166v-1061h-166v88q-104 -104 -209 -104q-106 0 -168 84q-49 67 -49 202zM156 1323v215h166v-215h-166zM481 1323v215h166v-215h-166z" />
<glyph unicode="&#xfd;" horiz-adv-x="735" d="M23 1061h178l202 -877l129 877h177l-205 -1065q-35 -186 -106.5 -260t-219.5 -74q-20 0 -90 2v146q41 -2 68 -3q131 0 149 82l19 78zM319 1317l115 227h234l-213 -227h-136z" />
<glyph unicode="&#xfe;" horiz-adv-x="778" d="M94 -338v1813h172v-498q100 100 203 100q227 0 227 -272v-504q0 -172 -59 -240q-68 -78 -174 -77q-111 0 -197 102v-424h-172zM260 360q0 -252 148 -251q123 0 122 172v524q0 145 -124 145q-66 0 -106 -49t-40 -131v-410z" />
<glyph unicode="&#xff;" horiz-adv-x="735" d="M23 1061h178l202 -877l129 877h177l-205 -1065q-35 -186 -106.5 -260t-219.5 -74q-20 0 -90 2v146q41 -2 68 -3q131 0 149 82l19 78zM137 1323v215h166v-215h-166zM465 1323v215h166v-215h-166z" />
<glyph unicode="&#x152;" horiz-adv-x="1382" d="M94 330v819q0 94 12 141q16 70 70 119q98 88 270 88q98 0 185 -39v17h651v-160h-463v-436h400v-162h-400v-547h510v-170h-698v20q-82 -43 -185 -43q-199 0 -296 117q-56 70 -56 236zM283 330q0 -102 39.5 -145.5t136.5 -43.5q92 0 132 43t40 146v819q0 100 -40 143 t-132 43q-96 0 -136 -43t-40 -143v-819z" />
<glyph unicode="&#x153;" horiz-adv-x="1134" d="M82 242v579q0 256 287 256q129 0 206 -61q86 61 209 61q129 0 200 -71.5t71 -204.5v-293h-398v-248q0 -150 123 -149q115 0 115 149v80h160v-80q0 -276 -273 -276q-121 0 -207 63q-78 -63 -206 -63q-287 0 -287 258zM248 252q0 -141 121 -141q123 0 123 141v557 q0 141 -123 141q-121 0 -121 -141v-557zM657 637h238v186q0 127 -117 127q-121 0 -121 -149v-164z" />
<glyph unicode="&#x178;" horiz-adv-x="819" d="M6 1475h199l198 -725l209 725h199l-315 -906v-569h-189v569zM158 1659v221h170v-221h-170zM520 1659v221h170v-221h-170z" />
<glyph unicode="&#x2c6;" horiz-adv-x="1105" d="M279 1317l213 227h133l204 -227h-178l-104 127l-127 -127h-141z" />
<glyph unicode="&#x2dc;" horiz-adv-x="1105" d="M293 1335q2 94 44 139.5t105 45.5q43 0 82 -15l90 -30q33 -10 68 -11q47 0 61 60h70q-6 -86 -39 -125q-49 -61 -123 -62q-35 0 -88 19l-86 28q-39 14 -57 15q-51 0 -58 -64h-69z" />
<glyph unicode="&#x2013;" d="M127 449v161h635v-161h-635z" />
<glyph unicode="&#x2014;" horiz-adv-x="1015" d="M0 449v161h1018v-161h-1018z" />
<glyph unicode="&#x2018;" horiz-adv-x="364" d="M88 958v236q0 133 43 197.5t145 83.5v-86q-57 -16 -78.5 -48t-21.5 -96v-51h100v-236h-188z" />
<glyph unicode="&#x2019;" horiz-adv-x="364" d="M88 958v86q57 16 78.5 48t21.5 96v51h-100v236h188v-236q0 -133 -43 -198t-145 -83z" />
<glyph unicode="&#x201a;" horiz-adv-x="364" d="M88 0v238h188v-238q0 -133 -43 -196.5t-145 -84.5v86q57 18 78.5 49t21.5 95v51h-100z" />
<glyph unicode="&#x201c;" horiz-adv-x="729" d="M88 958v236q0 133 43 197.5t145 83.5v-86q-57 -16 -78.5 -48t-21.5 -96v-51h100v-236h-188zM453 958v236q0 133 44 197.5t144 83.5v-86q-57 -16 -77.5 -48t-20.5 -96v-51h98v-236h-188z" />
<glyph unicode="&#x201d;" horiz-adv-x="729" d="M88 958v86q57 16 78.5 48t21.5 96v51h-100v236h188v-236q0 -133 -43 -198t-145 -83zM453 958v86q57 16 78.5 48t21.5 96v51h-100v236h188v-236q0 -131 -43 -195q-49 -72 -145 -86z" />
<glyph unicode="&#x201e;" horiz-adv-x="729" d="M88 0v238h188v-238q0 -133 -43 -196.5t-145 -84.5v86q57 18 78.5 49t21.5 95v51h-100zM453 0v238h188v-238q0 -131 -43 -195q-49 -72 -145 -86v86q57 18 78.5 49t21.5 95v51h-100z" />
<glyph unicode="&#x2022;" horiz-adv-x="1474" d="M434 748q0 129 90 218t221 89q121 0 211.5 -90.5t90.5 -214.5q0 -129 -90.5 -218.5t-215.5 -89.5q-127 0 -217 89.5t-90 216.5z" />
<glyph unicode="&#x2026;" horiz-adv-x="1093" d="M88 0v238h188v-238h-188zM453 0v238h188v-238h-188zM819 0v238h187v-238h-187z" />
<glyph unicode="&#x2039;" horiz-adv-x="460" d="M66 461v170l299 336v-248l-152 -172l152 -172v-252z" />
<glyph unicode="&#x203a;" horiz-adv-x="460" d="M94 123v252l154 172l-154 172v248l299 -336v-170z" />
<glyph unicode="&#x20ac;" horiz-adv-x="1095" d="M127 666l35 137h117v358q0 336 348 336q156 0 246 -74.5t90 -205.5v-203h-172v176q0 145 -160 145q-164 0 -164 -174v-358h395l-33 -135l-362 -2v-353q0 -174 164 -174q170 0 170 144v233h172v-258q0 -129 -90 -205t-250 -76q-354 0 -354 336v353h-152z" />
<glyph unicode="&#x2122;" horiz-adv-x="1230" d="M25 1362v113h473v-113h-172v-727h-129v727h-172zM580 635v840h174l123 -674l120 674h174v-840h-127v481q0 61 5 105l-111 -586h-127l-109 582q6 -43 7 -101v-481h-129z" />
<glyph unicode="&#xe000;" horiz-adv-x="1060" d="M0 1060h1060v-1060h-1060v1060z" />
<glyph unicode="&#xfb01;" horiz-adv-x="894" d="M631 0v1061h166v-1061h-166zM631 1262v213h166v-213h-166zM23 936v125h124v164q0 266 242 266q63 0 119 -27v-143q-41 23 -78 22q-111 0 -111 -118v-164h189v-125h-189v-936h-172v936h-124z" />
<glyph unicode="&#xfb02;" horiz-adv-x="894" d="M631 0v1475h166v-1475h-166zM23 936v125h124v164q0 266 242 266q63 0 119 -27v-143q-41 23 -78 22q-111 0 -111 -118v-164h189v-125h-189v-936h-172v936h-124z" />
<glyph unicode="&#xfb03;" horiz-adv-x="1259" d="M23 936v125h124v164q0 266 242 266q63 0 119 -27v-143q-41 23 -78 22q-111 0 -111 -118v-164h252v164q0 139 57.5 202.5t184.5 63.5q61 0 121 -27v-143q-43 23 -82 22q-111 0 -111 -118v-164h193v-125h-193v-936h-170v936h-252v-936h-172v936h-124zM999 0v1061h166v-1061 h-166zM999 1262v213h166v-213h-166z" />
<glyph unicode="&#xfb04;" horiz-adv-x="1259" d="M23 936v125h124v164q0 266 242 266q63 0 119 -27v-143q-41 23 -78 22q-111 0 -111 -118v-164h252v164q0 139 57.5 202.5t184.5 63.5q61 0 121 -27v-143q-43 23 -82 22q-111 0 -111 -118v-164h193v-125h-193v-936h-170v936h-252v-936h-172v936h-124zM999 0v1475h166v-1475 h-166z" />
</font>
</defs>
</svg>
