<?xml version="1.0" standalone="no"?>
<!DOCTYPE svg PUBLIC "-//W3C//DTD SVG 1.1//EN" "http://www.w3.org/Graphics/SVG/1.1/DTD/svg11.dtd" >
<svg xmlns="http://www.w3.org/2000/svg">
<metadata>
This is a custom SVG webfont generated by Font Squirrel.
Copyright   :  Copyright SoftMaker Software GmbH and its licensors
Designer    : SoftMaker Software GmbH
Foundry     : SoftMaker Software GmbH
Foundry URL : httpwwwsoftmakerde
</metadata>
<defs>
<font id="Ancona-ExHeavyItalic" horiz-adv-x="1044" >
<font-face units-per-em="2048" ascent="1638" descent="-410" />
<missing-glyph horiz-adv-x="626" />
<glyph unicode=" "  horiz-adv-x="626" />
<glyph unicode="&#x09;" horiz-adv-x="626" />
<glyph unicode="&#xa0;" horiz-adv-x="626" />
<glyph unicode="!" horiz-adv-x="798" d="M221 0l84 356h375l-84 -356h-375zM342 522l80 545l74 326h452l-80 -344l-151 -527h-375z" />
<glyph unicode="&#x22;" horiz-adv-x="1091" d="M170 834l41 559h498l-217 -559h-322zM725 834l41 559h498l-217 -559h-322z" />
<glyph unicode="#" horiz-adv-x="1409" d="M135 414l74 196h192l62 164h-191l70 197h195l106 291h203l-109 -291h181l106 291h203l-109 -291h215l-73 -197h-216l-61 -164h215l-72 -196h-215l-118 -318h-201l117 318h-179l-118 -318h-201l117 318h-193zM604 610h176l64 164h-180z" />
<glyph unicode="$" horiz-adv-x="1685" d="M201 426l450 18q18 -147 162 -172q61 -10 102 -10q276 0 277 146q0 80 -133 114l-238 66q-260 70 -359.5 154.5t-99.5 234.5q0 176 123 291q76 76 246 123t354 47l52 219h157l-51 -223q520 -53 514 -406l-450 -39q-4 70 -50 96q-80 47 -188 48q-223 0 -223 -113 q0 -53 65 -84q45 -23 197 -64q336 -90 432 -149q143 -92 143 -268q0 -236 -206.5 -367t-573.5 -131l-55 -236h-158l55 240q-562 55 -544 465z" />
<glyph unicode="%" horiz-adv-x="2365" d="M381 961q0 205 137 329.5t363 124.5q385 0 385 -311q0 -193 -128 -328t-382 -135q-178 0 -276.5 84t-98.5 236zM647 948q0 -139 131 -139q94 0 152.5 95t58.5 218q0 127 -119 127q-113 0 -172 -114q-51 -97 -51 -187zM823 -10l938 1450l82 -54l-938 -1449zM1425 299 q0 205 137.5 329t362.5 124q385 0 385 -312q0 -193 -128 -326.5t-382 -133.5q-178 0 -276.5 82.5t-98.5 236.5zM1692 287q0 -141 131 -142q92 0 151.5 94.5t59.5 219.5q0 129 -119 129q-113 0 -172 -115q-51 -96 -51 -186z" />
<glyph unicode="&#x26;" horiz-adv-x="1738" d="M160 373q0 322 522 420q-72 104 -72 211q0 328 520 327q258 0 378 -70.5t120 -220.5q0 -236 -420 -368l125 -189q51 41 129 135l334 -47q-59 -162 -299 -333l156 -238h-430l-49 72q-246 -98 -478 -99q-248 0 -392 109t-144 291zM608 399q0 -63 52.5 -102t134.5 -39 q113 0 219 45l-185 268q-221 -57 -221 -172zM1026 987q0 -53 37 -110q197 51 197 153q0 84 -107 84q-127 0 -127 -127z" />
<glyph unicode="'" horiz-adv-x="550" d="M172 834l41 559h512l-217 -559h-336z" />
<glyph unicode="(" horiz-adv-x="890" d="M240 453q0 612 616 1099l207 -170q-178 -186 -270 -399q-156 -346 -156 -762q0 -207 90 -467l-262 -114q-225 424 -225 813z" />
<glyph unicode=")" horiz-adv-x="890" d="M102 -193q174 180 273 400q154 346 153 762q0 209 -90 469l262 114q225 -428 226 -817q0 -612 -615 -1095z" />
<glyph unicode="*" horiz-adv-x="923" d="M344 1186l117 190l215 -217l22 299l217 -53l-141 -270l291 73l16 -225l-303 51l162 -254l-207 -84l-47 303l-190 -233l-148 172l275 137z" />
<glyph unicode="+" d="M31 680v203h418v432h213v-432h419v-203h-419v-432h-213v432h-418z" />
<glyph unicode="," horiz-adv-x="667" d="M35 -346l37 147h16q160 0 197 162l8 37h-178l84 354h438l-84 -354q-43 -186 -144.5 -268t-287.5 -82q-14 0 -86 4z" />
<glyph unicode="-" horiz-adv-x="778" d="M113 375l77 338h728l-80 -338h-725z" />
<glyph unicode="." horiz-adv-x="722" d="M135 0l84 360h453l-82 -360h-455z" />
<glyph unicode="/" horiz-adv-x="641" d="M6 0l565 1393h385l-561 -1393h-389z" />
<glyph unicode="0" horiz-adv-x="1685" d="M219 561q0 369 238.5 600.5t613.5 231.5q330 0 517.5 -166t187.5 -463q0 -170 -69 -331t-187 -267q-231 -207 -611 -207q-305 0 -493 145q-197 152 -197 457zM672 530q0 -287 262 -286q180 0 291 180q100 164 100 358q0 309 -262 310q-184 0 -287.5 -169.5t-103.5 -392.5 z" />
<glyph unicode="1" horiz-adv-x="1685" d="M520 883l66 284q279 47 479 185h338l-313 -1352h-451l217 942q-189 -59 -336 -59z" />
<glyph unicode="2" horiz-adv-x="1685" d="M162 0l74 326q137 164 520 331l231 103q166 74 224.5 119t58.5 96q0 119 -209 119q-250 0 -287 -242h-418q18 262 207 401.5t520 139.5q303 0 470 -93.5t167 -267.5q0 -158 -129 -274q-104 -96 -317 -189l-348 -151q-111 -47 -183 -105h859l-70 -313h-1370z" />
<glyph unicode="3" horiz-adv-x="1685" d="M168 375l420 37q53 -156 280 -156q135 0 222.5 49t87.5 123q0 129 -238 129q-78 0 -223 -14l33 266q193 10 270 16q223 18 223 152q0 121 -201 121q-272 0 -307 -162h-416q23 141 87.5 224t199.5 143q205 90 514 90q248 0 398 -68q180 -86 180 -266q0 -246 -379 -322 q139 -43 209 -94q115 -86 114 -227q0 -217 -253 -348q-209 -109 -541 -109q-365 0 -535 133q-133 107 -145 283z" />
<glyph unicode="4" horiz-adv-x="1683" d="M102 236l74 313l873 803h563l-182 -803h280l-72 -313h-282l-56 -236h-452l55 236h-801zM580 549h395l100 438z" />
<glyph unicode="5" horiz-adv-x="1685" d="M170 373l467 12q25 -141 270 -141q141 0 224 58t83 159q0 178 -274 178q-178 0 -242 -88l-424 18l203 787h1346l-88 -314h-924l-61 -221q166 72 350 72q246 0 420 -94q182 -100 182 -318q0 -264 -250 -407q-201 -115 -532 -115q-383 0 -574 117q-90 53 -129 120.5 t-47 176.5z" />
<glyph unicode="6" horiz-adv-x="1685" d="M217 559q0 365 279 617q240 217 673 217q578 0 617 -371l-475 -12q-66 90 -199 90q-211 0 -340 -160q-76 -96 -98 -252q164 205 512 205q246 0 393 -110.5t147 -290.5q0 -246 -210 -394q-199 -139 -533 -139q-381 0 -569 152q-197 161 -197 448zM672 422q0 -82 73.5 -130 t198.5 -48q135 0 219 54t84 142q0 166 -262 166q-139 0 -226 -50t-87 -134z" />
<glyph unicode="7" horiz-adv-x="1685" d="M313 0q61 215 188.5 367.5t393.5 334.5l137 95q129 86 168 126t57 105h-940l72 313h1464q-49 -420 -362 -639l-174 -122q-381 -268 -469 -580h-535z" />
<glyph unicode="8" horiz-adv-x="1685" d="M170 350q0 176 160 273q80 47 207 77q-203 74 -203 256q0 186 205 314q199 123 565 123q336 0 503 -109.5t167 -265.5q0 -158 -152 -252q-76 -45 -184 -66q256 -66 256 -270q0 -209 -228 -346q-207 -125 -583 -125q-330 0 -521.5 105.5t-191.5 285.5zM657 412 q0 -72 71 -114t190 -42q135 0 212.5 46t77.5 130q0 145 -252 146q-137 0 -218 -44t-81 -122zM813 958q0 -129 234 -129q117 0 185 39t68 103q0 137 -225 137q-262 0 -262 -150z" />
<glyph unicode="9" horiz-adv-x="1685" d="M174 350l502 12q47 -111 239 -110q215 0 338 172q57 78 66 199q-213 -152 -465 -152q-221 0 -387 90q-193 109 -193 330q0 219 196 360.5t581 141.5q387 0 571 -183q158 -160 158 -434q0 -358 -245 -587.5t-642 -229.5q-305 0 -491.5 101.5t-227.5 289.5zM756 926 q0 -170 291 -170q133 0 209.5 46t76.5 126q0 170 -274 170q-303 0 -303 -172z" />
<glyph unicode=":" horiz-adv-x="722" d="M135 0l84 360h453l-82 -360h-455zM297 698l84 361h453l-84 -361h-453z" />
<glyph unicode=";" horiz-adv-x="667" d="M41 -346l37 147h16q160 0 197 162l8 37h-178l84 354h438l-84 -354q-43 -186 -144.5 -268t-287.5 -82q-14 0 -86 4zM270 698l82 361h453l-82 -361h-453z" />
<glyph unicode="&#x3c;" d="M104 520v379l906 522v-456l-422 -256l420 -260l2 -451z" />
<glyph unicode="=" d="M31 518v199h1052v-199h-1052zM31 848v199h1052v-199h-1052z" />
<glyph unicode="&#x3e;" d="M104 -2v453l424 260l-422 258l-2 452l906 -522v-381z" />
<glyph unicode="?" horiz-adv-x="1497" d="M289 922q61 250 194 362q176 152 564 152q614 0 614 -375q0 -236 -318 -377l-178 -80q-63 -31 -92 -86h-426l12 41q25 74 61 114t134 83l150 67q174 80 174 183q0 63 -58.5 103t-152.5 40q-233 0 -293 -250zM526 0l84 358h428l-84 -358h-428z" />
<glyph unicode="@" horiz-adv-x="1386" d="M57 686q0 289 204 491.5t499 202.5q262 0 449.5 -170t187.5 -409q0 -242 -191 -385q-131 -96 -260 -97q-98 0 -149 72q-137 -80 -213 -80q-119 0 -196 83t-77 208q0 166 125 303t281 137q123 0 203 -84l18 52h219l-158 -496q-18 -53 -18 -61q0 -33 39 -33q70 0 158 109.5 t88 258.5q0 190 -149.5 329.5t-356.5 139.5q-236 0 -398.5 -164.5t-162.5 -404.5q0 -244 165.5 -411.5t405.5 -167.5q135 0 258 66.5t203 182.5h153q-90 -170 -260 -273t-362 -103q-291 0 -498 205.5t-207 498.5zM551 520q0 -106 76 -106q100 0 168 196l45 133q20 61 20 99 q0 84 -69 84q-98 0 -169 -153t-71 -253z" />
<glyph unicode="A" horiz-adv-x="1787" d="M-104 0l940 1393h567l291 -1393h-543l-27 221h-553l-127 -221h-548zM748 528h342l-58 494z" />
<glyph unicode="B" horiz-adv-x="1888" d="M61 0l322 1393h907q293 0 389 -45q156 -76 156 -244q0 -119 -74.5 -199t-240.5 -145q244 -53 243 -287q0 -238 -186 -369q-86 -61 -188.5 -82.5t-301.5 -21.5h-1026zM627 307h424q211 0 211 150q0 102 -129 102h-447zM756 866h395q178 0 178 133q0 86 -135 86h-387z" />
<glyph unicode="C" horiz-adv-x="1847" d="M113 606q0 365 272 602q264 229 696 230q381 0 586 -191q127 -119 148 -284l-441 -45q-29 113 -99.5 162.5t-201.5 49.5q-215 0 -352 -140t-137 -357q0 -168 95 -262.5t267 -94.5q268 0 381 232l438 -53q-86 -193 -245 -312q-262 -188 -609 -188q-356 0 -592 186 q-206 166 -206 465z" />
<glyph unicode="D" horiz-adv-x="1935" d="M61 0l322 1393h682q207 0 326.5 -25t230.5 -90q262 -156 262 -496q0 -209 -98 -382t-270 -271q-127 -70 -297 -99.5t-463 -29.5h-695zM627 307h215q299 0 413 111q137 131 138 360q0 160 -99 238q-88 70 -303 69h-184z" />
<glyph unicode="E" horiz-adv-x="1789" d="M61 0l322 1393h1434l-68 -308h-942l-53 -227h903l-72 -307h-901l-57 -244h1020l-72 -307h-1514z" />
<glyph unicode="F" horiz-adv-x="1624" d="M61 0l322 1393h1333l-69 -308h-840l-66 -274h799l-72 -307h-798l-115 -504h-494z" />
<glyph unicode="G" horiz-adv-x="1910" d="M115 610q0 387 307 627q258 201 657 201q330 0 531.5 -131t230.5 -363h-457q-37 186 -297 186q-246 0 -376 -167q-119 -150 -119 -359q0 -342 369 -342q158 0 255 59.5t117 167.5h-389l66 285h821l-178 -774h-350l20 80q-203 -125 -475 -125q-336 0 -534.5 177 t-198.5 478z" />
<glyph unicode="H" horiz-adv-x="1998" d="M61 0l322 1393h494l-117 -504h633l116 504h494l-320 -1393h-495l127 539h-633l-127 -539h-494z" />
<glyph unicode="I" horiz-adv-x="878" d="M66 0l321 1393h494l-322 -1393h-493z" />
<glyph unicode="J" horiz-adv-x="1134" d="M29 0l71 307h131q94 0 140.5 33t64.5 111l217 942h494l-201 -869q-43 -186 -88 -275t-129 -149q-141 -100 -407 -100h-293z" />
<glyph unicode="K" horiz-adv-x="1792" d="M61 0l322 1393h473l-119 -519l576 519h600l-699 -568l486 -825h-524l-302 547l-264 -215l-75 -332h-474z" />
<glyph unicode="L" horiz-adv-x="1443" d="M61 0l322 1393h494l-250 -1086h723l-70 -307h-1219z" />
<glyph unicode="M" horiz-adv-x="2232" d="M61 0l322 1393h680l12 -674v-39q0 -120 -10 -287l125 269l352 731h682l-321 -1393h-453l166 709q29 115 92 309q2 12 25 74l-179 -326l-383 -766h-372l-27 799q-2 84 -14 293q-6 -39 -76 -369l-156 -723h-465z" />
<glyph unicode="N" horiz-adv-x="1941" d="M61 0l322 1393h393l406 -641q8 -12 32 -54l95 -166q0 215 55 469l88 392h496l-320 -1393h-414l-401 633q-10 20 -31 53l-92 156q2 -33 2 -70q0 -100 -47 -321l-94 -451h-490z" />
<glyph unicode="O" horiz-adv-x="1972" d="M115 600q0 186 85 353t234 280q274 205 684 205q379 0 592 -170t213 -473q0 -180 -97 -361.5t-257 -296.5q-256 -182 -660 -182q-360 0 -577 176t-217 469zM614 621q0 -164 96.5 -261.5t254.5 -97.5q233 0 368 197q96 143 97 327q0 164 -89.5 254t-253.5 90 q-199 0 -336 -147t-137 -362z" />
<glyph unicode="P" horiz-adv-x="1785" d="M61 0l322 1393h758q360 0 477 -62q190 -102 190 -334q0 -268 -198 -397q-164 -106 -486 -106h-456l-113 -494h-494zM739 801h369q90 0 151.5 49t61.5 123q0 113 -164 112h-350z" />
<glyph unicode="Q" horiz-adv-x="1970" d="M115 600q0 186 85 353t234 280q274 205 686 205q365 0 578 -162q225 -170 225 -463q0 -307 -207 -539q-23 -29 -76 -77l277 -172l-262 -265l-391 240q-176 -45 -357 -45q-358 0 -575 177t-217 468zM614 621q0 -164 96.5 -261.5t254.5 -97.5q233 0 368 197q96 143 97 327 q0 164 -89.5 254t-253.5 90q-199 0 -336 -147t-137 -362z" />
<glyph unicode="R" horiz-adv-x="1882" d="M61 0l322 1393h768q193 0 244 -4q139 -12 233 -60q195 -102 195 -328q0 -195 -140 -329q-76 -70 -227 -125l227 -547h-507l-185 487h-323l-113 -487h-494zM737 795h377q102 0 156.5 56t54.5 120q0 115 -158 114h-360z" />
<glyph unicode="S" horiz-adv-x="1622" d="M66 424l450 20q12 -100 74.5 -141t204.5 -41q262 0 262 146q0 80 -133 114l-238 66q-260 70 -359.5 154.5t-99.5 234.5q0 109 51.5 200t141.5 142q213 119 555 119q348 0 520 -131q119 -90 127 -279l-453 -39q-2 59 -32 86q-61 55 -217 55q-96 0 -153.5 -30.5 t-57.5 -79.5q0 -74 157 -117l267 -74q231 -66 323 -147.5t92 -228.5q0 -236 -206.5 -367t-579.5 -131q-358 0 -543 129q-86 59 -119.5 135t-33.5 205z" />
<glyph unicode="T" horiz-adv-x="1529" d="M100 1085l72 308h1514l-72 -308h-504l-252 -1085h-496l252 1085h-514z" />
<glyph unicode="U" horiz-adv-x="1992" d="M143 369q0 90 33 227l182 797h496l-186 -797q-16 -72 -17 -129q0 -203 285 -203q313 0 391 332l182 797h496l-184 -797q-43 -195 -111 -307.5t-182 -190.5q-215 -141 -625 -141q-344 0 -551 90q-96 43 -152.5 130.5t-56.5 191.5z" />
<glyph unicode="V" horiz-adv-x="1714" d="M145 1393h510l103 -615l33 -176l6 -49q2 -12 6 -47q68 160 184 346l344 541h549l-952 -1393h-473z" />
<glyph unicode="W" horiz-adv-x="1951" d="M145 0l17 1393h432l-41 -797q0 -12 -12 -143l-15 -142l97 297l249 785h500l-78 -797l-12 -143l-12 -142q63 184 98 301l297 781h453l-586 -1393h-567l65 795q2 16 6 67q0 33 15 211l-21 -72l-18 -75q-10 -41 -47 -148l-263 -778h-557z" />
<glyph unicode="X" horiz-adv-x="1771" d="M-113 0l777 739l-428 654h565l194 -373l312 373h618l-719 -688l445 -705h-543l-219 408l-377 -408h-625z" />
<glyph unicode="Y" horiz-adv-x="1691" d="M145 1393h527l168 -607q55 113 166 261l256 346h598l-863 -985l-94 -408h-495l94 408z" />
<glyph unicode="Z" horiz-adv-x="1796" d="M-18 0l67 301l1100 784h-875l70 308h1505l-75 -326l-1094 -760h954l-71 -307h-1581z" />
<glyph unicode="[" horiz-adv-x="987" d="M49 -360l406 1753h710l-61 -271h-287l-280 -1212h297l-64 -270h-721z" />
<glyph unicode="\" horiz-adv-x="641" d="M-12 0l82 1393h381l-74 -1393h-389z" />
<glyph unicode="]" horiz-adv-x="987" d="M61 -360l62 270h287l280 1212h-297l62 271h721l-406 -1753h-709z" />
<glyph unicode="^" d="M33 684l272 719h504l270 -719h-393l-129 416l-129 -416h-395z" />
<glyph unicode="_" d="M35 -88h1044v-262h-1044v262z" />
<glyph unicode="`" d="M463 1456h536l172 -235h-356z" />
<glyph unicode="a" horiz-adv-x="1667" d="M41 283q0 207 188 299q170 82 879 82q0 74 -21 102q-41 68 -223 68q-180 0 -223 -89h-448q59 199 216.5 276t510.5 77q285 0 417 -37q238 -61 238 -279q0 -76 -23 -176l-96 -420q-12 -55 -12 -110q0 -45 18 -76h-479q-8 27 -8 55l4 58q-236 -150 -504 -150 q-205 0 -319.5 83t-114.5 237zM530 344q0 -96 160 -96q307 0 371 223q-53 2 -92 2q-217 0 -336 -35q-103 -28 -103 -94z" />
<glyph unicode="b" horiz-adv-x="1679" d="M35 0l321 1393h455l-100 -430q164 135 403 135q233 0 363.5 -124t130.5 -343q0 -297 -189 -490q-178 -178 -485 -178q-260 0 -418 158l-27 -121h-454zM606 496q0 -102 60.5 -161t169.5 -59q123 0 204.5 81t81.5 206q0 219 -231 219q-129 0 -207 -78.5t-78 -207.5z" />
<glyph unicode="c" horiz-adv-x="1656" d="M70 502q0 270 219 433t583 163q436 0 619 -201q78 -86 92 -205l-455 -26q-18 145 -227 145q-156 0 -254 -87t-98 -222q0 -115 79 -184.5t208 -69.5q203 0 280 170l463 -25q-90 -209 -288.5 -319.5t-481.5 -110.5q-344 0 -541.5 144.5t-197.5 394.5z" />
<glyph unicode="d" horiz-adv-x="1660" d="M66 459q0 270 191.5 454.5t473.5 184.5q240 0 408 -140l100 435h453l-322 -1393h-452l18 76q-162 -113 -363 -113q-225 0 -366 137.5t-141 358.5zM543 496q0 -102 60.5 -161t166.5 -59q123 0 202 85t79 219q0 92 -60.5 147t-165.5 55q-119 0 -200.5 -82.5t-81.5 -203.5z " />
<glyph unicode="e" horiz-adv-x="1656" d="M70 498q0 299 260 469q197 131 530 131q377 0 561 -178q162 -158 162 -408q0 -10 -4 -78h-1028q37 -186 266 -186q119 0 217 76l477 -33q-162 -328 -710 -328q-346 0 -533 133q-198 142 -198 402zM586 645h542q-57 166 -266 166q-104 0 -177.5 -44t-98.5 -122z" />
<glyph unicode="f" horiz-adv-x="952" d="M66 0l167 737h-159l61 273h162l29 118q53 215 225 258q70 18 225 19h252l-57 -248q-68 6 -86 6q-61 0 -97 -24q-27 -16 -40 -80l-13 -49h201l-64 -273h-184l-170 -737h-452z" />
<glyph unicode="g" horiz-adv-x="1689" d="M37 18h450q25 -121 226 -120q223 0 268 211l20 86q-160 -104 -383 -105q-229 0 -364 111.5t-135 304.5q0 242 170 417t454 175q238 0 433 -144l24 105h453l-189 -817q-45 -203 -101 -309.5t-151 -172.5q-172 -121 -497 -120q-354 0 -535 131q-127 91 -143 247zM596 561 q0 -184 223 -184q121 0 197 69.5t76 178.5q0 186 -226 186q-121 0 -195.5 -69.5t-74.5 -180.5z" />
<glyph unicode="h" horiz-adv-x="1597" d="M35 0l321 1393h455l-109 -467q176 172 422 172q186 0 286.5 -90t100.5 -256q0 -96 -22 -197l-127 -555h-453l121 528q12 55 12 95q0 143 -161 143q-90 0 -169 -64.5t-100 -160.5l-123 -541h-454z" />
<glyph unicode="i" horiz-adv-x="780" d="M35 0l246 1059h452l-244 -1059h-454zM301 1149l55 244h455l-57 -244h-453z" />
<glyph unicode="j" horiz-adv-x="823" d="M-170 -360l64 270h61q57 0 87 28.5t46 100.5l236 1020h450l-233 -1020q-31 -139 -59.5 -201.5t-75.5 -109.5q-94 -88 -318 -88h-258zM342 1147l59 246h451l-55 -246h-455z" />
<glyph unicode="k" horiz-adv-x="1579" d="M35 0l321 1393h455l-154 -656l445 322h579l-548 -410l305 -649h-484l-178 391l-239 -176l-48 -215h-454z" />
<glyph unicode="l" horiz-adv-x="780" d="M35 0l321 1393h455l-322 -1393h-454z" />
<glyph unicode="m" horiz-adv-x="2306" d="M35 0l246 1059h452l-33 -139q197 178 420 178q211 0 318 -178q111 98 204 138t213 40q168 0 263.5 -78t95.5 -217q0 -94 -35 -250l-127 -553h-453l138 590q8 35 8 69q0 123 -139 123q-160 0 -199 -166l-141 -616h-451l135 590q10 45 11 74q0 119 -127 118 q-166 0 -203 -166l-142 -616h-454z" />
<glyph unicode="n" horiz-adv-x="1609" d="M35 0l246 1059h452l-35 -154q178 193 449 193q176 0 275.5 -89t99.5 -245q0 -84 -27 -193l-133 -571h-451l117 510q16 74 16 104q0 72 -48 114t-128 42q-203 0 -258 -246l-121 -524h-454z" />
<glyph unicode="o" horiz-adv-x="1693" d="M74 494q0 279 219 441.5t602 162.5q344 0 524 -121q203 -135 203 -408q0 -147 -83 -275t-232 -214q-207 -117 -525 -117q-336 0 -522 139.5t-186 391.5zM541 489q0 -111 72.5 -176t195.5 -65q162 0 246 94t84 231q0 238 -271 238q-141 0 -234 -91.5t-93 -230.5z" />
<glyph unicode="p" horiz-adv-x="1689" d="M-25 -360l328 1419h453l-23 -101q164 139 377 140q227 0 369.5 -137.5t142.5 -358.5q0 -272 -191.5 -455.5t-472.5 -183.5q-256 0 -421 152l-109 -475h-453zM625 479q0 -90 62.5 -146.5t164.5 -56.5q123 0 207 80t84 197q0 207 -223 207q-127 0 -211 -79t-84 -202z" />
<glyph unicode="q" horiz-adv-x="1662" d="M66 459q0 279 187 459t474 180q252 0 420 -154l24 115h455l-330 -1419h-452l100 430q-154 -106 -362 -107q-233 0 -374.5 136.5t-141.5 359.5zM541 500q0 -104 61.5 -164t169.5 -60q125 0 206 81t81 204q0 100 -62.5 160.5t-165.5 60.5q-121 0 -205.5 -81.5t-84.5 -200.5 z" />
<glyph unicode="r" horiz-adv-x="1073" d="M35 0l246 1059h452l-35 -148q170 176 338 176q12 0 80 -4l-94 -409q-98 23 -156 22q-102 0 -168.5 -42t-95.5 -165l-113 -489h-454z" />
<glyph unicode="s" horiz-adv-x="1507" d="M25 334l473 10q43 -119 227 -119q164 0 164 86q0 37 -34 56.5t-138 40.5l-152 28q-385 76 -385 312q0 178 180 268q166 82 459 82q326 0 472.5 -83t162.5 -276l-438 -14q-8 119 -211 119q-168 0 -168 -86q0 -51 90 -68l256 -47q215 -37 301 -103.5t86 -197.5 q0 -379 -682 -379q-461 0 -598 176q-55 70 -65 195z" />
<glyph unicode="t" horiz-adv-x="905" d="M53 737l62 273h153l82 364h455l-86 -364h182l-63 -273h-183l-69 -313q-8 -37 -8 -55q0 -88 129 -88q27 0 69 8l-65 -289q-147 -6 -230 -6q-211 0 -286 37q-98 51 -99 176q0 70 39 237l70 293h-152z" />
<glyph unicode="u" horiz-adv-x="1591" d="M88 313q0 88 35 242l115 504h454l-121 -516q-16 -72 -16 -127q0 -139 152 -140q215 0 284 308l111 475h452l-243 -1059h-453l33 135q-188 -172 -412 -172q-186 0 -288.5 91t-102.5 259z" />
<glyph unicode="v" horiz-adv-x="1497" d="M100 1059h469l74 -447q2 -10 19 -104l18 -102q25 59 115 225l272 428h508l-739 -1059h-492z" />
<glyph unicode="w" horiz-adv-x="2088" d="M100 1059h465l-4 -438l-10 -197l96 211l215 424h502l37 -438q6 -66 20 -197q14 61 64 207l178 428h506l-574 -1059h-508l-40 702l-91 -184q-23 -51 -30 -61l-240 -457h-530z" />
<glyph unicode="x" horiz-adv-x="1640" d="M-100 0l684 571l-406 488h541l143 -242l246 242h567l-622 -535l403 -524h-498l-198 287l-297 -287h-563z" />
<glyph unicode="y" horiz-adv-x="1478" d="M-16 -342l73 315q90 -8 142 -8q106 0 123 15q10 8 10 26q0 16 -8 78l-136 975h463l21 -510q2 -33 2 -67q0 -111 -21 -236l76 160l76 157l246 496h503l-628 -975q-182 -285 -308 -364.5t-389 -79.5q-114 0 -245 18z" />
<glyph unicode="z" horiz-adv-x="1593" d="M-14 0l69 295l774 467h-608l68 297h1280l-68 -297l-780 -467h672l-68 -295h-1339z" />
<glyph unicode="{" d="M63 -225q0 51 15 114l59 258q10 45 10 86q0 76 -81 93l84 370q68 14 99.5 44t49.5 110l57 256q43 182 154 250q63 39 154 49q43 4 163 4q20 0 69.5 -3t117.5 -3h73l-98 -426q-27 2 -53 2q-106 0 -134 -20.5t-52 -116.5l-19 -76q-27 -111 -64.5 -164t-123.5 -102 q82 -66 82 -150q0 -45 -17 -119l-22 -100q0 -8 -4 -22q-12 -39 -13 -60q0 -41 58 -51q16 -2 88 -2h47l-92 -402l-74 -2l-70 -4q-33 -2 -118 -2q-184 0 -236 21q-109 45 -109 168z" />
<glyph unicode="|" d="M326 -348v1741h460v-1741h-460z" />
<glyph unicode="}" d="M-74 -406l99 424h55q109 0 136.5 21.5t49.5 116.5l17 73q25 111 63 168q39 49 125 103q-80 61 -80 147q0 47 17 119l22 100q0 6 4 23q10 39 10 59q0 41 -55 53q-16 2 -90 3h-49l94 397q33 0 76 2l69 4q35 2 119 2q182 0 236 -20q109 -41 108 -164q0 -55 -14 -117 l-61 -258q-10 -43 -11 -88q0 -72 84 -90l-86 -369q-66 -14 -97.5 -45t-49.5 -111l-60 -253q-41 -184 -153 -250q-92 -55 -318 -56q-66 0 -184 4q-13 2 -76 2z" />
<glyph unicode="~" horiz-adv-x="1392" d="M225 1280q68 178 146 255t192 77q49 0 297 -82q39 -12 62 -12q51 0 108 100l215 -180q-74 -180 -143 -254q-82 -82 -193 -82q-49 0 -307 86q-33 10 -57 10q-49 0 -105 -100z" />
<glyph unicode="&#xa1;" horiz-adv-x="798" d="M96 -336l80 344l152 529h374l-77 -547l-76 -326h-453zM365 702l84 357h374l-82 -357h-376z" />
<glyph unicode="&#xa2;" horiz-adv-x="1685" d="M240 719q0 184 105.5 321.5t301.5 210.5q160 61 420 64l49 213h146l-50 -221q240 -29 387.5 -136.5t155.5 -261.5l-457 -26q-18 147 -229 147q-152 0 -250 -87t-98 -222q0 -115 78 -185.5t209 -70.5q203 0 278 170l465 -25q-104 -242 -362 -356q-170 -74 -410 -74h-27 l-53 -229h-147l55 239q-272 35 -419.5 173.5t-147.5 355.5z" />
<glyph unicode="&#xa3;" horiz-adv-x="1685" d="M109 190q0 115 80.5 183.5t211.5 68.5q109 0 304 -80q0 123 -39 230h-357l33 139h254l-27 45q-61 117 -61 213q0 113 66.5 205t179.5 137q160 61 424 62q293 0 417 -80q82 -53 130.5 -152.5t48.5 -212.5q0 -20 -2 -37l-435 -26q12 49 13 84q0 139 -170 139 q-92 0 -144.5 -46t-52.5 -126q0 -45 18 -82l35 -78q2 -2 6 -14l15 -31h282l-30 -139h-217q2 -29 2 -53q0 -143 -97 -271q57 -25 131 -24q80 0 119 35.5t66 126.5h403q-55 -244 -152.5 -345.5t-277.5 -101.5q-246 0 -518 121q-131 -74 -207 -97.5t-170 -23.5 q-135 0 -208.5 61t-73.5 170zM317 195q0 -68 89 -68q84 0 178 61q-117 74 -181 74q-86 1 -86 -67z" />
<glyph unicode="&#xa4;" horiz-adv-x="2136" d="M219 573l234 318h120q100 260 341 403.5t579 143.5q379 0 586 -191q127 -117 147 -284l-440 -45q-51 213 -301 212q-141 0 -254 -63t-172 -176h575l-235 -318h-400q43 -297 361 -297q266 0 379 232l438 -53q-82 -190 -248 -312q-260 -188 -606 -188q-221 0 -407.5 79 t-286.5 216q-96 133 -105 323h-305z" />
<glyph unicode="&#xa5;" horiz-adv-x="1685" d="M307 1393h527l167 -611q45 102 164 265l258 346h596l-426 -488h121l-33 -141h-211l-219 -248h158l-33 -139h-227l-86 -377h-496l88 377h-211l33 139h146l-91 248h-174l35 141h90z" />
<glyph unicode="&#xa6;" d="M326 319h460v-667h-460v667zM326 625v768h460v-768h-460z" />
<glyph unicode="&#xa7;" horiz-adv-x="1427" d="M127 -27q0 47 16 109h346v-12q-2 -8 -2 -23q0 -70 105 -70q121 0 121 103q0 33 -56 53q-266 100 -389 173t-123 202q0 121 78 217t209 137q-37 53 -37 117q0 172 163 294t390 122q174 0 274.5 -83t100.5 -227q0 -31 -8 -71h-350q4 12 4 24q0 68 -80 68q-45 0 -76 -24.5 t-31 -57.5q0 -27 59.5 -57.5t293.5 -128.5q180 -76 180 -217q0 -123 -75 -221.5t-196 -133.5q57 -63 58 -141q0 -180 -162 -314.5t-414 -134.5q-193 0 -296 77t-103 220zM510 612q0 -31 51 -57q41 -14 78 -29q6 -2 59 -24l62 -27q78 -35 123 -45q72 10 71 57 q0 33 -22.5 47.5t-130.5 57.5q-10 4 -51 22l-84 37q-41 18 -84 31q-72 -9 -72 -70z" />
<glyph unicode="&#xa8;" d="M258 1219l55 239h406l-55 -239h-406zM942 1219l55 239h404l-55 -239h-404z" />
<glyph unicode="&#xa9;" horiz-adv-x="1581" d="M100 696q0 307 214 519t524 212q293 0 502.5 -216t209.5 -515q0 -301 -212 -515t-511 -214t-513 214t-214 515zM301 696q0 -223 154.5 -383.5t371.5 -160.5q215 0 369 160.5t154 383.5t-153 384t-363 161q-223 0 -378 -158t-155 -387zM432 707q0 182 111.5 297.5 t287.5 115.5q145 0 247 -88t108 -221h-197q-23 84 -153 84q-139 0 -140 -190q0 -190 140 -191q133 0 155 104h201q-12 -156 -109.5 -242.5t-257.5 -86.5q-178 0 -285.5 115t-107.5 303z" />
<glyph unicode="&#xaa;" horiz-adv-x="722" d="M35 616l43 185h674l-41 -185h-676zM145 1012q0 100 105 157q57 31 153 48q135 20 136 40q0 14 -21 15q-10 0 -18 -2h-11q-4 2 -12 2q-20 0 -28 -21h-232q51 178 307 179q254 0 254 -138q0 -29 -57 -278q-6 -29 -6 -45q0 -29 51 -64h-285q0 10 -6 23l-4 6 q-80 -43 -156 -43q-170 0 -170 121zM369 1053q0 -20 32 -21q76 0 103 74l6 16q-141 -40 -141 -69z" />
<glyph unicode="&#xab;" horiz-adv-x="1140" d="M205 334l104 454l465 244l-86 -377l-233 -125l174 -135l-80 -340zM684 334l104 454l465 244l-88 -377l-231 -125l174 -135l-80 -340z" />
<glyph unicode="&#xac;" d="M104 233v400h906v-633h-447v233h-459z" />
<glyph unicode="&#xad;" horiz-adv-x="778" d="M113 375l77 338h728l-80 -338h-725z" />
<glyph unicode="&#xae;" horiz-adv-x="1581" d="M100 696q0 307 214 519t524 212q293 0 502.5 -216t209.5 -515q0 -301 -212 -515t-511 -214t-513 214t-214 515zM301 696q0 -223 154.5 -383.5t371.5 -160.5q215 0 369 160.5t154 383.5t-153 384t-363 161q-223 0 -378 -158t-155 -387zM522 317v791h336q121 0 184 -37 q113 -61 113 -190q0 -135 -121 -191q57 -27 81 -81t28 -179q2 -33 18 -113h-246q-14 35 -18 113q-6 113 -36 150.5t-75 37.5h-4v-301h-260zM782 762h29q86 0 86 96q0 94 -80 94h-35v-190z" />
<glyph unicode="&#xaf;" d="M35 1612v264h1044v-264h-1044z" />
<glyph unicode="&#xb0;" d="M199 1059q0 152 105.5 257t252.5 105q152 0 255 -105.5t103 -258.5q0 -145 -105 -250t-253 -105q-147 0 -252.5 105t-105.5 252zM369 1061q0 -80 55 -138.5t131 -58.5t133 57.5t57 133.5q0 84 -56 143t-136 59q-72 0 -128 -59t-56 -137z" />
<glyph unicode="&#xb1;" d="M31 -16v204h1052v-204h-1052zM31 676v205h418v430h213v-430h421v-205h-421v-408h-213v408h-418z" />
<glyph unicode="&#xb2;" horiz-adv-x="1220" d="M131 557l55 203q92 94 363 198l160 62q193 72 192 119q0 66 -139 65q-166 0 -193 -145h-299q23 334 508 334q211 0 329 -57.5t118 -161.5q0 -162 -314 -279l-241 -90q-72 -29 -105 -49h580l-55 -199h-959z" />
<glyph unicode="&#xb3;" horiz-adv-x="1220" d="M137 793l301 20q39 -90 191 -90q88 0 147.5 26.5t59.5 67.5q0 68 -160 68q-61 0 -160 -8l25 172q47 2 123 4q217 10 217 88q0 66 -133 65q-184 0 -205 -96h-301q16 90 60 141.5t142 89.5q139 51 359 52q408 0 407 -207q0 -68 -54 -111t-185 -76q199 -57 198 -190 q0 -121 -154.5 -199t-400.5 -78q-461 1 -477 261z" />
<glyph unicode="&#xb4;" d="M479 1221l172 235h533l-350 -235h-355z" />
<glyph unicode="&#xb5;" d="M61 -360v1364h383v-486q0 -92 7 -123q20 -90 116 -90q59 0 84 43q25 39 23 72q-4 53 -4 96v488h385v-1004h-385v92q-37 -106 -111 -106q-70 0 -115 98v-444h-383z" />
<glyph unicode="&#x3bc;" d="M61 -360v1364h383v-486q0 -92 7 -123q20 -90 116 -90q59 0 84 43q25 39 23 72q-4 53 -4 96v488h385v-1004h-385v92q-37 -106 -111 -106q-70 0 -115 98v-444h-383z" />
<glyph unicode="&#xb6;" horiz-adv-x="1423" d="M254 936q0 211 162 344q96 80 239 104q49 8 181 9h571l-37 -160h-96l-338 -1469h-209l338 1469h-150l-337 -1469h-209l211 916q-14 -4 -29 -4q-141 0 -229 82q-68 63 -68 178z" />
<glyph unicode="&#xb7;" horiz-adv-x="722" d="M338 877l84 362h452l-81 -362h-455z" />
<glyph unicode="&#xb8;" d="M150 -510l47 104q70 -14 116 -14q135 0 136 72q0 53 -60 53q-31 0 -78 -27l-63 72l278 281h109l-123 -178q195 -35 195 -164q0 -98 -99.5 -168t-242.5 -70q-111 0 -215 39z" />
<glyph unicode="&#xb9;" horiz-adv-x="1220" d="M381 1077l47 183q190 25 336 108h244l-217 -811h-330l151 555q-125 -35 -231 -35z" />
<glyph unicode="&#xba;" horiz-adv-x="722" d="M37 616l43 185h674l-41 -185h-676zM188 1102q0 133 112 230.5t265 97.5q117 0 181.5 -57.5t64.5 -155.5q0 -135 -110.5 -233.5t-262.5 -98.5q-113 0 -181.5 60.5t-68.5 156.5zM434 1102q0 -49 41 -49q35 0 62.5 49t27.5 112q0 47 -39 48q-35 0 -63.5 -48.5t-28.5 -111.5z " />
<glyph unicode="&#xbb;" horiz-adv-x="1140" d="M139 55l88 377l232 123l-170 139l76 338l346 -280l-105 -451zM618 55l89 377l231 123l-174 139l80 338l344 -280l-105 -451z" />
<glyph unicode="&#xbc;" horiz-adv-x="2686" d="M381 1077l47 183q190 25 336 108h244l-217 -811h-330l151 555q-125 -35 -231 -35zM995 0l686 1393h244l-682 -1393h-248zM1559 139l51 197l608 475h399l-127 -473h195l-53 -199h-195l-37 -139h-327l36 139h-550zM1915 338h250l61 233z" />
<glyph unicode="&#xbd;" horiz-adv-x="2686" d="M381 1077l47 183q190 25 336 108h244l-217 -811h-330l151 555q-125 -35 -231 -35zM995 0l686 1393h244l-682 -1393h-248zM1597 0l56 203q94 98 362 200l160 60q115 45 153.5 68.5t38.5 52.5q0 61 -139 61q-168 0 -192 -141h-299q23 332 508 332q213 0 329.5 -57.5 t116.5 -162.5q0 -164 -313 -280l-242 -90q-66 -25 -104 -47h579l-55 -199h-959z" />
<glyph unicode="&#xbe;" horiz-adv-x="2686" d="M137 793l301 20q39 -90 191 -90q88 0 147.5 26.5t59.5 67.5q0 68 -160 68q-61 0 -160 -8l25 172q47 2 123 4q217 10 217 88q0 66 -133 65q-184 0 -205 -96h-301q16 90 60 141.5t142 89.5q139 51 359 52q408 0 407 -207q0 -68 -54 -111t-185 -76q199 -57 198 -190 q0 -121 -154.5 -199t-400.5 -78q-461 1 -477 261zM991 0l690 1393h244l-682 -1393h-252zM1556 139l54 197l606 475h401l-127 -473h195l-55 -199h-195l-37 -139h-325l36 139h-553zM1915 338h248l63 233z" />
<glyph unicode="&#xbf;" horiz-adv-x="1497" d="M82 -2q0 236 317 379l179 78q63 31 90 86h426q-8 -31 -15 -41q-18 -74 -56 -114t-134 -83l-150 -67q-176 -80 -176 -181q0 -66 59.5 -105.5t151.5 -39.5q233 0 293 252l387 -25q-68 -254 -194 -362q-178 -152 -564 -152q-614 0 -614 375zM705 700l83 359h426l-84 -359 h-425z" />
<glyph unicode="&#xc0;" horiz-adv-x="1787" d="M-104 0l940 1393h567l291 -1393h-543l-27 221h-553l-127 -221h-548zM604 1802h535l174 -235h-359zM748 528h342l-58 494z" />
<glyph unicode="&#xc1;" horiz-adv-x="1787" d="M-104 0l940 1393h567l291 -1393h-543l-27 221h-553l-127 -221h-548zM748 528h342l-58 494zM985 1567l174 235h535l-353 -235h-356z" />
<glyph unicode="&#xc2;" horiz-adv-x="1787" d="M-104 0l940 1393h567l291 -1393h-543l-27 221h-553l-127 -221h-548zM682 1565l227 239h598l115 -239h-373l-69 139l-133 -139h-365zM748 528h342l-58 494z" />
<glyph unicode="&#xc3;" horiz-adv-x="1787" d="M-104 0l940 1393h567l291 -1393h-543l-27 221h-553l-127 -221h-548zM662 1565q92 246 337 245q47 0 160 -20l170 -31q66 -12 103 -12q78 0 112 59h164q-37 -125 -117 -182q-88 -66 -205 -65q-96 0 -210 20l-115 20q-70 12 -107 13q-82 0 -123 -47h-169zM748 528h342 l-58 494z" />
<glyph unicode="&#xc4;" horiz-adv-x="1787" d="M-104 0l940 1393h567l291 -1393h-543l-27 221h-553l-127 -221h-548zM600 1565l55 239h404l-53 -239h-406zM748 528h342l-58 494zM1282 1565l55 239h406l-57 -239h-404z" />
<glyph unicode="&#xc5;" horiz-adv-x="1787" d="M-104 0l940 1393h567l291 -1393h-543l-27 221h-553l-127 -221h-548zM748 528h342l-58 494zM881 1669q0 96 83 156.5t210 60.5q129 0 201.5 -50t72.5 -140q0 -98 -80 -155.5t-219 -57.5q-125 0 -196.5 49t-71.5 137zM1055 1686q0 -59 106 -60q111 0 111 66q0 63 -105 63 q-112 1 -112 -69z" />
<glyph unicode="&#xc6;" horiz-adv-x="2013" d="M-94 0l942 1393h1216l-71 -308h-385l-54 -227h412l-72 -307h-409l-58 -244h574l-72 -307h-1040l55 242h-381l-153 -242h-504zM754 543h260l129 561h-29z" />
<glyph unicode="&#xc7;" horiz-adv-x="1847" d="M113 608q0 362 272 600q264 229 696 230q381 0 586 -191q127 -119 148 -284l-441 -45q-29 113 -99.5 162.5t-201.5 49.5q-215 0 -352 -140t-137 -357q0 -168 95 -262.5t267 -94.5q268 0 381 232l438 -53q-84 -217 -312 -354.5t-515 -145.5l-72 -102q195 -35 195 -164 q0 -98 -99.5 -168t-240.5 -70q-109 0 -215 39l45 104q70 -14 117 -14q137 0 137 72q0 53 -62 53q-29 0 -77 -27l-60 72l205 209q-231 27 -385 113q-313 174 -313 536z" />
<glyph unicode="&#xc8;" horiz-adv-x="1789" d="M61 0l322 1393h1434l-68 -308h-942l-53 -227h903l-72 -307h-901l-57 -244h1020l-72 -307h-1514zM625 1802h534l174 -235h-358z" />
<glyph unicode="&#xc9;" horiz-adv-x="1789" d="M61 0l322 1393h1434l-68 -308h-942l-53 -227h903l-72 -307h-901l-57 -244h1020l-72 -307h-1514zM938 1567l174 235h535l-355 -235h-354z" />
<glyph unicode="&#xca;" horiz-adv-x="1789" d="M61 0l322 1393h1434l-68 -308h-942l-53 -227h903l-72 -307h-901l-57 -244h1020l-72 -307h-1514zM676 1565l229 239h598l113 -239h-371l-69 139l-134 -139h-366z" />
<glyph unicode="&#xcb;" horiz-adv-x="1789" d="M61 0l322 1393h1434l-68 -308h-942l-53 -227h903l-72 -307h-901l-57 -244h1020l-72 -307h-1514zM616 1565l56 239h403l-53 -239h-406zM1298 1565l56 239h405l-57 -239h-404z" />
<glyph unicode="&#xcc;" horiz-adv-x="878" d="M66 0l321 1393h494l-322 -1393h-493zM121 1802h534l174 -235h-356z" />
<glyph unicode="&#xcd;" horiz-adv-x="878" d="M66 0l321 1393h494l-322 -1393h-493zM510 1567l174 235h535l-355 -235h-354z" />
<glyph unicode="&#xce;" horiz-adv-x="878" d="M66 0l321 1393h494l-322 -1393h-493zM213 1565l227 239h600l113 -239h-373l-67 139l-133 -139h-367z" />
<glyph unicode="&#xcf;" horiz-adv-x="878" d="M66 0l321 1393h494l-322 -1393h-493zM188 1565l56 239h364l-57 -239h-363zM803 1565l55 239h365l-58 -239h-362z" />
<glyph unicode="&#xd0;" horiz-adv-x="1935" d="M61 0l127 551h-92l72 307h90l125 535h682q207 0 326.5 -25t230.5 -90q262 -156 262 -496q0 -209 -98 -382t-270 -271q-127 -70 -297 -99.5t-463 -29.5h-695zM627 307h215q299 0 413 111q137 131 138 360q0 160 -99 238q-88 70 -303 69h-184l-53 -227h315l-70 -307h-315z " />
<glyph unicode="&#xd1;" horiz-adv-x="1941" d="M61 0l322 1393h393l406 -641q8 -12 32 -54l95 -166q0 215 55 469l88 392h496l-320 -1393h-414l-401 633q-10 20 -31 53l-92 156q2 -33 2 -70q0 -100 -47 -321l-94 -451h-490zM686 1565q90 246 336 245q47 0 160 -20l170 -31q68 -12 102 -12q80 0 113 59h166 q-39 -125 -119 -182q-86 -66 -205 -65q-94 0 -211 20l-115 20q-68 12 -106 13q-80 0 -123 -47h-168z" />
<glyph unicode="&#xd2;" horiz-adv-x="1972" d="M115 600q0 186 85 353t234 280q274 205 684 205q379 0 592 -170t213 -473q0 -180 -97 -361.5t-257 -296.5q-256 -182 -660 -182q-360 0 -577 176t-217 469zM612 1802h535l174 -235h-358zM614 621q0 -164 96.5 -261.5t254.5 -97.5q233 0 368 197q96 143 97 327 q0 164 -89.5 254t-253.5 90q-199 0 -336 -147t-137 -362z" />
<glyph unicode="&#xd3;" horiz-adv-x="1972" d="M115 600q0 186 85 353t234 280q274 205 684 205q379 0 592 -170t213 -473q0 -180 -97 -361.5t-257 -296.5q-256 -182 -660 -182q-360 0 -577 176t-217 469zM614 621q0 -164 96.5 -261.5t254.5 -97.5q233 0 368 197q96 143 97 327q0 164 -89.5 254t-253.5 90 q-199 0 -336 -147t-137 -362zM981 1567l174 235h535l-353 -235h-356z" />
<glyph unicode="&#xd4;" horiz-adv-x="1972" d="M115 600q0 186 85 353t234 280q274 205 684 205q379 0 592 -170t213 -473q0 -180 -97 -361.5t-257 -296.5q-256 -182 -660 -182q-360 0 -577 176t-217 469zM614 621q0 -164 96.5 -261.5t254.5 -97.5q233 0 368 197q96 143 97 327q0 164 -89.5 254t-253.5 90 q-199 0 -336 -147t-137 -362zM698 1565l228 239h600l112 -239h-372l-70 139l-133 -139h-365z" />
<glyph unicode="&#xd5;" horiz-adv-x="1972" d="M115 600q0 186 85 353t234 280q274 205 684 205q379 0 592 -170t213 -473q0 -180 -97 -361.5t-257 -296.5q-256 -182 -660 -182q-360 0 -577 176t-217 469zM614 621q0 -164 96.5 -261.5t254.5 -97.5q233 0 368 197q96 143 97 327q0 164 -89.5 254t-253.5 90 q-199 0 -336 -147t-137 -362zM715 1565q92 246 336 245q49 0 161 -20l168 -31q68 -12 103 -12q80 0 112 59h166q-37 -125 -116 -182q-88 -66 -205 -65q-96 0 -211 20l-115 20q-70 12 -106 13q-82 0 -125 -47h-168z" />
<glyph unicode="&#xd6;" horiz-adv-x="1972" d="M115 600q0 186 85 353t234 280q274 205 684 205q379 0 592 -170t213 -473q0 -180 -97 -361.5t-257 -296.5q-256 -182 -660 -182q-360 0 -577 176t-217 469zM602 1565l55 239h404l-53 -239h-406zM614 621q0 -164 96.5 -261.5t254.5 -97.5q233 0 368 197q96 143 97 327 q0 164 -89.5 254t-253.5 90q-199 0 -336 -147t-137 -362zM1284 1565l55 239h406l-57 -239h-404z" />
<glyph unicode="&#xd7;" d="M111 489l301 297l-295 291l147 146l289 -295l297 301l154 -152l-302 -297l297 -293l-145 -147l-295 299l-297 -303z" />
<glyph unicode="&#xd8;" horiz-adv-x="1972" d="M82 12l201 166q-170 174 -170 422q0 186 85 353t236 280q276 205 684 205q330 0 537 -129l221 182l80 -96l-201 -166q168 -170 168 -424q0 -188 -96 -369.5t-258 -296.5q-260 -184 -660 -184q-313 0 -528 141l-219 -182zM612 641q0 -84 27 -168l698 574q-96 84 -250 83 q-242 0 -372 -188q-103 -145 -103 -301zM707 362q104 -100 258 -100q233 0 368 197q96 143 97 327q0 78 -27 154z" />
<glyph unicode="&#xd9;" horiz-adv-x="1992" d="M143 369q0 90 33 227l182 797h496l-186 -797q-16 -72 -17 -129q0 -203 285 -203q313 0 391 332l182 797h496l-184 -797q-43 -195 -111 -307.5t-182 -190.5q-215 -141 -625 -141q-344 0 -551 90q-96 43 -152.5 130.5t-56.5 191.5zM670 1802h536l172 -235h-356z" />
<glyph unicode="&#xda;" horiz-adv-x="1992" d="M143 369q0 90 33 227l182 797h496l-186 -797q-16 -72 -17 -129q0 -203 285 -203q313 0 391 332l182 797h496l-184 -797q-43 -195 -111 -307.5t-182 -190.5q-215 -141 -625 -141q-344 0 -551 90q-96 43 -152.5 130.5t-56.5 191.5zM1061 1567l174 235h534l-352 -235h-356z " />
<glyph unicode="&#xdb;" horiz-adv-x="1992" d="M143 369q0 90 33 227l182 797h496l-186 -797q-16 -72 -17 -129q0 -203 285 -203q313 0 391 332l182 797h496l-184 -797q-43 -195 -111 -307.5t-182 -190.5q-215 -141 -625 -141q-344 0 -551 90q-96 43 -152.5 130.5t-56.5 191.5zM776 1565l230 239h598l112 -239h-370 l-70 139l-133 -139h-367z" />
<glyph unicode="&#xdc;" horiz-adv-x="1992" d="M143 369q0 90 33 227l182 797h496l-186 -797q-16 -72 -17 -129q0 -203 285 -203q313 0 391 332l182 797h496l-184 -797q-43 -195 -111 -307.5t-182 -190.5q-215 -141 -625 -141q-344 0 -551 90q-96 43 -152.5 130.5t-56.5 191.5zM707 1565l55 239h403l-53 -239h-405z M1389 1565l55 239h405l-57 -239h-403z" />
<glyph unicode="&#xdd;" horiz-adv-x="1691" d="M145 1393h527l168 -607q55 113 166 261l256 346h598l-863 -985l-94 -408h-495l94 408zM854 1567l174 235h535l-353 -235h-356z" />
<glyph unicode="&#xde;" horiz-adv-x="1785" d="M61 0l322 1393h494l-52 -224h262q365 0 482 -61q190 -102 190 -336q0 -264 -198 -393q-166 -106 -488 -107h-455l-63 -272h-494zM690 580h367q92 0 152.5 48t60.5 122q0 113 -164 112h-352z" />
<glyph unicode="&#xdf;" horiz-adv-x="1595" d="M35 0l217 944q41 170 86 253t125 140q135 92 467 93q289 0 426 -52q172 -61 172 -254q0 -160 -119 -235q-59 -41 -156 -70q109 -23 162 -59q123 -86 123 -256q0 -221 -160 -377q-145 -143 -432 -143q-141 0 -287 36l60 250q63 -23 115 -22q104 0 167.5 73.5t63.5 194.5 q0 82 -43 115t-145 33q-41 0 -68 -2l47 212h27q188 0 188 160q0 135 -147 135q-166 0 -207 -182l-228 -987h-454z" />
<glyph unicode="&#xe0;" horiz-adv-x="1667" d="M41 283q0 207 188 299q170 82 879 82q0 74 -21 102q-41 68 -223 68q-180 0 -223 -89h-448q59 199 216.5 276t510.5 77q285 0 417 -37q238 -61 238 -279q0 -76 -23 -176l-96 -420q-12 -55 -12 -110q0 -45 18 -76h-479q-8 27 -8 55l4 58q-236 -150 -504 -150 q-205 0 -319.5 83t-114.5 237zM440 1456h535l174 -235h-356zM530 344q0 -96 160 -96q307 0 371 223q-53 2 -92 2q-217 0 -336 -35q-103 -28 -103 -94z" />
<glyph unicode="&#xe1;" horiz-adv-x="1667" d="M41 283q0 207 188 299q170 82 879 82q0 74 -21 102q-41 68 -223 68q-180 0 -223 -89h-448q59 199 216.5 276t510.5 77q285 0 417 -37q238 -61 238 -279q0 -76 -23 -176l-96 -420q-12 -55 -12 -110q0 -45 18 -76h-479q-8 27 -8 55l4 58q-236 -150 -504 -150 q-205 0 -319.5 83t-114.5 237zM530 344q0 -96 160 -96q307 0 371 223q-53 2 -92 2q-217 0 -336 -35q-103 -28 -103 -94zM791 1221l172 235h532l-350 -235h-354z" />
<glyph unicode="&#xe2;" horiz-adv-x="1667" d="M41 283q0 207 188 299q170 82 879 82q0 74 -21 102q-41 68 -223 68q-180 0 -223 -89h-448q59 199 216.5 276t510.5 77q285 0 417 -37q238 -61 238 -279q0 -76 -23 -176l-96 -420q-12 -55 -12 -110q0 -45 18 -76h-479q-8 27 -8 55l4 58q-236 -150 -504 -150 q-205 0 -319.5 83t-114.5 237zM520 1217l228 239h600l112 -239h-373l-67 139l-135 -139h-365zM530 344q0 -96 160 -96q307 0 371 223q-53 2 -92 2q-217 0 -336 -35q-103 -28 -103 -94z" />
<glyph unicode="&#xe3;" horiz-adv-x="1667" d="M41 283q0 207 188 299q170 82 879 82q0 74 -21 102q-41 68 -223 68q-180 0 -223 -89h-448q59 199 216.5 276t510.5 77q285 0 417 -37q238 -61 238 -279q0 -76 -23 -176l-96 -420q-12 -55 -12 -110q0 -45 18 -76h-479q-8 27 -8 55l4 58q-236 -150 -504 -150 q-205 0 -319.5 83t-114.5 237zM528 1219q92 244 336 243q49 0 162 -20l168 -33q57 -10 102 -10q80 0 113 59h166q-37 -123 -117 -182q-88 -63 -205 -64q-96 0 -211 21l-114 20q-70 12 -107 13q-82 0 -123 -47h-170zM530 344q0 -96 160 -96q307 0 371 223q-53 2 -92 2 q-217 0 -336 -35q-103 -28 -103 -94z" />
<glyph unicode="&#xe4;" horiz-adv-x="1667" d="M41 283q0 207 188 299q170 82 879 82q0 74 -21 102q-41 68 -223 68q-180 0 -223 -89h-448q59 199 216.5 276t510.5 77q285 0 417 -37q238 -61 238 -279q0 -76 -23 -176l-96 -420q-12 -55 -12 -110q0 -45 18 -76h-479q-8 27 -8 55l4 58q-236 -150 -504 -150 q-205 0 -319.5 83t-114.5 237zM418 1219l55 239h404l-54 -239h-405zM530 344q0 -96 160 -96q307 0 371 223q-53 2 -92 2q-217 0 -336 -35q-103 -28 -103 -94zM1102 1219l53 239h406l-58 -239h-401z" />
<glyph unicode="&#xe5;" horiz-adv-x="1667" d="M41 283q0 207 188 299q170 82 879 82q0 74 -21 102q-41 68 -223 68q-180 0 -223 -89h-448q59 199 216.5 276t510.5 77q285 0 417 -37q238 -61 238 -279q0 -76 -23 -176l-96 -420q-12 -55 -12 -110q0 -45 18 -76h-479q-8 27 -8 55l4 58q-236 -150 -504 -150 q-205 0 -319.5 83t-114.5 237zM530 344q0 -96 160 -96q307 0 371 223q-53 2 -92 2q-217 0 -336 -35q-103 -28 -103 -94zM707 1376q0 96 81.5 156.5t210.5 60.5q272 0 273 -190q0 -96 -79 -154.5t-220 -58.5q-125 0 -195.5 49t-70.5 137zM879 1393q0 -59 106 -60 q113 0 113 66q0 63 -107 63q-112 1 -112 -69z" />
<glyph unicode="&#xe6;" horiz-adv-x="2201" d="M47 309q0 348 559 348h305q12 49 13 76q0 94 -181 94q-121 0 -165 -77h-422q49 170 172 249q154 98 442 99q246 0 383 -125q115 72 208 98.5t222 26.5q543 0 543 -484q0 -78 -15 -172h-833q4 -211 242 -211q145 0 237 101l365 -29q-63 -152 -209 -240 q-160 -100 -402 -100q-178 0 -275 33t-198 131q-207 -164 -483 -164q-244 0 -376 89t-132 257zM451 324q0 -104 151 -105q135 0 205 74q41 43 65 149h-221q-200 1 -200 -118zM1315 657h473q-6 184 -217 185q-207 -1 -256 -185z" />
<glyph unicode="&#xe7;" horiz-adv-x="1656" d="M70 502q0 270 219 433t583 163q434 0 619 -201q78 -84 92 -205l-455 -26q-18 145 -227 145q-156 0 -254 -87t-98 -222q0 -115 79 -184.5t208 -69.5q203 0 280 170l463 -25q-76 -193 -274.5 -310.5t-458.5 -119.5l-76 -110q195 -33 195 -162q0 -100 -99.5 -170t-240.5 -70 q-111 0 -215 39l45 104q74 -14 116 -14q137 0 138 72q0 53 -62 53q-27 0 -78 -27l-61 74l211 213q-217 20 -350 82q-299 144 -299 455z" />
<glyph unicode="&#xe8;" horiz-adv-x="1656" d="M70 498q0 299 260 469q197 131 530 131q377 0 561 -178q162 -158 162 -408q0 -10 -4 -78h-1028q37 -186 266 -186q119 0 217 76l477 -33q-162 -328 -710 -328q-346 0 -533 133q-198 142 -198 402zM381 1456h534l172 -235h-356zM586 645h542q-57 166 -266 166 q-104 0 -177.5 -44t-98.5 -122z" />
<glyph unicode="&#xe9;" horiz-adv-x="1656" d="M70 498q0 299 260 469q197 131 530 131q377 0 561 -178q162 -158 162 -408q0 -10 -4 -78h-1028q37 -186 266 -186q119 0 217 76l477 -33q-162 -328 -710 -328q-346 0 -533 133q-198 142 -198 402zM586 645h542q-57 166 -266 166q-104 0 -177.5 -44t-98.5 -122zM727 1221 l174 235h533l-353 -235h-354z" />
<glyph unicode="&#xea;" horiz-adv-x="1656" d="M70 498q0 299 260 469q197 131 530 131q377 0 561 -178q162 -158 162 -408q0 -10 -4 -78h-1028q37 -186 266 -186q119 0 217 76l477 -33q-162 -328 -710 -328q-346 0 -533 133q-198 142 -198 402zM453 1217l229 239h598l113 -239h-371l-70 139l-133 -139h-366zM586 645 h542q-57 166 -266 166q-104 0 -177.5 -44t-98.5 -122z" />
<glyph unicode="&#xeb;" horiz-adv-x="1656" d="M70 498q0 299 260 469q197 131 530 131q377 0 561 -178q162 -158 162 -408q0 -10 -4 -78h-1028q37 -186 266 -186q119 0 217 76l477 -33q-162 -328 -710 -328q-346 0 -533 133q-198 142 -198 402zM365 1219l55 239h405l-55 -239h-405zM586 645h542q-57 166 -266 166 q-104 0 -177.5 -44t-98.5 -122zM1049 1219l55 239h403l-55 -239h-403z" />
<glyph unicode="&#xec;" horiz-adv-x="780" d="M-2 1456h534l175 -235h-359zM35 0l246 1059h452l-244 -1059h-454z" />
<glyph unicode="&#xed;" horiz-adv-x="780" d="M35 0l246 1059h452l-244 -1059h-454zM365 1221l174 235h532l-350 -235h-356z" />
<glyph unicode="&#xee;" horiz-adv-x="780" d="M35 0l246 1059h452l-244 -1059h-454zM84 1217l227 239h600l113 -239h-373l-67 139l-135 -139h-365z" />
<glyph unicode="&#xef;" horiz-adv-x="780" d="M35 0l246 1059h452l-244 -1059h-454zM59 1219l54 239h366l-57 -239h-363zM672 1219l55 239h365l-56 -239h-364z" />
<glyph unicode="&#xf0;" horiz-adv-x="1693" d="M74 494q0 211 131 360q121 141 330 199q139 39 385 45q-162 133 -263 194l148 197q246 -123 438 -281q186 -154 287 -313q92 -147 92 -311q0 -328 -315 -504q-207 -117 -525 -117q-336 0 -522 139.5t-186 391.5zM541 489q0 -111 72.5 -176t195.5 -65q162 0 246 94t84 231 q0 238 -271 238q-141 0 -234 -91.5t-93 -230.5z" />
<glyph unicode="&#xf1;" horiz-adv-x="1609" d="M35 0l246 1059h452l-35 -154q178 193 449 193q176 0 275.5 -89t99.5 -245q0 -84 -27 -193l-133 -571h-451l117 510q16 74 16 104q0 72 -48 114t-128 42q-203 0 -258 -246l-121 -524h-454zM520 1219q92 244 336 243q49 0 162 -20l168 -33q57 -10 102 -10q80 0 113 59h166 q-37 -123 -117 -182q-88 -63 -205 -64q-96 0 -211 21l-114 20q-70 12 -107 13q-82 0 -123 -47h-170z" />
<glyph unicode="&#xf2;" horiz-adv-x="1693" d="M74 494q0 279 219 441.5t602 162.5q344 0 524 -121q203 -135 203 -408q0 -147 -83 -275t-232 -214q-207 -117 -525 -117q-336 0 -522 139.5t-186 391.5zM371 1456h534l172 -235h-356zM541 489q0 -111 72.5 -176t195.5 -65q162 0 246 94t84 231q0 238 -271 238 q-141 0 -234 -91.5t-93 -230.5z" />
<glyph unicode="&#xf3;" horiz-adv-x="1693" d="M74 494q0 279 219 441.5t602 162.5q344 0 524 -121q203 -135 203 -408q0 -147 -83 -275t-232 -214q-207 -117 -525 -117q-336 0 -522 139.5t-186 391.5zM541 489q0 -111 72.5 -176t195.5 -65q162 0 246 94t84 231q0 238 -271 238q-141 0 -234 -91.5t-93 -230.5zM748 1221 l174 235h532l-350 -235h-356z" />
<glyph unicode="&#xf4;" horiz-adv-x="1693" d="M74 494q0 279 219 441.5t602 162.5q344 0 524 -121q203 -135 203 -408q0 -147 -83 -275t-232 -214q-207 -117 -525 -117q-336 0 -522 139.5t-186 391.5zM473 1217l227 239h598l115 -239h-373l-69 139l-133 -139h-365zM541 489q0 -111 72.5 -176t195.5 -65q162 0 246 94 t84 231q0 238 -271 238q-141 0 -234 -91.5t-93 -230.5z" />
<glyph unicode="&#xf5;" horiz-adv-x="1693" d="M74 494q0 279 219 441.5t602 162.5q344 0 524 -121q203 -135 203 -408q0 -147 -83 -275t-232 -214q-207 -117 -525 -117q-336 0 -522 139.5t-186 391.5zM494 1219q92 244 335 243q47 0 160 -20l170 -33q57 -10 103 -10q80 0 112 59h166q-39 -123 -117 -182 q-88 -63 -204 -64q-96 0 -211 21l-115 20q-70 12 -107 13q-82 0 -124 -47h-168zM541 489q0 -111 72.5 -176t195.5 -65q162 0 246 94t84 231q0 238 -271 238q-141 0 -234 -91.5t-93 -230.5z" />
<glyph unicode="&#xf6;" horiz-adv-x="1693" d="M74 494q0 279 219 441.5t602 162.5q344 0 524 -121q203 -135 203 -408q0 -147 -83 -275t-232 -214q-207 -117 -525 -117q-336 0 -522 139.5t-186 391.5zM387 1219l53 239h406l-53 -239h-406zM541 489q0 -111 72.5 -176t195.5 -65q162 0 246 94t84 231q0 238 -271 238 q-141 0 -234 -91.5t-93 -230.5zM1069 1219l55 239h406l-57 -239h-404z" />
<glyph unicode="&#xf7;" d="M31 680v203h1052v-203h-1052zM410 440q0 61 44 105.5t105 44.5t104.5 -44t43.5 -106q0 -59 -44.5 -103t-105.5 -44q-59 0 -103 44t-44 103zM410 1122q0 59 44 103.5t105 44.5t104.5 -44t43.5 -104q0 -61 -44.5 -105t-105.5 -44q-59 0 -103 44t-44 105z" />
<glyph unicode="&#xf8;" horiz-adv-x="1693" d="M33 78l149 96q-111 135 -110 318q0 281 219 443.5t604 162.5q348 0 532 -127l170 110l62 -94l-150 -92q109 -135 109 -315q0 -322 -315 -500q-203 -117 -523 -117q-326 0 -512 131l-174 -110zM539 487q0 -33 12 -77l522 335q-74 45 -106.5 55.5t-94.5 10.5 q-147 0 -240 -90.5t-93 -233.5zM610 315q78 -68 197 -67q209 0 291 162q39 78 39 174q0 23 -9 65z" />
<glyph unicode="&#xf9;" horiz-adv-x="1591" d="M88 313q0 88 35 242l115 504h454l-121 -516q-16 -72 -16 -127q0 -139 152 -140q215 0 284 308l111 475h452l-243 -1059h-453l33 135q-188 -172 -412 -172q-186 0 -288.5 91t-102.5 259zM403 1456h535l174 -235h-358z" />
<glyph unicode="&#xfa;" horiz-adv-x="1591" d="M88 313q0 88 35 242l115 504h454l-121 -516q-16 -72 -16 -127q0 -139 152 -140q215 0 284 308l111 475h452l-243 -1059h-453l33 135q-188 -172 -412 -172q-186 0 -288.5 91t-102.5 259zM764 1221l174 235h532l-350 -235h-356z" />
<glyph unicode="&#xfb;" horiz-adv-x="1591" d="M88 313q0 88 35 242l115 504h454l-121 -516q-16 -72 -16 -127q0 -139 152 -140q215 0 284 308l111 475h452l-243 -1059h-453l33 135q-188 -172 -412 -172q-186 0 -288.5 91t-102.5 259zM467 1217l229 239h598l113 -239h-371l-69 139l-133 -139h-367z" />
<glyph unicode="&#xfc;" horiz-adv-x="1591" d="M88 313q0 88 35 242l115 504h454l-121 -516q-16 -72 -16 -127q0 -139 152 -140q215 0 284 308l111 475h452l-243 -1059h-453l33 135q-188 -172 -412 -172q-186 0 -288.5 91t-102.5 259zM389 1219l53 239h406l-53 -239h-406zM1071 1219l55 239h406l-57 -239h-404z" />
<glyph unicode="&#xfd;" horiz-adv-x="1478" d="M-16 -342l73 315q90 -8 142 -8q106 0 123 15q10 8 10 26q0 16 -8 78l-136 975h463l21 -510q8 -139 -19 -303l76 160l76 157l246 496h503l-628 -975q-182 -285 -308 -364.5t-389 -79.5q-114 0 -245 18zM715 1221l174 235h532l-352 -235h-354z" />
<glyph unicode="&#xfe;" horiz-adv-x="1689" d="M-25 -360l406 1753h453l-101 -435q164 139 377 140q227 0 369.5 -137.5t142.5 -358.5q0 -272 -191.5 -455.5t-472.5 -183.5q-256 0 -421 152l-109 -475h-453zM625 479q0 -90 62.5 -146.5t164.5 -56.5q123 0 207 80t84 197q0 207 -223 207q-127 0 -211 -79t-84 -202z" />
<glyph unicode="&#xff;" horiz-adv-x="1478" d="M-16 -342l73 315q90 -8 142 -8q106 0 123 15q10 8 10 26q0 16 -8 78l-136 975h463l21 -510q8 -139 -19 -303l76 160l76 157l246 496h503l-628 -975q-182 -285 -308 -364.5t-389 -79.5q-114 0 -245 18zM350 1219l56 239h405l-55 -239h-406zM1034 1219l53 239h406l-55 -239 h-404z" />
<glyph unicode="&#x152;" horiz-adv-x="2162" d="M117 600q0 420 297 643q246 186 563 187q166 0 346 -62l6 25h883l-70 -308h-422l-51 -227h432l-71 -307h-433l-55 -244h580l-70 -307h-1046l6 25q-113 -59 -267 -60q-287 0 -457.5 173t-170.5 462zM553 592q0 -152 88 -236t242 -84q109 0 196 47l174 752q-100 51 -219 51 q-209 0 -345 -150.5t-136 -379.5z" />
<glyph unicode="&#x153;" horiz-adv-x="2246" d="M72 440q0 293 200 482q186 176 506 176q262 0 410 -144q168 143 418 144q270 0 422 -142q139 -125 139 -374q0 -27 -4 -140h-840q-2 -10 -2 -26q0 -82 65.5 -132.5t169.5 -50.5q137 0 216 78l376 -24q-76 -141 -229 -224q-184 -100 -420 -100q-154 0 -246 35t-188 131 q-174 -166 -449 -166q-270 0 -411 133q-133 125 -133 344zM487 455q0 -96 48.5 -152.5t130.5 -56.5q127 0 196 135q63 119 64 254q0 201 -168 201q-115 0 -193 -109.5t-78 -271.5zM1364 647h479q-6 178 -219 178q-205 0 -260 -178z" />
<glyph unicode="&#x178;" horiz-adv-x="1691" d="M145 1393h527l168 -607q55 113 166 261l256 346h598l-863 -985l-94 -408h-495l94 408zM498 1565l55 239h405l-55 -239h-405zM1180 1565l57 239h403l-55 -239h-405z" />
<glyph unicode="&#x2c6;" d="M334 1217l227 239h600l113 -239h-371l-69 139l-134 -139h-366z" />
<glyph unicode="&#x2dc;" d="M307 1219q92 244 336 243q49 0 162 -20l168 -33q57 -10 102 -10q80 0 113 59h166q-37 -123 -117 -182q-88 -63 -205 -64q-96 0 -211 21l-114 20q-70 12 -107 13q-82 0 -123 -47h-170z" />
<glyph unicode="&#x2013;" horiz-adv-x="1529" d="M147 375l80 338h1409l-80 -338h-1409z" />
<glyph unicode="&#x2014;" horiz-adv-x="2121" d="M14 375l133 338h1962l-133 -338h-1962z" />
<glyph unicode="&#x2018;" horiz-adv-x="667" d="M281 715l79 354q43 184 146.5 268t290.5 84q49 0 84 -2l-35 -151q-176 6 -213 -160l-8 -39h176l-82 -354h-438z" />
<glyph unicode="&#x2019;" horiz-adv-x="671" d="M274 690l35 150h17q162 0 196 161l8 37h-178l84 355h438l-81 -355q-45 -186 -146.5 -268t-288.5 -82q-49 0 -84 2z" />
<glyph unicode="&#x201a;" horiz-adv-x="671" d="M35 -346l37 147h16q160 0 197 162l8 37h-178l84 354h438l-84 -354q-43 -186 -144.5 -268t-287.5 -82q-14 0 -86 4z" />
<glyph unicode="&#x201c;" horiz-adv-x="1314" d="M315 715l82 354q41 184 144.5 268t289.5 84q49 0 87 -2l-37 -151q-174 6 -213 -160l-9 -39h177l-82 -354h-439zM895 715l80 354q43 184 145.5 268t286.5 84q51 0 86 -2l-33 -151q-178 6 -215 -160l-8 -39h178l-82 -354h-438z" />
<glyph unicode="&#x201d;" horiz-adv-x="1314" d="M309 690l35 150h16q162 0 197 161l8 37h-176l84 355h438l-84 -355q-45 -186 -145 -268t-287 -82q-51 0 -86 2zM889 690l33 150h18q162 0 197 161l8 37h-178l82 355h438l-82 -355q-41 -184 -143.5 -267t-288.5 -83q-49 0 -84 2z" />
<glyph unicode="&#x201e;" horiz-adv-x="1314" d="M72 -344l34 147q8 2 17 2h10q152 0 186 160l9 37h-178l83 354h439l-82 -354q-45 -184 -147.5 -266t-286.5 -82q-49 0 -84 2zM649 -344l35 147q8 2 18 2h11q150 0 186 160l8 37h-178l82 354h438l-82 -354q-41 -184 -143 -266t-289 -82q-49 0 -86 2z" />
<glyph unicode="&#x2022;" horiz-adv-x="1392" d="M444 707q0 121 86 205.5t209 84.5q115 0 200 -86t85 -202q0 -121 -85 -206t-204 -85t-205 85t-86 204z" />
<glyph unicode="&#x2026;" horiz-adv-x="2637" d="M223 0l84 360h453l-84 -360h-453zM1094 0l82 360h454l-84 -360h-452zM1964 0l84 360h453l-84 -360h-453z" />
<glyph unicode="&#x2039;" horiz-adv-x="667" d="M207 334l104 454l465 244l-86 -377l-233 -125l174 -135l-80 -340z" />
<glyph unicode="&#x203a;" horiz-adv-x="667" d="M141 55l88 377l232 123l-170 139l78 338l344 -280l-105 -451z" />
<glyph unicode="&#x20ac;" horiz-adv-x="2136" d="M219 573l234 318h120q100 260 341 403.5t579 143.5q379 0 586 -191q127 -117 147 -284l-440 -45q-51 213 -301 212q-141 0 -254 -63t-172 -176h575l-235 -318h-400q43 -297 361 -297q266 0 379 232l438 -53q-82 -190 -248 -312q-260 -188 -606 -188q-221 0 -407.5 79 t-286.5 216q-96 133 -105 323h-305z" />
<glyph unicode="&#x2122;" horiz-adv-x="2416" d="M145 1198l48 195h954l-45 -195h-311l-150 -641h-324l148 641h-320zM1120 557l193 836h438l10 -404q0 -12 2 -31v-18q0 -37 -2 -104q4 12 18 41l38 79l215 437h440l-195 -836h-297l101 424q18 80 43 156q-23 -39 -66 -121l-235 -459h-246l-21 475q0 33 -4 113 q-2 -16 -10 -53q-8 -27 -24 -103l-93 -432h-305z" />
<glyph unicode="&#xe000;" horiz-adv-x="1060" d="M0 1060h1060v-1060h-1060v1060z" />
<glyph unicode="&#xfb01;" horiz-adv-x="1732" d="M987 0l246 1059h452l-244 -1059h-454zM1253 1149l55 244h455l-57 -244h-453zM66 0l167 737h-159l61 273h162l29 118q53 215 225 258q70 18 225 19h252l-57 -248q-68 6 -86 6q-61 0 -97 -24q-27 -16 -40 -80l-13 -49h201l-64 -273h-184l-170 -737h-452z" />
<glyph unicode="&#xfb02;" horiz-adv-x="1732" d="M987 0l321 1393h455l-322 -1393h-454zM66 0l167 737h-159l61 273h162l29 118q53 215 225 258q70 18 225 19h252l-57 -248q-68 6 -86 6q-61 0 -97 -24q-27 -16 -40 -80l-13 -49h201l-64 -273h-184l-170 -737h-452z" />
<glyph unicode="&#xfb03;" horiz-adv-x="2686" d="M66 0l167 737h-159l61 273h162l29 118q53 215 225 258q70 18 225 19h252l-57 -248q-68 6 -86 6q-61 0 -97 -24q-27 -16 -40 -80l-13 -49h201l-64 -273h-184l-170 -737h-452zM1018 0l170 737h-160l62 273h161l27 118q47 203 211 254q74 23 244 23h249l-59 -248 q-63 6 -82 6q-66 0 -100 -24q-23 -16 -39 -80l-12 -49h200l-63 -273h-185l-172 -737h-452zM1944 0l243 1059h453l-244 -1059h-452zM2208 1149l57 244h453l-58 -244h-452z" />
<glyph unicode="&#xfb04;" horiz-adv-x="2686" d="M66 0l167 737h-159l61 273h162l29 118q53 215 225 258q70 18 225 19h252l-57 -248q-68 6 -86 6q-61 0 -97 -24q-27 -16 -40 -80l-13 -49h201l-64 -273h-184l-170 -737h-452zM1018 0l170 737h-160l62 273h161l27 118q47 203 211 254q74 23 244 23h249l-59 -248 q-63 6 -82 6q-66 0 -100 -24q-23 -16 -39 -80l-12 -49h200l-63 -273h-185l-172 -737h-452zM1944 0l321 1393h453l-322 -1393h-452z" />
</font>
</defs>
</svg>
