<?xml version="1.0" standalone="no"?>
<!DOCTYPE svg PUBLIC "-//W3C//DTD SVG 1.1//EN" "http://www.w3.org/Graphics/SVG/1.1/DTD/svg11.dtd" >
<svg xmlns="http://www.w3.org/2000/svg">
<metadata>
This is a custom SVG webfont generated by Font Squirrel.
Copyright   :  Copyright SoftMaker Software GmbH and its licensors
Designer    : SoftMaker Software GmbH
Foundry     : SoftMaker Software GmbH
Foundry URL : httpwwwsoftmakerde
</metadata>
<defs>
<font id="AnconaLight" horiz-adv-x="1351" >
<font-face units-per-em="2048" ascent="1638" descent="-410" />
<missing-glyph horiz-adv-x="505" />
<glyph unicode=" "  horiz-adv-x="505" />
<glyph unicode="&#x09;" horiz-adv-x="505" />
<glyph unicode="&#xa0;" horiz-adv-x="505" />
<glyph unicode="!" horiz-adv-x="530" d="M193 0v233h145v-233h-145zM193 1049v563h145v-563l-33 -646h-78z" />
<glyph unicode="&#x22;" horiz-adv-x="671" d="M145 1612h99l-17 -649h-65zM430 1612h98l-18 -649h-64z" />
<glyph unicode="#" d="M96 559l15 100h297l38 267h-296l14 104h297l61 436h107l-64 -436h283l61 436h107l-64 -436h308l-15 -104h-307l-37 -267h305l-14 -100h-305l-68 -479h-104l65 479h-280l-68 -479h-104l65 479h-297zM514 659h281l39 267h-283z" />
<glyph unicode="$" d="M80 393l137 19q80 -293 399 -334v700l-67 17q-205 51 -303.5 151.5t-98.5 245.5q0 168 130.5 281.5t338.5 123.5v166h117v-168q358 -41 465 -370l-135 -21q-68 248 -330 283v-604l27 -6q221 -41 340 -123q174 -121 174 -334q0 -125 -73 -232.5t-195 -164.5 q-109 -51 -273 -60v-205h-117v211q-389 41 -536 424zM272 1192q0 -213 320 -279l24 -8v584q-156 -10 -250 -92t-94 -205zM733 72q188 10 301 103t113 237q0 141 -111 229q-78 57 -284 111l-19 4v-684z" />
<glyph unicode="%" horiz-adv-x="1644" d="M104 1210q0 184 86 293t228 109q147 0 232 -108.5t85 -299.5q0 -180 -86 -288.5t-229 -108.5t-229.5 110.5t-86.5 292.5zM201 1210q0 -147 59 -233t158 -86q102 0 161.5 86t59.5 229q0 150 -58.5 236t-162.5 86q-98 0 -157.5 -86.5t-59.5 -231.5zM307 -14l938 1689 l86 -49l-934 -1692zM909 403q0 184 85 293t231 109q147 0 232 -108.5t85 -299.5q0 -180 -87 -288.5t-230 -108.5q-145 0 -230.5 109.5t-85.5 293.5zM1006 403q0 -147 59 -233t160 -86q100 0 160.5 86t60.5 229q0 150 -59.5 236t-161.5 86q-100 0 -159.5 -86.5t-59.5 -231.5z " />
<glyph unicode="&#x26;" horiz-adv-x="1472" d="M111 414q0 293 415 577q-141 229 -141 365q0 133 88 215t227 82q143 0 227.5 -82t84.5 -219q0 -119 -74 -212t-248 -192l383 -542q74 160 72 323h121q-6 -246 -119 -424q152 -199 278 -209v-112q-174 2 -342 213q-102 -129 -207.5 -183.5t-254.5 -54.5q-221 0 -365.5 128 t-144.5 327zM238 426q0 -150 111.5 -252t281.5 -102q219 0 381 213l-424 604q-350 -217 -350 -463zM506 1356q0 -106 123 -314q262 139 262 306q0 88 -50 140t-134 52q-90 0 -145.5 -51t-55.5 -133z" />
<glyph unicode="'" horiz-adv-x="385" d="M145 1612h99l-17 -649h-65z" />
<glyph unicode="(" horiz-adv-x="741" d="M104 555q0 389 187 709q125 217 344 364v-102q-186 -152 -296 -412t-110 -559q0 -295 110 -557t296 -410v-102q-219 143 -344 364q-187 322 -187 705z" />
<glyph unicode=")" horiz-adv-x="741" d="M104 -412q186 147 296 409.5t110 557.5q0 299 -109.5 559t-296.5 412v102q219 -150 345 -364q186 -319 186 -709q0 -385 -186 -705q-125 -217 -345 -364v102z" />
<glyph unicode="*" horiz-adv-x="901" d="M129 1333l37 117l231 -82l-8 244h121l-4 -244l229 82l39 -117l-235 -69l147 -193l-98 -74l-139 201l-138 -201l-98 74l149 193z" />
<glyph unicode="+" d="M121 735v109h502v499l110 3v-502h500v-109h-500v-502h-110v502h-502z" />
<glyph unicode="," horiz-adv-x="464" d="M162 0v233h145v-170q0 -135 -12 -200q-18 -94 -78 -185l-55 35q72 106 71 287h-71z" />
<glyph unicode="-" horiz-adv-x="475" d="M0 479v109h475v-109h-475z" />
<glyph unicode="." horiz-adv-x="464" d="M162 0v233h145v-233h-145z" />
<glyph unicode="/" horiz-adv-x="1280" d="M-145 -514l1161 2126h127l-1159 -2126h-129z" />
<glyph unicode="0" d="M121 782q0 373 150.5 595t404.5 222q260 0 408.5 -222t148.5 -607q0 -365 -152.5 -586t-404.5 -221q-256 0 -405.5 222t-149.5 597zM246 782q0 -328 116.5 -519t313.5 -191q199 0 314.5 190.5t115.5 511.5q0 336 -114.5 526.5t-315.5 190.5q-197 0 -313.5 -190.5 t-116.5 -518.5z" />
<glyph unicode="1" d="M397 1200v105q168 10 236.5 66t79.5 192h98v-1563h-115v1288q-121 -80 -299 -88z" />
<glyph unicode="2" d="M156 1116q0 211 142 347t361 136q227 0 366.5 -140t139.5 -369q0 -246 -168 -455t-622 -526h782v-109h-997v113q229 131 483 342q217 178 306 322.5t89 309.5q0 182 -105.5 293t-277.5 111q-162 0 -268 -105.5t-106 -261.5q0 -127 106 -280l-158 12q-73 137 -73 260z" />
<glyph unicode="3" d="M135 455l125 37q10 -186 92 -287q113 -133 324 -133q178 0 280.5 94t102.5 252q0 172 -121 262q-106 80 -379 80h-151v108h153q225 0 330 60q133 76 133 243q0 141 -100.5 230.5t-253.5 89.5q-211 0 -310 -152q-43 -68 -73 -200l-115 41q106 420 504 419 q209 0 342 -120.5t133 -309.5q0 -260 -254 -352q287 -92 287 -395q0 -209 -136.5 -334t-365.5 -125q-242 0 -383 127t-164 365z" />
<glyph unicode="4" d="M106 399v93l703 1071h133v-1055h283v-109h-283v-399h-115v399h-721zM252 508h575v874z" />
<glyph unicode="5" d="M137 418l121 47q37 -186 92 -258q106 -135 307 -135q188 0 295 119.5t107 328.5q0 207 -102.5 328t-282.5 121q-295 0 -355 -316l-114 11l41 899h831v-109h-723l-26 -545q139 168 362 168q225 0 359.5 -149.5t134.5 -401.5q0 -260 -141.5 -411.5t-385.5 -151.5 q-440 0 -520 455z" />
<glyph unicode="6" d="M158 711q0 889 567 888q240 0 362 -159q55 -70 103 -223l-121 -37q-37 166 -118 238.5t-230 72.5q-211 0 -318.5 -162t-126.5 -512q166 221 431 221q229 0 367 -147.5t138 -388.5q0 -246 -140 -392.5t-374 -146.5q-299 0 -440 236q-100 172 -100 512zM291 535 q0 -209 111.5 -336t297.5 -127q174 0 280.5 115.5t106.5 299.5q0 207 -105 325t-286 118q-178 0 -291.5 -109.5t-113.5 -285.5z" />
<glyph unicode="7" d="M186 1022v541h1018v-88q-516 -725 -561 -1475h-135q27 340 180.5 742.5t372.5 711.5h-758v-432h-117z" />
<glyph unicode="8" d="M147 432q0 285 302 404q-250 106 -250 350q0 186 133 299.5t348 113.5t346 -114.5t131 -298.5q0 -244 -254 -350q305 -115 305 -404q0 -207 -147.5 -338t-384.5 -131q-233 0 -381 131t-148 338zM272 428q0 -158 113 -257t291 -99q180 0 293.5 98t113.5 252 q0 164 -111.5 262t-295.5 98q-178 0 -291 -98t-113 -256zM324 1186q0 -133 99 -218t253 -85q156 0 256 84t100 215q0 137 -99 223t-257 86q-154 0 -253 -86t-99 -219z" />
<glyph unicode="9" d="M139 1061q0 246 140.5 392t375.5 146q299 0 441 -233q100 -172 100 -512q0 -891 -567 -891q-240 0 -365 160q-57 70 -102 225l121 37q39 -168 119.5 -240.5t228.5 -72.5q213 0 319.5 160.5t124.5 510.5q-164 -219 -428 -219q-229 0 -368.5 146.5t-139.5 390.5zM266 1075 q0 -205 104.5 -323.5t286.5 -118.5q178 0 292 110.5t114 286.5q0 207 -112.5 334t-297.5 127q-178 0 -282.5 -115t-104.5 -301z" />
<glyph unicode=":" horiz-adv-x="464" d="M162 0v233h145v-233h-145zM162 829v234h145v-234h-145z" />
<glyph unicode=";" horiz-adv-x="464" d="M162 0v233h145v-170q0 -135 -12 -200q-18 -94 -78 -185l-55 35q72 106 71 287h-71zM162 829v234h145v-234h-145z" />
<glyph unicode="&#x3c;" horiz-adv-x="1208" d="M80 760v100l1046 471v-112l-923 -410l923 -408v-114z" />
<glyph unicode="=" d="M121 526v109h1112v-109h-1112zM121 944v109h1112v-109h-1112z" />
<glyph unicode="&#x3e;" horiz-adv-x="1208" d="M82 287v114l924 408l-924 410v112l1046 -471v-100z" />
<glyph unicode="?" horiz-adv-x="1013" d="M66 1233q0 188 118.5 304t311.5 116q201 0 324.5 -124t123.5 -325q0 -135 -58.5 -232.5t-211.5 -215.5q-104 -80 -133 -148q-23 -55 -23 -188l-4 -17h-115v27q0 162 36 235.5t163 175t174 179.5t47 186q0 152 -89 245t-232 93t-225.5 -88t-82.5 -237q0 -94 39 -209 l-133 26q-30 109 -30 197zM385 0v233h143v-233h-143z" />
<glyph unicode="@" horiz-adv-x="1812" d="M125 729q0 377 271.5 650.5t645.5 273.5q287 0 466.5 -166t179.5 -430q0 -254 -137.5 -459t-305.5 -205q-143 0 -158 146q-98 -137 -256 -138q-129 0 -203.5 92.5t-74.5 247.5q0 215 114.5 363.5t282.5 148.5q152 0 215 -131l17 109h98l-84 -613q-4 -10 -4 -55 q0 -70 59 -69q80 0 158 84q170 186 170 479q0 223 -146.5 360t-388.5 137q-336 0 -573.5 -241.5t-237.5 -583.5q0 -289 187.5 -480.5t468.5 -191.5q346 0 602 252l68 -71q-289 -279 -672 -279q-324 0 -543 221t-219 549zM659 743q0 -248 195 -247q135 0 217 143 q61 111 62 303q0 96 -50.5 156.5t-132.5 60.5q-127 0 -209 -118t-82 -298z" />
<glyph unicode="A" horiz-adv-x="1419" d="M31 0l631 1612h102l622 -1612h-135l-186 487h-713l-188 -487h-133zM397 602h627l-311 825z" />
<glyph unicode="B" horiz-adv-x="1480" d="M193 0v1612h593q258 0 365 -76q154 -109 154 -324q0 -246 -261 -350q311 -115 312 -436q0 -141 -64 -242q-68 -113 -192 -153q-96 -31 -344 -31h-563zM313 113h508q231 0 318.5 85t87.5 242q0 360 -430 361h-484v-688zM313 913h457q408 0 408 308q0 133 -83 205.5 t-300 72.5h-482v-586z" />
<glyph unicode="C" horiz-adv-x="1441" d="M125 795q0 389 184.5 623.5t491.5 234.5q256 0 405 -168q72 -80 154 -248l-98 -68q-88 203 -192.5 287t-272.5 84q-250 0 -391 -192q-152 -207 -152 -543q0 -340 149.5 -536.5t413.5 -196.5q174 0 276.5 80.5t178.5 275.5l94 -68q-86 -215 -215 -308t-342 -93 q-315 0 -499.5 224.5t-184.5 611.5z" />
<glyph unicode="D" horiz-adv-x="1540" d="M193 0v1612h509q193 0 316 -53.5t219 -178.5q178 -229 178 -573q0 -377 -207 -608q-96 -106 -211.5 -152.5t-294.5 -46.5h-509zM313 113h373q158 0 252 35.5t174 123.5q176 197 176 533q0 367 -205 563q-139 131 -397 131h-373v-1386z" />
<glyph unicode="E" horiz-adv-x="1411" d="M193 0v1612h1067v-113h-947v-573h828v-115h-828v-698h1014v-113h-1134z" />
<glyph unicode="F" horiz-adv-x="1292" d="M193 0v1612h1052v-113h-932v-588h803v-114h-803v-797h-120z" />
<glyph unicode="G" horiz-adv-x="1560" d="M123 807q0 379 192.5 612.5t503.5 233.5q211 0 346 -101.5t228 -328.5l-113 -58q-72 203 -178.5 289t-284.5 86q-276 0 -428 -227q-137 -207 -137 -502q0 -340 153.5 -539.5t413.5 -199.5q283 0 408 264q61 129 61 385h-594v113h699v-834h-105v256 q-92 -160 -201.5 -228.5t-277.5 -68.5q-336 0 -516 258q-170 244 -170 590z" />
<glyph unicode="H" horiz-adv-x="1605" d="M193 0v1612h120v-690h979v690h121v-1612h-121v807h-979v-807h-120z" />
<glyph unicode="I" horiz-adv-x="505" d="M193 0v1612h120v-1612h-120z" />
<glyph unicode="J" horiz-adv-x="1069" d="M25 403v35l131 31q-8 -68 -9 -104q0 -121 50 -185q82 -109 264 -108q197 0 268 125q51 86 51 338v1077h121v-1153q0 -236 -86 -353q-113 -147 -346 -147q-285 0 -391 178q-53 90 -53 266z" />
<glyph unicode="K" horiz-adv-x="1470" d="M193 0v1612h120v-948l912 948h159l-620 -635l684 -977h-150l-614 891l-371 -377v-514h-120z" />
<glyph unicode="L" horiz-adv-x="1259" d="M193 0v1612h120v-1499h918v-113h-1038z" />
<glyph unicode="M" horiz-adv-x="1708" d="M193 0v1612h145l510 -1395l526 1395h142v-1612h-121v1337l-512 -1337h-78l-492 1337v-1337h-120z" />
<glyph unicode="N" horiz-adv-x="1607" d="M193 0v1612h120l981 -1422v1422h121v-1612h-131l-971 1399v-1399h-120z" />
<glyph unicode="O" horiz-adv-x="1576" d="M125 807q0 383 181 614.5t482 231.5q303 0 483.5 -231.5t180.5 -626.5q0 -375 -182.5 -605.5t-481.5 -230.5q-303 0 -483 230.5t-180 617.5zM254 805q0 -338 143.5 -535.5t393.5 -197.5q246 0 390 196.5t144 526.5q0 350 -143.5 547.5t-393.5 197.5t-392 -197.5 t-142 -537.5z" />
<glyph unicode="P" horiz-adv-x="1406" d="M193 0v1612h643q139 0 202 -15q106 -23 181 -90q127 -121 127 -336q0 -270 -199 -385q-90 -53 -311 -53h-523v-733h-120zM313 846h549q188 0 266 72q90 86 91 253q0 170 -91 254q-78 74 -266 74h-549v-653z" />
<glyph unicode="Q" horiz-adv-x="1576" d="M125 807q0 385 181 615.5t485 230.5q299 0 480 -230.5t181 -615.5q0 -332 -137 -553l231 -211l-84 -94l-223 203q-178 -193 -451 -193q-301 0 -482 231.5t-181 616.5zM254 805q0 -338 143.5 -535.5t393.5 -197.5q246 0 390 196.5t144 526.5q0 350 -143.5 547.5 t-393.5 197.5t-392 -197.5t-142 -537.5z" />
<glyph unicode="R" horiz-adv-x="1499" d="M193 0v1612h643q291 0 407 -105q135 -123 135 -336q0 -281 -209 -383q-92 -47 -280 -59l522 -729h-162l-495 729h-441v-729h-120zM313 844h533q213 0 308 76.5t95 248.5q0 174 -102 256q-88 74 -301 74h-533v-655z" />
<glyph unicode="S" horiz-adv-x="1374" d="M76 367l112 82q111 -377 512 -377q195 0 318 98t123 252q0 152 -109 237q-90 70 -299 119l-172 39q-418 94 -418 414q0 182 142.5 302t363.5 120q414 0 545 -365l-119 -65q-90 317 -422 317q-170 0 -276.5 -87t-106.5 -222q0 -219 334 -293l152 -35q233 -49 340 -127 q174 -127 174 -344q0 -207 -159 -340t-404 -133q-463 0 -631 408z" />
<glyph unicode="T" horiz-adv-x="1239" d="M8 1499v113h1223v-113h-551v-1499h-121v1499h-551z" />
<glyph unicode="U" horiz-adv-x="1505" d="M170 586v1026h121v-1000q0 -182 26.5 -272t98.5 -154q131 -115 338 -114q231 0 360 133q102 104 103 407v1000h120v-1026q0 -193 -37.5 -302.5t-134.5 -191.5q-156 -133 -413 -133q-285 0 -443 162q-78 82 -108.5 183.5t-30.5 281.5z" />
<glyph unicode="V" horiz-adv-x="1372" d="M16 1612h142l530 -1432l539 1432h131l-615 -1612h-114z" />
<glyph unicode="W" horiz-adv-x="2023" d="M31 1612h131l405 -1415l400 1415h106l381 -1415l412 1415h129l-484 -1612h-122l-373 1372l-393 -1372h-121z" />
<glyph unicode="X" horiz-adv-x="1384" d="M16 0l602 856l-536 756h149l465 -658l463 658h146l-537 -754l602 -858h-147l-529 760l-534 -760h-144z" />
<glyph unicode="Y" horiz-adv-x="1310" d="M0 1612h150l503 -815l514 815h144l-602 -930v-682h-121v682z" />
<glyph unicode="Z" horiz-adv-x="1269" d="M49 0v96l1012 1403h-965v113h1123v-96l-1008 -1403h1012v-113h-1174z" />
<glyph unicode="[" horiz-adv-x="741" d="M227 -514v2126h320v-109h-203v-1909h203v-108h-320z" />
<glyph unicode="\" horiz-adv-x="1280" d="M137 1612h129l1159 -2126h-127z" />
<glyph unicode="]" horiz-adv-x="741" d="M197 -406h202v1909h-202v109h317v-2126h-317v108z" />
<glyph unicode="^" horiz-adv-x="1208" d="M84 915l444 697h152l446 -697h-131l-393 611l-389 -611h-129z" />
<glyph unicode="_" horiz-adv-x="1208" d="M0 -178h1208v-107h-1208v107z" />
<glyph unicode="`" horiz-adv-x="1208" d="M324 1532h172l194 -260h-72z" />
<glyph unicode="a" horiz-adv-x="1052" d="M106 258q0 154 109 240q84 68 283 110l262 60v125q0 199 -236 198q-135 0 -195.5 -54t-62.5 -183l-119 16q16 156 84 223q102 102 295 103q229 0 310 -142q35 -63 34 -231v-457q0 -100 7 -123q20 -57 100 -57q18 0 39 4v-98q-47 -8 -74 -8q-166 0 -176 178 q-125 -193 -346 -193q-139 0 -226.5 81t-87.5 208zM225 266q0 -90 55.5 -142t149.5 -52q139 0 232.5 103.5t93.5 254.5v133l-250 -55q-281 -64 -281 -242z" />
<glyph unicode="b" horiz-adv-x="1159" d="M176 0v1612h115v-725q111 209 325 209q195 0 315 -155t120 -409t-120 -408.5t-315 -154.5q-213 0 -325 207v-176h-115zM291 532q0 -238 90 -354q86 -106 223 -106q147 0 236.5 123.5t89.5 330.5q0 215 -88 340t-238 125q-135 0 -223 -106q-90 -115 -90 -353z" />
<glyph unicode="c" horiz-adv-x="1034" d="M111 532q0 250 128 407t334 157q264 0 394 -275l-105 -43q-100 213 -293 213q-154 0 -246 -126t-92 -333q0 -209 92.5 -334.5t245.5 -125.5q193 0 293 213l107 -43q-131 -272 -400 -273q-209 0 -333.5 151.5t-124.5 411.5z" />
<glyph unicode="d" horiz-adv-x="1159" d="M109 532q0 254 119.5 409t316.5 155q215 0 325 -209v725h113v-1612h-113v176q-115 -207 -325 -207q-197 0 -316.5 154.5t-119.5 408.5zM229 537q0 -215 88.5 -340t237.5 -125q139 0 223 106q92 117 92 354q0 242 -90 350.5t-225 108.5q-147 0 -236.5 -123.5t-89.5 -330.5 z" />
<glyph unicode="e" horiz-adv-x="1132" d="M111 547q0 244 123.5 396.5t320.5 152.5q262 0 381 -242q61 -129 72 -330h-777q8 -213 101.5 -332.5t249.5 -119.5q201 0 342 239l98 -51q-174 -291 -444 -291q-211 0 -339 159t-128 419zM233 629h648q-16 172 -100.5 267t-221.5 95q-139 0 -223.5 -95t-102.5 -267z" />
<glyph unicode="f" horiz-adv-x="542" d="M-29 952v105h240v299q0 139 43 192q57 72 176 72q82 0 160 -21v-112q-102 16 -144 16q-70 0 -96 -31.5t-26 -115.5v-299h254v-105h-254v-952h-113v952h-240z" />
<glyph unicode="g" horiz-adv-x="1159" d="M96 -205l117 25q16 -115 47 -166q80 -121 279 -121q182 0 264 115q68 92 67 301v227q-115 -207 -325 -207q-197 0 -316.5 155t-119.5 408q0 254 119.5 409t316.5 155q215 0 325 -209v176h113v-1114q0 -266 -96 -379q-121 -139 -348 -139q-193 0 -308 94t-135 270z M229 537q0 -215 88.5 -340t237.5 -125q139 0 223 106q92 117 92 354q0 242 -90 350.5t-225 108.5q-147 0 -236.5 -123.5t-89.5 -330.5z" />
<glyph unicode="h" horiz-adv-x="1138" d="M176 0v1612h115v-701q115 184 330 185q197 0 284 -129q57 -80 58 -326v-641h-115v627q0 207 -39 270q-57 94 -203 94q-145 0 -230 -101.5t-85 -283.5v-606h-115z" />
<glyph unicode="i" horiz-adv-x="464" d="M176 0v1063h115v-1063h-115zM176 1337v193h115v-193h-115z" />
<glyph unicode="j" horiz-adv-x="464" d="M-76 -438q94 -29 154 -29q70 0 86 61q12 43 12 236v1233h115v-1319q0 -178 -35 -238q-43 -76 -162 -75q-66 0 -170 22v109zM176 1337v193h115v-193h-115z" />
<glyph unicode="k" horiz-adv-x="1116" d="M176 0v1612h115v-1151l612 602h150l-437 -428l467 -635h-145l-403 555l-244 -233v-322h-115z" />
<glyph unicode="l" horiz-adv-x="464" d="M176 0v1612h115v-1612h-115z" />
<glyph unicode="m" horiz-adv-x="1716" d="M176 0v1063h115v-193q59 123 132 174.5t185 51.5q219 0 291 -226q68 121 143.5 173.5t190.5 52.5q164 0 244 -111q66 -88 65 -264v-721h-115v604q0 225 -34 291q-53 96 -183 96q-135 0 -215 -112.5t-80 -305.5v-573h-112v604q0 225 -37 291q-53 96 -180 96 q-147 0 -234 -135q-61 -102 -61 -283v-573h-115z" />
<glyph unicode="n" horiz-adv-x="1138" d="M176 0v1063h115v-141q131 174 325 174q211 0 297 -148q49 -84 50 -321v-627h-115v627q0 207 -39 270q-57 94 -203 94q-145 0 -230 -101.5t-85 -283.5v-606h-115z" />
<glyph unicode="o" horiz-adv-x="1122" d="M111 532q0 258 120.5 411t329.5 153t330 -152.5t121 -419.5q0 -254 -122 -404.5t-327 -150.5q-209 0 -330.5 151.5t-121.5 411.5zM231 532q0 -215 88.5 -337.5t243.5 -122.5q152 0 240 120.5t88 331.5q0 223 -87 345t-243 122t-243 -122t-87 -337z" />
<glyph unicode="p" horiz-adv-x="1159" d="M176 -514v1577h115v-176q113 209 325 209q195 0 315 -155t120 -409t-120 -408.5t-315 -154.5q-215 0 -325 207v-690h-115zM291 532q0 -238 90 -354q86 -106 223 -106q147 0 236.5 123.5t89.5 330.5q0 215 -88 340t-238 125q-135 0 -223 -106q-90 -115 -90 -353z" />
<glyph unicode="q" horiz-adv-x="1159" d="M109 532q0 254 119.5 409t316.5 155q211 0 325 -209v176h113v-1577h-113v690q-106 -207 -325 -207q-197 0 -316.5 154.5t-119.5 408.5zM229 537q0 -215 88.5 -340t237.5 -125q139 0 223 106q92 117 92 354q0 242 -90 350.5t-225 108.5q-147 0 -236.5 -123.5t-89.5 -330.5 z" />
<glyph unicode="r" horiz-adv-x="706" d="M176 0v1063h115v-186q102 203 317 202q10 0 68 -4v-125q-45 8 -80 8q-305 0 -305 -432v-526h-115z" />
<glyph unicode="s" horiz-adv-x="972" d="M61 244l115 39q76 -211 307 -211q131 0 204 58t73 163q0 94 -64 139q-49 35 -215 70q-203 45 -281.5 108.5t-78.5 190.5q0 295 379 295q297 0 377 -236l-115 -26q-51 158 -270 157q-250 0 -250 -190q0 -80 49 -117t203 -70q190 -41 247 -73q139 -72 140 -246 q0 -145 -112 -235.5t-288 -90.5q-307 1 -420 275z" />
<glyph unicode="t" horiz-adv-x="626" d="M-29 958v105h230v459h112v-459h250v-105h-250v-704q0 -94 13 -123q20 -59 92 -59q63 0 137 61v-117q-82 -47 -164 -47q-100 0 -151 68q-39 53 -39 201v720h-230z" />
<glyph unicode="u" horiz-adv-x="1138" d="M176 422v641h115v-625q0 -209 37 -272q59 -94 204 -94q143 0 229.5 102t86.5 283v606h115v-1063h-115v152q-115 -182 -330 -183q-197 0 -287 127q-55 80 -55 326z" />
<glyph unicode="v" horiz-adv-x="905" d="M8 1063h125l299 -860l342 860h125l-430 -1063h-82z" />
<glyph unicode="w" horiz-adv-x="1445" d="M16 1063h129l271 -852l268 852h109l254 -852l264 852h123l-342 -1063h-103l-254 856l-270 -856h-105z" />
<glyph unicode="x" horiz-adv-x="919" d="M8 0l389 551l-354 512h141l285 -416l293 416h133l-360 -510l376 -553h-141l-305 455l-326 -455h-131z" />
<glyph unicode="y" horiz-adv-x="966" d="M8 -375q90 -68 168 -67q49 0 79 38.5t77 159.5l96 252l-379 1055h125l318 -899l344 899h120l-534 -1354q-61 -162 -106.5 -209t-135.5 -47q-86 0 -172 51v121z" />
<glyph unicode="z" horiz-adv-x="903" d="M70 0v80l628 878h-569v105h725v-80l-627 -879h619v-104h-776z" />
<glyph unicode="{" horiz-adv-x="741" d="M86 500v92q78 27 109.5 79t31.5 158v465q0 178 79 252t263 74v-92q-131 -6 -178 -57.5t-47 -190.5v-465q0 -115 -31.5 -172t-115.5 -96q82 -39 114.5 -100.5t32.5 -176.5v-444q0 -147 47 -200.5t178 -55.5v-92q-195 0 -268.5 77.5t-73.5 282.5v426q0 109 -30.5 160 t-110.5 76z" />
<glyph unicode="|" horiz-adv-x="1208" d="M549 -403v2015h113v-2015h-113z" />
<glyph unicode="}" horiz-adv-x="741" d="M172 -430q133 2 180 55t47 201v444q0 115 33 176.5t115 100.5q-86 39 -117 96t-31 172v465q0 139 -47 190.5t-180 57.5v92q186 0 264 -73.5t78 -252.5v-465q0 -106 32 -158.5t109 -78.5v-92q-80 -25 -110.5 -76t-30.5 -160v-426q0 -205 -73.5 -282.5t-268.5 -77.5v92z " />
<glyph unicode="~" horiz-adv-x="1611" d="M227 1479q72 135 144.5 193.5t173.5 58.5q90 0 276 -95q172 -88 248 -88q129 0 238 187l75 -43q-131 -250 -323 -250q-74 0 -174 45l-162 80q-119 57 -186 57q-131 0 -238 -190z" />
<glyph unicode="&#xa1;" horiz-adv-x="395" d="M125 16l35 643h78l32 -643v-565h-145v565zM125 829v234h145v-234h-145z" />
<glyph unicode="&#xa2;" d="M250 803q0 233 105.5 383.5t291.5 177.5v156h117v-154q238 -23 340 -274l-103 -43q-80 188 -237 211v-912q158 23 237 211l105 -45q-104 -246 -342 -272v-150h-117v150q-190 27 -293.5 173t-103.5 388zM371 805q0 -190 74.5 -314t201.5 -143v912q-127 -23 -201.5 -145 t-74.5 -310z" />
<glyph unicode="&#xa3;" d="M96 129q0 72 64.5 119t163.5 47q104 0 243 -64q29 106 29 172q0 111 -76 209h-309v109h211l-70 70q-121 121 -160.5 195.5t-39.5 178.5q0 193 138 313.5t357 120.5q453 0 506 -434l-125 -20q-43 346 -383 346q-164 0 -265 -89t-101 -235q0 -133 114 -249l119 -117 q29 -27 76 -80h360v-109h-278q47 -86 47 -194q0 -106 -58 -242q174 -104 304 -104q88 0 123.5 59t35.5 213v41l117 -12q-2 -221 -65.5 -315.5t-215.5 -94.5q-141 0 -358 115q-129 -115 -272 -115q-100 0 -166 47t-66 119zM205 131q0 -66 119 -65q102 0 190 69q-4 2 -8 8 l-14 7q-84 41 -156 40q-131 0 -131 -59z" />
<glyph unicode="&#xa4;" horiz-adv-x="1652" d="M121 641l45 109h127v108h-172l45 109h139q20 207 121 374q182 311 541 312q256 0 405 -168q76 -86 156 -248l-101 -68q-86 203 -191.5 287t-270.5 84q-332 0 -471 -340q-47 -111 -62 -233h762l-47 -109h-725q-2 -12 -2 -55q0 -27 2 -53h680l-45 -109h-625 q39 -276 181.5 -422.5t371.5 -146.5q172 0 275.5 80.5t177.5 275.5l94 -68q-84 -215 -213 -308t-342 -93q-283 0 -460 179t-214 503h-182z" />
<glyph unicode="&#xa5;" d="M113 1563h120l439 -795l446 795h121l-229 -406h168v-108h-230l-221 -385h295v-109h-295v-555h-115v555h-280v109h280l-213 385h-223v108h162z" />
<glyph unicode="&#xa6;" horiz-adv-x="1208" d="M549 371h113v-774h-113v774zM549 821v791h113v-791h-113z" />
<glyph unicode="&#xa7;" d="M201 41l75 88q193 -201 408 -201q133 0 212 66.5t79 175.5q0 80 -49 132t-176 114l-187 86q-188 88 -252 145q-92 82 -92 217q0 215 248 336q-154 104 -154 254q0 139 100.5 228.5t254.5 89.5q209 0 411 -193l-78 -84q-158 172 -333 172q-104 0 -169 -57.5t-65 -155.5 q0 -76 53 -127q37 -37 156 -92l166 -80q203 -96 272.5 -168t69.5 -190q0 -205 -233 -340q178 -113 178 -279q0 -160 -112 -257t-296 -97q-268 0 -487 217zM340 874q0 -82 43 -131t162 -104l278 -131q207 115 207 285q0 137 -201 229l-268 123q-121 -59 -171 -120t-50 -151z " />
<glyph unicode="&#xa8;" horiz-adv-x="1208" d="M381 1315v176h111v-176h-111zM715 1315v176h108v-176h-108z" />
<glyph unicode="&#xa9;" horiz-adv-x="1894" d="M125 805q0 354 241.5 601t589.5 247q334 0 573.5 -250t239.5 -598q0 -350 -241.5 -598t-579.5 -248q-340 0 -581.5 248t-241.5 598zM201 805q0 -322 220 -550t527 -228q305 0 525.5 228t220.5 550q0 319 -217 549.5t-521 230.5q-315 0 -535 -227t-220 -553zM555 797 q0 227 111.5 362t296.5 135q188 0 286 -153q10 -12 54 -92l-72 -48q-57 121 -114.5 168.5t-158.5 47.5q-143 0 -227 -111t-84 -303q0 -190 87 -300t237 -110q104 0 159.5 45t104.5 164l70 -49q-53 -127 -130 -183.5t-208 -56.5q-188 0 -300 131.5t-112 352.5z" />
<glyph unicode="&#xaa;" horiz-adv-x="901" d="M80 717v80h743v-80h-743zM180 1137q0 152 234 202l145 31v66q0 104 -131 104q-78 0 -109.5 -29.5t-33.5 -103.5l-80 12q18 193 225 193q111 0 164 -56q41 -43 41 -159v-256q0 -53 6 -66q8 -27 49 -26h31v-68q-27 -4 -51 -4q-96 0 -105 86q-82 -96 -198 -96 q-82 0 -134.5 47t-52.5 123zM264 1141q0 -102 111 -103q78 0 129 56.5t51 138.5v67l-137 -30q-154 -37 -154 -129z" />
<glyph unicode="&#xab;" horiz-adv-x="878" d="M113 532l284 406l84 -61l-237 -345l237 -346l-84 -61zM375 532l282 406l84 -61l-235 -345l235 -346l-84 -61z" />
<glyph unicode="&#xac;" horiz-adv-x="1208" d="M80 541v104h1046v-645h-114v541h-932z" />
<glyph unicode="&#xad;" horiz-adv-x="475" d="M0 479v109h475v-109h-475z" />
<glyph unicode="&#xae;" horiz-adv-x="1894" d="M125 805q0 354 241.5 601t589.5 247q334 0 573.5 -250t239.5 -598q0 -350 -241.5 -598t-579.5 -248q-340 0 -581.5 248t-241.5 598zM201 805q0 -322 220 -550t527 -228q305 0 525.5 228t220.5 550q0 319 -217 549.5t-521 230.5q-315 0 -535 -227t-220 -553zM612 338v936 h385q174 0 248 -62q82 -70 82 -196q0 -242 -283 -260l310 -418h-117l-293 418h-246v-418h-86zM698 836h306q231 0 231 180q0 178 -231 178h-306v-358z" />
<glyph unicode="&#xaf;" horiz-adv-x="1208" d="M0 1950v102h1208v-102h-1208z" />
<glyph unicode="&#xb0;" d="M334 1262q0 143 101.5 243.5t244.5 100.5q139 0 239.5 -102.5t100.5 -243.5t-100.5 -243t-239.5 -102q-143 0 -244.5 102t-101.5 245zM426 1262q0 -104 73.5 -179t176.5 -75q102 0 177 73.5t75 171.5q0 111 -74 185.5t-180 74.5q-100 0 -174 -74.5t-74 -176.5z" />
<glyph unicode="&#xb1;" d="M121 29v108h1112v-108h-1112zM121 735v109h502v499l110 3v-502h500v-109h-500v-502h-110v502h-502z" />
<glyph unicode="&#xb2;" horiz-adv-x="878" d="M109 1313q0 127 91 211t230 84q145 0 234.5 -85t89.5 -225q0 -147 -96.5 -265t-372.5 -304h465v-84h-639v82q141 76 305 203q242 188 241 362q0 104 -62.5 167t-166.5 63q-96 0 -159.5 -57.5t-63.5 -147.5q0 -72 76 -176l-121 10q-51 86 -51 162z" />
<glyph unicode="&#xb3;" horiz-adv-x="878" d="M94 928l96 26q8 -248 250 -247q106 0 167 52t61 142q0 102 -71 146.5t-232 44.5h-101v86h103q281 0 280 168q0 76 -59.5 126t-149.5 50q-100 0 -153.5 -47.5t-79.5 -159.5l-92 31q72 262 327 262q133 0 218 -74t85 -191q0 -131 -137 -204q158 -59 158 -236 q0 -127 -87 -203.5t-235 -76.5q-158 0 -248 80t-100 225z" />
<glyph unicode="&#xb4;" horiz-adv-x="1208" d="M500 1272l196 260h172l-295 -260h-73z" />
<glyph unicode="&#xb5;" horiz-adv-x="1138" d="M176 -514v1577h115v-606q0 -199 98 -301q80 -84 178 -84q115 0 198 100t83 285v606h115v-1063h-115v143q-111 -174 -281 -174q-164 0 -276 174v-657h-115z" />
<glyph unicode="&#x3bc;" horiz-adv-x="1138" d="M176 -514v1577h115v-606q0 -199 98 -301q80 -84 178 -84q115 0 198 100t83 285v606h115v-1063h-115v143q-111 -174 -281 -174q-164 0 -276 174v-657h-115z" />
<glyph unicode="&#xb6;" d="M121 1182q0 256 196 366q111 63 310 64h563v-105h-139v-2021h-121v2021h-223v-2021h-121v1274h-39q-186 0 -306 118t-120 304z" />
<glyph unicode="&#xb7;" horiz-adv-x="464" d="M162 479v234h145v-234h-145z" />
<glyph unicode="&#xb8;" horiz-adv-x="1208" d="M430 -414l31 70q86 -37 160 -37q139 0 139 100q0 92 -119 93q-39 0 -94 -19l-35 33l135 174h76l-96 -125q61 6 82 6q80 0 128 -41t48 -108q0 -86 -66.5 -138.5t-177.5 -52.5q-94 0 -211 45z" />
<glyph unicode="&#xb9;" horiz-adv-x="878" d="M256 1352v82q98 4 137 26q55 33 62 125h80v-940h-93v752q-67 -39 -186 -45z" />
<glyph unicode="&#xba;" horiz-adv-x="901" d="M80 717v80h743v-80h-743zM186 1290q0 147 73 234.5t194 87.5q123 0 193.5 -88t70.5 -238q0 -145 -72 -232t-192 -87q-121 0 -194 88t-73 235zM268 1290q0 -252 185 -252q84 0 133 66.5t49 181.5q0 254 -182 254q-185 0 -185 -250z" />
<glyph unicode="&#xbb;" horiz-adv-x="878" d="M137 186l238 346l-238 345l86 61l283 -406l-283 -407zM399 186l236 346l-236 345l84 61l283 -406l-283 -407z" />
<glyph unicode="&#xbc;" horiz-adv-x="2158" d="M256 1352v82q98 4 137 26q55 33 62 125h80v-940h-93v752q-67 -39 -186 -45zM582 0l884 1599h113l-883 -1599h-114zM1358 238v67l442 637h96v-620h175v-84h-175v-238h-92v238h-446zM1477 322h327v473z" />
<glyph unicode="&#xbd;" horiz-adv-x="2158" d="M256 1352v82q98 4 137 26q55 33 62 125h80v-940h-93v752q-67 -39 -186 -45zM582 0l884 1599h113l-883 -1599h-114zM1389 668q0 127 91 211t230 84q145 0 235.5 -85t90.5 -225q0 -147 -97.5 -265t-371.5 -304h463v-84h-637v82q139 76 303 203q242 188 241 362 q0 104 -62.5 167t-166.5 63q-96 0 -158.5 -57.5t-62.5 -147.5q0 -72 74 -176l-121 10q-51 86 -51 162z" />
<glyph unicode="&#xbe;" horiz-adv-x="2158" d="M94 928l96 26q8 -248 250 -247q106 0 167 52t61 142q0 102 -71 146.5t-232 44.5h-101v86h103q281 0 280 168q0 76 -59.5 126t-149.5 50q-100 0 -153.5 -47.5t-79.5 -159.5l-92 31q72 262 327 262q133 0 218 -74t85 -191q0 -131 -137 -204q158 -59 158 -236 q0 -127 -87 -203.5t-235 -76.5q-158 0 -248 80t-100 225zM582 0l884 1599h113l-883 -1599h-114zM1358 238v67l442 637h96v-620h175v-84h-175v-238h-92v238h-446zM1477 322h327v473z" />
<glyph unicode="&#xbf;" horiz-adv-x="1038" d="M72 -137q0 135 58 230t214 214q102 80 131 148q25 55 25 188v16h118l-2 -26q2 -160 -33.5 -234.5t-162.5 -175t-174 -177.5t-47 -189q0 -150 89 -243t232 -93q139 0 223 87t84 236q0 94 -39 211l134 -28q31 -109 30 -197q0 -184 -119.5 -301t-310.5 -117 q-201 0 -325.5 125t-124.5 326zM487 829v234h146v-234h-146z" />
<glyph unicode="&#xc0;" horiz-adv-x="1419" d="M31 0l631 1612h102l622 -1612h-135l-186 487h-713l-188 -487h-133zM360 2079h191l217 -291h-80zM397 602h627l-311 825z" />
<glyph unicode="&#xc1;" horiz-adv-x="1419" d="M31 0l631 1612h102l622 -1612h-135l-186 487h-713l-188 -487h-133zM397 602h627l-311 825zM659 1788l218 291h192l-330 -291h-80z" />
<glyph unicode="&#xc2;" horiz-adv-x="1419" d="M31 0l631 1612h102l622 -1612h-135l-186 487h-713l-188 -487h-133zM362 1788l297 291h115l297 -291h-92l-262 156l-260 -156h-95zM397 602h627l-311 825z" />
<glyph unicode="&#xc3;" horiz-adv-x="1419" d="M31 0l631 1612h102l622 -1612h-135l-186 487h-713l-188 -487h-133zM379 1835q66 201 221 201q61 0 166 -58q82 -43 135 -43q94 0 146 115l57 -18q-66 -209 -213 -209q-49 0 -113 26q-53 27 -107.5 50.5t-92.5 23.5q-86 0 -138 -106zM397 602h627l-311 825z" />
<glyph unicode="&#xc4;" horiz-adv-x="1419" d="M31 0l631 1612h102l622 -1612h-135l-186 487h-713l-188 -487h-133zM397 602h627l-311 825zM471 1837v193h121v-193h-121zM842 1837v193h121v-193h-121z" />
<glyph unicode="&#xc5;" horiz-adv-x="1419" d="M31 0l631 1612h102l622 -1612h-135l-186 487h-713l-188 -487h-133zM397 602h627l-311 825zM514 1933q0 82 59.5 141.5t143.5 59.5q86 0 145.5 -59.5t59.5 -143.5q0 -80 -60.5 -139t-144.5 -59q-82 0 -142.5 59t-60.5 141zM600 1933q0 -45 35 -80.5t82 -35.5q49 0 84 33.5 t35 82.5t-35 83t-84 34q-47 0 -82 -34t-35 -83z" />
<glyph unicode="&#xc6;" horiz-adv-x="2304" d="M0 0l1061 1612h1096v-113h-945v-573h826v-115h-826v-698h1012v-113h-1132v487h-631l-322 -487h-139zM535 602h557v852z" />
<glyph unicode="&#xc7;" horiz-adv-x="1441" d="M125 795q0 389 184.5 623.5t491.5 234.5q256 0 405 -168q72 -80 154 -248l-98 -68q-88 203 -192.5 287t-272.5 84q-250 0 -391 -192q-152 -207 -152 -543q0 -340 149.5 -536.5t413.5 -196.5q174 0 276.5 80.5t178.5 275.5l94 -68q-143 -383 -512 -399l-72 -96 q51 12 80 12q78 0 129 -42t51 -105q0 -84 -69.5 -139.5t-179.5 -55.5q-90 0 -211 45l32 70q86 -37 166 -37q57 0 95 29.5t38 74.5q0 86 -116 86q-37 0 -97 -18l-36 35l106 141q-223 14 -369 131q-276 220 -276 703z" />
<glyph unicode="&#xc8;" horiz-adv-x="1411" d="M193 0v1612h1067v-113h-947v-573h828v-115h-828v-698h1014v-113h-1134zM373 2079h190l217 -291h-80z" />
<glyph unicode="&#xc9;" horiz-adv-x="1411" d="M193 0v1612h1067v-113h-947v-573h828v-115h-828v-698h1014v-113h-1134zM670 1788l217 291h190l-327 -291h-80z" />
<glyph unicode="&#xca;" horiz-adv-x="1411" d="M193 0v1612h1067v-113h-947v-573h828v-115h-828v-698h1014v-113h-1134zM381 1788l299 291h113l297 -291h-93l-260 156l-262 -156h-94z" />
<glyph unicode="&#xcb;" horiz-adv-x="1411" d="M193 0v1612h1067v-113h-947v-573h828v-115h-828v-698h1014v-113h-1134zM500 1837v193h121v-193h-121zM862 1837v193h121v-193h-121z" />
<glyph unicode="&#xcc;" horiz-adv-x="505" d="M-94 2079h190l217 -291h-80zM193 0v1612h120v-1612h-120z" />
<glyph unicode="&#xcd;" horiz-adv-x="505" d="M193 0v1612h120v-1612h-120zM203 1788l217 291h192l-329 -291h-80z" />
<glyph unicode="&#xce;" horiz-adv-x="505" d="M-12 1788l217 291h114l218 -291h-95l-182 156l-178 -156h-94zM193 0v1612h120v-1612h-120z" />
<glyph unicode="&#xcf;" horiz-adv-x="505" d="M66 1837v193h120v-193h-120zM193 0v1612h120v-1612h-120zM338 1837v193h121v-193h-121z" />
<glyph unicode="&#xd0;" horiz-adv-x="1540" d="M49 811v115h144v686h509q193 0 315 -54.5t220 -179.5q178 -231 178 -573q0 -375 -207 -606q-96 -106 -211.5 -152.5t-294.5 -46.5h-509v811h-144zM313 113h373q156 0 251 35.5t175 123.5q176 195 176 533q0 369 -203 563q-137 131 -399 131h-373v-573h469v-115h-469v-698 z" />
<glyph unicode="&#xd1;" horiz-adv-x="1607" d="M193 0v1612h120l981 -1422v1422h121v-1612h-131l-971 1399v-1399h-120zM483 1835q66 201 219 201q63 0 168 -58q82 -43 136 -43q94 0 145 115l57 -18q-66 -209 -213 -209q-51 0 -112 26q-53 27 -107.5 50.5t-93.5 23.5q-88 0 -137 -106z" />
<glyph unicode="&#xd2;" horiz-adv-x="1576" d="M125 807q0 383 181 614.5t482 231.5q303 0 483.5 -231.5t180.5 -626.5q0 -375 -182.5 -605.5t-481.5 -230.5q-303 0 -483 230.5t-180 617.5zM254 805q0 -338 143.5 -535.5t393.5 -197.5q246 0 390 196.5t144 526.5q0 350 -143.5 547.5t-393.5 197.5t-392 -197.5 t-142 -537.5zM446 2079h193l217 -291h-80z" />
<glyph unicode="&#xd3;" horiz-adv-x="1576" d="M125 807q0 383 181 614.5t482 231.5q303 0 483.5 -231.5t180.5 -626.5q0 -375 -182.5 -605.5t-481.5 -230.5q-303 0 -483 230.5t-180 617.5zM254 805q0 -338 143.5 -535.5t393.5 -197.5q246 0 390 196.5t144 526.5q0 350 -143.5 547.5t-393.5 197.5t-392 -197.5 t-142 -537.5zM729 1788l219 291h191l-330 -291h-80z" />
<glyph unicode="&#xd4;" horiz-adv-x="1576" d="M125 807q0 383 181 614.5t482 231.5q303 0 483.5 -231.5t180.5 -626.5q0 -375 -182.5 -605.5t-481.5 -230.5q-303 0 -483 230.5t-180 617.5zM254 805q0 -338 143.5 -535.5t393.5 -197.5q246 0 390 196.5t144 526.5q0 350 -143.5 547.5t-393.5 197.5t-392 -197.5 t-142 -537.5zM442 1788l297 291h115l297 -291h-92l-262 156l-260 -156h-95z" />
<glyph unicode="&#xd5;" horiz-adv-x="1576" d="M125 807q0 383 181 614.5t482 231.5q303 0 483.5 -231.5t180.5 -626.5q0 -375 -182.5 -605.5t-481.5 -230.5q-303 0 -483 230.5t-180 617.5zM254 805q0 -338 143.5 -535.5t393.5 -197.5q246 0 390 196.5t144 526.5q0 350 -143.5 547.5t-393.5 197.5t-392 -197.5 t-142 -537.5zM467 1835q66 201 219 201q63 0 168 -58q82 -43 135 -43q94 0 144 115l59 -18q-66 -209 -213 -209q-51 0 -115 26q-53 27 -107.5 50.5t-92.5 23.5q-86 0 -138 -106z" />
<glyph unicode="&#xd6;" horiz-adv-x="1576" d="M125 807q0 383 181 614.5t482 231.5q303 0 483.5 -231.5t180.5 -626.5q0 -375 -182.5 -605.5t-481.5 -230.5q-303 0 -483 230.5t-180 617.5zM254 805q0 -338 143.5 -535.5t393.5 -197.5q246 0 390 196.5t144 526.5q0 350 -143.5 547.5t-393.5 197.5t-392 -197.5 t-142 -537.5zM551 1837v193h121v-193h-121zM922 1837v193h120v-193h-120z" />
<glyph unicode="&#xd7;" d="M211 401l389 390l-389 389l76 73l389 -385l389 385l76 -73l-387 -389l387 -390l-76 -77l-389 389l-389 -389z" />
<glyph unicode="&#xd8;" horiz-adv-x="1576" d="M111 16l170 213q-156 244 -156 576q0 387 181 617.5t485 230.5q279 0 458 -203l156 192l63 -49l-168 -211q152 -236 152 -577q0 -383 -181 -614.5t-480 -231.5q-285 0 -459 203l-156 -197zM254 805q0 -276 106 -473l814 1022q-141 186 -386 186q-250 0 -392 -196.5 t-142 -538.5zM406 256q141 -184 385 -184q248 0 391 197.5t143 535.5q0 281 -104 475z" />
<glyph unicode="&#xd9;" horiz-adv-x="1505" d="M170 586v1026h121v-1000q0 -182 26.5 -272t98.5 -154q131 -115 338 -114q231 0 360 133q102 104 103 407v1000h120v-1026q0 -193 -37.5 -302.5t-134.5 -191.5q-156 -133 -413 -133q-285 0 -443 162q-78 82 -108.5 183.5t-30.5 281.5zM428 2079h190l218 -291h-80z" />
<glyph unicode="&#xda;" horiz-adv-x="1505" d="M170 586v1026h121v-1000q0 -182 26.5 -272t98.5 -154q131 -115 338 -114q231 0 360 133q102 104 103 407v1000h120v-1026q0 -193 -37.5 -302.5t-134.5 -191.5q-156 -133 -413 -133q-285 0 -443 162q-78 82 -108.5 183.5t-30.5 281.5zM694 1788l217 291h191l-328 -291h-80 z" />
<glyph unicode="&#xdb;" horiz-adv-x="1505" d="M170 586v1026h121v-1000q0 -182 26.5 -272t98.5 -154q131 -115 338 -114q231 0 360 133q102 104 103 407v1000h120v-1026q0 -193 -37.5 -302.5t-134.5 -191.5q-156 -133 -413 -133q-285 0 -443 162q-78 82 -108.5 183.5t-30.5 281.5zM416 1788l297 291h114l297 -291h-92 l-262 156l-260 -156h-94z" />
<glyph unicode="&#xdc;" horiz-adv-x="1505" d="M170 586v1026h121v-1000q0 -182 26.5 -272t98.5 -154q131 -115 338 -114q231 0 360 133q102 104 103 407v1000h120v-1026q0 -193 -37.5 -302.5t-134.5 -191.5q-156 -133 -413 -133q-285 0 -443 162q-78 82 -108.5 183.5t-30.5 281.5zM522 1837v193h121v-193h-121z M891 1837v193h121v-193h-121z" />
<glyph unicode="&#xdd;" horiz-adv-x="1310" d="M0 1612h150l503 -815l514 815h144l-602 -930v-682h-121v682zM612 1788l217 291h191l-330 -291h-78z" />
<glyph unicode="&#xde;" horiz-adv-x="1431" d="M193 0v1612h120v-307h523q139 0 202 -15q104 -20 181 -90q127 -117 127 -332q0 -252 -175 -370q-98 -70 -335 -70h-523v-428h-120zM313 541h549q186 0 266 73q90 82 91 254q0 166 -91 250q-78 74 -266 74h-549v-651z" />
<glyph unicode="&#xdf;" horiz-adv-x="1138" d="M176 0v1098q0 139 8 196q14 111 68 187q98 147 313 147q172 0 271.5 -102.5t99.5 -278.5q0 -227 -211 -323q305 -117 305 -508q0 -203 -98 -325t-260 -122q-98 0 -230 66v131q139 -94 234 -94q104 0 168.5 92t64.5 239q0 322 -219 416q-82 37 -276 39v105q180 0 266 43 q135 70 135 243q0 129 -69.5 203t-186.5 74q-131 0 -199.5 -91.5t-68.5 -334.5v-1100h-115z" />
<glyph unicode="&#xe0;" horiz-adv-x="1052" d="M106 258q0 154 109 240q84 68 283 110l262 60v125q0 199 -236 198q-135 0 -195.5 -54t-62.5 -183l-119 16q16 156 84 223q102 102 295 103q229 0 310 -142q35 -63 34 -231v-457q0 -100 7 -123q20 -57 100 -57q18 0 39 4v-98q-47 -8 -74 -8q-166 0 -176 178 q-125 -193 -346 -193q-139 0 -226.5 81t-87.5 208zM225 266q0 -90 55.5 -142t149.5 -52q139 0 232.5 103.5t93.5 254.5v133l-250 -55q-281 -64 -281 -242zM231 1532h172l197 -260h-74z" />
<glyph unicode="&#xe1;" horiz-adv-x="1052" d="M106 258q0 154 109 240q84 68 283 110l262 60v125q0 199 -236 198q-135 0 -195.5 -54t-62.5 -183l-119 16q16 156 84 223q102 102 295 103q229 0 310 -142q35 -63 34 -231v-457q0 -100 7 -123q20 -57 100 -57q18 0 39 4v-98q-47 -8 -74 -8q-166 0 -176 178 q-125 -193 -346 -193q-139 0 -226.5 81t-87.5 208zM225 266q0 -90 55.5 -142t149.5 -52q139 0 232.5 103.5t93.5 254.5v133l-250 -55q-281 -64 -281 -242zM473 1272l197 260h172l-295 -260h-74z" />
<glyph unicode="&#xe2;" horiz-adv-x="1052" d="M106 258q0 154 109 240q84 68 283 110l262 60v125q0 199 -236 198q-135 0 -195.5 -54t-62.5 -183l-119 16q16 156 84 223q102 102 295 103q229 0 310 -142q35 -63 34 -231v-457q0 -100 7 -123q20 -57 100 -57q18 0 39 4v-98q-47 -8 -74 -8q-166 0 -176 178 q-125 -193 -346 -193q-139 0 -226.5 81t-87.5 208zM225 266q0 -90 55.5 -142t149.5 -52q139 0 232.5 103.5t93.5 254.5v133l-250 -55q-281 -64 -281 -242zM225 1272l269 260h100l268 -260h-84l-233 139l-236 -139h-84z" />
<glyph unicode="&#xe3;" horiz-adv-x="1052" d="M106 258q0 154 109 240q84 68 283 110l262 60v125q0 199 -236 198q-135 0 -195.5 -54t-62.5 -183l-119 16q16 156 84 223q102 102 295 103q229 0 310 -142q35 -63 34 -231v-457q0 -100 7 -123q20 -57 100 -57q18 0 39 4v-98q-47 -8 -74 -8q-166 0 -176 178 q-125 -193 -346 -193q-139 0 -226.5 81t-87.5 208zM207 1313q61 180 199 180q53 0 149 -51q78 -41 125 -41q82 0 127 104l53 -14q-55 -190 -190 -191q-55 0 -147.5 47.5t-135.5 47.5q-80 0 -127 -97zM225 266q0 -90 55.5 -142t149.5 -52q139 0 232.5 103.5t93.5 254.5v133 l-250 -55q-281 -64 -281 -242z" />
<glyph unicode="&#xe4;" horiz-adv-x="1052" d="M106 258q0 154 109 240q84 68 283 110l262 60v125q0 199 -236 198q-135 0 -195.5 -54t-62.5 -183l-119 16q16 156 84 223q102 102 295 103q229 0 310 -142q35 -63 34 -231v-457q0 -100 7 -123q20 -57 100 -57q18 0 39 4v-98q-47 -8 -74 -8q-166 0 -176 178 q-125 -193 -346 -193q-139 0 -226.5 81t-87.5 208zM225 266q0 -90 55.5 -142t149.5 -52q139 0 232.5 103.5t93.5 254.5v133l-250 -55q-281 -64 -281 -242zM309 1315v176h109v-176h-109zM643 1315v176h109v-176h-109z" />
<glyph unicode="&#xe5;" horiz-adv-x="1052" d="M106 258q0 154 109 240q84 68 283 110l262 60v125q0 199 -236 198q-135 0 -195.5 -54t-62.5 -183l-119 16q16 156 84 223q102 102 295 103q229 0 310 -142q35 -63 34 -231v-457q0 -100 7 -123q20 -57 100 -57q18 0 39 4v-98q-47 -8 -74 -8q-166 0 -176 178 q-125 -193 -346 -193q-139 0 -226.5 81t-87.5 208zM225 266q0 -90 55.5 -142t149.5 -52q139 0 232.5 103.5t93.5 254.5v133l-250 -55q-281 -64 -281 -242zM332 1405q0 82 60.5 141.5t142.5 59.5q84 0 143 -59.5t59 -145.5q0 -82 -60.5 -141.5t-141.5 -59.5 q-82 0 -142.5 60.5t-60.5 144.5zM416 1405q0 -49 34.5 -84t84.5 -35q47 0 82.5 34t35.5 81q0 49 -35.5 84t-82.5 35q-49 0 -84 -34t-35 -81z" />
<glyph unicode="&#xe6;" horiz-adv-x="1775" d="M104 258q0 156 109 240q86 68 283 110l260 60v125q0 199 -234 198q-135 0 -195.5 -54t-62.5 -183l-119 20q16 152 84 219q102 102 295 103q268 0 330 -187q131 186 344 187q262 0 381 -242q61 -129 72 -330h-777q8 -213 101.5 -332.5t249.5 -119.5q201 0 342 239l98 -51 q-174 -291 -444 -291t-402 260q-147 -260 -401 -260q-139 0 -226.5 81t-87.5 208zM223 266q0 -90 55.5 -142t149.5 -52q139 0 232.5 103.5t93.5 254.5v135l-252 -55q-279 -64 -279 -244zM877 629h645q-14 172 -98.5 267t-223.5 95q-137 0 -221 -95t-102 -267z" />
<glyph unicode="&#xe7;" horiz-adv-x="1034" d="M111 528q0 254 127 411t335 157q264 0 394 -275l-105 -43q-100 213 -293 213q-154 0 -246 -126t-92 -333q0 -209 92.5 -334.5t245.5 -125.5q193 0 293 213l107 -43q-111 -250 -355 -271l-73 -96q59 6 82 6q80 0 129 -41t49 -108q0 -86 -68.5 -138.5t-179.5 -52.5 q-96 0 -207 45l31 70q80 -37 160 -37q137 0 137 100q0 92 -119 93q-37 0 -94 -19l-33 33l111 143q-201 16 -314.5 163.5t-113.5 395.5z" />
<glyph unicode="&#xe8;" horiz-adv-x="1132" d="M111 547q0 244 123.5 396.5t320.5 152.5q262 0 381 -242q61 -129 72 -330h-777q8 -213 101.5 -332.5t249.5 -119.5q201 0 342 239l98 -51q-174 -291 -444 -291q-211 0 -339 159t-128 419zM233 629h648q-16 172 -100.5 267t-221.5 95q-139 0 -223.5 -95t-102.5 -267z M254 1532h172l195 -260h-72z" />
<glyph unicode="&#xe9;" horiz-adv-x="1132" d="M111 547q0 244 123.5 396.5t320.5 152.5q262 0 381 -242q61 -129 72 -330h-777q8 -213 101.5 -332.5t249.5 -119.5q201 0 342 239l98 -51q-174 -291 -444 -291q-211 0 -339 159t-128 419zM233 629h648q-16 172 -100.5 267t-221.5 95q-139 0 -223.5 -95t-102.5 -267z M512 1272l197 260h172l-295 -260h-74z" />
<glyph unicode="&#xea;" horiz-adv-x="1132" d="M111 547q0 244 123.5 396.5t320.5 152.5q262 0 381 -242q61 -129 72 -330h-777q8 -213 101.5 -332.5t249.5 -119.5q201 0 342 239l98 -51q-174 -291 -444 -291q-211 0 -339 159t-128 419zM233 629h648q-16 172 -100.5 267t-221.5 95q-139 0 -223.5 -95t-102.5 -267z M256 1272l268 260h103l268 -260h-86l-234 139l-235 -139h-84z" />
<glyph unicode="&#xeb;" horiz-adv-x="1132" d="M111 547q0 244 123.5 396.5t320.5 152.5q262 0 381 -242q61 -129 72 -330h-777q8 -213 101.5 -332.5t249.5 -119.5q201 0 342 239l98 -51q-174 -291 -444 -291q-211 0 -339 159t-128 419zM233 629h648q-16 172 -100.5 267t-221.5 95q-139 0 -223.5 -95t-102.5 -267z M352 1315v176h109v-176h-109zM686 1315v176h109v-176h-109z" />
<glyph unicode="&#xec;" horiz-adv-x="464" d="M-80 1532h172l195 -260h-72zM176 0v1063h115v-1063h-115z" />
<glyph unicode="&#xed;" horiz-adv-x="464" d="M172 1272l195 260h172l-295 -260h-72zM178 0v1063h115v-1063h-115z" />
<glyph unicode="&#xee;" horiz-adv-x="464" d="M2 1272l188 260h103l186 -260h-82l-155 139l-156 -139h-84zM176 0v1063h115v-1063h-115z" />
<glyph unicode="&#xef;" horiz-adv-x="464" d="M68 1315v176h108v-176h-108zM176 0v1063h115v-1063h-115zM305 1315v176h109v-176h-109z" />
<glyph unicode="&#xf0;" horiz-adv-x="1122" d="M111 535q0 270 120 409q129 152 324 152q51 0 109 -17l-164 273l-166 -117l-58 86l170 119l-92 155l80 52l103 -148l174 113l57 -84l-176 -117l209 -305q121 -176 166 -301t45 -279q0 -250 -124 -403.5t-327 -153.5q-207 0 -328.5 149t-121.5 417zM231 532 q0 -215 88.5 -337.5t243.5 -122.5q152 0 240 120.5t88 331.5q0 223 -87 345t-243 122t-243 -122t-87 -337z" />
<glyph unicode="&#xf1;" horiz-adv-x="1138" d="M176 0v1063h115v-141q131 174 325 174q211 0 297 -148q49 -84 50 -321v-627h-115v627q0 207 -39 270q-57 94 -203 94q-145 0 -230 -101.5t-85 -283.5v-606h-115zM283 1313q61 180 198 180q53 0 150 -51q78 -41 123 -41q82 0 129 104l53 -14q-55 -190 -193 -191 q-55 0 -146 47.5t-136 47.5q-80 0 -125 -97z" />
<glyph unicode="&#xf2;" horiz-adv-x="1122" d="M111 532q0 258 120.5 411t329.5 153t330 -152.5t121 -419.5q0 -254 -122 -404.5t-327 -150.5q-209 0 -330.5 151.5t-121.5 411.5zM231 532q0 -215 88.5 -337.5t243.5 -122.5q152 0 240 120.5t88 331.5q0 223 -87 345t-243 122t-243 -122t-87 -337zM250 1532h170l196 -260 h-71z" />
<glyph unicode="&#xf3;" horiz-adv-x="1122" d="M111 532q0 258 120.5 411t329.5 153t330 -152.5t121 -419.5q0 -254 -122 -404.5t-327 -150.5q-209 0 -330.5 151.5t-121.5 411.5zM231 532q0 -215 88.5 -337.5t243.5 -122.5q152 0 240 120.5t88 331.5q0 223 -87 345t-243 122t-243 -122t-87 -337zM508 1272l194 260h172 l-294 -260h-72z" />
<glyph unicode="&#xf4;" horiz-adv-x="1122" d="M111 532q0 258 120.5 411t329.5 153t330 -152.5t121 -419.5q0 -254 -122 -404.5t-327 -150.5q-209 0 -330.5 151.5t-121.5 411.5zM231 532q0 -215 88.5 -337.5t243.5 -122.5q152 0 240 120.5t88 331.5q0 223 -87 345t-243 122t-243 -122t-87 -337zM252 1272l268 260h101 l268 -260h-84l-236 139l-233 -139h-84z" />
<glyph unicode="&#xf5;" horiz-adv-x="1122" d="M111 532q0 258 120.5 411t329.5 153t330 -152.5t121 -419.5q0 -254 -122 -404.5t-327 -150.5q-209 0 -330.5 151.5t-121.5 411.5zM231 532q0 -215 88.5 -337.5t243.5 -122.5q152 0 240 120.5t88 331.5q0 223 -87 345t-243 122t-243 -122t-87 -337zM270 1313 q61 180 199 180q53 0 149 -51q78 -41 123 -41q82 0 129 104l54 -14q-55 -190 -191 -191q-57 0 -148 47.5t-136 47.5q-78 0 -125 -97z" />
<glyph unicode="&#xf6;" horiz-adv-x="1122" d="M111 532q0 258 120.5 411t329.5 153t330 -152.5t121 -419.5q0 -254 -122 -404.5t-327 -150.5q-209 0 -330.5 151.5t-121.5 411.5zM231 532q0 -215 88.5 -337.5t243.5 -122.5q152 0 240 120.5t88 331.5q0 223 -87 345t-243 122t-243 -122t-87 -337zM340 1315v176h109v-176 h-109zM674 1315v176h108v-176h-108z" />
<glyph unicode="&#xf7;" d="M121 735v109h1112v-109h-1112zM612 246v211h129v-211h-129zM612 1124v209h129v-209h-129z" />
<glyph unicode="&#xf8;" horiz-adv-x="1122" d="M84 25l117 137q-90 150 -90 370q0 258 120.5 411t329.5 153q193 0 311 -131l109 127l55 -48l-118 -141q94 -143 94 -375q0 -256 -122 -407.5t-327 -151.5q-190 0 -317 133l-103 -127zM231 532q0 -162 50 -274l520 616q-92 117 -240 117q-156 0 -243 -122t-87 -337z M322 190q86 -119 241 -118q154 0 241 120.5t87 335.5q0 166 -53 279z" />
<glyph unicode="&#xf9;" horiz-adv-x="1138" d="M176 422v641h115v-625q0 -209 37 -272q59 -94 204 -94q143 0 229.5 102t86.5 283v606h115v-1063h-115v152q-115 -182 -330 -183q-197 0 -287 127q-55 80 -55 326zM272 1532h172l197 -260h-74z" />
<glyph unicode="&#xfa;" horiz-adv-x="1138" d="M176 422v641h115v-625q0 -209 37 -272q59 -94 204 -94q143 0 229.5 102t86.5 283v606h115v-1063h-115v152q-115 -182 -330 -183q-197 0 -287 127q-55 80 -55 326zM522 1272l195 260h172l-295 -260h-72z" />
<glyph unicode="&#xfb;" horiz-adv-x="1138" d="M176 422v641h115v-625q0 -209 37 -272q59 -94 204 -94q143 0 229.5 102t86.5 283v606h115v-1063h-115v152q-115 -182 -330 -183q-197 0 -287 127q-55 80 -55 326zM266 1272l269 260h100l268 -260h-84l-233 139l-236 -139h-84z" />
<glyph unicode="&#xfc;" horiz-adv-x="1138" d="M176 422v641h115v-625q0 -209 37 -272q59 -94 204 -94q143 0 229.5 102t86.5 283v606h115v-1063h-115v152q-115 -182 -330 -183q-197 0 -287 127q-55 80 -55 326zM365 1315v176h108v-176h-108zM698 1315v176h109v-176h-109z" />
<glyph unicode="&#xfd;" horiz-adv-x="966" d="M8 -375q90 -68 168 -67q49 0 79 38.5t77 159.5l96 252l-379 1055h125l318 -899l344 899h120l-534 -1354q-61 -162 -106.5 -209t-135.5 -47q-86 0 -172 51v121zM453 1272l194 260h172l-295 -260h-71z" />
<glyph unicode="&#xfe;" horiz-adv-x="1159" d="M176 -514v2126h115v-725q113 209 325 209q195 0 315 -155t120 -409t-120 -408.5t-315 -154.5q-215 0 -325 207v-690h-115zM291 532q0 -238 90 -354q86 -106 223 -106q147 0 236.5 123.5t89.5 330.5q0 215 -88 340t-238 125q-135 0 -223 -106q-90 -115 -90 -353z" />
<glyph unicode="&#xff;" horiz-adv-x="966" d="M8 -375q90 -68 168 -67q49 0 79 38.5t77 159.5l96 252l-379 1055h125l318 -899l344 899h120l-534 -1354q-61 -162 -106.5 -209t-135.5 -47q-86 0 -172 51v121zM295 1315v176h108v-176h-108zM629 1315v176h108v-176h-108z" />
<glyph unicode="&#x152;" horiz-adv-x="2406" d="M125 805q0 385 214 616.5t572 231.5q111 0 314 -41h1030v-113h-944v-573h825v-115h-825v-698h1011v-113h-1097q-203 -41 -314 -41q-356 0 -571 231.5t-215 614.5zM254 805q0 -344 179 -538.5t493 -194.5q137 0 264 41v1386q-127 41 -264 41q-313 0 -492.5 -194.5 t-179.5 -540.5z" />
<glyph unicode="&#x153;" horiz-adv-x="1912" d="M111 532q0 258 121.5 411t330.5 153q268 0 389 -252q127 252 385 252q205 0 322 -150.5t129 -421.5h-776q8 -213 101 -332.5t251 -119.5q199 0 340 239l98 -51q-174 -291 -444 -291q-266 0 -402 260q-113 -260 -393 -260q-209 0 -330.5 151.5t-121.5 411.5zM231 532 q0 -215 88.5 -337.5t243.5 -122.5q152 0 240 120.5t88 333.5q0 221 -87 343t-243 122t-243 -122t-87 -337zM1018 629h643q-14 172 -99 267t-223 95q-139 0 -223 -95t-98 -267z" />
<glyph unicode="&#x178;" horiz-adv-x="1310" d="M0 1612h150l503 -815l514 815h144l-602 -930v-682h-121v682zM434 1837v193h121v-193h-121zM805 1837v193h121v-193h-121z" />
<glyph unicode="&#x2c6;" horiz-adv-x="1208" d="M285 1272l268 260h102l269 -260h-86l-234 139l-233 -139h-86z" />
<glyph unicode="&#x2dc;" horiz-adv-x="1208" d="M279 1313q59 180 196 180q53 0 152 -51q76 -41 123 -41q82 0 127 104l53 -14q-55 -190 -191 -191q-55 0 -147 47.5t-135 47.5q-80 0 -125 -97z" />
<glyph unicode="&#x2013;" d="M152 479v109h1046v-109h-1046z" />
<glyph unicode="&#x2014;" horiz-adv-x="1363" d="M0 479v109h1366v-109h-1366z" />
<glyph unicode="&#x2018;" horiz-adv-x="464" d="M162 1057v168q0 135 12 200q18 94 78 187l55 -33q-74 -113 -74 -291h74v-231h-145z" />
<glyph unicode="&#x2019;" horiz-adv-x="464" d="M162 1090q72 106 71 288h-71v234h145v-172q0 -135 -12 -201q-18 -94 -78 -182z" />
<glyph unicode="&#x201a;" horiz-adv-x="464" d="M162 0v233h145v-170q0 -135 -12 -200q-18 -94 -78 -185l-55 35q72 106 71 287h-71z" />
<glyph unicode="&#x201c;" horiz-adv-x="755" d="M162 1057v168q0 135 12 200q18 94 78 187l55 -33q-74 -113 -74 -291h74v-231h-145zM453 1057v168q0 135 12 200q18 94 76 187l55 -33q-72 -113 -72 -291h72v-231h-143z" />
<glyph unicode="&#x201d;" horiz-adv-x="755" d="M162 1090q72 106 71 288h-71v234h145v-172q0 -135 -12 -201q-18 -94 -78 -182zM453 1090q72 106 71 288h-71v234h143v-172q0 -135 -10 -201q-20 -94 -78 -182z" />
<glyph unicode="&#x201e;" horiz-adv-x="755" d="M162 0v233h145v-170q0 -135 -12 -200q-18 -94 -78 -185l-55 35q72 106 71 287h-71zM453 0v233h143v-170q0 -135 -10 -200q-20 -94 -78 -185l-55 35q72 106 71 287h-71z" />
<glyph unicode="&#x2022;" horiz-adv-x="1611" d="M473 817q0 139 99.5 237.5t242.5 98.5q133 0 230.5 -99.5t97.5 -234.5q0 -139 -97.5 -237.5t-236.5 -98.5q-137 0 -236.5 98.5t-99.5 235.5z" />
<glyph unicode="&#x2026;" horiz-adv-x="1400" d="M162 0v233h145v-233h-145zM629 0v233h145v-233h-145zM1098 0v233h145v-233h-145z" />
<glyph unicode="&#x2039;" horiz-adv-x="618" d="M113 532l284 406l84 -61l-237 -345l237 -346l-84 -61z" />
<glyph unicode="&#x203a;" horiz-adv-x="618" d="M137 186l238 346l-238 345l86 61l283 -406l-283 -407z" />
<glyph unicode="&#x20ac;" horiz-adv-x="1652" d="M121 641l45 109h127v108h-172l45 109h139q20 207 121 374q182 311 541 312q256 0 405 -168q76 -86 156 -248l-101 -68q-86 203 -191.5 287t-270.5 84q-332 0 -471 -340q-47 -111 -62 -233h762l-47 -109h-725q-2 -12 -2 -55q0 -27 2 -53h680l-45 -109h-625 q39 -276 181.5 -422.5t371.5 -146.5q172 0 275.5 80.5t177.5 275.5l94 -68q-84 -215 -213 -308t-342 -93q-283 0 -460 179t-214 503h-182z" />
<glyph unicode="&#x2122;" horiz-adv-x="1800" d="M16 1532v80h738v-80h-324v-838h-86v838h-328zM877 694v918h100l295 -766l303 766h98v-918h-88v715l-287 -715h-59l-274 713v-713h-88z" />
<glyph unicode="&#xe000;" horiz-adv-x="1065" d="M0 1065h1065v-1065h-1065v1065z" />
<glyph unicode="&#xfb01;" horiz-adv-x="1009" d="M721 0v1063h115v-1063h-115zM721 1337v193h115v-193h-115zM-29 952v105h240v299q0 139 43 192q57 72 176 72q82 0 160 -21v-112q-102 16 -144 16q-70 0 -96 -31.5t-26 -115.5v-299h254v-105h-254v-952h-113v952h-240z" />
<glyph unicode="&#xfb02;" horiz-adv-x="1009" d="M721 0v1612h115v-1612h-115zM-29 952v105h240v299q0 139 43 192q57 72 176 72q82 0 160 -21v-112q-102 16 -144 16q-70 0 -96 -31.5t-26 -115.5v-299h254v-105h-254v-952h-113v952h-240z" />
<glyph unicode="&#xfb03;" horiz-adv-x="1521" d="M-29 952v105h240v299q0 139 43 192q57 72 176 72q82 0 160 -21v-112q-102 16 -144 16q-70 0 -96 -31.5t-26 -115.5v-299h397v299q0 139 43 192q57 72 176 72q82 0 160 -21v-112q-102 16 -144 16q-70 0 -96 -31.5t-26 -115.5v-299h253v-105h-253v-952h-113v952h-397v-952 h-113v952h-240zM1233 0v1063h113v-1063h-113zM1233 1337v193h113v-193h-113z" />
<glyph unicode="&#xfb04;" horiz-adv-x="1521" d="M-29 952v105h240v299q0 139 43 192q57 72 176 72q82 0 160 -21v-112q-102 16 -144 16q-70 0 -96 -31.5t-26 -115.5v-299h397v299q0 139 43 192q57 72 176 72q82 0 160 -21v-112q-102 16 -144 16q-70 0 -96 -31.5t-26 -115.5v-299h253v-105h-253v-952h-113v952h-397v-952 h-113v952h-240zM1233 0v1612h113v-1612h-113z" />
</font>
</defs>
</svg>
