<?xml version="1.0" standalone="no"?>
<!DOCTYPE svg PUBLIC "-//W3C//DTD SVG 1.1//EN" "http://www.w3.org/Graphics/SVG/1.1/DTD/svg11.dtd" >
<svg xmlns="http://www.w3.org/2000/svg">
<metadata>
This is a custom SVG webfont generated by Font Squirrel.
Copyright   :  Copyright SoftMaker Software GmbH and its licensors
Designer    : SoftMaker Software GmbH
Foundry     : SoftMaker Software GmbH
Foundry URL : httpwwwsoftmakerde
</metadata>
<defs>
<font id="Ancona-ExHeavy" horiz-adv-x="1064" >
<font-face units-per-em="2048" ascent="1638" descent="-410" />
<missing-glyph horiz-adv-x="638" />
<glyph unicode=" "  horiz-adv-x="638" />
<glyph unicode="&#x09;" horiz-adv-x="638" />
<glyph unicode="&#xa0;" horiz-adv-x="638" />
<glyph unicode="!" horiz-adv-x="733" d="M137 1067v354h461v-354l-41 -541h-381zM180 0v373h371v-373h-371z" />
<glyph unicode="&#x22;" horiz-adv-x="1112" d="M18 1421h508l-90 -571h-327zM586 1421h510l-92 -571h-328z" />
<glyph unicode="#" horiz-adv-x="1437" d="M174 422l29 201h194l27 168h-199l31 200h195l41 295h206l-43 -295h185l41 295h204l-41 -295h220l-29 -200h-219l-23 -168h219l-28 -201h-219l-47 -324h-205l45 324h-180l-48 -324h-204l45 324h-197zM604 623h182l25 168h-182z" />
<glyph unicode="$" horiz-adv-x="1761" d="M86 387l506 16q37 -154 297 -153q121 0 191.5 38t70.5 103q0 88 -164 117l-395 65q-442 74 -442 373q0 188 172 304t475 126v215h137v-213q627 -18 680 -383l-492 -32q-27 66 -65 88q-63 35 -180 34q-233 0 -234 -106q0 -43 40 -66.5t151 -46.5l399 -78 q217 -43 314.5 -128t97.5 -232q0 -190 -157 -314t-554 -155v-217h-137v215q-348 12 -512 111.5t-199 318.5z" />
<glyph unicode="%" horiz-adv-x="1855" d="M86 1014q0 176 102 264q111 94 291 94q182 0 297 -94q100 -86 101 -270q0 -168 -102.5 -260.5t-293.5 -92.5q-182 0 -293 95q-102 88 -102 264zM141 68l1524 1392l100 -106l-1527 -1395zM324 1014q0 -207 155 -207q158 0 158 203q0 211 -156 211q-157 0 -157 -207z M979 358q0 174 102 263q111 92 293 92t295 -92q102 -86 103 -269q0 -176 -113 -266q-104 -86 -283 -86q-289 0 -368 199q-29 65 -29 159zM1219 358q0 -207 155 -206q158 0 158 202q0 209 -156 209q-157 0 -157 -205z" />
<glyph unicode="&#x26;" horiz-adv-x="1796" d="M63 385q0 219 232 326q78 37 215 75q-51 76 -64 103q-25 55 -24 115q0 156 142.5 245.5t389.5 89.5q240 0 380.5 -90t140.5 -248q0 -244 -357 -331l174 -189q68 61 88 140l361 -54q-82 -164 -236 -315l236 -252h-500l-61 63q-260 -106 -502 -106q-270 0 -442.5 121 t-172.5 307zM528 426q0 -84 68 -131t184 -47q80 0 195 35l-277 299q-96 -31 -133 -65t-37 -91zM860 1024q0 -41 78 -141q168 35 168 127q0 47 -36 76.5t-91 29.5q-119 0 -119 -92z" />
<glyph unicode="'" horiz-adv-x="561" d="M18 1421h523l-90 -571h-342z" />
<glyph unicode="(" horiz-adv-x="829" d="M86 524q0 494 451 967l229 -178q-94 -152 -129 -236q-90 -215 -90 -553q0 -342 90 -555q33 -76 129 -233l-229 -178q-451 470 -451 966z" />
<glyph unicode=")" horiz-adv-x="829" d="M63 -264q94 150 132 233q88 213 88 555q0 338 -88 553q-31 76 -132 236l234 178q449 -475 448 -967q0 -496 -448 -966z" />
<glyph unicode="*" horiz-adv-x="874" d="M86 1102l53 164l213 -70v225h172v-225l213 70l54 -164l-213 -70l131 -180l-140 -102l-133 180l-131 -180l-139 102l133 180z" />
<glyph unicode="+" d="M-4 692v209h426v438h217v-438h428v-209h-428v-438h-217v438h-426z" />
<glyph unicode="," horiz-adv-x="667" d="M94 0v373h461v-328q0 -238 -178 -344q-102 -61 -283 -70v160q180 27 180 184v25h-180z" />
<glyph unicode="-" horiz-adv-x="948" d="M0 377v352h950v-352h-950z" />
<glyph unicode="." horiz-adv-x="686" d="M113 0v373h462v-373h-462z" />
<glyph unicode="/" horiz-adv-x="1024" d="M-23 0l580 1421h401l-583 -1421h-398z" />
<glyph unicode="0" horiz-adv-x="1761" d="M76 682q0 344 192 520q225 203 613 203q391 0 614 -203q193 -176 193 -530q0 -334 -193 -510q-221 -205 -612 -205q-393 0 -615 205q-192 176 -192 520zM573 680q0 -416 310 -416q307 0 307 412q0 422 -307 422q-310 0 -310 -418z" />
<glyph unicode="1" horiz-adv-x="1761" d="M401 885v295q117 8 241 61t194 123h352v-1364h-461v946q-160 -55 -326 -61z" />
<glyph unicode="2" horiz-adv-x="1761" d="M156 0v266q125 258 530 436l186 84q127 55 165 89t38 88q0 141 -223 141q-125 0 -179.5 -51.5t-64.5 -180.5l-418 17q18 287 172 401.5t519 114.5q307 0 485 -94q84 -47 136 -135.5t52 -184.5q0 -137 -94 -237.5t-321 -198.5l-234 -100q-160 -72 -243 -136h915v-319 h-1421z" />
<glyph unicode="3" horiz-adv-x="1761" d="M45 395l455 29q45 -92 123.5 -126t242.5 -34q293 0 293 164q0 74 -66.5 105.5t-232.5 31.5h-244v264h218q158 0 222 31t64 105q0 133 -200 133q-145 0 -225.5 -27t-108.5 -96l-465 20q41 219 227.5 314.5t566.5 95.5q369 0 547 -96q174 -94 174 -287q0 -117 -71.5 -182.5 t-243.5 -110.5q127 -29 199 -61q154 -78 153 -262q0 -123 -68.5 -220.5t-187.5 -144.5q-213 -84 -588 -84t-550 98t-234 340z" />
<glyph unicode="4" horiz-adv-x="1761" d="M68 246v284l802 834h547v-813h234v-305h-234v-246h-454v246h-895zM535 551h428v442z" />
<glyph unicode="5" horiz-adv-x="1761" d="M78 377l477 18q51 -72 94 -92q78 -39 187 -39q305 0 305 201q0 86 -76 136t-213 50q-180 0 -281 -78h-417l67 791h1348l-23 -307h-954l-21 -213q195 86 439 86q291 0 459.5 -120t168.5 -329q0 -119 -65.5 -227.5t-171.5 -169.5q-221 -127 -590 -127q-379 0 -582 152 q-118 90 -151 268z" />
<glyph unicode="6" horiz-adv-x="1761" d="M94 639q0 377 216 571.5t634 194.5q381 0 561 -133q125 -92 150 -242l-520 -16q-74 84 -209 84q-324 0 -346 -361q213 168 473 168q250 0 426 -100q186 -109 186 -342q0 -244 -205 -375t-588 -131q-414 0 -604 195q-174 178 -174 487zM590 430q0 -166 287 -166 q293 0 292 164q0 170 -274 170q-305 0 -305 -168z" />
<glyph unicode="7" horiz-adv-x="1761" d="M123 1049v315h1497l-6 -135q-6 -121 -46 -200t-159 -185l-219 -199q-195 -176 -288 -326.5t-107 -318.5h-535q43 279 143.5 438.5t335.5 311.5l146 94q102 66 138 109.5t36 95.5h-936z" />
<glyph unicode="8" horiz-adv-x="1761" d="M109 383q0 170 145 258q57 35 176 72q-102 33 -160 69q-117 72 -116 213q0 186 196.5 298t532.5 112q332 0 528.5 -111.5t196.5 -298.5q0 -141 -117 -213q-57 -37 -160 -69q115 -35 176 -72q147 -88 148 -258q0 -104 -62.5 -193.5t-169.5 -138.5q-209 -94 -540 -94 q-334 0 -543 94q-106 49 -168.5 138.5t-62.5 193.5zM604 416q0 -168 279 -168q276 0 276 166q0 170 -278 170q-277 0 -277 -168zM637 975q0 -141 246 -141q242 0 241 139q0 143 -243 143q-244 0 -244 -141z" />
<glyph unicode="9" horiz-adv-x="1761" d="M94 901q0 242 205 373t588 131q414 0 604 -193q174 -180 174 -487q0 -377 -216 -572.5t-634 -195.5q-379 0 -561 135q-125 88 -150 240l521 18q72 -86 209 -86q322 0 346 363q-215 -168 -473 -168q-250 0 -426 98q-187 111 -187 344zM590 936q0 -172 274 -172 q305 0 305 170q0 164 -286 164q-293 0 -293 -162z" />
<glyph unicode=":" horiz-adv-x="686" d="M113 0v373h462v-373h-462zM113 692v373h462v-373h-462z" />
<glyph unicode=";" horiz-adv-x="667" d="M94 0v373h461v-328q0 -238 -178 -344q-102 -61 -283 -70v160q180 27 180 184v25h-180zM94 692v373h461v-373h-461z" />
<glyph unicode="&#x3c;" d="M70 530v385l923 533v-465l-430 -260l428 -264l2 -461z" />
<glyph unicode="=" d="M-4 528v203h1073v-203h-1073zM-4 864v203h1073v-203h-1073z" />
<glyph unicode="&#x3e;" d="M70 -2v463l432 264l-430 264l-2 459l923 -533v-387z" />
<glyph unicode="?" horiz-adv-x="1490" d="M49 944q2 227 133 359q156 156 570 155q295 0 465 -76q100 -45 159.5 -135t59.5 -196q0 -113 -59.5 -190t-202.5 -152l-123 -64q-100 -51 -115 -123h-434q0 115 30.5 173.5t110.5 97.5l119 57q86 41 123 68q55 41 55 102q0 156 -223 156q-170 0 -228 -103 q-27 -49 -34 -162zM502 0v373h434v-373h-434z" />
<glyph unicode="@" horiz-adv-x="1413" d="M23 698q0 297 208.5 503t509.5 206q266 0 458 -174t192 -418q0 -246 -197 -391q-131 -98 -264 -98q-98 0 -152 71q-139 -80 -217 -80q-121 0 -199.5 84t-78.5 213q0 170 128 309.5t285 139.5q125 0 207 -86l19 51h225l-164 -504q-2 -10 -9 -28.5t-7 -32.5q0 -35 39 -35 q29 0 76.5 33t82.5 76q92 117 92 266q0 197 -152.5 338t-363.5 141q-242 0 -407.5 -168t-165.5 -414t170 -417.5t414 -171.5q137 0 262 68.5t207 187.5h157q-92 -174 -265 -279.5t-370 -105.5q-299 0 -509.5 209.5t-210.5 506.5zM528 530q0 -109 76 -108q100 0 172 201 l45 133q23 61 23 102q0 37 -21.5 62.5t-52.5 25.5q-98 0 -170 -156t-72 -260z" />
<glyph unicode="A" horiz-adv-x="1771" d="M-20 0l626 1421h574l614 -1421h-549l-80 229h-559l-78 -229h-548zM723 549h334l-166 477z" />
<glyph unicode="B" horiz-adv-x="1949" d="M145 0v1421h1133q283 0 387 -71q127 -86 127 -267q0 -119 -62.5 -190.5t-203.5 -116.5q184 -37 261 -117.5t77 -238.5q0 -231 -191 -338q-141 -82 -469 -82h-1059zM659 319h529q168 0 168 125t-168 125h-529v-250zM659 883h465q90 0 126 23.5t36 86.5q0 59 -36 84 t-126 25h-465v-219z" />
<glyph unicode="C" horiz-adv-x="1929" d="M78 709q0 367 270 571q242 186 674 186q414 0 645 -166q143 -98 201 -292l-475 -74q-74 213 -359 213q-195 0 -313.5 -120t-118.5 -318q0 -199 119 -318t319 -119q266 0 377 236l467 -68q-70 -195 -190 -295q-233 -193 -670 -192q-438 0 -692 203t-254 553z" />
<glyph unicode="D" horiz-adv-x="1898" d="M145 0v1421h873q430 0 610 -174q193 -184 193 -520q0 -414 -275 -600q-190 -127 -577 -127h-824zM659 319h191q236 0 340 89q127 104 127 315q0 217 -137 311q-94 68 -281 68h-240v-783z" />
<glyph unicode="E" horiz-adv-x="1767" d="M145 0v1421h1497v-319h-983v-232h906v-319h-906v-232h1010v-319h-1524z" />
<glyph unicode="F" horiz-adv-x="1593" d="M145 0v1421h1393v-319h-879v-273h809v-319h-809v-510h-514z" />
<glyph unicode="G" horiz-adv-x="2045" d="M78 684q0 356 271.5 570t719.5 214q408 0 643 -170q104 -74 174 -217l-497 -61q-139 129 -320 129q-209 0 -338 -124t-129 -325q0 -190 124 -309t325 -119q145 0 262 70t149 178h-375v320h846v-840h-434v158q-129 -111 -266 -158t-334 -47q-365 0 -582 190 q-239 209 -239 541z" />
<glyph unicode="H" horiz-adv-x="1947" d="M145 0v1421h514v-522h629v522h516v-1421h-516v543h-629v-543h-514z" />
<glyph unicode="I" horiz-adv-x="804" d="M145 0v1421h514v-1421h-514z" />
<glyph unicode="J" horiz-adv-x="960" d="M18 0v344h113q104 0 141 32t37 118v927h514v-985q0 -248 -123 -338q-133 -98 -370 -98h-312z" />
<glyph unicode="K" horiz-adv-x="1716" d="M145 0v1421h514v-503l447 503h614l-508 -503l543 -918h-588l-305 573l-203 -202v-371h-514z" />
<glyph unicode="L" horiz-adv-x="1396" d="M145 0v1421h514v-1077h727v-344h-1241z" />
<glyph unicode="M" horiz-adv-x="2453" d="M150 0v1421h684l397 -936l403 936h670v-1421h-494v909l-395 -909h-375l-397 909v-909h-493z" />
<glyph unicode="N" horiz-adv-x="1875" d="M145 0v1421h420l674 -768v768h494v-1421h-418l-678 762v-762h-492z" />
<glyph unicode="O" horiz-adv-x="2027" d="M78 709q0 367 276 571q248 186 656 186q436 0 687 -204.5t251 -563.5q0 -356 -277 -559q-246 -186 -659 -186q-410 0 -658 186q-276 203 -276 570zM602 709q0 -201 109.5 -319t300.5 -118q190 0 300.5 116t110.5 314q0 209 -108.5 327t-302.5 118q-190 0 -300 -117.5 t-110 -320.5z" />
<glyph unicode="P" horiz-adv-x="1753" d="M145 0v1421h973q160 0 228 -8q129 -20 208 -80q154 -115 154 -362q0 -289 -227 -402q-137 -70 -469 -69h-353v-500h-514zM659 819h373q172 0 172 142q0 141 -172 141h-373v-283z" />
<glyph unicode="Q" horiz-adv-x="2027" d="M78 709q0 365 276 571q246 186 660 186q410 0 657 -186q276 -205 277 -569q0 -276 -172 -475l256 -121l-179 -346l-462 233q-180 -49 -379 -49q-430 0 -682 204t-252 552zM602 709q0 -201 109.5 -319t300.5 -118q190 0 300.5 116t110.5 314q0 209 -108.5 327t-302.5 118 q-190 0 -300 -117.5t-110 -320.5z" />
<glyph unicode="R" horiz-adv-x="1875" d="M145 0v1421h1035q311 0 428 -94q156 -123 155 -356q0 -160 -75.5 -256.5t-241.5 -149.5l354 -565h-561l-293 516h-287v-516h-514zM659 836h402q199 0 199 133q0 74 -46.5 103.5t-152.5 29.5h-402v-266z" />
<glyph unicode="S" horiz-adv-x="1691" d="M59 412l508 16q35 -164 297 -164q123 0 192.5 40t69.5 112q0 94 -165 123l-394 69q-444 80 -444 398q0 217 193.5 338.5t537.5 121.5q395 0 576 -131q127 -94 159 -276l-491 -35q-25 70 -66 92q-63 39 -180 39q-233 0 -234 -113q0 -47 38 -71.5t151 -48.5l403 -82 q217 -45 313.5 -137.5t96.5 -247.5q0 -125 -65.5 -230.5t-176.5 -161.5q-223 -111 -567 -110q-444 0 -614 170q-107 107 -138 289z" />
<glyph unicode="T" horiz-adv-x="1490" d="M-14 1102v319h1517v-319h-499v-1102h-517v1102h-501z" />
<glyph unicode="U" horiz-adv-x="1949" d="M139 578v843h514v-827q0 -168 77 -244t245 -76q172 0 247.5 76t75.5 244v827h517v-843q0 -203 -62.5 -325t-204.5 -194q-203 -104 -573 -104q-403 0 -610 129q-119 74 -172.5 190t-53.5 304z" />
<glyph unicode="V" horiz-adv-x="1703" d="M-29 1421h541l348 -860l344 860h531l-648 -1421h-464z" />
<glyph unicode="W" horiz-adv-x="2504" d="M-29 1421h551l213 -835l277 835h495l269 -835l219 835h540l-464 -1421h-506l-316 909l-313 -909h-508z" />
<glyph unicode="X" horiz-adv-x="1802" d="M-41 0l623 768l-533 653h625l225 -395l221 395h629l-526 -653l624 -768h-624l-324 494l-317 -494h-623z" />
<glyph unicode="Y" horiz-adv-x="1744" d="M-29 1421h600l306 -538l303 538h596l-641 -985v-436h-514v436z" />
<glyph unicode="Z" horiz-adv-x="1724" d="M61 0v301l930 801h-856v319h1540v-307l-897 -770h897v-344h-1614z" />
<glyph unicode="[" horiz-adv-x="886" d="M143 -348v1769h633v-286h-229v-1194h229v-289h-633z" />
<glyph unicode="\" horiz-adv-x="1024" d="M66 1421h399l584 -1421h-402z" />
<glyph unicode="]" horiz-adv-x="886" d="M113 -61h227v1194h-227v288h632v-1769h-632v287z" />
<glyph unicode="^" d="M0 698l276 734h515l276 -734h-403l-129 422l-132 -422h-403z" />
<glyph unicode="_" d="M0 -90h1065v-268h-1065v268z" />
<glyph unicode="`" d="M168 1495h518l199 -303h-340z" />
<glyph unicode="a" horiz-adv-x="1660" d="M72 313q0 219 239 297q145 47 469 60l285 8v12q0 76 -49 107.5t-189 31.5q-119 0 -175 -22.5t-79 -77.5h-454q29 188 145 268q158 106 570 107q377 0 534 -86q88 -49 124 -123t36 -211l-2 -561q-2 -70 57 -123h-487q-20 51 -31 102q-166 -82 -278.5 -111.5t-258.5 -29.5 q-209 0 -332.5 95t-123.5 257zM561 360q0 -104 172 -104q137 0 246 70q49 33 66.5 64.5t19.5 92.5l-201 -2q-143 -2 -229 -32q-74 -28 -74 -89z" />
<glyph unicode="b" horiz-adv-x="1658" d="M121 0v1421h471v-469q190 141 418 142q270 0 425.5 -150.5t155.5 -411.5q0 -258 -156.5 -409.5t-424.5 -151.5q-227 0 -418 142v-113h-471zM588 537q0 -115 73.5 -188t190.5 -73q111 0 181.5 72t70.5 182q0 119 -69.5 188.5t-188.5 69.5q-117 0 -187.5 -68t-70.5 -183z " />
<glyph unicode="c" horiz-adv-x="1689" d="M68 524q0 266 223 423t602 157q330 0 526 -141q117 -82 178 -240l-458 -53q-84 150 -267 149q-135 0 -219 -78.5t-84 -208.5q0 -131 84 -208.5t228 -77.5q201 0 288 166l461 -9q-143 -442 -776 -442q-385 0 -596 164q-190 147 -190 399z" />
<glyph unicode="d" horiz-adv-x="1658" d="M68 532q0 260 155.5 411t425.5 151q227 0 418 -142v469h471v-1421h-471v113q-190 -141 -418 -142q-268 0 -424.5 151.5t-156.5 409.5zM555 537q0 -117 69.5 -189t182.5 -72q117 0 190.5 73t73.5 188t-70.5 183t-187.5 68t-187.5 -69t-70.5 -182z" />
<glyph unicode="e" horiz-adv-x="1695" d="M68 535q0 270 204.5 419.5t575.5 149.5q367 0 569 -152q96 -72 154.5 -193.5t58.5 -254.5v-37h-1063q31 -231 299 -231q154 0 242 100l496 -21q-78 -147 -211 -223q-227 -131 -570 -131q-348 0 -551.5 155t-203.5 419zM580 651h553q-78 178 -277 178q-229 0 -276 -178z " />
<glyph unicode="f" horiz-adv-x="856" d="M33 729v283h160v102q0 164 64.5 235.5t238.5 71.5h340v-266h-70q-102 0 -121 -33q-10 -16 -10 -57v-53h201v-283h-174v-729h-469v729h-160z" />
<glyph unicode="g" horiz-adv-x="1630" d="M68 571q0 215 139 357q160 166 446 166q213 0 389 -115v86h469v-981q0 -266 -231 -389q-197 -102 -483 -103q-477 0 -643 248q-47 70 -56 180h475q18 -162 228 -161q117 0 179 47t62 178v109q-184 -104 -385 -105q-248 0 -418.5 120.5t-170.5 362.5zM555 590 q0 -88 68.5 -144.5t177.5 -56.5q106 0 174.5 56.5t68.5 142.5q0 92 -67.5 147.5t-177.5 55.5q-106 0 -175 -55.5t-69 -145.5z" />
<glyph unicode="h" horiz-adv-x="1667" d="M121 0v1421h471v-487q203 170 436 170t387 -123q133 -106 133 -319v-662h-471v539q0 250 -237 249q-248 0 -248 -290v-498h-471z" />
<glyph unicode="i" horiz-adv-x="710" d="M121 0v1065h471v-1065h-471zM121 1171v250h471v-250h-471z" />
<glyph unicode="j" horiz-adv-x="665" d="M-76 -86h56q66 0 83 45q10 25 11 104v1002h471v-1020q0 -233 -94 -319q-98 -94 -377 -95h-150v283zM74 1171v250h471v-250h-471z" />
<glyph unicode="k" horiz-adv-x="1521" d="M121 0v1421h471v-692l366 336h588l-444 -391l461 -674h-514l-263 393l-194 -168v-225h-471z" />
<glyph unicode="l" horiz-adv-x="710" d="M121 0v1421h471v-1421h-471z" />
<glyph unicode="m" horiz-adv-x="2426" d="M121 0v1065h448v-121q201 150 418 150q242 0 422 -174q211 174 446 174q236 0 363 -127q90 -92 90 -291v-676h-455v537q0 133 -34 176q-49 66 -158 65q-125 0 -180 -78q-37 -51 -37 -163v-537h-457v537q0 133 -35 176q-49 66 -157 65q-123 0 -179 -78q-37 -51 -36 -163 v-537h-459z" />
<glyph unicode="n" horiz-adv-x="1667" d="M121 0v1065h471v-131q201 160 436 160q236 0 387 -119q133 -104 133 -313v-662h-471v528q0 250 -237 250q-248 0 -248 -291v-487h-471z" />
<glyph unicode="o" horiz-adv-x="1722" d="M68 532q0 291 241 437q223 135 551 135q332 0 557 -135q240 -145 240 -445q0 -258 -215 -410.5t-580 -152.5q-369 0 -581.5 153.5t-212.5 417.5zM555 532q0 -127 84 -202.5t223 -75.5t223 76t84 198q0 131 -81.5 207t-225.5 76q-139 0 -223 -76t-84 -203z" />
<glyph unicode="p" horiz-adv-x="1658" d="M121 -369v1434h471v-113q190 141 418 142q268 0 424.5 -151.5t156.5 -410.5q0 -260 -155.5 -410.5t-425.5 -150.5q-227 0 -418 142v-482h-471zM588 528q0 -115 70.5 -183.5t187.5 -68.5t187.5 70t70.5 182q0 115 -70.5 187.5t-181.5 72.5q-117 0 -190.5 -72.5 t-73.5 -187.5z" />
<glyph unicode="q" horiz-adv-x="1658" d="M68 532q0 258 156.5 410t424.5 152q227 0 418 -142v113h471v-1434h-471v482q-190 -141 -418 -142q-270 0 -425.5 150.5t-155.5 410.5zM555 535q0 -119 69.5 -189t188.5 -70q117 0 187.5 69t70.5 183q0 115 -73.5 187.5t-190.5 72.5q-111 0 -181.5 -71t-70.5 -182z" />
<glyph unicode="r" horiz-adv-x="974" d="M121 0v1065h471v-166q76 98 159 140t207 55v-422q-86 6 -124 6q-242 0 -242 -195v-483h-471z" />
<glyph unicode="s" horiz-adv-x="1476" d="M41 315l475 27q25 -125 234 -125q197 0 196 96q0 57 -141 78l-234 37q-272 43 -378.5 111.5t-106.5 205.5q0 358 662 359q578 0 669 -346l-467 -31q-23 66 -59 86q-59 35 -164 35q-180 0 -180 -88q0 -63 178 -84l289 -37q207 -25 301 -82q106 -63 106 -197 q0 -180 -187 -289.5t-495 -109.5q-430 0 -594 139q-86 70 -104 215z" />
<glyph unicode="t" horiz-adv-x="868" d="M14 729v283h160l16 372h449v-372h164v-283h-164v-295q0 -76 21.5 -103.5t80.5 -27.5h62v-303h-320q-184 0 -256.5 54.5t-72.5 193.5v24l14 457h-154z" />
<glyph unicode="u" horiz-adv-x="1667" d="M121 403v662h471v-528q0 -250 239 -250q246 0 246 291v487h471v-1065h-454v131q-213 -160 -451 -160q-236 0 -387 119q-135 104 -135 313z" />
<glyph unicode="v" horiz-adv-x="1470" d="M-14 1065h516l239 -619l230 619h516l-498 -1065h-502z" />
<glyph unicode="w" horiz-adv-x="2275" d="M-14 1065h499l177 -586l237 586h485l224 -586l198 586h486l-445 -1065h-465l-243 662l-271 -662h-460z" />
<glyph unicode="x" horiz-adv-x="1646" d="M-29 0l566 553l-523 512h586l229 -287l228 287h579l-522 -512l565 -553h-583l-275 332l-274 -332h-576z" />
<glyph unicode="y" horiz-adv-x="1400" d="M-14 1065h512l204 -584l199 584h516l-409 -911q-94 -211 -137.5 -287t-96.5 -127q-117 -109 -368 -109h-263v301h187q129 0 129 68q0 16 -25 68z" />
<glyph unicode="z" horiz-adv-x="1470" d="M63 0v301l697 473h-651v291h1298v-299l-707 -471h707v-295h-1344z" />
<glyph unicode="{" d="M121 332v377q68 16 92.5 47.5t24.5 109.5v260q0 188 96 256q57 41 151 52q37 4 162 4q23 0 71 -3t118 -3h75v-435q-25 2 -55 2q-111 0 -134.5 -21.5t-23.5 -119.5v-76q0 -137 -45 -198q-23 -33 -82 -74q74 -49 100.5 -107.5t26.5 -166.5v-101q0 -98 25 -118.5t139 -20.5 h49v-410l-75 -2l-72 -4q-33 -2 -119 -2q-127 0 -170 6q-98 10 -156 60q-82 68 -81 243v265q0 157 -117 180z" />
<glyph unicode="|" d="M299 -356v1777h467v-1777h-467z" />
<glyph unicode="}" d="M154 18h55q111 0 134.5 21.5t23.5 120.5v73q0 137 45 201q20 31 82 76q-74 47 -100.5 105.5t-26.5 166.5v103q0 96 -25 116.5t-139 20.5h-49v408q31 0 75 2l72 4q35 2 121 2q127 0 170 -6q98 -12 153 -60q82 -70 82 -244v-262q0 -160 117 -180v-377q-68 -14 -92.5 -51 t-24.5 -106v-261q0 -188 -96 -256q-57 -41 -151 -51q-37 -4 -162 -4q-68 0 -189 4q-12 2 -75 2v432z" />
<glyph unicode="~" horiz-adv-x="1419" d="M195 1307q68 180 148.5 259t195.5 79q55 0 303 -86q43 -14 61 -15q39 0 68 37q12 12 43 70l219 -185q-70 -180 -148 -258q-82 -88 -194 -88q-51 0 -313 92q-31 10 -58 11q-53 0 -106 -105z" />
<glyph unicode="&#xa1;" horiz-adv-x="733" d="M137 -2l39 541h381l41 -541v-354h-461v354zM180 692v373h371v-373h-371z" />
<glyph unicode="&#xa2;" horiz-adv-x="1761" d="M106 686q0 168 95.5 298t269.5 202q139 57 348 78v256h137v-254q260 -2 440.5 -102.5t239.5 -278.5l-458 -54q-84 150 -267 150q-135 0 -220 -79t-85 -208q0 -131 85 -208.5t227 -77.5q203 0 290 165l461 -8q-127 -412 -713 -440v-313h-137v313q-242 10 -409 92 q-304 150 -304 469z" />
<glyph unicode="&#xa3;" horiz-adv-x="1761" d="M41 203q0 119 78 188.5t209 69.5q115 0 299 -76q-6 113 -90 209h-361v154h230q-131 154 -132 284q0 197 175 289q166 84 487 84q238 0 373 -52.5t202 -168.5q63 -106 70 -277l-438 -24q0 137 -40 186t-151 49q-178 0 -178 -139q0 -53 60 -160l38 -71h316v-154h-230 q39 -63 39 -139q0 -80 -61 -181q84 -37 143 -36q139 0 154 172h399q-12 -213 -51 -289q-92 -166 -334 -166q-219 0 -493 133q-184 -131 -402 -131q-145 0 -228 66.5t-83 179.5zM262 203q0 -72 107 -72q63 0 161 64q-2 2 -10 6q-92 55 -184 55q-74 0 -74 -53z" />
<glyph unicode="&#xa4;" horiz-adv-x="2248" d="M76 586l172 321h145q39 160 150 285q242 274 772 274q412 0 643 -166q147 -104 203 -292l-475 -74q-76 213 -361 213q-137 0 -241.5 -63.5t-153.5 -176.5h606l-170 -321h-459q33 -147 144.5 -230.5t277.5 -83.5q266 0 377 236l469 -68q-66 -195 -190 -295 q-231 -193 -670 -192q-397 0 -645 168t-291 465h-303z" />
<glyph unicode="&#xa5;" horiz-adv-x="1761" d="M14 1364h555l316 -533l309 533h553l-238 -352h179v-154h-281l-188 -287h213v-153h-316v-418h-463v418h-317v153h213l-193 287h-274v154h172z" />
<glyph unicode="&#xa6;" d="M299 326h467v-682h-467v682zM299 635v786h467v-786h-467z" />
<glyph unicode="&#xa7;" horiz-adv-x="1527" d="M86 535q0 182 209 288q-51 49 -80 84q-59 72 -59 178q0 168 139 263q162 111 469 110q406 0 561 -155q63 -63 100 -201l-438 -31q-43 125 -199 125q-164 0 -163 -102q0 -45 55 -78q45 -25 231 -72q279 -72 398 -135q135 -74 135 -223q0 -184 -238 -303q180 -115 180 -277 q0 -174 -175 -276.5t-472 -102.5q-365 0 -528 152q-98 92 -119 252l438 30q39 -166 222 -165q168 0 168 106q0 43 -50 74q-33 23 -288 92q-264 74 -365 133q-131 78 -131 234zM487 598q0 -100 148 -147q41 -12 231 -60q61 -14 58 -14l24 -8q78 47 78 133t-104 135 q-53 25 -191 57q-88 20 -160 47q-84 -57 -84 -143z" />
<glyph unicode="&#xa8;" d="M-18 1212v283h407v-283h-407zM676 1212v283h407v-283h-407z" />
<glyph unicode="&#xa9;" horiz-adv-x="1611" d="M66 709q0 313 218 529t533 216q299 0 513 -220t214 -525t-216 -524.5t-521 -219.5t-523 219.5t-218 524.5zM270 709q0 -227 158 -390t379 -163q219 0 375.5 162.5t156.5 390.5q0 229 -155.5 393t-370.5 164q-227 0 -385 -160.5t-158 -396.5zM406 721q0 184 113.5 302 t291.5 118q150 0 253 -89t110 -225h-201q-23 84 -158 84q-141 0 -141 -194q0 -193 141 -193q137 0 160 107h205q-12 -158 -111.5 -247t-263.5 -89q-180 0 -289.5 116.5t-109.5 309.5z" />
<glyph unicode="&#xaa;" horiz-adv-x="737" d="M23 629v186h688v-186h-688zM41 1063q0 92 86 141q39 20 131 35q127 23 127 41q0 16 -25 16q-6 0 -18 -2h-23q-16 0 -22 -18h-238q6 96 71 138t202 42q162 0 229.5 -45t67.5 -154v-225q0 -45 10 -61.5t61 -48.5h-288q-6 16 -17 24q0 2 -4 6q-70 -45 -145 -45 q-92 0 -148.5 43t-56.5 113zM260 1077q0 -25 41 -24q66 0 84 73l4 17l-74 -25q-55 -21 -55 -41z" />
<glyph unicode="&#xab;" horiz-adv-x="1095" d="M86 326v456l412 265v-363l-189 -131l189 -131v-361zM571 326v456l412 265v-363l-188 -131l188 -131v-361z" />
<glyph unicode="&#xac;" d="M70 238v407h923v-645h-454v238h-469z" />
<glyph unicode="&#xad;" horiz-adv-x="948" d="M0 377v352h950v-352h-950z" />
<glyph unicode="&#xae;" horiz-adv-x="1611" d="M66 709q0 313 218 529t533 216q299 0 513 -220t214 -525t-216 -524.5t-521 -219.5t-523 219.5t-218 524.5zM270 709q0 -227 158 -390t379 -163q219 0 375.5 162.5t156.5 390.5q0 229 -155.5 393t-370.5 164q-227 0 -385 -160.5t-158 -396.5zM496 324v804h344 q123 0 186 -34q115 -66 115 -195q0 -139 -123 -197q59 -25 82.5 -80t27.5 -184q2 -33 21 -114h-252q-14 37 -20 114q-6 115 -36 154t-77 39h-2v-307h-266zM762 778h29q86 0 86 96t-80 97h-35v-193z" />
<glyph unicode="&#xaf;" d="M0 1645v268h1065v-268h-1065z" />
<glyph unicode="&#xb0;" d="M168 1079q0 154 107.5 261.5t259.5 107.5q154 0 259 -107.5t105 -263.5q0 -150 -107.5 -256t-256.5 -106q-152 0 -259.5 106t-107.5 258zM340 1081q0 -80 57.5 -139t134.5 -59q76 0 135.5 58t59.5 134q0 86 -58.5 146.5t-138.5 60.5q-74 0 -132 -60.5t-58 -140.5z" />
<glyph unicode="&#xb1;" d="M-4 -16v209h1073v-209h-1073zM-4 690v209h426v436h217v-436h430v-209h-430v-418h-217v418h-426z" />
<glyph unicode="&#xb2;" horiz-adv-x="1196" d="M119 569v160q82 152 350 262l123 51q80 31 86 35q51 31 51 72q0 82 -149 82q-84 0 -120 -31t-40 -106l-277 8q10 172 111.5 241.5t341.5 69.5q449 0 448 -250q0 -82 -63 -141t-213 -119l-154 -61q-113 -45 -159 -82h602v-191h-938z" />
<glyph unicode="&#xb3;" horiz-adv-x="1196" d="M47 807l301 14q29 -53 81 -72.5t161 -19.5q193 0 192 98q0 80 -196 80h-162v158h145q186 0 187 84q0 78 -131 78q-188 0 -219 -74l-308 12q27 131 150 189.5t375 58.5q244 0 359.5 -57.5t115.5 -173.5q0 -70 -47 -110t-160 -66q231 -43 231 -193q0 -270 -555 -270 q-248 0 -364.5 59.5t-155.5 204.5z" />
<glyph unicode="&#xb4;" d="M180 1192l199 303h518l-377 -303h-340z" />
<glyph unicode="&#xb5;" d="M25 -369v1391h393v-494q0 -94 6 -125q18 -92 119 -92q59 0 86 45q25 37 22 72q-4 53 -4 98v496h393v-1022h-393v94q-39 -109 -112 -108q-72 0 -117 100v-455h-393z" />
<glyph unicode="&#x3bc;" d="M25 -369v1391h393v-494q0 -94 6 -125q18 -92 119 -92q59 0 86 45q25 37 22 72q-4 53 -4 98v496h393v-1022h-393v94q-39 -109 -112 -108q-72 0 -117 100v-455h-393z" />
<glyph unicode="&#xb6;" horiz-adv-x="1452" d="M160 1051q0 223 174 315q104 55 321 55h584v-164h-98v-1499h-213v1499h-152v-1499h-213v934q-12 -2 -28 -2q-143 0 -254 84q-121 91 -121 277z" />
<glyph unicode="&#xb7;" horiz-adv-x="686" d="M113 369v372h462v-372h-462z" />
<glyph unicode="&#xb8;" d="M252 -573l45 122q37 -6 43 -8q74 -8 78 -8q137 0 137 76q0 66 -86 65q-14 0 -53 -12l-88 27l184 311h135l-98 -160q123 -6 180 -45q84 -57 84 -157q0 -109 -99.5 -169.5t-279.5 -60.5q-86 1 -182 19z" />
<glyph unicode="&#xb9;" horiz-adv-x="1196" d="M283 1100v178q184 10 288 108h232v-817h-305v566q-109 -31 -215 -35z" />
<glyph unicode="&#xba;" horiz-adv-x="737" d="M25 629v186h688v-186h-688zM57 1184q0 123 88 197.5t230 74.5q133 0 219 -79t86 -199q0 -117 -89 -196t-220 -79q-135 0 -224.5 81t-89.5 200zM311 1174q0 -100 54 -101q61 0 61 107q0 106 -55 106q-60 1 -60 -112z" />
<glyph unicode="&#xbb;" horiz-adv-x="1095" d="M113 61v363l190 129l-190 133v361l413 -265v-456zM598 61v363l190 129l-190 133v361l414 -265v-456z" />
<glyph unicode="&#xbc;" horiz-adv-x="2697" d="M283 1100v178q184 10 288 108h232v-817h-305v566q-109 -31 -215 -35zM743 -121l1115 1741l122 -78l-1114 -1743zM1565 147v172l530 498h361v-485h153v-185h-153v-147h-302v147h-589zM1874 332h280v264z" />
<glyph unicode="&#xbd;" horiz-adv-x="2697" d="M283 1100v178q184 10 288 108h232v-817h-305v566q-109 -31 -215 -35zM743 -121l1115 1741l122 -78l-1114 -1743zM1622 0v160q82 152 350 262l123 51q82 35 86 37q51 29 51 70q0 82 -149 82q-82 0 -119 -31t-41 -107l-276 8q10 172 111.5 242t340.5 70q449 0 449 -250 q0 -80 -63.5 -140.5t-211.5 -119.5l-155 -62q-111 -45 -160 -79h602v-193h-938z" />
<glyph unicode="&#xbe;" horiz-adv-x="2697" d="M47 807l301 14q29 -53 81 -72.5t161 -19.5q193 0 192 98q0 80 -196 80h-162v158h145q186 0 187 84q0 78 -131 78q-188 0 -219 -74l-308 12q27 131 150 189.5t375 58.5q244 0 359.5 -57.5t115.5 -173.5q0 -70 -47 -110t-160 -66q231 -43 231 -193q0 -270 -555 -270 q-248 0 -364.5 59.5t-155.5 204.5zM741 -121l1114 1741l123 -78l-1114 -1743zM1563 147v172l530 498h361v-485h153v-185h-153v-147h-302v147h-589zM1872 332h280v264z" />
<glyph unicode="&#xbf;" horiz-adv-x="1490" d="M57 14q0 113 59.5 191t200.5 151l125 64q98 49 113 123h436q-2 -117 -32.5 -174.5t-108.5 -96.5l-121 -57q-47 -20 -123 -65q-53 -43 -53 -105q0 -156 223 -156q168 0 225 103q27 47 39 162l402 -31q-2 -231 -133 -361q-158 -156 -568 -155q-295 0 -465 76 q-100 45 -159.5 135t-59.5 196zM555 692v373h434v-373h-434z" />
<glyph unicode="&#xc0;" horiz-adv-x="1771" d="M-20 0l626 1421h574l614 -1421h-549l-80 229h-559l-78 -229h-548zM352 1794h516l199 -303h-338zM723 549h334l-166 477z" />
<glyph unicode="&#xc1;" horiz-adv-x="1771" d="M-20 0l626 1421h574l614 -1421h-549l-80 229h-559l-78 -229h-548zM723 549h334l-166 477zM748 1491l198 303h516l-377 -303h-337z" />
<glyph unicode="&#xc2;" horiz-adv-x="1771" d="M-20 0l626 1421h574l614 -1421h-549l-80 229h-559l-78 -229h-548zM377 1509l213 285h635l213 -285h-383l-148 203l-149 -203h-381zM723 549h334l-166 477z" />
<glyph unicode="&#xc3;" horiz-adv-x="1771" d="M-20 0l626 1421h574l614 -1421h-549l-80 229h-559l-78 -229h-548zM369 1499q8 147 55 209q80 106 258 107q76 0 224.5 -35t221.5 -35q74 0 82 59h281q-4 -317 -313 -317q-74 0 -267 39q-137 27 -178 26q-74 0 -74 -53h-290zM723 549h334l-166 477z" />
<glyph unicode="&#xc4;" horiz-adv-x="1771" d="M-20 0l626 1421h574l614 -1421h-549l-80 229h-559l-78 -229h-548zM350 1509v285h408v-285h-408zM723 549h334l-166 477zM1044 1509v285h408v-285h-408z" />
<glyph unicode="&#xc5;" horiz-adv-x="1771" d="M-20 0l626 1421h574l614 -1421h-549l-80 229h-559l-78 -229h-548zM594 1712q0 98 83 158.5t222 60.5q141 0 224 -60.5t83 -162.5q0 -98 -85 -157.5t-222 -59.5q-139 0 -222 60.5t-83 160.5zM723 549h334l-166 477zM754 1712q0 -98 147 -98q145 0 146 98q0 96 -146 96 q-147 0 -147 -96z" />
<glyph unicode="&#xc6;" horiz-adv-x="2383" d="M-43 0l831 1421h1446v-319h-661v-232h547v-319h-547v-232h715v-319h-1213v231h-487l-129 -231h-502zM764 551h311v551z" />
<glyph unicode="&#xc7;" horiz-adv-x="1929" d="M78 709q0 367 270 571q242 186 674 186q414 0 645 -166q143 -98 201 -292l-475 -74q-74 213 -359 213q-195 0 -313.5 -120t-118.5 -318q0 -199 119 -318t319 -119q266 0 377 236l467 -68q-147 -469 -835 -487l-72 -113q123 -6 180 -45q84 -57 84 -157 q0 -109 -99.5 -169.5t-279.5 -60.5q-86 0 -182 19l43 122q39 -6 45 -8q74 -8 78 -8q137 0 137 76q0 66 -86 65q-12 0 -55 -12l-86 27l157 268q-252 18 -430 104q-405 197 -405 648z" />
<glyph unicode="&#xc8;" horiz-adv-x="1767" d="M145 0v1421h1497v-319h-983v-232h906v-319h-906v-232h1010v-319h-1524zM371 1794h518l196 -303h-337z" />
<glyph unicode="&#xc9;" horiz-adv-x="1767" d="M145 0v1421h1497v-319h-983v-232h906v-319h-906v-232h1010v-319h-1524zM711 1491l198 303h518l-376 -303h-340z" />
<glyph unicode="&#xca;" horiz-adv-x="1767" d="M145 0v1421h1497v-319h-983v-232h906v-319h-906v-232h1010v-319h-1524zM375 1509l213 285h635l213 -285h-383l-148 203l-149 -203h-381z" />
<glyph unicode="&#xcb;" horiz-adv-x="1767" d="M145 0v1421h1497v-319h-983v-232h906v-319h-906v-232h1010v-319h-1524zM338 1509v285h410v-285h-410zM1032 1509v285h410v-285h-410z" />
<glyph unicode="&#xcc;" horiz-adv-x="804" d="M-131 1794h516l199 -303h-338zM145 0v1421h514v-1421h-514z" />
<glyph unicode="&#xcd;" horiz-adv-x="804" d="M145 0v1421h514v-1421h-514zM244 1491l196 303h518l-376 -303h-338z" />
<glyph unicode="&#xce;" horiz-adv-x="804" d="M-113 1509l213 285h635l213 -285h-383l-147 203l-150 -203h-381zM145 0v1421h514v-1421h-514z" />
<glyph unicode="&#xcf;" horiz-adv-x="804" d="M-88 1509v285h369v-285h-369zM145 0v1421h514v-1421h-514zM537 1509v285h368v-285h-368z" />
<glyph unicode="&#xd0;" horiz-adv-x="1898" d="M14 551v319h131v551h873q430 0 610 -174q193 -184 193 -522q0 -412 -275 -598q-190 -127 -577 -127h-824v551h-131zM659 319h191q233 0 340 89q127 102 127 315q0 254 -187 338q-88 41 -231 41h-240v-232h318v-319h-318v-232z" />
<glyph unicode="&#xd1;" horiz-adv-x="1875" d="M145 0v1421h420l674 -768v768h494v-1421h-418l-678 762v-762h-492zM440 1499q8 147 56 209q82 106 258 107q78 0 225 -35t223 -35q72 0 80 59h281q-4 -317 -314 -317q-74 0 -266 39q-137 27 -178 26q-72 0 -72 -53h-293z" />
<glyph unicode="&#xd2;" horiz-adv-x="2027" d="M78 709q0 367 276 571q248 186 656 186q436 0 687 -204.5t251 -563.5q0 -356 -277 -559q-246 -186 -659 -186q-410 0 -658 186q-276 203 -276 570zM477 1794h518l197 -303h-338zM602 709q0 -201 109.5 -319t300.5 -118q190 0 300.5 116t110.5 314q0 209 -108.5 327 t-302.5 118q-190 0 -300 -117.5t-110 -320.5z" />
<glyph unicode="&#xd3;" horiz-adv-x="2027" d="M78 709q0 367 276 571q248 186 656 186q436 0 687 -204.5t251 -563.5q0 -356 -277 -559q-246 -186 -659 -186q-410 0 -658 186q-276 203 -276 570zM602 709q0 -201 109.5 -319t300.5 -118q190 0 300.5 116t110.5 314q0 209 -108.5 327t-302.5 118q-190 0 -300 -117.5 t-110 -320.5zM834 1491l196 303h518l-377 -303h-337z" />
<glyph unicode="&#xd4;" horiz-adv-x="2027" d="M78 709q0 367 276 571q248 186 656 186q436 0 687 -204.5t251 -563.5q0 -356 -277 -559q-246 -186 -659 -186q-410 0 -658 186q-276 203 -276 570zM496 1509l213 285h634l213 -285h-382l-148 203l-149 -203h-381zM602 709q0 -201 109.5 -319t300.5 -118q190 0 300.5 116 t110.5 314q0 209 -108.5 327t-302.5 118q-190 0 -300 -117.5t-110 -320.5z" />
<glyph unicode="&#xd5;" horiz-adv-x="2027" d="M78 709q0 367 276 571q248 186 656 186q436 0 687 -204.5t251 -563.5q0 -356 -277 -559q-246 -186 -659 -186q-410 0 -658 186q-276 203 -276 570zM510 1499q8 147 55 209q80 106 256 107q78 0 225.5 -35t223.5 -35q72 0 80 59h282q-4 -317 -313 -317q-76 0 -266 39 q-139 27 -181 26q-72 0 -71 -53h-291zM602 709q0 -201 109.5 -319t300.5 -118q190 0 300.5 116t110.5 314q0 209 -108.5 327t-302.5 118q-190 0 -300 -117.5t-110 -320.5z" />
<glyph unicode="&#xd6;" horiz-adv-x="2027" d="M78 709q0 367 276 571q248 186 656 186q436 0 687 -204.5t251 -563.5q0 -356 -277 -559q-246 -186 -659 -186q-410 0 -658 186q-276 203 -276 570zM469 1509v285h408v-285h-408zM602 709q0 -201 109.5 -319t300.5 -118q190 0 300.5 116t110.5 314q0 209 -108.5 327 t-302.5 118q-190 0 -300 -117.5t-110 -320.5zM1163 1509v285h410v-285h-410z" />
<glyph unicode="&#xd7;" d="M78 498l307 303l-299 299l147 145l297 -299l304 307l155 -153l-307 -303l301 -301l-145 -148l-301 303l-306 -309z" />
<glyph unicode="&#xd8;" horiz-adv-x="2027" d="M57 -20l248 210q-217 211 -217 519q0 367 274 571q248 186 658 186q379 0 614 -153l219 184l89 -104l-197 -168q211 -205 211 -516q0 -346 -252 -551t-680 -205q-373 0 -606 149l-271 -227zM610 709q0 -123 45 -224l658 555q-109 106 -293 107q-188 0 -299 -117.5 t-111 -320.5zM737 373q113 -100 285 -101q193 0 301.5 118t108.5 321q0 123 -41 215z" />
<glyph unicode="&#xd9;" horiz-adv-x="1949" d="M139 578v843h514v-827q0 -168 77 -244t245 -76q172 0 247.5 76t75.5 244v827h517v-843q0 -203 -62.5 -325t-204.5 -194q-203 -104 -573 -104q-403 0 -610 129q-119 74 -172.5 190t-53.5 304zM449 1794h518l198 -303h-338z" />
<glyph unicode="&#xda;" horiz-adv-x="1949" d="M139 578v843h514v-827q0 -168 77 -244t245 -76q172 0 247.5 76t75.5 244v827h517v-843q0 -203 -62.5 -325t-204.5 -194q-203 -104 -573 -104q-403 0 -610 129q-119 74 -172.5 190t-53.5 304zM840 1491l196 303h518l-376 -303h-338z" />
<glyph unicode="&#xdb;" horiz-adv-x="1949" d="M139 578v843h514v-827q0 -168 77 -244t245 -76q172 0 247.5 76t75.5 244v827h517v-843q0 -203 -62.5 -325t-204.5 -194q-203 -104 -573 -104q-403 0 -610 129q-119 74 -172.5 190t-53.5 304zM461 1509l213 285h635l213 -285h-385l-146 203l-149 -203h-381z" />
<glyph unicode="&#xdc;" horiz-adv-x="1949" d="M139 578v843h514v-827q0 -168 77 -244t245 -76q172 0 247.5 76t75.5 244v827h517v-843q0 -203 -62.5 -325t-204.5 -194q-203 -104 -573 -104q-403 0 -610 129q-119 74 -172.5 190t-53.5 304zM438 1509v285h410v-285h-410zM1133 1509v285h409v-285h-409z" />
<glyph unicode="&#xdd;" horiz-adv-x="1744" d="M-29 1421h600l306 -538l303 538h596l-641 -985v-436h-514v436zM737 1491l199 303h516l-377 -303h-338z" />
<glyph unicode="&#xde;" horiz-adv-x="1753" d="M145 0v1421h514v-213h459q160 0 228 -8q129 -20 208 -80q154 -115 154 -362q0 -289 -227 -402q-137 -70 -469 -69h-353v-287h-514zM659 606h373q172 0 172 142q0 141 -172 141h-373v-283z" />
<glyph unicode="&#xdf;" horiz-adv-x="1601" d="M121 0v997q0 250 145.5 350.5t509.5 100.5q319 0 449 -66q166 -86 166 -282q0 -106 -52.5 -169t-175.5 -104q150 -20 223 -71q147 -100 148 -322q0 -213 -132 -344t-345 -131q-156 0 -314 57v248l17 -4q8 -2 10 -2l51 -16q20 -8 47 -9q92 0 140.5 50.5t48.5 185.5 q0 111 -51.5 159t-169.5 48q-6 0 -93 -4v223q18 -2 45 -2q158 0 158 141q0 143 -168 144q-133 0 -170 -84q-16 -39 -16 -144v-950h-471z" />
<glyph unicode="&#xe0;" horiz-adv-x="1660" d="M72 313q0 219 239 297q145 47 469 60l285 8v12q0 76 -49 107.5t-189 31.5q-119 0 -175 -22.5t-79 -77.5h-454q29 188 145 268q158 106 570 107q377 0 534 -86q88 -49 124 -123t36 -211l-2 -561q-2 -70 57 -123h-487q-20 51 -31 102q-166 -82 -278.5 -111.5t-258.5 -29.5 q-209 0 -332.5 95t-123.5 257zM287 1495h518l199 -303h-340zM561 360q0 -104 172 -104q137 0 246 70q49 33 66.5 64.5t19.5 92.5l-201 -2q-143 -2 -229 -32q-74 -28 -74 -89z" />
<glyph unicode="&#xe1;" horiz-adv-x="1660" d="M72 313q0 219 239 297q145 47 469 60l285 8v12q0 76 -49 107.5t-189 31.5q-119 0 -175 -22.5t-79 -77.5h-454q29 188 145 268q158 106 570 107q377 0 534 -86q88 -49 124 -123t36 -211l-2 -561q-2 -70 57 -123h-487q-20 51 -31 102q-166 -82 -278.5 -111.5t-258.5 -29.5 q-209 0 -332.5 95t-123.5 257zM561 360q0 -104 172 -104q137 0 246 70q49 33 66.5 64.5t19.5 92.5l-201 -2q-143 -2 -229 -32q-74 -28 -74 -89zM713 1192l198 303h519l-377 -303h-340z" />
<glyph unicode="&#xe2;" horiz-adv-x="1660" d="M72 313q0 219 239 297q145 47 469 60l285 8v12q0 76 -49 107.5t-189 31.5q-119 0 -175 -22.5t-79 -77.5h-454q29 188 145 268q158 106 570 107q377 0 534 -86q88 -49 124 -123t36 -211l-2 -561q-2 -70 57 -123h-487q-20 51 -31 102q-166 -82 -278.5 -111.5t-258.5 -29.5 q-209 0 -332.5 95t-123.5 257zM322 1212l213 283h634l213 -283h-383l-147 203l-150 -203h-380zM561 360q0 -104 172 -104q137 0 246 70q49 33 66.5 64.5t19.5 92.5l-201 -2q-143 -2 -229 -32q-74 -28 -74 -89z" />
<glyph unicode="&#xe3;" horiz-adv-x="1660" d="M72 313q0 219 239 297q145 47 469 60l285 8v12q0 76 -49 107.5t-189 31.5q-119 0 -175 -22.5t-79 -77.5h-454q29 188 145 268q158 106 570 107q377 0 534 -86q88 -49 124 -123t36 -211l-2 -561q-2 -70 57 -123h-487q-20 51 -31 102q-166 -82 -278.5 -111.5t-258.5 -29.5 q-209 0 -332.5 95t-123.5 257zM326 1202q8 145 55 207q82 106 258 107q84 0 301 -46q109 -25 145 -24q74 0 82 59h281q-4 -317 -313 -317q-63 0 -267 39q-145 29 -178 28q-72 0 -72 -53h-292zM561 360q0 -104 172 -104q137 0 246 70q49 33 66.5 64.5t19.5 92.5l-201 -2 q-143 -2 -229 -32q-74 -28 -74 -89z" />
<glyph unicode="&#xe4;" horiz-adv-x="1660" d="M72 313q0 219 239 297q145 47 469 60l285 8v12q0 76 -49 107.5t-189 31.5q-119 0 -175 -22.5t-79 -77.5h-454q29 188 145 268q158 106 570 107q377 0 534 -86q88 -49 124 -123t36 -211l-2 -561q-2 -70 57 -123h-487q-20 51 -31 102q-166 -82 -278.5 -111.5t-258.5 -29.5 q-209 0 -332.5 95t-123.5 257zM305 1212v283h408v-283h-408zM561 360q0 -104 172 -104q137 0 246 70q49 33 66.5 64.5t19.5 92.5l-201 -2q-143 -2 -229 -32q-74 -28 -74 -89zM999 1212v283h408v-283h-408z" />
<glyph unicode="&#xe5;" horiz-adv-x="1660" d="M72 313q0 219 239 297q145 47 469 60l285 8v12q0 76 -49 107.5t-189 31.5q-119 0 -175 -22.5t-79 -77.5h-454q29 188 145 268q158 106 570 107q377 0 534 -86q88 -49 124 -123t36 -211l-2 -561q-2 -70 57 -123h-487q-20 51 -31 102q-166 -82 -278.5 -111.5t-258.5 -29.5 q-209 0 -332.5 95t-123.5 257zM537 1415q0 96 82.5 157.5t222.5 61.5q139 0 223 -61.5t84 -163.5q0 -96 -85 -156.5t-222 -60.5q-139 0 -222 61.5t-83 161.5zM561 360q0 -104 172 -104q137 0 246 70q49 33 66.5 64.5t19.5 92.5l-201 -2q-143 -2 -229 -32q-74 -28 -74 -89z M696 1415q0 -98 148 -98q145 0 145 98q0 94 -145 94q-148 0 -148 -94z" />
<glyph unicode="&#xe6;" horiz-adv-x="2322" d="M72 311q0 184 155 273q127 70 402 69h334v47q0 63 -61.5 105.5t-160.5 42.5q-137 0 -174 -103h-420q27 113 58 168.5t92 98.5q129 92 418 92q186 0 291.5 -34t183.5 -118q193 152 457 152q428 0 555 -301q51 -117 53 -348h-848q31 -209 227 -209q117 0 199 125l422 -66 q-147 -344 -606 -344q-317 0 -547 189q-229 -188 -545 -189q-242 0 -369 94q-116 86 -116 256zM508 336q0 -102 133 -103q117 0 209 63.5t113 158.5h-170q-174 0 -240 -33q-45 -25 -45 -86zM1419 653h408q-29 176 -193 176q-178 0 -215 -176z" />
<glyph unicode="&#xe7;" horiz-adv-x="1689" d="M68 522q0 268 223 425t602 157q330 0 526 -141q117 -82 178 -240l-458 -53q-84 150 -267 149q-135 0 -219 -78.5t-84 -208.5q0 -131 84 -208.5t228 -77.5q201 0 288 166l461 -9q-125 -428 -745 -442l-76 -121q121 -6 180 -45q84 -57 84 -157q0 -109 -100.5 -169.5 t-278.5 -60.5q-88 0 -182 19l43 122q39 -6 45 -8q74 -8 78 -8q137 0 137 76q0 66 -86 65q-14 0 -53 -12l-88 27l164 274q-229 16 -381 90q-143 70 -223 193.5t-80 275.5z" />
<glyph unicode="&#xe8;" horiz-adv-x="1695" d="M68 535q0 270 204.5 419.5t575.5 149.5q367 0 569 -152q96 -72 154.5 -193.5t58.5 -254.5v-37h-1063q31 -231 299 -231q154 0 242 100l496 -21q-78 -147 -211 -223q-227 -131 -570 -131q-348 0 -551.5 155t-203.5 419zM301 1495h516l199 -303h-338zM580 651h553 q-78 178 -277 178q-229 0 -276 -178z" />
<glyph unicode="&#xe9;" horiz-adv-x="1695" d="M68 535q0 270 204.5 419.5t575.5 149.5q367 0 569 -152q96 -72 154.5 -193.5t58.5 -254.5v-37h-1063q31 -231 299 -231q154 0 242 100l496 -21q-78 -147 -211 -223q-227 -131 -570 -131q-348 0 -551.5 155t-203.5 419zM580 651h553q-78 178 -277 178q-229 0 -276 -178z M684 1192l199 303h516l-377 -303h-338z" />
<glyph unicode="&#xea;" horiz-adv-x="1695" d="M68 535q0 270 204.5 419.5t575.5 149.5q367 0 569 -152q96 -72 154.5 -193.5t58.5 -254.5v-37h-1063q31 -231 299 -231q154 0 242 100l496 -21q-78 -147 -211 -223q-227 -131 -570 -131q-348 0 -551.5 155t-203.5 419zM332 1212l213 283h635l213 -283h-383l-148 203 l-149 -203h-381zM580 651h553q-78 178 -277 178q-229 0 -276 -178z" />
<glyph unicode="&#xeb;" horiz-adv-x="1695" d="M68 535q0 270 204.5 419.5t575.5 149.5q367 0 569 -152q96 -72 154.5 -193.5t58.5 -254.5v-37h-1063q31 -231 299 -231q154 0 242 100l496 -21q-78 -147 -211 -223q-227 -131 -570 -131q-348 0 -551.5 155t-203.5 419zM311 1212v283h410v-283h-410zM580 651h553 q-78 178 -277 178q-229 0 -276 -178zM1006 1212v283h409v-283h-409z" />
<glyph unicode="&#xec;" horiz-adv-x="710" d="M-178 1495h516l199 -303h-338zM121 0v1065h471v-1065h-471z" />
<glyph unicode="&#xed;" horiz-adv-x="710" d="M121 0v1065h471v-1065h-471zM205 1192l198 303h517l-377 -303h-338z" />
<glyph unicode="&#xee;" horiz-adv-x="710" d="M-154 1212l213 283h635l213 -283h-383l-147 203l-150 -203h-381zM119 0v1065h471v-1065h-471z" />
<glyph unicode="&#xef;" horiz-adv-x="710" d="M-135 1212v283h368v-283h-368zM119 0v1065h471v-1065h-471zM489 1212v283h369v-283h-369z" />
<glyph unicode="&#xf0;" horiz-adv-x="1605" d="M68 524q0 289 219 437q201 135 477 135q82 0 141 -25q-125 160 -364 350h377q182 -150 350 -346q147 -172 208.5 -301t61.5 -262q0 -246 -204 -398.5t-531 -152.5q-330 0 -532.5 154.5t-202.5 408.5zM512 528q0 -125 80 -199.5t211 -74.5q133 0 213 74.5t80 195.5 q0 129 -78 204t-215 75q-133 0 -212 -75t-79 -200z" />
<glyph unicode="&#xf1;" horiz-adv-x="1667" d="M121 0v1065h471v-131q201 160 436 160q236 0 387 -119q133 -104 133 -313v-662h-471v528q0 250 -237 250q-248 0 -248 -291v-487h-471zM344 1202q10 145 57 207q80 106 256 107q84 0 301 -46q109 -25 148 -24q72 0 80 59h282q-6 -317 -313 -317q-66 0 -266 39 q-147 29 -180 28q-72 0 -72 -53h-293z" />
<glyph unicode="&#xf2;" horiz-adv-x="1722" d="M68 532q0 291 241 437q223 135 551 135q332 0 557 -135q240 -145 240 -445q0 -258 -215 -410.5t-580 -152.5q-369 0 -581.5 153.5t-212.5 417.5zM328 1495h518l198 -303h-339zM555 532q0 -127 84 -202.5t223 -75.5t223 76t84 198q0 131 -81.5 207t-225.5 76 q-139 0 -223 -76t-84 -203z" />
<glyph unicode="&#xf3;" horiz-adv-x="1722" d="M68 532q0 291 241 437q223 135 551 135q332 0 557 -135q240 -145 240 -445q0 -258 -215 -410.5t-580 -152.5q-369 0 -581.5 153.5t-212.5 417.5zM555 532q0 -127 84 -202.5t223 -75.5t223 76t84 198q0 131 -81.5 207t-225.5 76q-139 0 -223 -76t-84 -203zM676 1192 l196 303h519l-377 -303h-338z" />
<glyph unicode="&#xf4;" horiz-adv-x="1722" d="M68 532q0 291 241 437q223 135 551 135q332 0 557 -135q240 -145 240 -445q0 -258 -215 -410.5t-580 -152.5q-369 0 -581.5 153.5t-212.5 417.5zM348 1212l213 283h633l213 -283h-383l-147 203l-148 -203h-381zM555 532q0 -127 84 -202.5t223 -75.5t223 76t84 198 q0 131 -81.5 207t-225.5 76q-139 0 -223 -76t-84 -203z" />
<glyph unicode="&#xf5;" horiz-adv-x="1722" d="M68 532q0 291 241 437q223 135 551 135q332 0 557 -135q240 -145 240 -445q0 -258 -215 -410.5t-580 -152.5q-369 0 -581.5 153.5t-212.5 417.5zM342 1202q10 145 55 207q82 106 258 107q84 0 301 -46q109 -25 148 -24q72 0 80 59h282q-6 -317 -313 -317q-66 0 -266 39 q-147 29 -180 28q-72 0 -72 -53h-293zM555 532q0 -127 84 -202.5t223 -75.5t223 76t84 198q0 131 -81.5 207t-225.5 76q-139 0 -223 -76t-84 -203z" />
<glyph unicode="&#xf6;" horiz-adv-x="1722" d="M68 532q0 291 241 437q223 135 551 135q332 0 557 -135q240 -145 240 -445q0 -258 -215 -410.5t-580 -152.5q-369 0 -581.5 153.5t-212.5 417.5zM324 1212v283h409v-283h-409zM555 532q0 -127 84 -202.5t223 -75.5t223 76t84 198q0 131 -81.5 207t-225.5 76 q-139 0 -223 -76t-84 -203zM1018 1212v283h409v-283h-409z" />
<glyph unicode="&#xf7;" d="M-4 692v209h1073v-209h-1073zM381 449q0 63 45 107t109 44q61 0 105 -44t44 -107q0 -61 -45 -105.5t-107 -44.5q-61 0 -106 44.5t-45 105.5zM381 1143q0 63 45 107t109 44q61 0 105 -44t44 -107q0 -61 -45 -105.5t-107 -44.5q-61 0 -106 44.5t-45 105.5z" />
<glyph unicode="&#xf8;" horiz-adv-x="1722" d="M68 532q0 264 213 418t581 154q334 0 551 -133l146 104l63 -92l-117 -80q152 -145 152 -371q0 -264 -213 -417.5t-582 -153.5q-311 0 -530 121l-172 -123l-64 92l140 99q-168 149 -168 382zM555 532q0 -72 33 -139l493 348q-84 70 -221 70t-221 -76t-84 -203zM659 311 q82 -57 203 -57q141 0 224 76t83 202q0 59 -22 117z" />
<glyph unicode="&#xf9;" horiz-adv-x="1667" d="M121 403v662h471v-528q0 -250 239 -250q246 0 246 291v487h471v-1065h-454v131q-213 -160 -451 -160q-236 0 -387 119q-135 104 -135 313zM313 1495h518l197 -303h-338z" />
<glyph unicode="&#xfa;" horiz-adv-x="1667" d="M121 403v662h471v-528q0 -250 239 -250q246 0 246 291v487h471v-1065h-454v131q-213 -160 -451 -160q-236 0 -387 119q-135 104 -135 313zM690 1192l199 303h516l-377 -303h-338z" />
<glyph unicode="&#xfb;" horiz-adv-x="1667" d="M121 403v662h471v-528q0 -250 239 -250q246 0 246 291v487h471v-1065h-454v131q-213 -160 -451 -160q-236 0 -387 119q-135 104 -135 313zM326 1212l213 283h635l212 -283h-382l-148 203l-149 -203h-381z" />
<glyph unicode="&#xfc;" horiz-adv-x="1667" d="M121 403v662h471v-528q0 -250 239 -250q246 0 246 291v487h471v-1065h-454v131q-213 -160 -451 -160q-236 0 -387 119q-135 104 -135 313zM297 1212v283h408v-283h-408zM991 1212v283h408v-283h-408z" />
<glyph unicode="&#xfd;" horiz-adv-x="1400" d="M-14 1065h512l204 -584l199 584h516l-409 -911q-94 -211 -137.5 -287t-96.5 -127q-117 -109 -368 -109h-263v301h187q129 0 129 68q0 16 -25 68zM541 1192l198 303h518l-376 -303h-340z" />
<glyph unicode="&#xfe;" horiz-adv-x="1658" d="M121 -369v1790h471v-469q190 141 418 142q268 0 424.5 -151.5t156.5 -410.5q0 -260 -155.5 -410.5t-425.5 -150.5q-227 0 -418 142v-482h-471zM588 528q0 -115 70.5 -183.5t187.5 -68.5t187.5 70t70.5 182q0 115 -70.5 187.5t-181.5 72.5q-117 0 -190.5 -72.5 t-73.5 -187.5z" />
<glyph unicode="&#xff;" horiz-adv-x="1400" d="M-14 1065h512l204 -584l199 584h516l-409 -911q-94 -211 -137.5 -287t-96.5 -127q-117 -109 -368 -109h-263v301h187q129 0 129 68q0 16 -25 68zM164 1212v283h409v-283h-409zM858 1212v283h410v-283h-410z" />
<glyph unicode="&#x152;" horiz-adv-x="2338" d="M78 709q0 344 181 551.5t480 207.5q197 0 359 -112v65h1089v-319h-594v-232h480v-319h-480v-232h648v-319h-1143v63q-162 -111 -359 -110q-299 0 -480 207t-181 549zM489 709q0 -207 93.5 -322t259.5 -115q152 0 256 99v680q-104 98 -256 98q-166 0 -259.5 -115.5 t-93.5 -324.5z" />
<glyph unicode="&#x153;" horiz-adv-x="2408" d="M68 508q0 272 183 434t494 162q264 0 478 -143q111 82 211 112.5t245 30.5q387 0 557 -234q104 -141 105 -387v-28h-893q10 -88 55 -138q74 -82 195 -81q131 0 200 126l433 -63q-72 -176 -191 -244q-164 -94 -442 -94q-297 0 -479 125q-209 -125 -504 -125 q-324 0 -496 158q-151 139 -151 389zM512 535q0 -289 244 -289q248 0 248 284q0 291 -244 291q-248 1 -248 -286zM1473 653h430q-53 176 -213 176q-170 0 -217 -176z" />
<glyph unicode="&#x178;" horiz-adv-x="1744" d="M-29 1421h600l306 -538l303 538h596l-641 -985v-436h-514v436zM330 1509v285h409v-285h-409zM1024 1509v285h410v-285h-410z" />
<glyph unicode="&#x2c6;" d="M2 1212l213 283h635l213 -283h-383l-148 203l-149 -203h-381z" />
<glyph unicode="&#x2dc;" d="M-29 1202q10 145 58 207q80 106 256 107q84 0 301 -46q109 -25 147 -24q72 0 80 59h283q-6 -317 -314 -317q-66 0 -266 39q-147 29 -180 28q-72 0 -72 -53h-293z" />
<glyph unicode="&#x2013;" horiz-adv-x="1761" d="M76 377v352h1612v-352h-1612z" />
<glyph unicode="&#x2014;" horiz-adv-x="2187" d="M0 377v352h2187v-352h-2187z" />
<glyph unicode="&#x2018;" horiz-adv-x="667" d="M113 678v328q0 260 209 362q92 45 253 53v-159q-184 -29 -184 -187v-24h184v-373h-462z" />
<glyph unicode="&#x2019;" horiz-adv-x="667" d="M94 680v160q180 25 180 182v27h-180v372h461v-327q0 -240 -178 -346q-105 -62 -283 -68z" />
<glyph unicode="&#x201a;" horiz-adv-x="667" d="M94 0v373h461v-328q0 -238 -178 -344q-102 -61 -283 -70v160q180 27 180 184v25h-180z" />
<glyph unicode="&#x201c;" horiz-adv-x="1292" d="M113 678v328q0 260 209 362q92 45 253 53v-159q-184 -29 -184 -187v-24h184v-373h-462zM737 678v328q0 238 178 344q102 63 285 71v-159q-182 -29 -182 -187v-24h182v-373h-463z" />
<glyph unicode="&#x201d;" horiz-adv-x="1292" d="M94 680v160q180 25 180 182v27h-180v372h461v-327q0 -240 -178 -346q-105 -62 -283 -68zM717 680v160q184 25 184 182v27h-184v372h463v-327q0 -240 -176 -346q-103 -62 -287 -68z" />
<glyph unicode="&#x201e;" horiz-adv-x="1292" d="M94 0v373h461v-328q0 -238 -178 -344q-102 -61 -283 -70v160q180 27 180 184v25h-180zM717 0v373h463v-328q0 -258 -209 -360q-90 -45 -254 -54v160q184 27 184 184v25h-184z" />
<glyph unicode="&#x2022;" horiz-adv-x="1419" d="M418 721q0 123 87 209t212 86q119 0 205 -87t86 -206q0 -125 -86 -211t-209 -86q-121 0 -208 86t-87 209z" />
<glyph unicode="&#x2026;" horiz-adv-x="2064" d="M113 0v373h462v-373h-462zM801 0v373h463v-373h-463zM1489 0v373h463v-373h-463z" />
<glyph unicode="&#x2039;" horiz-adv-x="612" d="M86 326v456l412 265v-363l-189 -131l189 -131v-361z" />
<glyph unicode="&#x203a;" horiz-adv-x="612" d="M113 61v363l190 129l-190 133v361l413 -265v-456z" />
<glyph unicode="&#x20ac;" horiz-adv-x="2248" d="M76 586l172 321h145q39 160 150 285q242 274 772 274q412 0 643 -166q147 -104 203 -292l-475 -74q-76 213 -361 213q-137 0 -241.5 -63.5t-153.5 -176.5h606l-170 -321h-459q33 -147 144.5 -230.5t277.5 -83.5q266 0 377 236l469 -68q-66 -195 -190 -295 q-231 -193 -670 -192q-397 0 -645 168t-291 465h-303z" />
<glyph unicode="&#x2122;" horiz-adv-x="2529" d="M4 1219v202h959v-202h-312v-650h-336v650h-311zM1071 569v852h438l242 -538l244 538h432v-852h-326v504l-231 -504h-242l-233 504v-504h-324z" />
<glyph unicode="&#xe000;" horiz-adv-x="1065" d="M0 1065h1065v-1065h-1065v1065z" />
<glyph unicode="&#xfb01;" horiz-adv-x="1566" d="M977 0v1065h471v-1065h-471zM977 1171v250h471v-250h-471zM33 729v283h160v102q0 164 64.5 235.5t238.5 71.5h340v-266h-70q-102 0 -121 -33q-10 -16 -10 -57v-53h201v-283h-174v-729h-469v729h-160z" />
<glyph unicode="&#xfb02;" horiz-adv-x="1566" d="M977 0v1421h471v-1421h-471zM33 729v283h160v102q0 164 64.5 235.5t238.5 71.5h340v-266h-70q-102 0 -121 -33q-10 -16 -10 -57v-53h201v-283h-174v-729h-469v729h-160z" />
<glyph unicode="&#xfb03;" horiz-adv-x="2420" d="M33 729v283h160v102q0 164 64.5 235.5t238.5 71.5h340v-266h-70q-102 0 -121 -33q-10 -16 -10 -57v-53h201v-283h-174v-729h-469v729h-160zM889 729v283h158v102q0 164 64.5 235.5t240.5 71.5h340v-266h-70q-111 0 -125 -39q-6 -16 -6 -51v-53h201v-283h-176v-729h-469 v729h-158zM1831 0v1065h471v-1065h-471zM1831 1171v250h471v-250h-471z" />
<glyph unicode="&#xfb04;" horiz-adv-x="2420" d="M33 729v283h160v102q0 164 64.5 235.5t238.5 71.5h340v-266h-70q-102 0 -121 -33q-10 -16 -10 -57v-53h201v-283h-174v-729h-469v729h-160zM889 729v283h158v102q0 164 64.5 235.5t240.5 71.5h340v-266h-70q-111 0 -125 -39q-6 -16 -6 -51v-53h201v-283h-176v-729h-469 v729h-158zM1831 0v1421h471v-1421h-471z" />
</font>
</defs>
</svg>
