<?xml version="1.0" standalone="no"?>
<!DOCTYPE svg PUBLIC "-//W3C//DTD SVG 1.1//EN" "http://www.w3.org/Graphics/SVG/1.1/DTD/svg11.dtd" >
<svg xmlns="http://www.w3.org/2000/svg">
<metadata>
This is a custom SVG webfont generated by Font Squirrel.
Copyright   :  Copyright SoftMaker Software GmbH and its licensors
Designer    : SoftMaker Software GmbH
Foundry     : SoftMaker Software GmbH
Foundry URL : httpwwwsoftmakerde
</metadata>
<defs>
<font id="Ancona-CdBold" horiz-adv-x="868" >
<font-face units-per-em="2048" ascent="1638" descent="-410" />
<missing-glyph horiz-adv-x="460" />
<glyph unicode=" "  horiz-adv-x="460" />
<glyph unicode="&#x09;" horiz-adv-x="460" />
<glyph unicode="&#xa0;" horiz-adv-x="460" />
<glyph unicode="!" horiz-adv-x="491" d="M123 0v260h246v-260h-246zM123 825v623h246v-623l-43 -434h-158z" />
<glyph unicode="&#x22;" horiz-adv-x="661" d="M72 1448h209l-43 -506h-123zM383 1448h207l-43 -506h-121z" />
<glyph unicode="#" d="M39 395l29 148h102l59 346h-110l31 147h106l72 412h147l-74 -412h177l71 412h148l-72 -412h104l-26 -147h-105l-59 -346h113l-27 -148h-113l-69 -395h-148l70 395h-176l-70 -395h-145l69 395h-104zM315 543h177l59 346h-176z" />
<glyph unicode="$" d="M61 285v213h261v-168q0 -80 27.5 -111t99.5 -31t100.5 38t28.5 136t-33 148q-16 29 -154 117q-221 145 -262 202q-63 86 -63 242q0 219 143 297q92 51 203 53v138h71v-138q102 -6 185 -41q154 -66 153 -264v-135h-262v121q0 123 -123 123q-115 0 -114 -123 q0 -100 21.5 -133t137.5 -107q209 -133 262 -182q96 -94 97 -274q0 -256 -119 -347q-82 -63 -238 -75v-195h-71v195q-351 16 -351 301z" />
<glyph unicode="%" horiz-adv-x="1306" d="M109 868v367q0 219 206 219q205 0 205 -219v-367q0 -221 -205 -221q-206 0 -206 221zM254 860q0 -104 61 -104q41 0 54 32q6 18 6 72v383q0 102 -60 103q-61 0 -61 -103v-383zM301 -121l635 1735l70 -27l-635 -1732zM784 213v367q0 219 207 219t207 -219v-367 q0 -219 -209 -219q-205 0 -205 219zM930 207q0 -104 61 -105q43 0 56 33q6 18 6 72v381q0 78 -25 94q-12 8 -37 8q-61 0 -61 -102v-381z" />
<glyph unicode="&#x26;" horiz-adv-x="1077" d="M72 371q0 117 59 233q41 80 160 199l24 24l-49 103q-57 125 -57 235q0 137 80 221t211 84q127 0 207.5 -73.5t80.5 -194.5q0 -170 -206 -403l188 -375q39 96 45 229h207q-4 -111 -39 -232.5t-82 -189.5q43 -55 123 -55q18 0 31 2v-178q-86 -16 -129 -16q-106 0 -178 77 q-127 -78 -283 -77q-176 0 -284.5 106.5t-108.5 280.5zM311 375q0 -78 49.5 -130t126.5 -52q63 0 140 38l-213 387q-103 -124 -103 -243zM426 1178q0 -63 49 -164l62 82q37 51 36 106q0 76 -65 76q-82 0 -82 -100z" />
<glyph unicode="'" horiz-adv-x="352" d="M72 1448h209l-43 -506h-123z" />
<glyph unicode="(" horiz-adv-x="593" d="M84 41v1003q0 209 120 324t337 117v-131q-109 -2 -150 -31q-61 -45 -61 -186v-1188q0 -78 8 -113q16 -53 65 -82q43 -23 138 -22v-131q-217 2 -337 116.5t-120 323.5z" />
<glyph unicode=")" horiz-adv-x="593" d="M53 -268q111 2 152 30q59 45 59 187v1188q0 78 -8 112q-14 53 -61.5 79t-141.5 26v131q217 -2 337 -117t120 -324v-1003q0 -209 -120 -323.5t-337 -116.5v131z" />
<glyph unicode="*" d="M123 1167l47 142l190 -60v199h150v-199l190 60l48 -142l-193 -61l119 -162l-121 -88l-117 162l-119 -162l-120 88l118 162z" />
<glyph unicode="+" d="M86 590v217h240v252h217v-252h239v-217h-239v-248h-217v248h-240z" />
<glyph unicode="," horiz-adv-x="434" d="M80 -276l145 276h-129v260h244v-260l-158 -276h-102z" />
<glyph unicode="-" horiz-adv-x="370" d="M0 428v217h371v-217h-371z" />
<glyph unicode="." horiz-adv-x="434" d="M94 0v260h244v-260h-244z" />
<glyph unicode="/" horiz-adv-x="786" d="M6 -362l486 1810h194l-483 -1810h-197z" />
<glyph unicode="0" d="M86 346v713q0 186 88 272q94 90 260 90q184 0 281 -110q68 -78 67 -252v-713q0 -188 -88 -272q-94 -90 -260 -90q-184 0 -280 110q-68 78 -68 252zM332 330q0 -98 22.5 -125t79.5 -27t80 26.5t23 125.5v745q0 96 -22.5 124t-80.5 28q-57 0 -79.5 -28t-22.5 -124v-745z " />
<glyph unicode="1" d="M133 977v197q213 92 285 231h172v-1405h-244v1055q-102 -58 -213 -78z" />
<glyph unicode="2" d="M92 0q-4 201 34 321.5t130 217.5l170 174q66 68 86 102q35 55 35 125v174q0 113 -107 113q-102 0 -102 -113v-203h-227v148q0 207 82 278q98 84 258 84q188 0 278 -102q63 -70 64 -260v-139q0 -123 -47.5 -192t-124.5 -148l-144 -146q-113 -113 -115 -217h445v-217h-715z " />
<glyph unicode="3" d="M72 346v111h245v-127q0 -98 22.5 -125t80.5 -27q55 0 77.5 26.5t22.5 125.5v172q0 88 -38 125t-128 37h-55v174h51q170 0 170 149v88q0 96 -22.5 124t-77.5 28q-57 0 -80 -28t-23 -124v-92h-223v76q0 207 80 278q94 84 256 84q180 0 272 -102q63 -68 64 -260v-92 q0 -88 -27.5 -133.5t-103.5 -79.5q80 -37 105.5 -76t25.5 -119v-213q0 -188 -86 -272q-96 -90 -260 -90q-188 0 -281 110q-67 80 -67 252z" />
<glyph unicode="4" d="M61 266v203l353 936h305v-936h102v-203h-102v-266h-246v266h-412zM276 469h197v375q0 111 12 282l-88 -286z" />
<glyph unicode="5" d="M86 346v100h246l2 -116q2 -100 20 -121q27 -31 80 -31q66 0 88 41q14 25 15 111v352q0 104 -101 104q-113 0 -123 -137h-202l24 754h631v-217h-428l-6 -264q98 59 182 59q117 0 192.5 -72.5t75.5 -226.5v-336q0 -188 -88 -272q-94 -90 -260 -90q-182 0 -278 110 q-70 80 -70 252z" />
<glyph unicode="6" d="M94 346v711q0 188 86 274q96 90 260 90q184 0 281 -110q68 -78 67 -254v-39h-245v67q0 80 -22.5 111t-80.5 31q-68 0 -86 -37q-16 -27 -16 -105v-264q90 82 194 82q117 0 186.5 -65.5t69.5 -173.5v-318q0 -190 -88 -272q-94 -90 -260 -90q-184 0 -280 110q-66 78 -66 252 zM332 330q0 -96 21.5 -124t78.5 -28q55 0 79 26.5t24 125.5v223q0 98 -24 125t-79 27q-57 0 -78.5 -28t-21.5 -124v-223z" />
<glyph unicode="7" d="M49 1190v217h739v-217q-141 -233 -231 -564t-92 -626h-264q27 573 356 1190h-508z" />
<glyph unicode="8" d="M86 346v133q0 111 23.5 158t115.5 113q-117 88 -116 204v105q0 207 77 278q92 84 248 84q176 0 264 -102q61 -68 62 -260v-105q0 -117 -117 -204q92 -66 115.5 -113t23.5 -158v-133q0 -188 -88 -272q-94 -90 -260 -90q-186 0 -280 110q-68 78 -68 252zM332 330 q0 -98 22.5 -125t79.5 -27t80 26.5t23 125.5v147q0 98 -25 126t-78 28q-66 0 -88 -41q-14 -25 -14 -113v-147zM332 987q0 -94 24.5 -122.5t77.5 -28.5q66 0 88 41q14 25 15 110v88q0 96 -22.5 124t-80.5 28q-57 0 -79.5 -28t-22.5 -124v-88z" />
<glyph unicode="9" d="M80 348v39h246v-68q0 -80 22.5 -110.5t79.5 -30.5q68 0 86 37q16 27 16 104v265q-90 -82 -194 -82q-117 0 -186.5 64.5t-69.5 172.5v320q0 190 88 272q94 90 260 90q184 0 281 -110q66 -78 65 -252v-711q0 -190 -86 -274q-96 -90 -260 -90q-184 0 -281 110 q-67 78 -67 254zM334 852q0 -98 23.5 -126t78.5 -28q57 0 79 29t22 125v223q0 94 -21.5 123t-79.5 29q-55 0 -78.5 -28t-23.5 -124v-223z" />
<glyph unicode=":" horiz-adv-x="434" d="M94 0v260h244v-260h-244zM94 809v262h244v-262h-244z" />
<glyph unicode=";" horiz-adv-x="434" d="M80 -276l145 276h-129v260h244v-260l-158 -276h-102zM96 809v262h244v-262h-244z" />
<glyph unicode="&#x3c;" horiz-adv-x="1085" d="M72 616v228l940 473v-264l-656 -324l654 -323l2 -265z" />
<glyph unicode="=" d="M86 397v217h696v-217h-696zM86 788v218h696v-218h-696z" />
<glyph unicode="&#x3e;" horiz-adv-x="1085" d="M74 141v267l655 323l-653 324l-2 262l940 -475v-226z" />
<glyph unicode="?" horiz-adv-x="796" d="M59 950v185q0 188 70 251q86 84 256 84q168 0 260 -81q80 -72 80 -224v-106q0 -129 -74 -232l-104 -143q-51 -72 -68 -104q-25 -51 -24 -117v-72h-217v109q0 70 20 118q53 119 115 209l67 93q41 57 41 139v61q0 98 -21.5 126t-72.5 28q-70 0 -88 -45q-10 -27 -10 -109 v-170h-230zM221 0v260h246v-260h-246z" />
<glyph unicode="@" d="M41 352v758q0 172 102.5 266t292.5 94q184 0 288.5 -92t104.5 -258v-735h-133l-24 59q-68 -82 -156 -82q-166 0 -166 183v407q0 199 180 199q68 0 125 -57v45q0 82 -59 130t-158 48q-147 0 -200 -103q-23 -43 -23 -139v-676q0 -121 41 -178q68 -90 193 -90q119 0 206 76 l105 -101q-115 -129 -311 -129q-186 0 -291 91q-117 100 -117 284zM522 590q0 -82 66 -82q68 0 67 82v332q0 84 -65 84q-68 0 -68 -84v-332z" />
<glyph unicode="A" horiz-adv-x="878" d="M8 0l277 1448h307l278 -1448h-284l-35 240h-232l-38 -240h-273zM354 457h164l-80 733z" />
<glyph unicode="B" horiz-adv-x="972" d="M100 0v1448h457q166 0 241.5 -71.5t75.5 -229.5v-143q0 -92 -16 -130q-20 -43 -94 -94q76 -51 104.5 -101t28.5 -132v-268q0 -84 -35 -154q-39 -76 -108 -102q-55 -23 -191 -23h-463zM367 203h133q76 0 102.5 25.5t26.5 95.5v206q0 78 -27 106t-102 28h-133v-461z M367 881h110q76 0 103.5 26.5t27.5 96.5v106q0 80 -27.5 107.5t-103.5 27.5h-110v-364z" />
<glyph unicode="C" horiz-adv-x="948" d="M84 309v830q0 168 107.5 249.5t289.5 81.5q199 0 312 -98q88 -78 88 -233v-226h-267v220q0 127 -133 127q-129 0 -129 -127v-803q0 -127 131 -127t131 127v219h267v-240q0 -168 -107.5 -250t-292.5 -82q-195 0 -307 99q-90 77 -90 233z" />
<glyph unicode="D" horiz-adv-x="978" d="M100 0v1448h435q362 0 362 -342v-764q0 -342 -362 -342h-435zM367 217h127q135 0 135 139v736q0 139 -135 139h-127v-1014z" />
<glyph unicode="E" horiz-adv-x="899" d="M100 0v1448h725v-217h-458v-348h438v-217h-438v-449h485v-217h-752z" />
<glyph unicode="F" horiz-adv-x="851" d="M100 0v1448h723v-217h-456v-367h434v-217h-434v-647h-267z" />
<glyph unicode="G" horiz-adv-x="962" d="M84 299v840q0 168 107.5 249.5t291.5 81.5q199 0 310 -98q88 -78 88 -233v-168h-267v159q0 129 -131 130q-131 0 -131 -130v-815q0 -127 131 -127t131 127v254h-168v217h435v-786h-217v106q-106 -129 -269 -129q-170 0 -256 105q-55 65 -55 217z" />
<glyph unicode="H" horiz-adv-x="993" d="M100 0v1448h267v-571h260v571h268v-1448h-268v659h-260v-659h-267z" />
<glyph unicode="I" horiz-adv-x="464" d="M100 0v1448h267v-1448h-267z" />
<glyph unicode="J" horiz-adv-x="823" d="M14 309v162h254v-156q0 -127 101 -127q102 0 102 127v1133h266v-1139q0 -168 -96 -250t-264 -82q-184 0 -281 99q-82 79 -82 233z" />
<glyph unicode="K" horiz-adv-x="944" d="M100 0v1448h267v-537l280 537h289l-332 -625l332 -823h-289l-280 702v-702h-267z" />
<glyph unicode="L" horiz-adv-x="788" d="M100 0v1448h267v-1231h395v-217h-662z" />
<glyph unicode="M" horiz-adv-x="1398" d="M100 0v1448h435l112 -567q18 -100 53 -498l23 248q10 133 35 250l112 567h430v-1448h-260v860q0 111 7 227q2 31 6 115l-224 -1202h-249l-246 1217l8 -119l12 -117q6 -70 6 -233v-748h-260z" />
<glyph unicode="N" horiz-adv-x="1024" d="M100 0v1448h318l139 -502q2 -14 45 -145l84 -291l39 -145q-8 66 -27 165q-41 250 -41 412v506h269v-1448h-299l-170 598l-31 127q-2 6 -33 127l-33 127l-30 127q37 -377 37 -574v-532h-267z" />
<glyph unicode="O" horiz-adv-x="962" d="M84 309v830q0 168 107.5 249.5t289.5 81.5q199 0 312 -98q88 -78 88 -233v-830q0 -168 -107.5 -250t-292.5 -82q-195 0 -307 99q-90 77 -90 233zM352 315q0 -127 129 -127q133 0 133 127v818q0 127 -131 127t-131 -127v-818z" />
<glyph unicode="P" horiz-adv-x="937" d="M100 0v1448h557q240 0 240 -258v-254q0 -209 -57.5 -273.5t-245.5 -64.5h-227v-598h-267zM371 815h125q78 0 105.5 25.5t27.5 95.5v160q0 78 -28 106.5t-105 28.5h-125v-416z" />
<glyph unicode="Q" horiz-adv-x="962" d="M84 309v830q0 168 107.5 249.5t289.5 81.5q199 0 312 -98q88 -78 88 -233v-830q0 -94 -27 -157l133 -146l-168 -158l-147 158q-92 -29 -189 -29q-197 0 -309 99q-90 77 -90 233zM352 315q0 -127 129 -127q133 0 133 127v818q0 127 -131 127t-131 -127v-818z" />
<glyph unicode="R" horiz-adv-x="989" d="M100 0v1448h502q158 0 226.5 -60.5t68.5 -201.5v-187q0 -111 -31.5 -164t-120.5 -90q92 -45 122 -91t30 -148v-313q0 -113 72 -193h-289q-51 59 -51 178v314q0 80 -27 113.5t-92 33.5h-143v-639h-267zM367 856h141q70 0 95.5 25.5t25.5 95.5v119q0 78 -25.5 106.5 t-95.5 28.5h-141v-375z" />
<glyph unicode="S" horiz-adv-x="905" d="M63 291v221h269v-174q0 -82 28.5 -115t98.5 -33q74 0 100.5 39t26.5 142q0 152 -92 215l-248 168q-96 66 -136 144.5t-40 203.5q0 197 103 282.5t276 85.5q193 0 296 -86q92 -76 93 -231v-139h-267v125q0 125 -125 125q-115 0 -114 -127q0 -76 10 -111q18 -47 70 -82 l196 -125q150 -96 200 -178t50 -223q0 -231 -86 -326q-98 -115 -313 -115q-190 0 -293 82t-103 232z" />
<glyph unicode="T" horiz-adv-x="839" d="M23 1231v217h796v-217h-266v-1231h-266v1231h-264z" />
<glyph unicode="U" horiz-adv-x="968" d="M86 309v1139h268v-1133q0 -127 131 -127t131 127v1133h267v-1139q0 -168 -107.5 -250t-292.5 -82q-195 0 -307 99q-90 77 -90 233z" />
<glyph unicode="V" horiz-adv-x="839" d="M8 1448h285l98 -696q2 -18 8 -68q0 -4 7 -66q8 -90 24 -307q4 106 21 307q6 33 10 66q4 53 6 68l96 696h268l-268 -1448h-270z" />
<glyph unicode="W" horiz-adv-x="1411" d="M6 1448h275l104 -735q2 -14 10 -109l31 -285l45 394l104 735h259l108 -735q2 -18 19 -156q6 -63 24 -238l35 318q6 55 6 76l102 735h275l-273 -1448h-282l-92 594l-31 229q-2 23 -16 228l-21 -228q-8 -84 -33 -229l-100 -594h-281z" />
<glyph unicode="X" horiz-adv-x="905" d="M-8 0l317 768l-286 680h286l97 -258l8 -31l12 -31q10 -33 25 -118q14 78 24 118q4 23 19 62l86 258h294l-280 -680l319 -768h-292l-134 375q-2 8 -6 26l-8 27q-10 33 -22 109q-8 -55 -21 -109q-6 -33 -6 -27q-2 -10 -10 -26l-131 -375h-291z" />
<glyph unicode="Y" horiz-adv-x="800" d="M-10 1448h280l99 -459q33 -154 39 -260q4 31 10 66l6 65q6 70 18 129l97 459h272l-272 -1008v-440h-269v451z" />
<glyph unicode="Z" horiz-adv-x="825" d="M37 0v168l455 1063h-398v217h690v-148l-454 -1083h454v-217h-747z" />
<glyph unicode="[" horiz-adv-x="593" d="M84 -362v1810h457v-203h-211v-1405h211v-202h-457z" />
<glyph unicode="\" horiz-adv-x="786" d="M102 1448h195l485 -1810h-196z" />
<glyph unicode="]" horiz-adv-x="593" d="M53 -160h211v1405h-211v203h457v-1810h-457v202z" />
<glyph unicode="^" horiz-adv-x="1085" d="M45 780l348 674h299l348 -674h-241l-256 492l-256 -492h-242z" />
<glyph unicode="_" horiz-adv-x="694" d="M0 -115h694v-217h-694v217z" />
<glyph unicode="`" horiz-adv-x="1085" d="M215 1534h311l148 -291h-174z" />
<glyph unicode="a" horiz-adv-x="806" d="M63 248v106q0 104 38 153.5t161 110.5l219 107v100q0 80 -84 80q-86 0 -86 -80v-100h-233v147q0 106 86 156q92 57 246 57q176 0 258 -81q61 -61 61 -199v-655q0 -100 43 -150h-260q-25 29 -31 78q-90 -92 -207 -92q-109 0 -165 67q-46 58 -46 195zM311 264q0 -96 64 -96 q53 0 92 39q14 14 14 57v262l-94 -55q-76 -43 -76 -139v-68z" />
<glyph unicode="b" horiz-adv-x="829" d="M80 0v1448h246v-471q84 109 202 108q102 0 172 -67q59 -55 60 -209v-549q0 -158 -74 -221q-66 -53 -158 -53q-119 0 -202 108v-94h-246zM326 289q0 -109 96 -109q92 0 92 109v493q0 109 -92 109q-96 0 -96 -109v-493z" />
<glyph unicode="c" horiz-adv-x="808" d="M72 262v545q0 129 92 203.5t248 74.5t248 -75.5t92 -202.5v-145h-246v161q0 82 -96 82q-92 0 -93 -82v-577q0 -80 95 -80q94 0 94 80v188h246v-172q0 -125 -92.5 -200.5t-247.5 -75.5q-156 0 -248 74.5t-92 201.5z" />
<glyph unicode="d" horiz-adv-x="829" d="M72 260v549q0 164 73 223q68 53 158 53q123 0 203 -108v471h246v-1448h-246v94q-80 -109 -203 -108q-106 0 -168.5 64.5t-62.5 209.5zM317 289q0 -109 95 -109q94 0 94 109v493q0 109 -94 109t-95 -109v-493z" />
<glyph unicode="e" horiz-adv-x="821" d="M72 262v545q0 129 91 203.5t249 74.5t249 -74.5t91 -203.5v-324h-435v-237q0 -80 95 -80q94 0 94 80v114h246v-98q0 -127 -92.5 -201.5t-249.5 -74.5q-156 0 -247 74.5t-91 201.5zM317 651h189v172q0 82 -96 82q-92 0 -93 -82v-172z" />
<glyph unicode="f" horiz-adv-x="501" d="M6 903v168h115v158q0 242 252 241q33 0 110 -8v-196h-45q-72 0 -71 -78v-117h110v-168h-110v-903h-246v903h-115z" />
<glyph unicode="g" horiz-adv-x="829" d="M72 260v549q0 164 73 223q68 53 158 53q123 0 203 -108v94h246v-1120q0 -94 -15 -141q-16 -68 -71 -119q-90 -82 -256 -82q-209 0 -291 123q-41 59 -43 176h256q4 -59 22.5 -81t63.5 -22q92 0 90 121l-2 168q-80 -109 -203 -108q-106 0 -168.5 64.5t-62.5 209.5zM317 289 q0 -109 95 -109q94 0 94 109v493q0 109 -94 109t-95 -109v-493z" />
<glyph unicode="h" horiz-adv-x="839" d="M80 0v1448h246v-455q94 92 194 92q139 0 201 -92q39 -57 39 -196v-797h-246v782q0 109 -94 109t-94 -109v-782h-246z" />
<glyph unicode="i" horiz-adv-x="405" d="M80 0v1071h246v-1071h-246zM80 1208v240h246v-240h-246z" />
<glyph unicode="j" horiz-adv-x="411" d="M-14 -166q8 -2 16 -2h27q45 0 55 47q2 12 2 84v1108h246v-1190q0 -258 -256 -258h-60q-8 2 -30 0v211zM86 1208v240h246v-240h-246z" />
<glyph unicode="k" horiz-adv-x="808" d="M80 0v1448h246v-748l204 371h273l-273 -459l289 -612h-272l-221 520v-520h-246z" />
<glyph unicode="l" horiz-adv-x="405" d="M80 0v1448h246v-1448h-246z" />
<glyph unicode="m" horiz-adv-x="1273" d="M80 0v1071h248v-78q90 92 200 92q117 0 203 -104q92 104 217 104q137 0 205 -88q41 -55 41 -186v-811h-246v782q0 109 -94 109t-94 -109v-782h-246v782q0 109 -92 109q-96 0 -96 -109v-782h-246z" />
<glyph unicode="n" horiz-adv-x="839" d="M80 0v1071h246v-78q94 92 196 92q172 0 217 -135q20 -55 21 -153v-797h-246v782q0 109 -92 109q-96 0 -96 -109v-782h-246z" />
<glyph unicode="o" horiz-adv-x="821" d="M72 262v545q0 129 92 203.5t248 74.5t248 -75.5t92 -202.5v-545q0 -125 -92.5 -200.5t-247.5 -75.5q-156 0 -248 74.5t-92 201.5zM317 274q0 -109 95 -108q94 0 94 108v523q0 109 -94 108q-94 0 -95 -108v-523z" />
<glyph unicode="p" horiz-adv-x="829" d="M80 -362v1433h246v-94q82 109 202 108q133 0 199 -102q33 -49 33 -174v-549q0 -160 -71 -217t-161 -57q-119 0 -202 108v-456h-246zM326 289q0 -109 96 -109q92 0 92 109v493q0 109 -92 109q-96 0 -96 -109v-493z" />
<glyph unicode="q" horiz-adv-x="829" d="M72 260v549q0 160 73 223q66 53 158 53q119 0 203 -108v94h246v-1433h-246v456q-84 -109 -203 -108q-102 0 -172 65q-59 57 -59 209zM317 289q0 -109 93 -109q96 0 96 109v493q0 109 -96 109q-92 0 -93 -109v-493z" />
<glyph unicode="r" horiz-adv-x="583" d="M80 0v1071h246v-127q51 80 99 110.5t122 30.5h18v-247q-59 16 -90 16q-150 0 -149 -174v-680h-246z" />
<glyph unicode="s" horiz-adv-x="739" d="M49 264v121h234v-104q0 -113 92 -113q88 0 88 100q0 72 -17.5 99.5t-99.5 87.5l-123 86q-98 70 -131 131q-25 41 -24 145q0 82 12 119q18 53 72 90q90 59 221 59q315 0 315 -227v-135h-217v78q0 70 -20.5 87t-65.5 17q-86 0 -86 -82q0 -70 86 -129l168 -116 q94 -66 119 -121q20 -47 20 -162q0 -88 -12 -131q-20 -61 -76 -107q-90 -72 -235 -71q-180 0 -269 96q-51 55 -51 182z" />
<glyph unicode="t" horiz-adv-x="569" d="M14 903v168h131v377h246v-377h146v-168h-146v-614q0 -61 17.5 -86t78.5 -25q33 0 56 4v-182q-82 -14 -137 -14q-260 0 -261 209v708h-131z" />
<glyph unicode="u" horiz-adv-x="839" d="M80 274v797h246v-782q0 -109 96 -109q92 0 92 109v782h246v-1071h-246v76q-90 -90 -195 -90q-174 0 -219 135q-20 55 -20 153z" />
<glyph unicode="v" horiz-adv-x="720" d="M0 1071h244l92 -577l12 -74q4 -33 10 -121l15 121q0 4 4 37q4 14 8 37l94 577h244l-244 -1071h-235z" />
<glyph unicode="w" horiz-adv-x="1142" d="M0 1071h240l75 -485q25 -168 33 -240q2 39 10 113l25 127l82 485h203l104 -633q4 -31 10 -92q2 41 11 113q6 43 22 127l84 485h229l-229 -1071h-233l-74 449q-18 121 -25 225q-14 -119 -32 -225l-84 -449h-232z" />
<glyph unicode="x" horiz-adv-x="761" d="M6 0l215 584l-180 487h252l59 -233l4 -21q4 -14 6.5 -25.5t12.5 -89.5q6 49 16 91l6 24q2 16 6 23l70 231h236l-181 -487l228 -584h-264l-80 270q-2 10 -7.5 33t-9.5 35q-12 51 -20 108q-8 -57 -21 -108q-4 -20 -20 -68l-80 -270h-248z" />
<glyph unicode="y" horiz-adv-x="700" d="M-27 1071h256l86 -360l19 -109q20 -98 31 -254q2 147 20 254l76 469h252l-211 -1069q-43 -223 -110.5 -301t-215.5 -78q-63 0 -149 19l34 200q55 -20 89 -20q61 0 83 49q31 63 31 100t-18 109z" />
<glyph unicode="z" horiz-adv-x="708" d="M41 0l6 203l373 665h-340v203h582v-201l-365 -667h381v-203h-637z" />
<glyph unicode="{" horiz-adv-x="593" d="M20 500v100q43 2 74 10q51 14 66 64q12 29 12 98v344q0 176 99.5 272.5t283.5 96.5v-131q-84 -2 -110.5 -30t-26.5 -116v-413q0 -170 -199 -246q199 -74 199 -246v-426q0 -88 26.5 -115.5t110.5 -29.5v-131q-184 0 -283.5 96t-99.5 272v357q0 100 -30 135t-122 39z" />
<glyph unicode="|" horiz-adv-x="1085" d="M408 -362v1810h270v-1810h-270z" />
<glyph unicode="}" horiz-adv-x="593" d="M41 -268q82 2 109.5 29.5t27.5 115.5v426q0 172 197 246q-197 76 -197 246v413q0 88 -27.5 116t-109.5 30v131q180 0 281.5 -97.5t101.5 -271.5v-344q0 -70 10 -98q14 -49 68 -64q14 -4 73 -10v-100q-94 -4 -122.5 -39t-28.5 -135v-357q0 -174 -101.5 -271t-281.5 -97 v131z" />
<glyph unicode="~" horiz-adv-x="1447" d="M203 1331q117 276 311 277q72 0 248 -78q137 -59 178 -60q98 0 174 144l135 -109q-63 -150 -140 -212t-198 -62q-63 0 -243 84q-111 53 -164 53q-90 0 -168 -145z" />
<glyph unicode="&#xa1;" horiz-adv-x="491" d="M123 0v623l45 434h158l43 -434v-623h-246zM123 1188v260h246v-260h-246z" />
<glyph unicode="&#xa2;" d="M98 422v545q0 252 299 274v137h72v-137q299 -23 299 -274v-144h-240v158q0 80 -96 80q-94 0 -94 -80v-575q0 -80 96 -80q94 0 94 80v186h240v-170q0 -121 -78 -193.5t-221 -83.5v-192h-72v192q-299 29 -299 277z" />
<glyph unicode="&#xa3;" d="M-23 164q0 178 183 178q74 0 157 -45q14 49 15 78q0 90 -68 203l-12 22h-232v125h154l-14 20q-61 92 -62 226v100q0 199 107 279q94 72 254 71q362 0 362 -362v-117h-246v178q0 106 -114 107q-119 0 -119 -107v-127q0 -117 55 -200l43 -68h217v-125h-161q16 -55 16 -127 q0 -119 -49 -240q37 -55 110 -55q84 0 84 168v80h205v-150q0 -143 -28 -198q-49 -94 -195 -94q-109 0 -274 104q-100 -104 -211 -104q-80 0 -128.5 48t-48.5 132zM82 166q0 -63 61 -64q80 0 140 93l-7 6q-53 33 -106 32q-88 1 -88 -67z" />
<glyph unicode="&#xa4;" horiz-adv-x="1138" d="M86 625l53 204h117v310q0 168 107.5 249.5t289.5 81.5q199 0 312 -98q88 -78 88 -233v-226h-267v220q0 127 -131 127q-133 0 -133 -127v-304h373l-53 -204h-320v-295q0 -127 131 -127q133 0 133 127v219h267v-240q0 -168 -107.5 -250t-292.5 -82q-195 0 -307 99 q-90 78 -90 233v316h-170z" />
<glyph unicode="&#xa5;" d="M31 1405h260l151 -713l146 713h250l-127 -467h100v-203h-156l-43 -160h138v-202h-187v-373h-246v373h-198v202h145l-45 160h-162v203h107z" />
<glyph unicode="&#xa6;" horiz-adv-x="1085" d="M408 332h270v-694h-270v694zM408 696v752h270v-752h-270z" />
<glyph unicode="&#xa7;" d="M66 758q0 152 172 227l-29 27q-33 31 -66 96q-25 47 -24 109q0 113 89 183t232 70q147 0 237.5 -79.5t90.5 -210.5q0 -35 -4 -68h-209l2 51q8 150 -121 150q-43 0 -72.5 -25.5t-29.5 -64.5t37 -76l24 -25l310 -342q98 -109 98 -209q0 -168 -139 -241l28 -29 q18 -16 34.5 -66.5t16.5 -91.5q0 -96 -69 -176q-90 -104 -254 -104q-160 0 -250 78.5t-84 218.5l2 49h213l-4 -43q0 -141 123 -141q47 0 78.5 27.5t31.5 70.5t-57 102l-250 271q-88 94 -104 118q-53 72 -53 144zM279 764q0 -45 49 -102l190 -213q72 45 72 116q0 49 -64 123 l-164 186q-83 -53 -83 -110z" />
<glyph unicode="&#xa8;" horiz-adv-x="1085" d="M258 1260v260h217v-260h-217zM610 1260v260h217v-260h-217z" />
<glyph unicode="&#xa9;" horiz-adv-x="1372" d="M43 612v224q0 174 39 281.5t135 191.5q178 162 469 161q324 0 502 -190q143 -152 143 -444v-224q0 -172 -40 -280.5t-134 -192.5q-178 -162 -471 -162q-322 0 -500 191q-143 151 -143 444zM195 606q0 -254 127 -372.5t364 -118.5q240 0 367 118.5t127 372.5v236 q0 254 -127 372.5t-365 118.5q-240 0 -366.5 -118.5t-126.5 -372.5v-236zM434 481v484q0 205 254 204q252 0 252 -204v-146h-188v142q0 59 -66 59q-63 0 -63 -59v-465q0 -61 63 -62q66 0 66 62v141h188v-156q0 -205 -254 -205q-119 0 -192 60q-60 49 -60 145z" />
<glyph unicode="&#xaa;" horiz-adv-x="548" d="M49 733v62q0 66 26.5 99.5t104.5 66.5l144 57v55q0 39 -54 39q-53 0 -53 -39v-65h-158v92q0 133 222 133q211 0 211 -172v-385q0 -59 36 -96h-180q-8 8 -22 38q-66 -47 -136 -47q-141 0 -141 162zM217 743q0 -51 39 -51q27 0 57 23q4 4 11 28v142l-58 -25 q-49 -25 -49 -76v-41z" />
<glyph unicode="&#xab;" horiz-adv-x="657" d="M59 449v174l209 202v-202l-86 -86l86 -88v-203zM362 449v174l211 202v-202l-88 -86l88 -88v-203z" />
<glyph unicode="&#xac;" horiz-adv-x="1085" d="M72 385v233h940v-618h-260v385h-680z" />
<glyph unicode="&#xad;" horiz-adv-x="370" d="M0 428v217h371v-217h-371z" />
<glyph unicode="&#xae;" horiz-adv-x="1372" d="M43 612v224q0 174 39 281.5t135 191.5q178 162 469 161q324 0 502 -190q143 -152 143 -444v-224q0 -172 -40 -280.5t-134 -192.5q-178 -162 -471 -162q-322 0 -500 191q-143 151 -143 444zM195 606q0 -254 127 -372.5t364 -118.5q240 0 367 118.5t127 372.5v236 q0 254 -127 372.5t-365 118.5q-240 0 -366.5 -118.5t-126.5 -372.5v-236zM432 289v868h318q190 0 190 -168v-106q0 -102 -72 -148q45 -27 58.5 -54.5t13.5 -82.5v-184q0 -41 10.5 -60.5t53.5 -64.5h-213q-39 45 -39 119v180q0 72 -60 71h-71v-370h-189zM621 815h71 q37 0 48.5 11.5t11.5 43.5v70q0 45 -14.5 54.5t-45.5 9.5h-71v-189z" />
<glyph unicode="&#xaf;" horiz-adv-x="694" d="M0 1722v217h694v-217h-694z" />
<glyph unicode="&#xb0;" d="M123 1149q0 129 91 221t222 92t221.5 -92t90.5 -223q0 -127 -91.5 -218t-220.5 -91q-131 0 -222 91t-91 220zM260 1151q0 -80 52.5 -137.5t121.5 -57.5q70 0 123 57.5t53 131.5q0 82 -51 138t-125 56q-70 0 -122 -56t-52 -132z" />
<glyph unicode="&#xb1;" d="M86 0v217h696v-217h-696zM86 590v217h240v252h217v-252h239v-217h-239v-248h-217v248h-240z" />
<glyph unicode="&#xb2;" horiz-adv-x="606" d="M76 578q0 127 22.5 198.5t85.5 130.5l109 103q76 72 76 129v102q0 61 -60 62q-59 0 -59 -62v-125h-162v92q0 127 57 172q66 53 170 54q117 0 183 -64q43 -41 43 -162v-80q0 -70 -29 -116q-20 -33 -84 -92l-92 -84q-70 -63 -72 -115h285v-143h-473z" />
<glyph unicode="&#xb3;" horiz-adv-x="606" d="M66 791v71h172v-80q0 -53 11 -68.5t44 -15.5q37 0 48 17.5t11 66.5v99q0 90 -98 90h-43v116h39q102 0 102 82v52q0 45 -11 63.5t-48 18.5q-33 0 -44 -15.5t-11 -66.5v-62h-160v51q0 127 55 170q63 53 168 54q117 0 178 -64q43 -43 43 -160v-53q0 -92 -73 -125 q74 -39 73 -117v-124q0 -115 -59.5 -168.5t-169.5 -53.5q-117 0 -182 68q-45 48 -45 154z" />
<glyph unicode="&#xb4;" horiz-adv-x="1085" d="M428 1243l147 291h310l-283 -291h-174z" />
<glyph unicode="&#xb5;" horiz-adv-x="839" d="M80 -362v1433h246v-782q0 -109 94 -109t94 109v782h246v-1071h-246v76q-78 -90 -164 -90q-8 0 -24 2v-350h-246z" />
<glyph unicode="&#x3bc;" horiz-adv-x="839" d="M80 -362v1433h246v-782q0 -109 94 -109t94 109v782h246v-1071h-246v76q-78 -90 -164 -90q-8 0 -24 2v-350h-246z" />
<glyph unicode="&#xb6;" d="M68 1069q0 166 103 272.5t263 106.5h432v-94h-84v-1716h-135v1716h-121v-1716h-135v1056q-137 4 -230 112.5t-93 262.5z" />
<glyph unicode="&#xb7;" horiz-adv-x="434" d="M94 406v260h244v-260h-244z" />
<glyph unicode="&#xb8;" horiz-adv-x="1085" d="M412 -371l18 74q49 -12 76 -12q84 0 84 71q0 61 -98 91v147h108v-80q160 -51 160 -166q0 -145 -213 -145q-55 0 -135 20z" />
<glyph unicode="&#xb9;" horiz-adv-x="606" d="M104 1155v127q141 57 187 139h121v-841h-170v616q-66 -33 -138 -41z" />
<glyph unicode="&#xba;" horiz-adv-x="561" d="M57 739v322q0 78 60.5 125t165.5 47q102 0 162.5 -47t60.5 -125v-322q0 -78 -60.5 -124t-162.5 -46t-164 46t-62 124zM227 748q0 -57 56 -58q51 0 51 58v307q0 57 -51 57q-55 0 -56 -57v-307z" />
<glyph unicode="&#xbb;" horiz-adv-x="657" d="M86 246v203l88 88l-88 86v202l211 -202v-174zM391 246v203l86 88l-86 86v202l211 -202v-174z" />
<glyph unicode="&#xbc;" horiz-adv-x="1392" d="M104 1155v127q141 57 187 139h121v-841h-170v616q-66 -33 -138 -41zM385 0l518 1425h109l-518 -1425h-109zM844 156v127l231 559h205v-553h66v-133h-66v-156h-170v156h-266zM985 289h137v215q0 31 4 133l-36 -88l-21 -49z" />
<glyph unicode="&#xbd;" horiz-adv-x="1392" d="M104 1155v127q141 57 187 139h121v-841h-170v616q-66 -33 -138 -41zM385 0l518 1425h109l-518 -1425h-109zM864 0q0 131 22.5 200.5t86.5 129.5l108 102q74 70 74 131v101q0 59 -59 59q-57 0 -58 -59v-125h-161v92q0 127 58 175t167 48q119 0 180 -63q45 -43 45 -160v-80 q0 -70 -31 -117q-18 -31 -82 -92l-90 -84q-70 -66 -71 -115h284v-143h-473z" />
<glyph unicode="&#xbe;" horiz-adv-x="1392" d="M66 791v71h172v-80q0 -53 11 -68.5t44 -15.5q37 0 48 17.5t11 66.5v99q0 90 -98 90h-43v116h39q102 0 102 82v52q0 45 -11 63.5t-48 18.5q-33 0 -44 -15.5t-11 -66.5v-62h-160v51q0 127 55 170q63 53 168 54q117 0 178 -64q43 -43 43 -160v-53q0 -92 -73 -125 q74 -39 73 -117v-124q0 -115 -59.5 -168.5t-169.5 -53.5q-117 0 -182 68q-45 48 -45 154zM385 0l518 1425h109l-518 -1425h-109zM844 156v127l231 559h205v-553h66v-133h-66v-156h-170v156h-266zM985 289h137v215q0 31 4 133l-36 -88l-21 -49z" />
<glyph unicode="&#xbf;" horiz-adv-x="796" d="M72 281v106q0 129 73 231l105 146q51 74 67 104q25 51 25 117v72h217v-109q0 -70 -20 -119q-55 -127 -115 -211l-68 -92q-41 -57 -41 -139v-61q0 -96 20.5 -124t74.5 -28q70 0 88 45q10 27 10 107v170h229v-183q0 -190 -69 -254q-84 -82 -256 -82q-168 0 -260 82 q-80 72 -80 222zM328 1188v260h245v-260h-245z" />
<glyph unicode="&#xc0;" horiz-adv-x="878" d="M8 0l277 1448h307l278 -1448h-284l-35 240h-232l-38 -240h-273zM31 1929h340l168 -327h-197zM354 457h164l-80 733z" />
<glyph unicode="&#xc1;" horiz-adv-x="878" d="M8 0l277 1448h307l278 -1448h-284l-35 240h-232l-38 -240h-273zM354 457h164l-80 733zM356 1602l166 327h342l-315 -327h-193z" />
<glyph unicode="&#xc2;" horiz-adv-x="878" d="M8 0l277 1448h307l278 -1448h-284l-35 240h-232l-38 -240h-273zM131 1616l195 301h254l194 -301h-209l-110 170l-115 -170h-209zM354 457h164l-80 733z" />
<glyph unicode="&#xc3;" horiz-adv-x="878" d="M8 0l277 1448h307l278 -1448h-284l-35 240h-232l-38 -240h-273zM92 1616v39q0 121 61.5 188.5t174.5 67.5q66 0 133 -29l96 -41q53 -23 74 -22q68 0 78 96h151v-37q0 -121 -55 -189.5t-154 -68.5q-51 0 -96 18l-111 52q-51 23 -102 22q-86 0 -98 -96h-152zM354 457h164 l-80 733z" />
<glyph unicode="&#xc4;" horiz-adv-x="878" d="M8 0l277 1448h307l278 -1448h-284l-35 240h-232l-38 -240h-273zM133 1618v295h244v-295h-244zM354 457h164l-80 733zM530 1618v295h244v-295h-244z" />
<glyph unicode="&#xc5;" horiz-adv-x="878" d="M8 0l277 1448h307l278 -1448h-284l-35 240h-232l-38 -240h-273zM203 1765q0 102 72.5 174t170.5 72q102 0 174 -71.5t72 -176.5q0 -100 -72.5 -171.5t-173.5 -71.5q-98 0 -170.5 72.5t-72.5 172.5zM352 1765q0 -39 28 -67.5t66 -28.5q39 0 68 28.5t29 67.5q0 41 -29 69 t-68 28t-66.5 -28t-27.5 -69zM354 457h164l-80 733z" />
<glyph unicode="&#xc6;" horiz-adv-x="1454" d="M-14 0l524 1448h866v-217h-461v-348h439v-217h-439v-449h488v-217h-754v297h-276l-94 -297h-293zM438 514h211l-6 676q-4 -23 -29 -111z" />
<glyph unicode="&#xc7;" horiz-adv-x="933" d="M76 309v830q0 168 107.5 249.5t289.5 81.5q199 0 311 -98q88 -78 88 -233v-226h-266v220q0 127 -133 127q-131 0 -131 -127v-803q0 -127 131 -127q133 0 133 127v219h266v-240q0 -195 -147 -274q-76 -41 -186 -55v-60q176 -51 176 -168q0 -147 -228 -147q-113 0 -208 47 l38 72q72 -27 117 -27q74 0 74 65q0 61 -94 91v127q-113 12 -191 55q-147 79 -147 274z" />
<glyph unicode="&#xc8;" horiz-adv-x="899" d="M63 1929h340l168 -327h-196zM100 0v1448h725v-217h-458v-348h438v-217h-438v-449h485v-217h-752z" />
<glyph unicode="&#xc9;" horiz-adv-x="899" d="M100 0v1448h725v-217h-458v-348h438v-217h-438v-449h485v-217h-752zM375 1602l168 327h340l-314 -327h-194z" />
<glyph unicode="&#xca;" horiz-adv-x="899" d="M100 0v1448h725v-217h-458v-348h438v-217h-438v-449h485v-217h-752zM143 1616l195 301h254l196 -301h-210l-111 170l-113 -170h-211z" />
<glyph unicode="&#xcb;" horiz-adv-x="899" d="M100 0v1448h725v-217h-458v-348h438v-217h-438v-449h485v-217h-752zM152 1618v295h245v-295h-245zM549 1618v295h246v-295h-246z" />
<glyph unicode="&#xcc;" horiz-adv-x="464" d="M-168 1929h342l166 -327h-195zM102 0v1448h267v-1448h-267z" />
<glyph unicode="&#xcd;" horiz-adv-x="464" d="M100 0v1448h267v-1448h-267zM158 1602l168 327h340l-314 -327h-194z" />
<glyph unicode="&#xce;" horiz-adv-x="464" d="M-82 1616l195 301h254l196 -301h-211l-110 170l-113 -170h-211zM100 0v1448h267v-1448h-267z" />
<glyph unicode="&#xcf;" horiz-adv-x="464" d="M-43 1618v295h246v-295h-246zM100 0v1448h267v-1448h-267zM295 1618v295h246v-295h-246z" />
<glyph unicode="&#xd0;" horiz-adv-x="976" d="M10 674v200h88v574h432q197 0 291 -105q74 -82 74 -237v-766q0 -162 -89 -251t-276 -89h-432v674h-88zM365 217h122q139 0 140 137v738q0 139 -140 139h-122v-357h122v-200h-122v-457z" />
<glyph unicode="&#xd1;" horiz-adv-x="1024" d="M100 0v1448h318l139 -502q2 -14 45 -145l84 -291l39 -145q-8 66 -27 165q-41 250 -41 412v506h269v-1448h-299l-170 598l-31 127q-2 6 -33 127l-33 127l-30 127q37 -377 37 -574v-532h-267zM172 1616v39q0 121 61.5 188.5t174.5 67.5q66 0 133 -29l98 -41q51 -23 74 -22 q68 0 75 96h152v-37q0 -121 -55.5 -189.5t-153.5 -68.5q-51 0 -94 18l-111 52q-53 23 -102 22q-88 0 -100 -96h-152z" />
<glyph unicode="&#xd2;" horiz-adv-x="962" d="M80 1929h342l166 -327h-195zM84 309v830q0 168 107.5 249.5t289.5 81.5q197 0 310 -98q88 -78 88 -233v-830q0 -168 -108.5 -250t-289.5 -82q-195 0 -307 99q-90 77 -90 233zM352 315q0 -127 129 -127q131 0 131 127v818q0 127 -131 127q-129 0 -129 -127v-818z" />
<glyph unicode="&#xd3;" horiz-adv-x="962" d="M84 309v830q0 168 107.5 249.5t289.5 81.5q199 0 312 -98q88 -78 88 -233v-830q0 -168 -107.5 -250t-292.5 -82q-195 0 -307 99q-90 77 -90 233zM352 315q0 -127 129 -127q133 0 133 127v818q0 127 -131 127t-131 -127v-818zM393 1602l166 327h342l-315 -327h-193z" />
<glyph unicode="&#xd4;" horiz-adv-x="962" d="M84 309v830q0 168 107.5 249.5t289.5 81.5q199 0 312 -98q88 -78 88 -233v-830q0 -168 -107.5 -250t-292.5 -82q-195 0 -307 99q-90 77 -90 233zM168 1616l194 301h254l195 -301h-209l-110 170l-115 -170h-209zM352 315q0 -127 129 -127q133 0 133 127v818 q0 127 -131 127t-131 -127v-818z" />
<glyph unicode="&#xd5;" horiz-adv-x="962" d="M84 309v830q0 168 107.5 249.5t289.5 81.5q199 0 312 -98q88 -78 88 -233v-830q0 -168 -107.5 -250t-292.5 -82q-195 0 -307 99q-90 77 -90 233zM141 1616v39q0 121 61.5 188.5t174.5 67.5q66 0 133 -29l98 -41q51 -23 74 -22q68 0 76 96h151v-37q0 -121 -55 -189.5 t-154 -68.5q-51 0 -94 18l-110 52q-53 23 -103 22q-88 0 -100 -96h-152zM352 315q0 -127 129 -127q133 0 133 127v818q0 127 -131 127t-131 -127v-818z" />
<glyph unicode="&#xd6;" horiz-adv-x="962" d="M84 309v830q0 168 107.5 249.5t289.5 81.5q199 0 312 -98q88 -78 88 -233v-830q0 -168 -107.5 -250t-292.5 -82q-195 0 -307 99q-90 77 -90 233zM170 1618v295h244v-295h-244zM352 315q0 -127 129 -127q133 0 133 127v818q0 127 -131 127t-131 -127v-818zM567 1618v295 h244v-295h-244z" />
<glyph unicode="&#xd7;" d="M94 514l185 184l-181 179l154 155l180 -178l189 188l151 -153l-188 -191l180 -180l-154 -151l-178 178l-184 -185z" />
<glyph unicode="&#xd8;" horiz-adv-x="962" d="M-49 51l133 201q-2 25 -2 57v830q0 168 108.5 249.5t288.5 81.5q221 0 342 -129l88 136l103 -70l-138 -203q4 -23 5 -65v-830q0 -168 -107.5 -250t-292.5 -82q-227 0 -340 134l-88 -131zM350 315q0 -127 129 -127q133 0 133 127v496l-262 -385v-111zM350 647l262 385v101 q0 127 -131 127t-131 -127v-486z" />
<glyph unicode="&#xd9;" horiz-adv-x="968" d="M82 1929h342l166 -327h-195zM86 309v1139h268v-1133q0 -127 129 -127q131 0 131 127v1133h267v-1139q0 -168 -108.5 -250t-289.5 -82q-195 0 -307 99q-90 77 -90 233z" />
<glyph unicode="&#xda;" horiz-adv-x="968" d="M86 309v1139h268v-1133q0 -127 131 -127t131 127v1133h267v-1139q0 -168 -107.5 -250t-292.5 -82q-195 0 -307 99q-90 77 -90 233zM408 1602l167 327h340l-313 -327h-194z" />
<glyph unicode="&#xdb;" horiz-adv-x="968" d="M86 309v1139h268v-1133q0 -127 131 -127t131 127v1133h267v-1139q0 -168 -107.5 -250t-292.5 -82q-195 0 -307 99q-90 77 -90 233zM170 1616l195 301h253l197 -301h-211l-110 170l-113 -170h-211z" />
<glyph unicode="&#xdc;" horiz-adv-x="968" d="M86 309v1139h268v-1133q0 -127 131 -127t131 127v1133h267v-1139q0 -168 -107.5 -250t-292.5 -82q-195 0 -307 99q-90 77 -90 233zM172 1618v295h246v-295h-246zM569 1618v295h246v-295h-246z" />
<glyph unicode="&#xdd;" horiz-adv-x="800" d="M-10 1448h280l99 -459q33 -154 39 -260q4 31 10 66l6 65q6 70 18 129l97 459h272l-272 -1008v-440h-269v451zM326 1602l168 327h340l-316 -327h-192z" />
<glyph unicode="&#xde;" horiz-adv-x="937" d="M100 0v1448h267v-277h295q236 0 235 -258v-254q0 -205 -57.5 -270t-239.5 -65h-233v-324h-267zM367 541h133q74 0 101.5 24.5t27.5 93.5v162q0 78 -27 105.5t-102 27.5h-133v-413z" />
<glyph unicode="&#xdf;" horiz-adv-x="829" d="M80 0v1133q0 203 84 270q76 59 231 59q319 0 320 -243v-146q0 -137 -94 -190q88 -35 113.5 -76t25.5 -182v-361q0 -141 -51 -198q-72 -80 -209 -80q-43 0 -111 14v145q18 -8 35 -8q53 0 78 45q12 25 12 109v319q0 92 -23.5 126t-89.5 34h-12v166h10q98 0 99 117v137 q0 106 -86 106q-55 0 -76 -41q-10 -27 -10 -96v-1159h-246z" />
<glyph unicode="&#xe0;" horiz-adv-x="806" d="M47 1534h311l148 -291h-174zM63 248v106q0 104 38 153.5t161 110.5l219 107v100q0 80 -84 80q-86 0 -86 -80v-100h-233v147q0 106 86 156q92 57 246 57q176 0 258 -81q61 -61 61 -199v-655q0 -100 43 -150h-260q-25 29 -31 78q-90 -92 -207 -92q-109 0 -165 67 q-46 58 -46 195zM311 264q0 -96 64 -96q53 0 92 39q14 14 14 57v262l-94 -55q-76 -43 -76 -139v-68z" />
<glyph unicode="&#xe1;" horiz-adv-x="806" d="M63 248v106q0 104 38 153.5t161 110.5l219 107v100q0 80 -84 80q-86 0 -86 -80v-100h-233v147q0 106 86 156q92 57 246 57q176 0 258 -81q61 -61 61 -199v-655q0 -100 43 -150h-260q-25 29 -31 78q-90 -92 -207 -92q-109 0 -165 67q-46 58 -46 195zM311 264q0 -96 64 -96 q53 0 92 39q14 14 14 57v262l-94 -55q-76 -43 -76 -139v-68zM340 1243l147 291h312l-285 -291h-174z" />
<glyph unicode="&#xe2;" horiz-adv-x="806" d="M63 248v106q0 104 38 153.5t161 110.5l219 107v100q0 80 -84 80q-86 0 -86 -80v-100h-233v147q0 106 86 156q92 57 246 57q176 0 258 -81q61 -61 61 -199v-655q0 -100 43 -150h-260q-25 29 -31 78q-90 -92 -207 -92q-109 0 -165 67q-46 58 -46 195zM121 1253l180 277h238 l178 -277h-199l-98 154l-98 -154h-201zM311 264q0 -96 64 -96q53 0 92 39q14 14 14 57v262l-94 -55q-76 -43 -76 -139v-68z" />
<glyph unicode="&#xe3;" horiz-adv-x="806" d="M63 248v106q0 104 38 153.5t161 110.5l219 107v100q0 80 -84 80q-86 0 -86 -80v-100h-233v147q0 106 86 156q92 57 246 57q176 0 258 -81q61 -61 61 -199v-655q0 -100 43 -150h-260q-25 29 -31 78q-90 -92 -207 -92q-109 0 -165 67q-46 58 -46 195zM115 1257v35 q0 227 211 228q57 0 116 -27l86 -37q39 -16 66 -16q59 0 68 82h133v-31q0 -109 -49.5 -169t-135.5 -60q-45 0 -84 16l-98 45q-55 23 -90 23q-78 0 -88 -89h-135zM311 264q0 -96 64 -96q53 0 92 39q14 14 14 57v262l-94 -55q-76 -43 -76 -139v-68z" />
<glyph unicode="&#xe4;" horiz-adv-x="806" d="M63 248v106q0 104 38 153.5t161 110.5l219 107v100q0 80 -84 80q-86 0 -86 -80v-100h-233v147q0 106 86 156q92 57 246 57q176 0 258 -81q61 -61 61 -199v-655q0 -100 43 -150h-260q-25 29 -31 78q-90 -92 -207 -92q-109 0 -165 67q-46 58 -46 195zM135 1260v260h217 v-260h-217zM311 264q0 -96 64 -96q53 0 92 39q14 14 14 57v262l-94 -55q-76 -43 -76 -139v-68zM485 1260v260h217v-260h-217z" />
<glyph unicode="&#xe5;" horiz-adv-x="806" d="M63 248v106q0 104 38 153.5t161 110.5l219 107v100q0 80 -84 80q-86 0 -86 -80v-100h-233v147q0 106 86 156q92 57 246 57q176 0 258 -81q61 -61 61 -199v-655q0 -100 43 -150h-260q-25 29 -31 78q-90 -92 -207 -92q-109 0 -165 67q-46 58 -46 195zM209 1389 q0 90 63.5 153.5t153.5 63.5t153.5 -63.5t63.5 -156.5q0 -86 -64.5 -150.5t-152.5 -64.5q-90 0 -153.5 65t-63.5 153zM311 264q0 -96 64 -96q53 0 92 39q14 14 14 57v262l-94 -55q-76 -43 -76 -139v-68zM340 1389q0 -35 25.5 -59.5t60.5 -24.5t59.5 24.5t24.5 59.5 t-24.5 60.5t-59.5 25.5t-60.5 -25.5t-25.5 -60.5z" />
<glyph unicode="&#xe6;" horiz-adv-x="1247" d="M63 332q0 143 66 209.5t188 107.5l181 62v53q0 70 -24.5 98.5t-84.5 28.5q-80 0 -80 -100v-64h-246v115q0 133 87.5 188t230.5 55q123 0 217 -59q100 59 229 59q160 0 255.5 -75.5t95.5 -202.5v-324h-435v-237q0 -80 82 -80q106 0 107 80v114h246v-98 q0 -127 -96.5 -201.5t-258.5 -74.5q-143 0 -258 80q-109 -80 -250 -80q-178 0 -227 110q-25 60 -25 236zM309 313q0 -133 88 -133q41 0 76 31q25 18 25 57v262l-84 -49q-59 -35 -82 -67.5t-23 -100.5zM743 651h189v172q0 82 -96 82q-92 0 -93 -82v-172z" />
<glyph unicode="&#xe7;" horiz-adv-x="808" d="M72 262v545q0 129 92 203.5t248 74.5t248 -75.5t92 -202.5v-145h-246v161q0 82 -94 82t-95 -82v-577q0 -80 95 -80q94 0 94 80v188h246v-172q0 -117 -77 -190.5t-212 -83.5v-68q160 -51 160 -166q0 -145 -213 -145q-57 0 -136 20l19 74q47 -12 76 -12q86 0 86 71 q0 61 -101 91v135q-282 34 -282 274z" />
<glyph unicode="&#xe8;" horiz-adv-x="821" d="M39 1534h311l148 -291h-174zM72 262v545q0 129 92 203.5t248 74.5q158 0 249 -74.5t91 -203.5v-324h-435v-237q0 -80 95 -80q94 0 94 80v114h246v-98q0 -127 -92.5 -201.5t-249.5 -74.5q-154 0 -246 75.5t-92 200.5zM317 651h189v172q0 82 -96 82q-92 0 -93 -82v-172z " />
<glyph unicode="&#xe9;" horiz-adv-x="821" d="M72 262v545q0 129 91 203.5t249 74.5t249 -74.5t91 -203.5v-324h-435v-237q0 -80 95 -80q94 0 94 80v114h246v-98q0 -127 -92.5 -201.5t-249.5 -74.5q-156 0 -247 74.5t-91 201.5zM317 651h189v172q0 82 -96 82q-92 0 -93 -82v-172zM332 1243l147 291h312l-285 -291h-174 z" />
<glyph unicode="&#xea;" horiz-adv-x="821" d="M72 262v545q0 129 91 203.5t249 74.5t249 -74.5t91 -203.5v-324h-435v-237q0 -80 95 -80q94 0 94 80v114h246v-98q0 -127 -92.5 -201.5t-249.5 -74.5q-156 0 -247 74.5t-91 201.5zM129 1253l180 277h236l178 -277h-197l-100 154l-98 -154h-199zM317 651h189v172 q0 82 -96 82q-92 0 -93 -82v-172z" />
<glyph unicode="&#xeb;" horiz-adv-x="821" d="M72 262v545q0 129 91 203.5t249 74.5t249 -74.5t91 -203.5v-324h-435v-237q0 -80 95 -80q94 0 94 80v114h246v-98q0 -127 -92.5 -201.5t-249.5 -74.5q-156 0 -247 74.5t-91 201.5zM141 1260v260h217v-260h-217zM317 651h189v172q0 82 -96 82q-92 0 -93 -82v-172z M494 1260v260h217v-260h-217z" />
<glyph unicode="&#xec;" horiz-adv-x="405" d="M-170 1534h311l148 -291h-174zM80 0v1071h246v-1071h-246z" />
<glyph unicode="&#xed;" horiz-adv-x="405" d="M80 0v1071h246v-1071h-246zM139 1243l148 291h311l-285 -291h-174z" />
<glyph unicode="&#xee;" horiz-adv-x="405" d="M-88 1253l180 277h236l178 -277h-197l-100 154l-98 -154h-199zM78 0v1071h246v-1071h-246z" />
<glyph unicode="&#xef;" horiz-adv-x="405" d="M-45 1260v260h217v-260h-217zM80 0v1071h246v-1071h-246zM248 1260v260h217v-260h-217z" />
<glyph unicode="&#xf0;" horiz-adv-x="819" d="M72 264v543q0 125 91 201.5t238 76.5q20 0 35 -2l-41 146l-207 -62l-34 125l206 58l-41 147l132 37l63 -135l195 53l43 -121l-183 -53l140 -299q43 -94 43 -172v-543q0 -135 -102.5 -206.5t-235.5 -71.5q-158 0 -250 74.5t-92 203.5zM317 274q0 -109 95 -108q94 0 94 108 v523q0 109 -94 108q-94 0 -95 -108v-523z" />
<glyph unicode="&#xf1;" horiz-adv-x="839" d="M80 0v1071h246v-78q94 92 196 92q172 0 217 -135q20 -55 21 -153v-797h-246v782q0 109 -92 109q-96 0 -96 -109v-782h-246zM131 1257v35q0 227 209 228q57 0 119 -27l84 -37q39 -16 67 -16q57 0 68 82h131v-31q0 -109 -48 -169t-136 -60q-45 0 -84 16l-99 45 q-53 23 -88 23q-78 0 -90 -89h-133z" />
<glyph unicode="&#xf2;" horiz-adv-x="821" d="M39 1534h311l148 -291h-174zM70 262v545q0 129 92 203.5t248 74.5q158 0 250 -74.5t92 -203.5v-545q0 -127 -92.5 -201.5t-249.5 -74.5q-156 0 -248 74.5t-92 201.5zM315 274q0 -109 95 -108q96 0 96 108v523q0 109 -96 108q-94 0 -95 -108v-523z" />
<glyph unicode="&#xf3;" horiz-adv-x="821" d="M72 262v545q0 129 92 203.5t248 74.5t248 -75.5t92 -202.5v-545q0 -125 -92.5 -200.5t-247.5 -75.5q-156 0 -248 74.5t-92 201.5zM317 274q0 -109 95 -108q94 0 94 108v523q0 109 -94 108q-94 0 -95 -108v-523zM332 1243l147 291h312l-285 -291h-174z" />
<glyph unicode="&#xf4;" horiz-adv-x="821" d="M72 262v545q0 129 92 203.5t248 74.5t248 -75.5t92 -202.5v-545q0 -125 -92.5 -200.5t-247.5 -75.5q-156 0 -248 74.5t-92 201.5zM121 1253l180 277h238l178 -277h-199l-98 154l-98 -154h-201zM317 274q0 -109 95 -108q94 0 94 108v523q0 109 -94 108q-94 0 -95 -108 v-523z" />
<glyph unicode="&#xf5;" horiz-adv-x="821" d="M72 262v545q0 129 92 203.5t248 74.5t248 -75.5t92 -202.5v-545q0 -125 -92.5 -200.5t-247.5 -75.5q-156 0 -248 74.5t-92 201.5zM98 1257v35q0 227 211 228q55 0 117 -27l84 -37q39 -16 68 -16q59 0 67 82h131v-31q0 -109 -48 -169t-136 -60q-45 0 -84 16l-98 45 q-53 23 -88 23q-78 0 -91 -89h-133zM317 274q0 -109 95 -108q94 0 94 108v523q0 109 -94 108q-94 0 -95 -108v-523z" />
<glyph unicode="&#xf6;" horiz-adv-x="821" d="M72 262v545q0 129 92 203.5t248 74.5t248 -75.5t92 -202.5v-545q0 -125 -92.5 -200.5t-247.5 -75.5q-156 0 -248 74.5t-92 201.5zM135 1260v260h217v-260h-217zM317 274q0 -109 95 -108q94 0 94 108v523q0 109 -94 108q-94 0 -95 -108v-523zM485 1260v260h217v-260h-217z " />
<glyph unicode="&#xf7;" d="M86 592v217h696v-217h-696zM297 371q0 57 42 97t95 40q59 0 99 -40t40 -99q0 -53 -39.5 -95.5t-97.5 -42.5q-55 0 -97 42.5t-42 97.5zM297 1036q0 55 42 95t95 40q59 0 99 -39.5t40 -97.5q0 -55 -39.5 -96t-97.5 -41q-55 0 -97 41t-42 98z" />
<glyph unicode="&#xf8;" horiz-adv-x="821" d="M12 68l72 104q-12 43 -12 90v545q0 129 91 203.5t247 74.5q141 0 241 -71l64 84l94 -78l-82 -100q25 -49 25 -113v-545q0 -127 -92.5 -201.5t-249.5 -74.5q-147 0 -256 82l-43 -64zM317 274q0 -109 93 -108q96 0 96 108v314l-189 -279v-35zM317 516l189 279 q0 111 -96 110q-92 0 -93 -108v-281z" />
<glyph unicode="&#xf9;" horiz-adv-x="839" d="M47 1534h311l148 -291h-174zM78 274v797h248v-782q0 -109 94 -109t94 109v782h246v-1071h-246v76q-92 -90 -197 -90q-174 0 -219 135q-20 55 -20 153z" />
<glyph unicode="&#xfa;" horiz-adv-x="839" d="M80 274v797h246v-782q0 -109 96 -109q92 0 92 109v782h246v-1071h-246v76q-90 -90 -195 -90q-174 0 -219 135q-20 55 -20 153zM356 1243l148 291h311l-285 -291h-174z" />
<glyph unicode="&#xfb;" horiz-adv-x="839" d="M80 274v797h246v-782q0 -109 96 -109q92 0 92 109v782h246v-1071h-246v76q-90 -90 -195 -90q-174 0 -219 135q-20 55 -20 153zM131 1253l180 277h236l178 -277h-197l-100 154l-98 -154h-199z" />
<glyph unicode="&#xfc;" horiz-adv-x="839" d="M80 274v797h246v-782q0 -109 96 -109q92 0 92 109v782h246v-1071h-246v76q-90 -90 -195 -90q-174 0 -219 135q-20 55 -20 153zM143 1260v260h217v-260h-217zM496 1260v260h217v-260h-217z" />
<glyph unicode="&#xfd;" horiz-adv-x="700" d="M-27 1071h256l86 -360l19 -109q20 -98 31 -254q2 147 20 254l76 469h252l-211 -1069q-43 -223 -110.5 -301t-215.5 -78q-63 0 -149 19l34 200q55 -20 89 -20q61 0 83 49q31 63 31 100t-18 109zM293 1243l147 291h312l-285 -291h-174z" />
<glyph unicode="&#xfe;" horiz-adv-x="829" d="M80 -362v1810h246v-471q84 109 202 108q150 0 207 -114q25 -49 25 -162v-549q0 -160 -71 -217t-161 -57q-119 0 -202 108v-456h-246zM326 289q0 -109 96 -109q92 0 92 109v493q0 109 -92 109q-96 0 -96 -109v-493z" />
<glyph unicode="&#xff;" horiz-adv-x="700" d="M-27 1071h256l86 -360l19 -109q20 -98 31 -254q2 147 20 254l76 469h252l-211 -1069q-43 -223 -110.5 -301t-215.5 -78q-63 0 -149 19l34 200q55 -20 89 -20q61 0 83 49q31 63 31 100t-18 109zM74 1260v260h217v-260h-217zM426 1260v260h217v-260h-217z" />
<glyph unicode="&#x152;" horiz-adv-x="1415" d="M84 334v780q0 195 102 281q94 76 273 75q178 0 266 -98v76h614v-217h-460v-348h438v-217h-438v-449h487v-217h-641v76q-88 -98 -266 -99q-199 0 -289 93q-86 84 -86 264zM352 315q0 -127 129 -127q131 0 131 127v818q0 127 -131 127q-129 0 -129 -127v-818z" />
<glyph unicode="&#x153;" horiz-adv-x="1255" d="M72 262v545q0 127 92 202.5t246 75.5q127 0 219 -53q94 53 217 53q158 0 249 -74.5t91 -203.5v-324h-434v-237q0 -80 94 -80t94 80v114h246v-98q0 -125 -92.5 -200.5t-247.5 -75.5q-123 0 -217 53q-92 -53 -219 -53q-154 0 -246 75.5t-92 200.5zM317 274q0 -109 95 -108 q94 0 94 108v523q0 109 -94 108q-94 0 -95 -108v-523zM752 651h188v172q0 82 -96 82q-92 0 -92 -82v-172z" />
<glyph unicode="&#x178;" horiz-adv-x="800" d="M-10 1448h280l99 -459q33 -154 39 -260q4 31 10 66l6 65q6 70 18 129l97 459h272l-272 -1008v-440h-269v451zM86 1618v295h246v-295h-246zM483 1618v295h246v-295h-246z" />
<glyph unicode="&#x2c6;" horiz-adv-x="1085" d="M246 1253l180 277h236l178 -277h-197l-100 154l-99 -154h-198z" />
<glyph unicode="&#x2dc;" horiz-adv-x="1085" d="M203 1257v35q0 227 209 228q57 0 118 -27l84 -37q39 -16 68 -16q57 0 68 82h131v-31q0 -109 -48.5 -169t-136.5 -60q-45 0 -84 16l-98 45q-53 23 -88 23q-78 0 -90 -89h-133z" />
<glyph unicode="&#x2013;" d="M86 428v217h696v-217h-696z" />
<glyph unicode="&#x2014;" horiz-adv-x="1112" d="M0 428v217h1114v-217h-1114z" />
<glyph unicode="&#x2018;" horiz-adv-x="434" d="M94 911v260l158 277h102l-145 -277h129v-260h-244z" />
<glyph unicode="&#x2019;" horiz-adv-x="434" d="M80 911l145 277h-129v260h244v-260l-158 -277h-102z" />
<glyph unicode="&#x201a;" horiz-adv-x="434" d="M80 -276l145 276h-129v260h244v-260l-158 -276h-102z" />
<glyph unicode="&#x201c;" horiz-adv-x="774" d="M94 911v260l158 277h102l-145 -277h129v-260h-244zM434 911v260l158 277h102l-145 -277h131v-260h-246z" />
<glyph unicode="&#x201d;" horiz-adv-x="774" d="M80 911l145 277h-129v260h244v-260l-158 -277h-102zM422 911l145 277h-131v260h246v-260l-160 -277h-100z" />
<glyph unicode="&#x201e;" horiz-adv-x="774" d="M80 -276l145 276h-129v260h244v-260l-158 -276h-102zM422 -276l145 276h-131v260h246v-260l-160 -276h-100z" />
<glyph unicode="&#x2022;" horiz-adv-x="1447" d="M426 733q0 127 89 215t216 88q121 0 208 -89t87 -212q0 -125 -87 -213t-212 -88q-123 0 -212 88t-89 211z" />
<glyph unicode="&#x2026;" horiz-adv-x="1302" d="M94 0v260h244v-260h-244zM528 0v260h244v-260h-244zM963 0v260h243v-260h-243z" />
<glyph unicode="&#x2039;" horiz-adv-x="352" d="M59 449v174l209 202v-202l-86 -86l86 -88v-203z" />
<glyph unicode="&#x203a;" horiz-adv-x="352" d="M86 246v203l88 88l-88 86v202l211 -202v-174z" />
<glyph unicode="&#x20ac;" horiz-adv-x="1138" d="M86 625l53 204h117v310q0 168 107.5 249.5t289.5 81.5q199 0 312 -98q88 -78 88 -233v-226h-267v220q0 127 -131 127q-133 0 -133 -127v-304h373l-53 -204h-320v-295q0 -127 131 -127q133 0 133 127v219h267v-240q0 -168 -107.5 -250t-292.5 -82q-195 0 -307 99 q-90 78 -90 233v316h-170z" />
<glyph unicode="&#x2122;" horiz-adv-x="1402" d="M14 1311v137h508v-137h-164v-688h-180v688h-164zM592 623v825h282l72 -324q10 -45 27 -206q8 76 28 206l72 324h279v-825h-174v491q0 55 2 117l-127 -608h-154l-137 604l2 -45l4 -68v-491h-176z" />
<glyph unicode="&#xe000;" horiz-adv-x="1070" d="M0 1070h1070v-1070h-1070v1070z" />
<glyph unicode="&#xfb01;" horiz-adv-x="909" d="M584 0v1071h246v-1071h-246zM584 1208v240h246v-240h-246zM6 903v168h115v158q0 242 252 241q33 0 110 -8v-196h-45q-72 0 -71 -78v-117h110v-168h-110v-903h-246v903h-115z" />
<glyph unicode="&#xfb02;" horiz-adv-x="909" d="M584 0v1448h246v-1448h-246zM6 903v168h115v158q0 242 252 241q33 0 110 -8v-196h-45q-72 0 -71 -78v-117h110v-168h-110v-903h-246v903h-115z" />
<glyph unicode="&#xfb03;" horiz-adv-x="1413" d="M6 903v168h115v158q0 242 252 241q31 0 110 -8v-196h-45q-72 0 -71 -78v-117h258v158q0 242 252 241q33 0 110 -8v-196h-45q-72 0 -72 -78v-117h111v-168h-111v-903h-245v903h-258v-903h-246v903h-115zM1087 0v1071h246v-1071h-246zM1087 1208v240h246v-240h-246z" />
<glyph unicode="&#xfb04;" horiz-adv-x="1413" d="M6 903v168h115v158q0 242 252 241q31 0 110 -8v-196h-45q-72 0 -71 -78v-117h258v158q0 242 252 241q33 0 110 -8v-196h-45q-72 0 -72 -78v-117h111v-168h-111v-903h-245v903h-258v-903h-246v903h-115zM1087 0v1448h246v-1448h-246z" />
</font>
</defs>
</svg>
