<?xml version="1.0" standalone="no"?>
<!DOCTYPE svg PUBLIC "-//W3C//DTD SVG 1.1//EN" "http://www.w3.org/Graphics/SVG/1.1/DTD/svg11.dtd" >
<svg xmlns="http://www.w3.org/2000/svg">
<metadata>
This is a custom SVG webfont generated by Font Squirrel.
Copyright   :  Copyright SoftMaker Software GmbH and its licensors
Designer    : SoftMaker Software GmbH
Foundry     : SoftMaker Software GmbH
Foundry URL : httpwwwsoftmakerde
</metadata>
<defs>
<font id="BilbaoBlack" horiz-adv-x="1155" >
<font-face units-per-em="2048" ascent="1638" descent="-410" />
<missing-glyph horiz-adv-x="542" />
<glyph unicode=" "  horiz-adv-x="542" />
<glyph unicode="&#x09;" horiz-adv-x="542" />
<glyph unicode="&#xa0;" horiz-adv-x="542" />
<glyph unicode="!" horiz-adv-x="935" d="M217 225q0 104 75 177t181 73q109 0 178.5 -71.5t69.5 -182.5q0 -102 -74 -176t-176 -74q-104 0 -179 75t-75 179zM264 1448h408l-8 -899h-375z" />
<glyph unicode="&#x22;" horiz-adv-x="1085" d="M143 1448h363l-80 -580h-203zM580 1448h364l-82 -580h-203z" />
<glyph unicode="#" horiz-adv-x="1464" d="M129 387l31 231h200l31 218h-201l33 233h201l53 379h252l-51 -379h184l53 379h252l-51 -379h223l-32 -233h-224l-30 -218h223l-33 -231h-223l-53 -387h-240l55 387h-215l-55 -387h-238l54 387h-199zM600 618h215l29 218h-215z" />
<glyph unicode="$" d="M201 68v381q88 -20 116 -21q53 0 87 33t34 84q0 43 -16 76.5t-88 134.5q-90 127 -90 266q0 213 151 356v240h402v-133q100 -16 159 -58v-376q-76 39 -125 39q-45 0 -75.5 -28t-30.5 -71q0 -49 49 -125q94 -141 124 -214.5t30 -159.5q0 -182 -131 -320v-332h-402v164 q-106 17 -194 64z" />
<glyph unicode="%" horiz-adv-x="1851" d="M59 1092q0 158 112 267t271 109q152 0 263.5 -112.5t111.5 -265.5q0 -158 -111.5 -268.5t-267.5 -110.5q-158 0 -268.5 111.5t-110.5 269.5zM270 1090q0 -70 48.5 -119t117.5 -49q70 0 119 49t49 119q0 68 -49 116.5t-115 48.5q-72 0 -121 -47.5t-49 -117.5zM563 0 l586 1448h127l-586 -1448h-127zM1036 367q0 160 113 269t272 109q152 0 263.5 -113.5t111.5 -266.5q0 -156 -111.5 -267.5t-269.5 -111.5t-268.5 111.5t-110.5 269.5zM1249 367q0 -70 48.5 -120t117.5 -50q70 0 119 50t49 118t-49 117.5t-117 49.5q-70 0 -119 -48.5 t-49 -116.5z" />
<glyph unicode="&#x26;" horiz-adv-x="1652" d="M254 426q0 217 188 371q-102 133 -102 266q0 174 121 298t293 124q166 0 288.5 -120t122.5 -282q0 -35 -2 -57h-327q-6 109 -76 109q-61 0 -62 -60q0 -23 19 -49l270 -405h270q4 -66 5 -76q0 -121 -64 -234l205 -311h-379l-43 51q-121 -88 -256 -88q-195 0 -333 135 t-138 328zM592 430q0 -45 32.5 -79t75.5 -34q35 0 72 29l-127 176q-53 -37 -53 -92z" />
<glyph unicode="'" horiz-adv-x="542" d="M82 1448h379l-84 -580h-211z" />
<glyph unicode="(" horiz-adv-x="796" d="M150 588q0 244 58 438.5t200 421.5h294q-211 -446 -210 -862q0 -414 210 -862h-294q-145 233 -201.5 422.5t-56.5 441.5z" />
<glyph unicode=")" horiz-adv-x="796" d="M92 -276q211 451 211 862q0 414 -211 862h295q145 -233 201.5 -423.5t56.5 -440.5q0 -244 -58.5 -437.5t-199.5 -422.5h-295z" />
<glyph unicode="*" horiz-adv-x="1085" d="M201 1286l223 -20q6 152 160 219l51 -223q33 8 55 8q102 0 193 -92l-189 -115q45 -70 45 -143q0 -57 -39 -136l-163 144q-76 -84 -187 -84q-16 0 -67 8l90 209q-156 45 -172 225z" />
<glyph unicode="+" d="M66 588v301h360v379l307 -2v-377h359v-301h-359v-379l-307 2v377h-360z" />
<glyph unicode="," horiz-adv-x="808" d="M158 213q0 106 71.5 179t176.5 73q104 0 173.5 -73t69.5 -181q0 -119 -84 -217q-63 -74 -168 -105v78q-106 6 -172.5 75t-66.5 171z" />
<glyph unicode="-" horiz-adv-x="483" d="M0 502v280h483v-280h-483z" />
<glyph unicode="." horiz-adv-x="819" d="M158 225q0 102 73.5 176t176.5 74q104 0 179 -74.5t75 -179.5q0 -104 -75 -177t-181 -73q-109 0 -178.5 71.5t-69.5 182.5z" />
<glyph unicode="/" horiz-adv-x="751" d="M63 -276l396 1724h192l-395 -1724h-193z" />
<glyph unicode="0" d="M76 565v318q0 281 135 441.5t367 160.5q231 0 366 -161t135 -441v-318q0 -281 -135 -441.5t-366 -160.5t-366.5 161.5t-135.5 440.5zM461 479q0 -131 117 -131t116 131v490q0 131 -116 131q-117 0 -117 -131v-490z" />
<glyph unicode="1" d="M373 0v1448h411v-1448h-411z" />
<glyph unicode="2" d="M68 977q0 211 147 359.5t358 148.5q209 0 355.5 -147.5t146.5 -358.5q0 -121 -55 -225l-174 -334h244v-420h-936l464 872q35 66 35 99q0 37 -27.5 61.5t-70.5 24.5q-41 0 -69.5 -29t-28.5 -72t39 -79l-187 -330q-241 149 -241 430z" />
<glyph unicode="3" d="M219 10v412q96 -59 162 -60q74 0 124 53.5t50 129.5q0 119 -117 172q-55 27 -159 28l108 287h-162v416h766l-235 -555q113 -76 164 -158q80 -119 79 -274q0 -211 -153.5 -354.5t-378.5 -143.5q-121 0 -248 47z" />
<glyph unicode="4" d="M-14 432l426 1016h637v-1448h-408v1106l-180 -358h88v-316h-563z" />
<glyph unicode="5" d="M143 694l154 754h674v-416h-357l-20 -65q170 -51 260 -131q158 -145 158 -377q0 -213 -157 -354.5t-392 -141.5q-162 0 -318 84v356q121 -61 220 -61q96 0 153 45t57 119q0 86 -86 147.5t-208 61.5q-58 -1 -138 -21z" />
<glyph unicode="6" d="M27 504q0 100 77 315l244 670l379 -135l-283 -789q-12 -37 -12 -61q0 -57 42 -99.5t101 -42.5t100.5 41t41.5 103q0 59 -41 101t-98 42q-8 0 -43 -4l174 416q160 -72 243 -143q178 -152 178 -398q0 -231 -159.5 -394t-388.5 -163q-223 0 -389 161t-166 380z" />
<glyph unicode="7" d="M113 1034v414h977l-422 -1448h-441l328 1034h-442z" />
<glyph unicode="8" d="M66 469q0 199 157 360q-78 109 -78 232q0 184 123 304t312 120q188 0 311 -120t123 -304q0 -123 -78 -232q68 -70 92 -114q63 -106 64 -248q0 -215 -146.5 -359.5t-365.5 -144.5t-366.5 144.5t-147.5 361.5zM420 461q0 -70 45 -117t113 -47t112.5 46t44.5 114 q0 66 -46 112.5t-111 46.5q-66 0 -112 -44.5t-46 -110.5zM475 1055q0 -45 30 -76t73 -31q41 0 71.5 32t30.5 75t-29.5 72.5t-72.5 29.5q-41 0 -72 -29.5t-31 -72.5z" />
<glyph unicode="9" d="M35 928q0 231 159.5 394t389.5 163q223 0 389 -161t166 -380q0 -100 -78 -315l-242 -670l-381 135l283 789q12 37 12 61q0 57 -42 99t-101 42q-57 0 -99 -40.5t-42 -102.5q0 -59 41.5 -101t97.5 -42q4 0 43 4l-172 -416q-164 72 -248 143q-176 148 -176 398z" />
<glyph unicode=":" horiz-adv-x="819" d="M158 225q0 102 73.5 176t176.5 74q104 0 179 -74.5t75 -179.5q0 -104 -75 -177t-181 -73q-109 0 -178.5 71.5t-69.5 182.5zM158 829q0 102 73.5 176t176.5 74q104 0 179 -74.5t75 -179.5q0 -104 -75 -177t-181 -73q-109 0 -178.5 71.5t-69.5 182.5z" />
<glyph unicode=";" horiz-adv-x="819" d="M158 829q0 102 73.5 176t176.5 74q104 0 179 -74.5t75 -179.5q0 -104 -75 -177t-181 -73q-109 0 -178.5 71.5t-69.5 182.5zM166 213q0 106 71.5 179t174.5 73q104 0 173.5 -73t69.5 -181q0 -119 -84 -217q-63 -74 -168 -105v78q-106 6 -171.5 75t-65.5 171z" />
<glyph unicode="&#x3c;" horiz-adv-x="1085" d="M72 573v324l940 512v-385l-533 -291l531 -293l2 -381z" />
<glyph unicode="=" d="M66 422v266h1026v-266h-1026zM66 791v266h1026v-266h-1026z" />
<glyph unicode="&#x3e;" horiz-adv-x="1085" d="M72 59v385l532 291l-530 291l-2 383l940 -514v-322z" />
<glyph unicode="?" horiz-adv-x="1150" d="M102 973q0 162 59.5 270.5t174.5 175t246 66.5q199 0 334 -132t135 -325q0 -246 -195 -342q-63 -31 -77.5 -57.5t-14.5 -98.5h-393v68q0 158 41 217q37 51 168 111q82 37 82 98q0 39 -27 66.5t-64 27.5q-100 0 -102 -145h-367zM326 225q0 102 73.5 176t175.5 74 q104 0 179 -74.5t75 -179.5q0 -104 -74.5 -177t-181.5 -73q-109 0 -178 71.5t-69 182.5z" />
<glyph unicode="@" horiz-adv-x="1622" d="M82 713q0 328 218 546t546 218q301 0 498.5 -181.5t197.5 -457.5q0 -209 -126 -347.5t-316 -138.5q-100 0 -163 38t-63 102q0 23 15 75l39 154q4 16 4 39q0 88 -86 88q-49 0 -88 -40t-39 -91q0 -68 67 -68q29 0 56 10l-94 -262q-39 -6 -60 -6q-113 0 -181.5 69.5 t-68.5 184.5q0 190 139.5 330.5t329.5 140.5q133 0 214 -69.5t81 -182.5q0 -41 -14 -102l-33 -127q-12 -53 -12 -78q0 -49 47 -49q72 0 130 103.5t58 228.5q0 211 -146.5 342t-379.5 131q-254 0 -418 -168q-172 -178 -172 -436t159 -416t458 -158q184 0 385 70l41 -166 q-207 -68 -431 -68q-356 0 -563 195q-229 209 -229 547z" />
<glyph unicode="A" horiz-adv-x="1284" d="M115 0v920q0 215 88 346q145 219 469 219q285 0 409 -176q86 -123 86 -373v-936h-430v907q0 78 -14 107q-23 43 -78 43q-100 0 -100 -150v-180h123v-381h-123v-346h-430z" />
<glyph unicode="B" horiz-adv-x="1239" d="M145 0v1448h527q465 0 465 -369q0 -180 -160 -303q231 -100 231 -362q0 -221 -166 -336q-113 -78 -317 -78h-82v371h74q117 0 117 75q0 70 -109 70h-82v387q119 2 119 80q0 76 -109 76h-78v-1059h-430z" />
<glyph unicode="C" horiz-adv-x="1632" d="M59 719q0 324 222.5 545t545.5 221q362 0 580 -266q113 -139 164 -367l-459 -33q-78 238 -295 238q-137 0 -227 -95.5t-90 -240.5t89 -237.5t226 -92.5q133 0 214 82t95 236l453 -15q-45 -346 -242.5 -538.5t-511.5 -192.5q-328 0 -546 216t-218 540z" />
<glyph unicode="D" horiz-adv-x="1587" d="M145 0v1448h564q311 0 510 -119q150 -92 231.5 -246.5t81.5 -347.5q0 -209 -98.5 -385t-270.5 -270q-162 -88 -389 -88q2 0 -127 4v426h70q186 0 270 65q104 86 105 248q0 150 -95 230q-86 70 -274 69h-148v-1034h-430z" />
<glyph unicode="E" horiz-adv-x="1044" d="M115 442v570q0 209 119.5 322.5t334.5 113.5h375v-414h-276q-111 0 -111 -73q0 -78 123 -78h235v-324h-280q-55 0 -80 -14q-25 -23 -25 -60t29 -59q20 -12 94 -12h291v-414h-338q-231 0 -356 111q-135 118 -135 331z" />
<glyph unicode="F" horiz-adv-x="1044" d="M115 0v899q0 254 155.5 420t393.5 166q264 0 438 -228l-352 -256q-29 82 -101 82q-104 0 -104 -139v-178h143v-389h-143v-377h-430z" />
<glyph unicode="G" horiz-adv-x="1329" d="M59 731q0 319 208 536.5t515 217.5q119 0 246 -43v-432q-100 47 -186 47q-152 0 -247 -95.5t-95 -244.5q0 -152 89 -243t236 -91q102 0 103 55q0 43 -64 43h-104v328h409q133 -164 134 -346q0 -213 -156 -356.5t-385 -143.5q-293 0 -498 224.5t-205 543.5z" />
<glyph unicode="H" horiz-adv-x="1343" d="M145 0v1448h430v-518h119v-383h-119v-547h-430zM768 0v1448h430v-1448h-430z" />
<glyph unicode="I" horiz-adv-x="716" d="M145 0v1448h430v-1448h-430z" />
<glyph unicode="J" horiz-adv-x="659" d="M-14 -10v413q37 -12 57 -12q86 0 86 137v920h428v-977q0 -219 -124 -363.5t-314 -144.5q-55 0 -133 27z" />
<glyph unicode="K" horiz-adv-x="1398" d="M145 0v1448h430v-1448h-430zM588 799l373 649h440l-381 -657l381 -791h-486z" />
<glyph unicode="L" horiz-adv-x="727" d="M115 518v930h430v-860q0 -111 43 -144q35 -25 139 -24v-420h-115q-221 0 -354 129q-143 137 -143 389z" />
<glyph unicode="M" horiz-adv-x="1761" d="M115 0v1044q0 180 94 291q125 150 328 150q225 0 344 -207q133 207 360 207q221 0 324 -154q80 -121 80 -323v-1008h-428v942q0 59 -7 76q-10 39 -51 39q-63 0 -63 -109v-948h-430v942q0 57 -7 76q-10 39 -51 39q-63 0 -63 -115v-942h-430z" />
<glyph unicode="N" horiz-adv-x="1277" d="M115 0v940q0 248 147.5 396.5t394.5 148.5q285 0 416 -197q88 -135 88 -362v-926h-430v926q0 131 -90 131q-96 0 -96 -131v-926h-430z" />
<glyph unicode="O" horiz-adv-x="1634" d="M59 723q0 322 224.5 542t547.5 220q307 0 527.5 -224.5t220.5 -539.5q0 -313 -222 -535.5t-534 -222.5q-317 0 -540.5 222.5t-223.5 537.5zM500 725q0 -139 93 -236.5t226 -97.5q131 0 224.5 96.5t93.5 235.5t-92.5 236.5t-221.5 97.5q-135 0 -229 -96.5t-94 -235.5z" />
<glyph unicode="P" horiz-adv-x="1218" d="M115 0v901q0 256 125 397q162 186 426 187q223 0 372.5 -148.5t149.5 -371.5q0 -242 -168 -373q-119 -92 -338 -92h-66v379q131 2 132 98q0 96 -99 96q-104 0 -104 -129v-944h-430z" />
<glyph unicode="Q" horiz-adv-x="1634" d="M59 727q0 317 223.5 537.5t544.5 220.5q311 0 530.5 -218t219.5 -532q0 -307 -195 -524q-137 -154 -360 -217v-127h-410v127q-221 57 -360 217q-193 217 -193 516zM500 719q0 -164 127 -273v164h381v-164q127 109 127 273q0 139 -93.5 238.5t-222.5 99.5 q-133 0 -226 -99.5t-93 -238.5z" />
<glyph unicode="R" horiz-adv-x="1296" d="M145 0v1448h551q252 0 391 -125q154 -139 154 -356q0 -223 -190 -369l247 -598h-452l-207 467v371h35q133 0 133 114q0 61 -49 90q-33 14 -107 15h-76v-1057h-430z" />
<glyph unicode="S" horiz-adv-x="894" d="M72 12v418q61 -39 112 -39q55 0 92 33t37 80q0 31 -61 139q-96 168 -96 334q0 211 144 359.5t349 148.5q94 0 176 -31v-412q-53 14 -73 15q-49 0 -83 -36t-34 -85q0 -45 70 -170q90 -154 90 -291q0 -217 -148.5 -364.5t-367.5 -147.5q-107 0 -207 49z" />
<glyph unicode="T" horiz-adv-x="1116" d="M14 1034v414h1088v-414h-328v-1034h-428v1034h-332z" />
<glyph unicode="U" horiz-adv-x="1277" d="M115 522v926h430v-926q0 -131 92 -131q94 0 94 131v926h430v-940q0 -248 -147.5 -396.5t-395.5 -148.5q-285 0 -413 197q-90 135 -90 362z" />
<glyph unicode="V" horiz-adv-x="1132" d="M-72 1448h498l131 -451l148 451h481l-631 -1530z" />
<glyph unicode="W" horiz-adv-x="1761" d="M115 440v1008h430v-942q0 -59 4 -76q10 -39 53 -39q61 0 62 109v948h430v-942q0 -57 6 -76q12 -39 53 -39q63 0 64 115v942h428v-1042q0 -182 -93 -293q-127 -150 -327 -150q-225 0 -346 207q-131 -207 -361 -207q-221 0 -323 154q-80 122 -80 323z" />
<glyph unicode="X" horiz-adv-x="1079" d="M-72 0l398 731l-375 717h446l170 -328l133 328h443l-377 -703l389 -745h-455l-174 352l-153 -352h-445z" />
<glyph unicode="Y" horiz-adv-x="1091" d="M-86 1448h436l187 -299l198 299h428l-407 -645v-803h-430v803z" />
<glyph unicode="Z" horiz-adv-x="1122" d="M0 1034v414h1124l-450 -1034h444v-414h-1091l446 1034h-473z" />
<glyph unicode="[" horiz-adv-x="796" d="M98 -276v1724h602v-260h-264v-1202h264v-262h-602z" />
<glyph unicode="\" horiz-adv-x="751" d="M102 1448h193l395 -1724h-192z" />
<glyph unicode="]" horiz-adv-x="796" d="M98 -14h264v1202h-264v260h602v-1724h-602v262z" />
<glyph unicode="^" horiz-adv-x="1085" d="M20 739l310 717h428l311 -717h-340l-184 457l-187 -457h-338z" />
<glyph unicode="_" horiz-adv-x="1085" d="M0 -111h1085v-225h-1085v225z" />
<glyph unicode="`" horiz-adv-x="1085" d="M231 1409h252l226 -246h-226z" />
<glyph unicode="a" horiz-adv-x="1275" d="M59 528q0 231 161 391t396 160q152 0 278 -66.5t193 -181.5q74 -127 74 -313v-518h-397v487q0 186 -152 187q-63 0 -107 -47t-44 -113q0 -63 42 -104t105 -41q47 0 94 28v-409q-51 -10 -88 -11q-238 0 -396.5 157.5t-158.5 393.5z" />
<glyph unicode="b" horiz-adv-x="1255" d="M94 567v881h398v-866q0 -213 153 -213q63 0 108.5 45t45.5 106q0 63 -43 108.5t-105 45.5q-41 0 -100 -37v436q86 6 106 6q223 0 383 -161.5t160 -387.5q0 -231 -161.5 -392t-391.5 -161q-137 0 -260 61.5t-194 168.5q-99 147 -99 360z" />
<glyph unicode="c" horiz-adv-x="1214" d="M59 532q0 227 161 387t390 160q197 0 349.5 -125t189.5 -317l-401 -16q-55 68 -134 67q-68 0 -110.5 -44t-42.5 -114q0 -68 46 -114.5t114 -46.5q100 0 143 116l393 17q-18 -227 -170.5 -376t-374.5 -149q-229 0 -391 162t-162 393z" />
<glyph unicode="d" horiz-adv-x="1255" d="M59 528q0 225 161 388t384 163q18 0 105 -6v-436q-51 37 -99 37q-61 0 -105 -46t-44 -110q0 -61 45 -105t112 -44q147 0 148 213v866h397v-881q0 -242 -127 -395q-162 -195 -424 -195q-229 0 -391 161t-162 390z" />
<glyph unicode="e" horiz-adv-x="1202" d="M59 530q0 231 162 391t395 160q229 0 386 -156.5t157 -381.5q0 -43 -2 -78h-604q-12 55 -12 88q0 51 18 100h201q-23 117 -133 117q-74 0 -120 -62.5t-46 -162.5q0 -104 45 -167t119 -63q61 0 112 58l230 -271q-166 -125 -351 -125q-236 0 -396.5 158.5t-160.5 394.5z " />
<glyph unicode="f" horiz-adv-x="745" d="M115 0v897q0 176 73.5 299t199.5 197.5t263 74.5q23 0 37 -2v-415h-20q-61 0 -108.5 -44t-47.5 -149v-37h176v-415h-176v-406h-397z" />
<glyph unicode="g" horiz-adv-x="1251" d="M59 541q0 225 161 381.5t392 156.5q137 0 257 -59t182 -158q84 -137 84 -368v-349q0 -266 -144 -438q-164 -199 -426 -199q-84 0 -207 41v359q80 -43 156 -43q223 0 223 274v398q0 164 -129 163q-61 0 -104 -42t-43 -103q0 -57 42 -96t105 -39q33 0 74 16v-364 q-84 -31 -160 -31q-197 0 -330 143.5t-133 356.5z" />
<glyph unicode="h" horiz-adv-x="1161" d="M115 0v1448h397v-442q100 74 203 73q184 0 274 -161q55 -96 55 -246v-672h-397v559q0 63 -8 82q-18 33 -57 33q-70 0 -70 -99v-575h-397z" />
<glyph unicode="i" horiz-adv-x="628" d="M115 0v1057h397v-1057h-397zM117 1335q0 80 58 136.5t142 56.5q80 0 137.5 -57.5t57.5 -135.5q0 -80 -56.5 -133t-140.5 -53q-88 0 -143 52t-55 134z" />
<glyph unicode="j" horiz-adv-x="770" d="M-145 -78q104 -45 170 -45q233 0 233 344v836h397v-891q0 -281 -133 -447q-168 -211 -461 -211q-88 0 -206 37v377zM248 1335q0 80 58.5 136.5t139.5 56.5q82 0 139.5 -57.5t57.5 -135.5q0 -80 -56.5 -133t-142.5 -53t-141 52t-55 134z" />
<glyph unicode="k" horiz-adv-x="1169" d="M115 0v1448h397v-1448h-397zM526 690l183 367h411l-194 -383l288 -674h-440z" />
<glyph unicode="l" horiz-adv-x="626" d="M115 0v1448h397v-1448h-397z" />
<glyph unicode="m" horiz-adv-x="1681" d="M115 0v651q0 180 120.5 304t299.5 124q166 0 307 -147q158 147 317 147q96 0 188.5 -48t143.5 -124q74 -109 74 -301v-606h-398v571q0 117 -61 117q-66 0 -66 -119v-569h-397v571q0 117 -65 117q-66 0 -66 -119v-569h-397z" />
<glyph unicode="n" horiz-adv-x="1173" d="M115 0v590q0 205 137 347t334 142q254 0 387 -194q84 -123 84 -328v-557h-398v598q0 90 -71 90q-76 0 -76 -90v-598h-397z" />
<glyph unicode="o" horiz-adv-x="1212" d="M49 530q0 231 164 390t403 159q225 0 385 -161.5t160 -391.5q0 -227 -162.5 -388t-390.5 -161q-231 0 -395 162t-164 391zM451 530q0 -68 46 -114.5t109 -46.5q61 0 107.5 47t46.5 112q0 66 -44 113t-108 47q-66 0 -111.5 -45t-45.5 -113z" />
<glyph unicode="p" horiz-adv-x="1255" d="M94 -391v883q0 240 127 393q162 195 426 194q229 0 391 -160.5t162 -388.5q0 -227 -160.5 -390t-384.5 -163q-18 0 -104 9v436q51 -37 98 -37q61 0 105.5 45t44.5 109q0 63 -45 106t-111 43q-152 0 -151 -213v-866h-398z" />
<glyph unicode="q" horiz-adv-x="1255" d="M59 530q0 227 162 388t391 161q135 0 257 -62.5t194 -164.5q100 -150 100 -360v-883h-397v866q0 213 -152 213q-63 0 -108 -44t-45 -105q0 -63 44 -108.5t105 -45.5q45 0 99 37v-436q-86 -8 -107 -9q-219 0 -381 164t-162 389z" />
<glyph unicode="r" horiz-adv-x="696" d="M115 0v578q0 227 125 364t335 137q45 0 119 -10v-426q-41 23 -73 23q-109 0 -109 -164v-502h-397z" />
<glyph unicode="s" horiz-adv-x="790" d="M14 -29v420h19q96 0 136 40t46 140.5t14 155.5q25 145 139.5 230t288.5 85h119v-417q-82 -2 -114.5 -35t-38.5 -121q-14 -178 -97 -301q-94 -139 -258 -178q-63 -18 -198 -19h-56z" />
<glyph unicode="t" horiz-adv-x="727" d="M72 578v870h397v-406h178v-419h-178q0 -121 35 -164q45 -57 143 -58h6v-415h-45q-143 0 -270 71.5t-196.5 193.5t-69.5 327z" />
<glyph unicode="u" horiz-adv-x="1173" d="M115 483v559h397v-598q0 -90 72 -90q76 0 75 90v598h398v-591q0 -203 -136.5 -345.5t-334.5 -142.5q-252 0 -385 195q-86 124 -86 325z" />
<glyph unicode="v" horiz-adv-x="835" d="M-72 1057h377l115 -285l123 285h366l-491 -1098z" />
<glyph unicode="w" horiz-adv-x="1681" d="M115 436v606h397v-569q0 -119 63 -119q68 0 68 119v569h397v-569q0 -119 62 -119q66 0 65 119v569h398v-651q0 -180 -120 -304t-296 -124q-168 0 -309 150q-156 -150 -318 -150q-96 0 -188 48t-146 126q-73 109 -73 299z" />
<glyph unicode="x" horiz-adv-x="1144" d="M102 0v283q0 98 36 158.5t122 113.5q-88 59 -123 121.5t-35 163.5v217h398v-266q0 -96 75 -97q74 0 74 97v266h398v-232q0 -182 -132 -270q131 -88 132 -258v-297h-398v319q0 109 -76 109q-74 0 -73 -94v-334h-398z" />
<glyph unicode="y" horiz-adv-x="1163" d="M102 393v664h398v-570q0 -94 78 -94q74 0 73 105v559h398v-944q0 -262 -150 -426q-178 -193 -426 -193q-111 0 -221 41v346q76 -33 143 -33q190 0 248 218q-100 -63 -197 -64q-154 0 -249 108.5t-95 282.5z" />
<glyph unicode="z" horiz-adv-x="1073" d="M14 643v414h985l-325 -643h373v-414h-1018l321 643h-336z" />
<glyph unicode="{" horiz-adv-x="796" d="M74 459v276q59 12 84.5 49t25.5 105v282q0 164 73 227.5t257 63.5l59 -2q72 0 150 -2v-268h-47q-96 0 -121 -19q-33 -23 -33 -118v-211q0 -125 -41 -187q-16 -27 -80 -69q70 -45 95.5 -99.5t25.5 -156.5v-217q0 -92 25.5 -115t134.5 -23h41v-260l-191 -8q-147 6 -186 19 q-162 55 -162 274v285q1 151 -110 174z" />
<glyph unicode="|" horiz-adv-x="1085" d="M348 -362v1810h389v-1810h-389z" />
<glyph unicode="}" horiz-adv-x="796" d="M74 -20h47q96 0 121 18q33 25 32 119v211q0 127 41 186q16 27 80 70q-70 45 -95.5 99t-25.5 157v217q0 94 -25.5 115.5t-133.5 21.5h-41v262h67l123 6q109 8 187 -18q162 -53 161 -275v-284q0 -152 111 -172v-279q-61 -10 -86 -46t-25 -105v-283q0 -166 -72.5 -229.5 t-256.5 -63.5q-23 0 -142 4q-18 0 -67 2v267z" />
<glyph unicode="~" horiz-adv-x="1447" d="M201 1331q123 317 334 318q68 0 241 -70q123 -49 154 -49q72 0 139 123l184 -156q-70 -170 -147.5 -241.5t-194.5 -71.5q-70 0 -243 71q-104 43 -150 43q-68 0 -133 -124z" />
<glyph unicode="&#xa1;" horiz-adv-x="935" d="M217 829q0 104 75 177t181 73q109 0 178.5 -71.5t69.5 -182.5q0 -102 -74 -176t-176 -74q-104 0 -179 75t-75 179zM264 -397l10 899h375l23 -899h-408z" />
<glyph unicode="&#xa2;" d="M231 680q0 258 226 420v342h362v-262q63 -14 103 -33v-301q-51 18 -80 18q-74 0 -126 -52t-52 -126t53 -127t127 -53q27 0 78 14v-305l-31 -10q-39 -14 -72 -21v-184h-362v262q-226 160 -226 418z" />
<glyph unicode="&#xa3;" d="M74 0l129 358q41 113 49 146q14 49 18 96h-94v197h64q-53 111 -54 225q0 186 132.5 320.5t320.5 134.5q184 0 315 -128t131 -307q0 -25 -2 -43h-352q2 6 2 15q0 84 -74 84q-37 0 -61.5 -30t-24.5 -71q0 -43 29 -106q10 -25 21 -53q2 -6 16 -41h221v-197h-215 q-2 -66 -41 -192h408v-408h-938z" />
<glyph unicode="&#xa4;" horiz-adv-x="1515" d="M76 629l82 194h110q43 293 254 477.5t510 184.5q219 0 408 -115l-187 -426q-92 113 -233 113q-111 0 -190.5 -62.5t-112.5 -171.5h487l-82 -194h-407q29 -111 109.5 -174.5t193.5 -63.5q152 0 242 113v-506q-113 -35 -234 -35q-301 0 -512 184.5t-248 481.5h-190z" />
<glyph unicode="&#xa5;" horiz-adv-x="1163" d="M0 1448h436l144 -297l155 297h428l-309 -543h119v-203h-174v-88h174v-202h-174v-412h-430v412h-174v202h174v88h-174v203h118z" />
<glyph unicode="&#xa6;" horiz-adv-x="1085" d="M348 332h389v-694h-389v694zM348 668v780h389v-780h-389z" />
<glyph unicode="&#xa7;" horiz-adv-x="1112" d="M66 -88l215 229q170 -154 258 -153q37 0 64.5 18.5t27.5 40.5q0 35 -66 70q-49 23 -96 41q-186 84 -260 145q-127 111 -127 279q0 193 180 307q-137 111 -137 246q0 147 128 248.5t314 101.5q252 0 441 -187l-187 -215q-125 104 -223 105q-80 0 -80 -60q0 -33 49 -55 q6 -4 76 -31q221 -86 314.5 -185t93.5 -251q0 -186 -158 -305q129 -109 129 -260q0 -158 -131 -262.5t-334 -104.5q-280 0 -491 238zM487 600q0 -33 25 -57.5t57 -24.5q35 0 58.5 24.5t23.5 57.5q0 31 -23.5 55.5t-56.5 24.5q-35 0 -59.5 -22.5t-24.5 -57.5z" />
<glyph unicode="&#xa8;" horiz-adv-x="1085" d="M78 1341q0 76 59.5 130.5t145.5 54.5q82 0 139 -54.5t57 -130.5q0 -78 -61.5 -137t-141.5 -59q-82 0 -140 58t-58 138zM608 1339q0 76 59.5 130.5t143.5 54.5t141.5 -54.5t57.5 -130.5q0 -78 -62.5 -137t-142.5 -59t-138.5 58t-58.5 138z" />
<glyph unicode="&#xa9;" horiz-adv-x="1622" d="M51 729q0 315 226.5 535.5t547.5 220.5q303 0 524.5 -224.5t221.5 -535.5q0 -315 -222.5 -538.5t-537.5 -223.5t-537.5 223.5t-222.5 542.5zM174 729q0 -268 186.5 -456.5t450.5 -188.5q266 0 452.5 188.5t186.5 452.5q0 258 -185.5 448.5t-441.5 190.5q-289 0 -485 -213 q-164 -180 -164 -422zM369 727q0 184 130 309t322 125q205 0 334 -145q66 -76 98 -205l-276 -16q-41 119 -162 118q-82 0 -133 -52t-51 -134q0 -80 50 -131t130 -51q158 0 174 157l268 -6q-25 -190 -139.5 -294.5t-294.5 -104.5q-195 0 -322.5 123t-127.5 307z" />
<glyph unicode="&#xaa;" horiz-adv-x="825" d="M49 897q0 141 101.5 236.5t248.5 95.5q156 0 248 -91t92 -245v-313h-254v294q0 106 -88 107q-37 0 -64.5 -26.5t-27.5 -63.5t25.5 -61.5t62.5 -24.5q25 0 49 14v-248q-20 -4 -47 -4q-145 0 -245.5 94.5t-100.5 235.5z" />
<glyph unicode="&#xab;" horiz-adv-x="808" d="M86 508l152 371h202l-151 -371l151 -354h-202zM369 508l153 371h201l-152 -371l152 -354h-201z" />
<glyph unicode="&#xac;" horiz-adv-x="1085" d="M72 303v340h940v-643h-377v303h-563z" />
<glyph unicode="&#xad;" horiz-adv-x="483" d="M0 502v280h483v-280h-483z" />
<glyph unicode="&#xae;" horiz-adv-x="1622" d="M51 729q0 315 226.5 535.5t547.5 220.5q303 0 524.5 -224.5t221.5 -535.5q0 -315 -222.5 -538.5t-537.5 -223.5t-537.5 223.5t-222.5 542.5zM174 729q0 -268 186.5 -456.5t450.5 -188.5q266 0 452.5 188.5t186.5 452.5q0 258 -185.5 448.5t-441.5 190.5q-289 0 -485 -213 q-164 -180 -164 -422zM473 319v824h322q145 0 233 -76t88 -199q0 -125 -110 -211l145 -338h-256l-123 265v215h19q68 0 67 61q0 55 -90 55h-39v-596h-256z" />
<glyph unicode="&#xaf;" horiz-adv-x="1085" d="M0 1696v225h1085v-225h-1085z" />
<glyph unicode="&#xb0;" horiz-adv-x="851" d="M53 1110q0 156 110.5 265.5t264.5 109.5q156 0 263.5 -109.5t107.5 -267.5q0 -154 -109.5 -262.5t-261.5 -108.5q-154 0 -264.5 108.5t-110.5 264.5zM229 1112q0 -84 58.5 -144.5t138.5 -60.5q78 0 137.5 59.5t59.5 139.5q0 86 -58.5 147.5t-140.5 61.5 q-76 0 -135.5 -61.5t-59.5 -141.5z" />
<glyph unicode="&#xb1;" d="M66 0v287h1026v-287h-1026zM66 739v301h360v379h307v-379h359v-301h-359v-346h-307v346h-360z" />
<glyph unicode="&#xb2;" horiz-adv-x="763" d="M76 1163q0 127 89 217t212 90t214 -90t91 -213q0 -76 -29 -129l-108 -209h145v-251h-559l287 540q12 25 12 37q0 59 -61 59q-59 0 -60 -61q0 -27 23 -47l-111 -199q-145 90 -145 256z" />
<glyph unicode="&#xb3;" horiz-adv-x="763" d="M168 586v245q53 -35 96 -34q45 0 76 32.5t31 75.5q0 115 -166 121l61 172h-94v250h459l-139 -332q145 -100 145 -260q0 -125 -94 -212t-226 -87q-71 0 -149 29z" />
<glyph unicode="&#xb4;" horiz-adv-x="1085" d="M377 1163l225 246h252l-252 -246h-225z" />
<glyph unicode="&#xb5;" d="M115 -373v1415h397v-598q0 -90 72 -90q76 0 75 90v598h398v-591q0 -203 -136.5 -345.5t-336.5 -142.5q-63 0 -144 23v-359h-325z" />
<glyph unicode="&#x3bc;" d="M115 -373v1415h397v-598q0 -90 72 -90q76 0 75 90v598h398v-591q0 -203 -136.5 -345.5t-336.5 -142.5q-63 0 -144 23v-359h-325z" />
<glyph unicode="&#xb6;" horiz-adv-x="1622" d="M82 952q0 129 62.5 242t170.5 180q94 61 232 72q27 2 201 2h503v-1724h-202v1392h-117v-1392h-211v1181q0 190 -137 191q-55 0 -97.5 -40t-42.5 -93q0 -57 41 -98.5t95 -41.5q43 0 86 35v-393q-78 -6 -95 -6q-199 0 -344 147t-145 346z" />
<glyph unicode="&#xb7;" horiz-adv-x="819" d="M158 532q0 102 73.5 176t176.5 74q104 0 179 -75.5t75 -178.5q0 -104 -75 -176.5t-181 -72.5q-109 0 -178.5 71t-69.5 182z" />
<glyph unicode="&#xb8;" horiz-adv-x="1085" d="M301 -154q59 80 59 140q0 12 -2 24h340q-16 -213 -254 -307z" />
<glyph unicode="&#xb9;" horiz-adv-x="763" d="M258 580v868h246v-868h-246z" />
<glyph unicode="&#xba;" horiz-adv-x="786" d="M45 899q0 139 102.5 234.5t251.5 95.5q141 0 242.5 -97.5t101.5 -234.5q0 -135 -102 -232.5t-246 -97.5q-145 0 -247.5 97.5t-102.5 234.5zM301 899q0 -39 27.5 -66.5t64.5 -27.5q39 0 65.5 27.5t26.5 64.5q0 39 -26.5 65.5t-63.5 26.5q-39 0 -66.5 -26.5t-27.5 -63.5z " />
<glyph unicode="&#xbb;" horiz-adv-x="808" d="M86 154l154 372l-154 353h201l153 -353l-153 -372h-201zM369 154l151 372l-151 353h204l150 -353l-150 -372h-204z" />
<glyph unicode="&#xbc;" horiz-adv-x="1792" d="M203 580v868h243v-868h-243zM461 0l588 1448h170l-584 -1448h-174zM989 258l256 610h383v-868h-246v662l-108 -216h55v-188h-340z" />
<glyph unicode="&#xbd;" horiz-adv-x="1792" d="M203 580v868h243v-868h-243zM461 0l588 1448h170l-584 -1448h-174zM1047 584q0 127 89 217t212 90t214 -90t91 -213q0 -74 -29 -127l-108 -209h145v-252h-561l286 541q14 25 15 37q0 57 -62 57q-25 0 -43 -17.5t-18 -42.5q0 -27 25 -47l-111 -200q-145 92 -145 256z" />
<glyph unicode="&#xbe;" horiz-adv-x="1792" d="M123 586v245q55 -35 98 -34q43 0 75 32.5t32 75.5q0 115 -168 121l63 172h-94v250h459l-142 -332q145 -100 146 -260q0 -125 -93 -212t-225 -87q-71 0 -151 29zM475 0l586 1448h170l-584 -1448h-172zM1006 258l256 610h380v-868h-243v662l-109 -216h53v-188h-337z" />
<glyph unicode="&#xbf;" horiz-adv-x="1150" d="M102 23q0 246 195 342q63 31 78 61q14 23 14 92h393v-67q0 -158 -42 -214.5t-167 -111.5q-82 -33 -81 -98q0 -39 25.5 -67t64.5 -28q100 0 102 146h367q0 -164 -60 -268q-59 -111 -176 -177.5t-244 -66.5q-197 0 -333 132t-136 325zM326 829q0 104 74.5 177t181.5 73 q109 0 178 -71.5t69 -182.5q0 -102 -73.5 -176t-175.5 -74q-104 0 -179 75t-75 179z" />
<glyph unicode="&#xc0;" horiz-adv-x="1284" d="M115 0v920q0 215 88 346q145 219 469 219q285 0 409 -176q86 -123 86 -373v-936h-430v907q0 78 -14 107q-23 43 -78 43q-100 0 -100 -150v-180h123v-381h-123v-346h-430zM276 1855h297l263 -288h-263z" />
<glyph unicode="&#xc1;" horiz-adv-x="1284" d="M115 0v920q0 215 88 346q145 219 469 219q285 0 409 -176q86 -123 86 -373v-936h-430v907q0 78 -14 107q-23 43 -78 43q-100 0 -100 -150v-180h123v-381h-123v-346h-430zM494 1567l264 288h295l-295 -288h-264z" />
<glyph unicode="&#xc2;" horiz-adv-x="1284" d="M115 0v920q0 215 88 346q145 219 469 219q285 0 409 -176q86 -123 86 -373v-936h-430v907q0 78 -14 107q-23 43 -78 43q-100 0 -100 -150v-180h123v-381h-123v-346h-430zM328 1565l311 315l317 -315h-254l-63 63l-64 -63h-247z" />
<glyph unicode="&#xc3;" horiz-adv-x="1284" d="M115 0v920q0 215 88 346q145 219 469 219q285 0 409 -176q86 -123 86 -373v-936h-430v907q0 78 -14 107q-23 43 -78 43q-100 0 -100 -150v-180h123v-381h-123v-346h-430zM332 1573q27 285 203 285q47 0 151 -56q25 -14 41 -14q37 0 37 47q0 4 -2 14h188 q-6 -133 -55 -208.5t-129 -75.5q-49 0 -137 51q-41 23 -58 22q-35 0 -41 -65h-198z" />
<glyph unicode="&#xc4;" horiz-adv-x="1284" d="M115 0v920q0 215 88 346q145 219 469 219q285 0 409 -176q86 -123 86 -373v-936h-430v907q0 78 -14 107q-23 43 -78 43q-100 0 -100 -150v-180h123v-381h-123v-346h-430zM203 1729q0 78 56 133t136 55q76 0 131.5 -56.5t55.5 -131.5q0 -80 -55.5 -136.5t-133.5 -56.5 q-80 0 -135 56.5t-55 136.5zM698 1729q0 78 56.5 133t138.5 55q76 0 131 -56.5t55 -131.5q0 -80 -55 -136.5t-133 -56.5q-82 0 -137.5 56.5t-55.5 136.5z" />
<glyph unicode="&#xc5;" horiz-adv-x="1284" d="M115 0v920q0 215 88 346q145 219 469 219q285 0 409 -176q86 -123 86 -373v-936h-430v907q0 78 -14 107q-23 43 -78 43q-100 0 -100 -150v-180h123v-381h-123v-346h-430zM438 1749q0 84 60.5 143.5t148.5 59.5q80 0 139.5 -60.5t59.5 -144.5t-59.5 -143.5t-143.5 -59.5 q-86 0 -145.5 59.5t-59.5 145.5zM578 1747q0 -25 19 -44.5t46 -19.5q25 0 45.5 19.5t20.5 44.5q0 27 -20.5 46t-45.5 19q-65 1 -65 -65z" />
<glyph unicode="&#xc6;" horiz-adv-x="1656" d="M115 0v920q0 231 112 370q160 195 424 195q147 0 283 -90q88 53 240 53h382v-410h-274q-111 0 -111 -73q0 -76 115 -76h242v-324h-279q-104 0 -104 -73q0 -78 117 -78h294v-414h-831v920q0 80 -18.5 108.5t-67.5 28.5q-94 0 -94 -117v-213h114v-379h-114v-348h-430z" />
<glyph unicode="&#xc7;" horiz-adv-x="1632" d="M59 719q0 324 222.5 545t545.5 221q362 0 580 -266q113 -139 164 -367l-459 -33q-78 238 -295 238q-137 0 -227 -95.5t-90 -240.5t89 -237.5t226 -92.5q133 0 214 82t95 236l453 -15q-35 -287 -181.5 -471t-383.5 -237q-39 -260 -295 -387l-182 190q90 96 104 197 q-264 61 -422 262t-158 471z" />
<glyph unicode="&#xc8;" horiz-adv-x="1044" d="M115 442v570q0 209 119.5 322.5t334.5 113.5h375v-414h-276q-111 0 -111 -73q0 -78 123 -78h235v-324h-280q-55 0 -80 -14q-25 -23 -25 -60t29 -59q20 -12 94 -12h291v-414h-338q-231 0 -356 111q-135 118 -135 331zM227 1855h299l262 -288h-262z" />
<glyph unicode="&#xc9;" horiz-adv-x="1044" d="M115 442v570q0 209 119.5 322.5t334.5 113.5h375v-414h-276q-111 0 -111 -73q0 -78 123 -78h235v-324h-280q-55 0 -80 -14q-25 -23 -25 -60t29 -59q20 -12 94 -12h291v-414h-338q-231 0 -356 111q-135 118 -135 331zM516 1567l266 288h295l-295 -288h-266z" />
<glyph unicode="&#xca;" horiz-adv-x="1044" d="M115 442v570q0 209 119.5 322.5t334.5 113.5h375v-414h-276q-111 0 -111 -73q0 -78 123 -78h235v-324h-280q-55 0 -80 -14q-25 -23 -25 -60t29 -59q20 -12 94 -12h291v-414h-338q-231 0 -356 111q-135 118 -135 331zM295 1565l311 315l320 -315h-254l-66 63l-63 -63h-248 z" />
<glyph unicode="&#xcb;" horiz-adv-x="1044" d="M115 442v570q0 209 119.5 322.5t334.5 113.5h375v-414h-276q-111 0 -111 -73q0 -78 123 -78h235v-324h-280q-55 0 -80 -14q-25 -23 -25 -60t29 -59q20 -12 94 -12h291v-414h-338q-231 0 -356 111q-135 118 -135 331zM170 1729q0 78 56.5 133t135.5 55q76 0 131.5 -56.5 t55.5 -131.5q0 -80 -55.5 -136.5t-133.5 -56.5q-80 0 -135 56.5t-55 136.5zM666 1729q0 78 57 133t137 55q76 0 131.5 -56.5t55.5 -131.5q0 -80 -55.5 -136.5t-133.5 -56.5q-82 0 -137 56.5t-55 136.5z" />
<glyph unicode="&#xcc;" horiz-adv-x="716" d="M-6 1855h297l262 -288h-262zM145 0v1448h430v-1448h-430z" />
<glyph unicode="&#xcd;" horiz-adv-x="716" d="M145 0v1448h430v-1448h-430zM211 1567l264 288h295l-295 -288h-264z" />
<glyph unicode="&#xce;" horiz-adv-x="716" d="M45 1565l311 315l320 -315h-254l-66 63l-63 -63h-248zM145 0v1448h430v-1448h-430z" />
<glyph unicode="&#xcf;" horiz-adv-x="716" d="M-59 1731q0 74 54 127t130 53q72 0 125 -53.5t53 -126.5q0 -76 -53 -129.5t-127 -53.5q-76 0 -129 53.5t-53 129.5zM143 0v1448h430v-1448h-430zM414 1731q0 74 54 127t132 53q72 0 124 -53.5t52 -126.5q0 -76 -52 -129.5t-126 -53.5q-78 0 -131 53.5t-53 129.5z" />
<glyph unicode="&#xd0;" horiz-adv-x="1587" d="M0 578v288h145v582h560q313 0 512 -119q150 -92 231.5 -246.5t81.5 -347.5q0 -213 -98.5 -386t-270.5 -269q-162 -88 -389 -88q2 0 -127 4v426h70q184 0 270 70q104 84 105 245q0 145 -97 228q-82 70 -272 69h-146v-168h230v-288h-230v-578h-430v578h-145z" />
<glyph unicode="&#xd1;" horiz-adv-x="1277" d="M115 0v940q0 248 147.5 396.5t394.5 148.5q285 0 416 -197q88 -135 88 -362v-926h-430v926q0 131 -90 131q-96 0 -96 -131v-926h-430zM330 1573q27 285 202 285q47 0 150 -56q23 -14 41 -14q37 0 37 47v14h186q-12 -285 -184 -284q-49 0 -137 51q-41 23 -56 22 q-35 0 -41 -65h-198z" />
<glyph unicode="&#xd2;" horiz-adv-x="1634" d="M59 723q0 322 224.5 542t547.5 220q307 0 527.5 -224.5t220.5 -539.5q0 -313 -222 -535.5t-534 -222.5q-317 0 -540.5 222.5t-223.5 537.5zM451 1855h299l262 -288h-262zM500 725q0 -139 93 -236.5t226 -97.5q131 0 224.5 96.5t93.5 235.5t-92.5 236.5t-221.5 97.5 q-135 0 -229 -96.5t-94 -235.5z" />
<glyph unicode="&#xd3;" horiz-adv-x="1634" d="M59 723q0 322 224.5 542t547.5 220q307 0 527.5 -224.5t220.5 -539.5q0 -313 -222 -535.5t-534 -222.5q-317 0 -540.5 222.5t-223.5 537.5zM500 725q0 -139 93 -236.5t226 -97.5q131 0 224.5 96.5t93.5 235.5t-92.5 236.5t-221.5 97.5q-135 0 -229 -96.5t-94 -235.5z M668 1567l266 288h295l-295 -288h-266z" />
<glyph unicode="&#xd4;" horiz-adv-x="1634" d="M59 723q0 322 224.5 542t547.5 220q307 0 527.5 -224.5t220.5 -539.5q0 -313 -222 -535.5t-534 -222.5q-317 0 -540.5 222.5t-223.5 537.5zM500 725q0 -139 93 -236.5t226 -97.5q131 0 224.5 96.5t93.5 235.5t-92.5 236.5t-221.5 97.5q-135 0 -229 -96.5t-94 -235.5z M504 1565l311 315l318 -315h-254l-64 63l-63 -63h-248z" />
<glyph unicode="&#xd5;" horiz-adv-x="1634" d="M59 723q0 322 224.5 542t547.5 220q307 0 527.5 -224.5t220.5 -539.5q0 -313 -222 -535.5t-534 -222.5q-317 0 -540.5 222.5t-223.5 537.5zM500 725q0 -139 93 -236.5t226 -97.5q131 0 224.5 96.5t93.5 235.5t-92.5 236.5t-221.5 97.5q-135 0 -229 -96.5t-94 -235.5z M510 1573q27 285 203 285q47 0 149 -56q23 -14 41 -14q37 0 37 47v14h186q-12 -285 -184 -284q-49 0 -137 51q-41 23 -55 22q-35 0 -41 -65h-199z" />
<glyph unicode="&#xd6;" horiz-adv-x="1634" d="M59 723q0 322 224.5 542t547.5 220q307 0 527.5 -224.5t220.5 -539.5q0 -313 -222 -535.5t-534 -222.5q-317 0 -540.5 222.5t-223.5 537.5zM381 1729q0 78 56.5 133t135.5 55q76 0 131.5 -56.5t55.5 -131.5q0 -80 -55.5 -136.5t-133.5 -56.5q-80 0 -135 56.5t-55 136.5z M500 725q0 -139 93 -236.5t226 -97.5q131 0 224.5 96.5t93.5 235.5t-92.5 236.5t-221.5 97.5q-135 0 -229 -96.5t-94 -235.5zM877 1729q0 78 56 133t138 55q76 0 131 -56.5t55 -131.5q0 -80 -55 -136.5t-133 -56.5q-82 0 -137 56.5t-55 136.5z" />
<glyph unicode="&#xd7;" d="M45 424l315 313l-315 316l217 217l316 -316l317 316l217 -217l-315 -316l315 -313l-217 -217l-317 313l-316 -313z" />
<glyph unicode="&#xd8;" horiz-adv-x="1636" d="M59 725q0 313 222.5 536.5t535.5 223.5q279 0 496 -182l123 131l61 -62l-121 -131q203 -225 203 -518q0 -315 -224.5 -537.5t-537.5 -222.5q-266 0 -475 170l-123 -133l-67 63l122 130q-215 227 -215 532zM500 725q0 -117 73 -213l443 473q-96 72 -197 72 q-133 0 -226 -97.5t-93 -234.5zM639 449q86 -57 178 -58q131 0 225.5 97.5t94.5 236.5q0 102 -60 195z" />
<glyph unicode="&#xd9;" horiz-adv-x="1277" d="M115 522v926h430v-926q0 -131 92 -131q94 0 94 131v926h430v-940q0 -248 -147.5 -396.5t-395.5 -148.5q-285 0 -413 197q-90 135 -90 362zM270 1855h299l262 -288h-262z" />
<glyph unicode="&#xda;" horiz-adv-x="1277" d="M115 522v926h430v-926q0 -131 92 -131q94 0 94 131v926h430v-940q0 -248 -147.5 -396.5t-395.5 -148.5q-285 0 -413 197q-90 135 -90 362zM487 1567l267 288h295l-295 -288h-267z" />
<glyph unicode="&#xdb;" horiz-adv-x="1277" d="M115 522v926h430v-926q0 -131 92 -131q94 0 94 131v926h430v-940q0 -248 -147.5 -396.5t-395.5 -148.5q-285 0 -413 197q-90 135 -90 362zM324 1565l311 315l317 -315h-254l-63 63l-64 -63h-247z" />
<glyph unicode="&#xdc;" horiz-adv-x="1277" d="M115 522v926h430v-926q0 -131 92 -131q94 0 94 131v926h430v-940q0 -248 -147.5 -396.5t-395.5 -148.5q-285 0 -413 197q-90 135 -90 362zM201 1729q0 78 56 133t136 55q76 0 131.5 -56.5t55.5 -131.5q0 -80 -55.5 -136.5t-133.5 -56.5q-80 0 -135 56.5t-55 136.5z M696 1729q0 78 56.5 133t138.5 55q76 0 131 -56.5t55 -131.5q0 -80 -55 -136.5t-133 -56.5q-82 0 -137.5 56.5t-55.5 136.5z" />
<glyph unicode="&#xdd;" horiz-adv-x="1091" d="M-86 1448h436l187 -299l198 299h428l-407 -645v-803h-430v803zM397 1567l265 288h294l-294 -288h-265z" />
<glyph unicode="&#xde;" horiz-adv-x="1218" d="M115 0v1448h430v-180q66 12 119 12q225 0 374.5 -148.5t149.5 -369.5q0 -242 -168 -371q-121 -94 -338 -94h-66v381q131 0 132 96q0 94 -99 94q-104 0 -104 -125v-743h-430z" />
<glyph unicode="&#xdf;" horiz-adv-x="1232" d="M104 0v1022q0 193 134.5 324t332.5 131q193 0 324 -130t131 -323q0 -125 -76 -250q92 -61 133 -115q80 -100 80 -245q0 -184 -134 -317.5t-318 -133.5q-74 0 -148 29v340q49 -16 76 -17q55 0 94 39t39 95q0 92 -82 129q-35 14 -127 22v266h27q133 0 133 113 q0 45 -32 75.5t-81 30.5q-109 0 -108 -122v-963h-398z" />
<glyph unicode="&#xe0;" horiz-adv-x="1275" d="M59 528q0 231 161 391t396 160q152 0 278 -66.5t193 -181.5q74 -127 74 -313v-518h-397v487q0 186 -152 187q-63 0 -107 -47t-44 -113q0 -63 42 -104t105 -41q47 0 94 28v-409q-51 -10 -88 -11q-238 0 -396.5 157.5t-158.5 393.5zM330 1409h252l223 -246h-223z" />
<glyph unicode="&#xe1;" horiz-adv-x="1275" d="M59 528q0 231 161 391t396 160q152 0 278 -66.5t193 -181.5q74 -127 74 -313v-518h-397v487q0 186 -152 187q-63 0 -107 -47t-44 -113q0 -63 42 -104t105 -41q47 0 94 28v-409q-51 -10 -88 -11q-238 0 -396.5 157.5t-158.5 393.5zM473 1163l223 246h252l-252 -246h-223z " />
<glyph unicode="&#xe2;" horiz-adv-x="1275" d="M59 528q0 231 161 391t396 160q152 0 278 -66.5t193 -181.5q74 -127 74 -313v-518h-397v487q0 186 -152 187q-63 0 -107 -47t-44 -113q0 -63 42 -104t105 -41q47 0 94 28v-409q-51 -10 -88 -11q-238 0 -396.5 157.5t-158.5 393.5zM350 1159l279 285l299 -285h-250l-49 51 l-51 -51h-228z" />
<glyph unicode="&#xe3;" horiz-adv-x="1275" d="M59 528q0 231 161 391t396 160q152 0 278 -66.5t193 -181.5q74 -127 74 -313v-518h-397v487q0 186 -152 187q-63 0 -107 -47t-44 -113q0 -63 42 -104t105 -41q47 0 94 28v-409q-51 -10 -88 -11q-238 0 -396.5 157.5t-158.5 393.5zM373 1163q8 244 176 244q41 0 125 -51 q10 -8 26 -8q35 0 43 55h162q-4 -113 -51 -179.5t-127 -66.5q-41 0 -133 57q-10 6 -23 7q-33 0 -39 -58h-159z" />
<glyph unicode="&#xe4;" horiz-adv-x="1275" d="M59 528q0 231 161 391t396 160q152 0 278 -66.5t193 -181.5q74 -127 74 -313v-518h-397v487q0 186 -152 187q-63 0 -107 -47t-44 -113q0 -63 42 -104t105 -41q47 0 94 28v-409q-51 -10 -88 -11q-238 0 -396.5 157.5t-158.5 393.5zM174 1341q0 76 59.5 130.5t143.5 54.5 t141 -54.5t57 -130.5q0 -78 -62 -137t-142 -59t-138.5 58t-58.5 138zM702 1339q0 76 60.5 130.5t144.5 54.5q82 0 140.5 -54.5t58.5 -130.5q0 -78 -62.5 -137t-142.5 -59t-139.5 58t-59.5 138z" />
<glyph unicode="&#xe5;" horiz-adv-x="1275" d="M59 528q0 231 161 391t396 160q152 0 278 -66.5t193 -181.5q74 -127 74 -313v-518h-397v487q0 186 -152 187q-63 0 -107 -47t-44 -113q0 -63 42 -104t105 -41q47 0 94 28v-409q-51 -10 -88 -11q-238 0 -396.5 157.5t-158.5 393.5zM414 1356q0 84 61.5 143.5t145.5 59.5 q82 0 142 -60.5t60 -144.5t-60.5 -143.5t-144.5 -59.5t-144 59.5t-60 145.5zM553 1354q0 -25 19.5 -44.5t45.5 -19.5q27 0 46.5 19.5t19.5 44.5q0 27 -19.5 46t-46.5 19q-65 1 -65 -65z" />
<glyph unicode="&#xe6;" horiz-adv-x="1908" d="M59 522q0 229 159 393t380 164q197 0 356 -139q162 139 363 139q227 0 389 -155.5t162 -372.5q0 -10 -6 -84h-617q-14 45 -14 84q0 41 20 100h219q-27 117 -139 117q-78 0 -126 -61.5t-48 -159.5q0 -106 47 -170t123 -64q63 0 119 64l225 -271q-160 -129 -348 -129 q-72 0 -180 23h-385v483q0 92 -27 131q-39 57 -117 58q-66 0 -109.5 -46t-43.5 -110q0 -61 42 -104t105 -43q41 0 88 28v-411q-57 -8 -86 -9q-227 0 -389 160t-162 385z" />
<glyph unicode="&#xe7;" horiz-adv-x="1214" d="M59 532q0 227 161 387t390 160q197 0 349.5 -125t189.5 -317l-401 -16q-53 68 -134 67q-68 0 -110.5 -44t-42.5 -114q0 -68 46 -114.5t114 -46.5q100 0 143 116l393 17q-8 -168 -111.5 -306.5t-252.5 -187.5q-20 -211 -254 -305l-144 145q59 78 60 136v18 q-180 57 -288 201.5t-108 328.5z" />
<glyph unicode="&#xe8;" horiz-adv-x="1202" d="M59 530q0 231 162 391t395 160q229 0 386 -156.5t157 -381.5q0 -43 -2 -78h-604q-12 55 -12 88q0 51 18 100h201q-23 117 -133 117q-74 0 -120 -62.5t-46 -162.5q0 -104 45 -167t119 -63q61 0 112 58l230 -271q-166 -125 -351 -125q-236 0 -396.5 158.5t-160.5 394.5z M293 1409h252l223 -246h-223z" />
<glyph unicode="&#xe9;" horiz-adv-x="1202" d="M59 530q0 231 162 391t395 160q229 0 386 -156.5t157 -381.5q0 -43 -2 -78h-604q-12 55 -12 88q0 51 18 100h201q-23 117 -133 117q-74 0 -120 -62.5t-46 -162.5q0 -104 45 -167t119 -63q61 0 112 58l230 -271q-166 -125 -351 -125q-236 0 -396.5 158.5t-160.5 394.5z M496 1163l223 246h252l-252 -246h-223z" />
<glyph unicode="&#xea;" horiz-adv-x="1202" d="M59 530q0 231 162 391t395 160q229 0 386 -156.5t157 -381.5q0 -43 -2 -78h-604q-12 55 -12 88q0 51 18 100h201q-23 117 -133 117q-74 0 -120 -62.5t-46 -162.5q0 -104 45 -167t119 -63q61 0 112 58l230 -271q-166 -125 -351 -125q-236 0 -396.5 158.5t-160.5 394.5z M313 1159l279 285l299 -285h-250l-49 51l-51 -51h-228z" />
<glyph unicode="&#xeb;" horiz-adv-x="1202" d="M59 530q0 231 162 391t395 160q229 0 386 -156.5t157 -381.5q0 -43 -2 -78h-604q-12 55 -12 88q0 51 18 100h201q-23 117 -133 117q-74 0 -120 -62.5t-46 -162.5q0 -104 45 -167t119 -63q61 0 112 58l230 -271q-166 -125 -351 -125q-236 0 -396.5 158.5t-160.5 394.5z M137 1341q0 76 59.5 130.5t143.5 54.5t141.5 -54.5t57.5 -130.5q0 -78 -62.5 -137t-142.5 -59t-138.5 58t-58.5 138zM666 1339q0 76 60 130.5t144 54.5q82 0 140.5 -54.5t58.5 -130.5q0 -78 -62.5 -137t-142.5 -59t-139 58t-59 138z" />
<glyph unicode="&#xec;" horiz-adv-x="628" d="M4 1409h252l223 -246h-223zM115 0v1057h397v-1057h-397z" />
<glyph unicode="&#xed;" horiz-adv-x="628" d="M115 0v1057h397v-1057h-397zM147 1163l224 246h252l-252 -246h-224z" />
<glyph unicode="&#xee;" horiz-adv-x="628" d="M27 1159l278 285l299 -285h-250l-49 51l-51 -51h-227zM115 0v1057h397v-1057h-397z" />
<glyph unicode="&#xef;" horiz-adv-x="626" d="M-98 1337q0 68 53 117t129 49t127 -48t51 -118t-55 -123t-127 -53t-125 53t-53 123zM115 0v1057h397v-1057h-397zM365 1335q0 68 53 116t129 48q74 0 127 -47t53 -117t-55.5 -123t-128.5 -53q-72 0 -125 53t-53 123z" />
<glyph unicode="&#xf0;" horiz-adv-x="1212" d="M49 530q0 285 230 445q111 78 268 102l-154 371h287l291 -420q115 -164 152.5 -260t37.5 -219q0 -244 -159.5 -408t-395.5 -164t-396.5 160t-160.5 393zM451 530q0 -68 45 -114.5t108 -46.5q61 0 107.5 47t46.5 112q0 66 -45 113t-107 47q-66 0 -110.5 -45t-44.5 -113z " />
<glyph unicode="&#xf1;" horiz-adv-x="1173" d="M115 0v590q0 205 137 347t334 142q254 0 387 -194q84 -123 84 -328v-557h-398v598q0 90 -71 90q-76 0 -76 -90v-598h-397zM322 1163q6 244 176 244q41 0 123 -51q10 -8 28 -8q35 0 41 55h164q-6 -113 -52 -179.5t-126 -66.5q-41 0 -133 57q-10 6 -25 7q-33 0 -39 -58 h-157z" />
<glyph unicode="&#xf2;" horiz-adv-x="1212" d="M49 530q0 231 164 390t403 159q225 0 385 -161.5t160 -391.5q0 -227 -162.5 -388t-390.5 -161q-231 0 -395 162t-164 391zM295 1409h252l223 -246h-223zM451 530q0 -68 46 -114.5t109 -46.5q61 0 107.5 47t46.5 112q0 66 -44 113t-108 47q-66 0 -111.5 -45t-45.5 -113z " />
<glyph unicode="&#xf3;" horiz-adv-x="1212" d="M49 530q0 231 164 390t403 159q225 0 385 -161.5t160 -391.5q0 -227 -162.5 -388t-390.5 -161q-231 0 -395 162t-164 391zM440 1163l224 246h251l-251 -246h-224zM451 530q0 -68 46 -114.5t109 -46.5q61 0 107.5 47t46.5 112q0 66 -44 113t-108 47q-66 0 -111.5 -45 t-45.5 -113z" />
<glyph unicode="&#xf4;" horiz-adv-x="1212" d="M49 530q0 231 164 390t403 159q225 0 385 -161.5t160 -391.5q0 -227 -162.5 -388t-390.5 -161q-231 0 -395 162t-164 391zM317 1159l281 285l297 -285h-250l-47 51l-53 -51h-228zM451 530q0 -68 46 -114.5t109 -46.5q61 0 107.5 47t46.5 112q0 66 -44 113t-108 47 q-66 0 -111.5 -45t-45.5 -113z" />
<glyph unicode="&#xf5;" horiz-adv-x="1212" d="M49 530q0 231 164 390t403 159q225 0 385 -161.5t160 -391.5q0 -227 -162.5 -388t-390.5 -161q-231 0 -395 162t-164 391zM340 1163q8 244 176 244q41 0 125 -51q10 -8 27 -8q35 0 43 55h161q-4 -113 -51 -179.5t-127 -66.5q-41 0 -131 57q-12 6 -24 7q-33 0 -39 -58 h-160zM451 530q0 -68 46 -114.5t109 -46.5q61 0 107.5 47t46.5 112q0 66 -44 113t-108 47q-66 0 -111.5 -45t-45.5 -113z" />
<glyph unicode="&#xf6;" horiz-adv-x="1212" d="M49 530q0 231 164 390t403 159q225 0 385 -161.5t160 -391.5q0 -227 -162.5 -388t-390.5 -161q-231 0 -395 162t-164 391zM139 1341q0 76 59.5 130.5t143.5 54.5t141.5 -54.5t57.5 -130.5q0 -78 -61.5 -137t-143.5 -59q-80 0 -138.5 58t-58.5 138zM451 530 q0 -68 46 -114.5t109 -46.5q61 0 107.5 47t46.5 112q0 66 -44 113t-108 47q-66 0 -111.5 -45t-45.5 -113zM668 1339q0 76 60 130.5t144 54.5q82 0 140.5 -54.5t58.5 -130.5q0 -78 -62.5 -137t-142.5 -59t-139 58t-59 138z" />
<glyph unicode="&#xf7;" d="M66 584v309h1026v-309h-1026zM389 311q0 78 56.5 134.5t134.5 56.5t134 -57.5t56 -135.5q0 -80 -57.5 -135t-137.5 -55t-133 54t-53 138zM389 1165q0 78 56.5 134.5t132.5 56.5q78 0 135 -57.5t57 -135.5t-57.5 -133t-137.5 -55t-133 54t-53 136z" />
<glyph unicode="&#xf8;" horiz-adv-x="1212" d="M25 45l149 137q-125 160 -125 350q0 229 163 388t398 159q221 0 379 -149l139 125l62 -66l-141 -127q113 -154 112 -336q0 -227 -163.5 -388t-393.5 -161q-207 0 -366 142l-154 -139zM438 530q0 -37 23 -88l244 226q-51 35 -97 34q-70 0 -120 -50t-50 -122zM520 381 q45 -27 84 -27q70 0 119 51.5t49 124.5q0 29 -12 70z" />
<glyph unicode="&#xf9;" horiz-adv-x="1173" d="M115 483v559h397v-598q0 -90 72 -90q76 0 75 90v598h398v-591q0 -203 -136.5 -345.5t-334.5 -142.5q-252 0 -385 195q-86 124 -86 325zM276 1409h252l224 -246h-224z" />
<glyph unicode="&#xfa;" horiz-adv-x="1173" d="M115 483v559h397v-598q0 -90 72 -90q76 0 75 90v598h398v-591q0 -203 -136.5 -345.5t-334.5 -142.5q-252 0 -385 195q-86 124 -86 325zM422 1163l223 246h252l-252 -246h-223z" />
<glyph unicode="&#xfb;" horiz-adv-x="1173" d="M115 483v559h397v-598q0 -90 72 -90q76 0 75 90v598h398v-591q0 -203 -136.5 -345.5t-334.5 -142.5q-252 0 -385 195q-86 124 -86 325zM297 1159l281 285l296 -285h-249l-47 51l-52 -51h-229z" />
<glyph unicode="&#xfc;" horiz-adv-x="1173" d="M115 483v559h397v-598q0 -90 72 -90q76 0 75 90v598h398v-591q0 -203 -136.5 -345.5t-334.5 -142.5q-252 0 -385 195q-86 124 -86 325zM119 1341q0 76 60.5 130.5t144.5 54.5q82 0 139 -54.5t57 -130.5q0 -78 -61.5 -137t-141.5 -59t-139 58t-59 138zM649 1339 q0 76 59.5 130.5t145.5 54.5q82 0 139.5 -54.5t57.5 -130.5q0 -78 -61.5 -137t-143.5 -59q-80 0 -138.5 58t-58.5 138z" />
<glyph unicode="&#xfd;" horiz-adv-x="1163" d="M102 393v664h398v-570q0 -94 78 -94q74 0 73 105v559h398v-944q0 -262 -150 -426q-178 -193 -426 -193q-111 0 -221 41v346q76 -33 143 -33q190 0 248 218q-100 -63 -197 -64q-154 0 -249 108.5t-95 282.5zM418 1163l223 246h252l-252 -246h-223z" />
<glyph unicode="&#xfe;" horiz-adv-x="1255" d="M94 -391v1839h398v-391q84 23 155 22q231 0 392 -159.5t161 -389.5q0 -227 -160.5 -390t-384.5 -163q-18 0 -104 9v436q51 -37 98 -37q61 0 105.5 45t44.5 109q0 63 -45 106t-111 43q-152 0 -151 -213v-866h-398z" />
<glyph unicode="&#xff;" horiz-adv-x="1163" d="M102 393v664h398v-570q0 -94 78 -94q74 0 73 105v559h398v-944q0 -262 -150 -426q-178 -193 -426 -193q-111 0 -221 41v346q76 -33 143 -33q190 0 248 218q-100 -63 -197 -64q-154 0 -249 108.5t-95 282.5zM117 1341q0 76 60.5 130.5t144.5 54.5q82 0 139 -54.5 t57 -130.5q0 -78 -61.5 -137t-141.5 -59q-82 0 -140 58t-58 138zM647 1339q0 76 59.5 130.5t145.5 54.5q82 0 139.5 -54.5t57.5 -130.5q0 -78 -61.5 -137t-143.5 -59q-80 0 -138.5 58t-58.5 138z" />
<glyph unicode="&#x152;" horiz-adv-x="2054" d="M59 729q0 311 225.5 533.5t540.5 222.5q244 0 432 -144q78 63 137.5 85t153.5 22h406v-414h-285q-100 0 -100 -71q0 -74 106 -74h250v-322h-280q-109 0 -109 -73q0 -74 113 -74h305v-420h-363q-195 0 -334 113q-207 -150 -442 -150q-307 0 -531.5 228.5t-224.5 537.5z M500 725q0 -137 95 -235.5t228 -98.5t230.5 97.5t97.5 236.5q0 137 -94 234.5t-228 97.5q-139 0 -234 -96.5t-95 -235.5z" />
<glyph unicode="&#x153;" horiz-adv-x="1902" d="M49 522q0 236 160 396.5t393 160.5q193 0 352 -137q176 137 361 137q221 0 383 -157.5t162 -370.5q0 -29 -7 -86h-616q-12 49 -12 82q0 35 18 104h217q-18 119 -135 119q-76 0 -125 -63.5t-49 -165.5q0 -100 46 -164t120 -64q61 0 121 60l221 -271q-162 -125 -348 -125 q-188 0 -357 129q-162 -129 -354 -129q-231 0 -391 159t-160 386zM451 526q0 -68 43 -112.5t108 -44.5q66 0 109 45t43 114q0 72 -40 116t-106 44q-68 0 -112.5 -47t-44.5 -115z" />
<glyph unicode="&#x178;" horiz-adv-x="1091" d="M-86 1448h436l187 -299l198 299h428l-407 -645v-803h-430v803zM106 1729q0 78 56.5 133t136.5 55q76 0 131 -56.5t55 -131.5q0 -80 -55 -136.5t-133 -56.5q-80 0 -135.5 56.5t-55.5 136.5zM606 1729q0 78 56.5 133t136.5 55q76 0 131 -56.5t55 -131.5q0 -80 -55.5 -136.5 t-132.5 -56.5q-80 0 -135.5 56.5t-55.5 136.5z" />
<glyph unicode="&#x2c6;" horiz-adv-x="1085" d="M254 1159l281 285l296 -285h-249l-47 51l-54 -51h-227z" />
<glyph unicode="&#x2dc;" horiz-adv-x="1085" d="M279 1163q6 244 176 244q41 0 123 -51q10 -8 28 -8q35 0 41 55h162q-4 -113 -50 -179.5t-128 -66.5q-41 0 -131 57q-12 6 -25 7q-33 0 -39 -58h-157z" />
<glyph unicode="&#x2013;" horiz-adv-x="1085" d="M68 502v280h950v-280h-950z" />
<glyph unicode="&#x2014;" horiz-adv-x="1452" d="M0 502v280h1452v-280h-1452z" />
<glyph unicode="&#x2018;" horiz-adv-x="808" d="M158 1157q0 119 86 217q59 72 166 103v-76q106 -6 172.5 -75t66.5 -171q0 -106 -71.5 -179t-176.5 -73q-104 0 -173.5 72.5t-69.5 181.5z" />
<glyph unicode="&#x2019;" horiz-adv-x="808" d="M158 1225q0 106 71.5 179t176.5 73q104 0 173.5 -73t69.5 -181q0 -121 -84 -217q-61 -72 -168 -103v76q-106 6 -172.5 75t-66.5 171z" />
<glyph unicode="&#x201a;" horiz-adv-x="808" d="M158 213q0 106 71.5 179t176.5 73q104 0 173.5 -73t69.5 -181q0 -119 -84 -217q-63 -74 -168 -105v78q-106 6 -172.5 75t-66.5 171z" />
<glyph unicode="&#x201c;" horiz-adv-x="1386" d="M158 1157q0 119 86 217q59 72 166 103v-76q106 -6 172.5 -75t66.5 -171q0 -106 -71.5 -179t-176.5 -73q-104 0 -173.5 72.5t-69.5 181.5zM737 1157q0 119 86 217q59 72 166 103v-76q106 -6 173 -75t67 -171q0 -106 -72 -179t-176 -73t-174 72.5t-70 181.5z" />
<glyph unicode="&#x201d;" horiz-adv-x="1386" d="M158 1225q0 106 71.5 179t176.5 73q104 0 173.5 -73t69.5 -181q0 -121 -84 -217q-61 -72 -168 -103v76q-106 6 -172.5 75t-66.5 171zM737 1225q0 106 72 179t176 73t174 -73t70 -181q0 -121 -84 -217q-61 -72 -168 -103v76q-106 6 -173 75t-67 171z" />
<glyph unicode="&#x201e;" horiz-adv-x="1386" d="M158 213q0 106 71.5 179t176.5 73q104 0 173.5 -73t69.5 -181q0 -119 -84 -217q-63 -74 -168 -105v78q-106 6 -172.5 75t-66.5 171zM737 213q0 106 72 179t176 73t174 -73t70 -181q0 -119 -84 -217q-63 -74 -168 -105v78q-106 6 -173 75t-67 171z" />
<glyph unicode="&#x2022;" horiz-adv-x="1447" d="M426 733q0 127 88 215t215 88q123 0 210 -89t87 -214q0 -123 -87 -211t-212 -88t-213 88t-88 211z" />
<glyph unicode="&#x2026;" horiz-adv-x="2463" d="M158 225q0 102 73.5 176t176.5 74q104 0 179 -74.5t75 -179.5q0 -104 -75 -177t-181 -73q-109 0 -178.5 71.5t-69.5 182.5zM979 225q0 102 73.5 176t176.5 74q104 0 179 -74.5t75 -179.5q0 -104 -75 -177t-181 -73q-109 0 -178.5 71.5t-69.5 182.5zM1802 225 q0 102 74 176t176 74q104 0 179 -74.5t75 -179.5q0 -104 -74.5 -177t-181.5 -73q-109 0 -178.5 71.5t-69.5 182.5z" />
<glyph unicode="&#x2039;" horiz-adv-x="526" d="M86 508l152 371h202l-151 -371l151 -354h-202z" />
<glyph unicode="&#x203a;" horiz-adv-x="526" d="M86 154l154 372l-154 353h205l149 -353l-149 -372h-205z" />
<glyph unicode="&#x20ac;" horiz-adv-x="1515" d="M76 629l82 194h110q43 293 254 477.5t510 184.5q219 0 408 -115l-187 -426q-92 113 -233 113q-111 0 -190.5 -62.5t-112.5 -171.5h487l-82 -194h-407q29 -111 109.5 -174.5t193.5 -63.5q152 0 242 113v-506q-113 -35 -234 -35q-301 0 -512 184.5t-248 481.5h-190z" />
<glyph unicode="&#x2122;" horiz-adv-x="1669" d="M4 1206v242h639v-242h-192v-583h-256v583h-191zM713 623v591q0 113 69.5 183.5t178.5 70.5q127 0 198 -114q76 115 211 114q236 0 236 -274v-571h-256v534q0 63 -27 64q-35 0 -35 -60v-538h-256v534q0 47 -14 60q-4 4 -17 4q-33 0 -32 -64v-534h-256z" />
<glyph unicode="&#xe000;" horiz-adv-x="1055" d="M0 1055h1055v-1055h-1055v1055z" />
<glyph unicode="&#xfb01;" horiz-adv-x="1376" d="M863 0v1057h397v-1057h-397zM865 1335q0 80 58 136.5t142 56.5q80 0 137.5 -57.5t57.5 -135.5q0 -80 -56.5 -133t-140.5 -53q-88 0 -143 52t-55 134zM115 0v897q0 176 73.5 299t199.5 197.5t263 74.5q23 0 37 -2v-415h-20q-61 0 -108.5 -44t-47.5 -149v-37h176v-415h-176 v-406h-397z" />
<glyph unicode="&#xfb02;" horiz-adv-x="1372" d="M863 0v1448h397v-1448h-397zM115 0v897q0 176 73.5 299t199.5 197.5t263 74.5q23 0 37 -2v-415h-20q-61 0 -108.5 -44t-47.5 -149v-37h176v-415h-176v-406h-397z" />
<glyph unicode="&#xfb03;" horiz-adv-x="1798" d="M115 0v897q0 180 71 299q66 109 196 190.5t236 81.5q16 0 33 -2v-417q-78 -16 -108.5 -59.5t-30.5 -131.5v-37h186v76q0 180 72 299q66 109 196 190.5t236 81.5q18 0 35 -2v-417q-80 -16 -110.5 -59.5t-30.5 -131.5v-37h133v-415h-133v-406h-398v406h-186v-406h-397z M1282 0v1057h397v-1057h-397zM1315 1305q0 76 54 128t136 52q78 0 135.5 -53.5t57.5 -126.5q0 -78 -56.5 -131.5t-138.5 -53.5t-135 52.5t-53 132.5z" />
<glyph unicode="&#xfb04;" horiz-adv-x="1796" d="M115 0v897q0 180 71 299q66 109 196 190.5t236 81.5q16 0 33 -2v-417q-78 -16 -108.5 -59.5t-30.5 -131.5v-37h186v76q0 231 127 373q174 197 379 196h25v-417q-74 -16 -103.5 -59.5t-29.5 -131.5v-37h133v-415h-133v-406h-398v406h-186v-406h-397zM1282 0v1448h397 v-1448h-397z" />
</font>
</defs>
</svg>
